<?xml version="1.0" encoding="UTF-8"?>
<svg id="Layer_2" data-name="Layer 2" xmlns="http://www.w3.org/2000/svg" viewBox="0 0 831.50865 657.69778">
  <defs>
    <style>
      .cls-1 {
        stroke-width: 5px;
      }

      .cls-1, .cls-2 {
        fill: none;
      }

      .cls-1, .cls-2, .cls-3 {
        stroke: #000;
        stroke-linecap: round;
        stroke-linejoin: round;
      }

      .cls-2, .cls-3 {
        stroke-width: 3px;
      }

      .cls-3, .cls-4 {
        fill: #575b72;
      }

      .cls-5 {
        fill: #ffe100;
      }

      .cls-6 {
        fill: #ff37ce;
      }

      .cls-7 {
        fill: #fff;
      }

      .cls-8 {
        fill: #95ebf2;
      }
    </style>
  </defs>
  <g id="_Итог" data-name="Итог">
    <g>
      <g>
        <path class="cls-7" d="M183.01099,436.93169c4.38462,10.97909,4.73539,21.43202,3.78831,29.56988-1.01723,8.80432-4.94585,17.01233-11.08432,23.36126l-40.12805,41.98712-6.41908,6.73478-32.93727,34.48065c-6.20862,6.48924-8.10278,15.9951-4.73539,24.30834,2.80616,7.01539,29.18403,41.32066,39.53174,54.08868.35077.42092.56123.87692.63139,1.33292.24554,1.68369-.98215,3.40247-2.91139,3.40247H43.54498c-2.70093,0-5.29662-1.05231-7.22585-3.01662-6.94524-7.12062-15.88986-17.92433-23.1508-32.69173,0,0-8.31324-16.9071-11.36494-35.56804-1.96431-12.10155,5.40185-30.4468,21.08125-52.29975.94708-1.33292,1.92923-2.63077,2.94646-3.99877,23.2911-31.04311,62.61238-68.40008,115.33305-104.49427,3.61293-2.49046,7.29601-4.94585,11.01417-7.40124,6.27878-4.17416,14.7674-3.26216,19.81848,2.42031,3.89354,4.4197,8.03262,10.27755,11.01417,17.78402Z"/>
        <path class="cls-7" d="M390.38599,109.06732c.24554,1.368-.56123,2.66585-1.85908,3.08677-5.15631,1.64862-10.45293,3.26216-15.81971,4.91077h-.03508c-.94708.28062-1.92923.56123-2.91139.87692h-.03508c-23.57172,7.01539-49.03759,13.68002-76.29239,19.53787-.07015.03508-.17538.03508-.24554.03508l-.03508.03508c-17.25787,3.68308-33.98958,6.84001-50.12498,9.47078-7.99755-12.06648-9.04986-17.29294-15.96002-48.96744l1.96431-38.30404.07015-1.68369c.10523-2.17477,2.56062-3.36739,4.31447-2.10462l.56123.38585,28.55265,19.95879c1.57846,1.12246,3.78831.28062,4.20924-1.57846l5.47201-22.90526,11.50524-48.23082c.56123-2.24493,3.47262-2.84123,4.8757-.98215l24.86957,33.32311,26.90403,36.02404c1.29785,1.75385,4.03385,1.33292,4.77047-.70154l9.99693-27.74588,12.38217-34.37542c.94708-2.63077,4.80554-2.31508,5.29662.456l17.57356,99.47827Z"/>
        <path class="cls-7" d="M374.77675,117.41563c28.23696,5.43693,49.21298,17.85417,65.48869,35.42773-31.99019,6.17355-56.6493,32.93727-59.66591,65.94469-.24554,2.80616-2.5957,5.01601-5.40185,5.19139l-5.7877.35077c-2.5957.14031-5.01601-1.40308-5.85785-3.85847-9.85663-29.35942-37.6025-50.5459-70.25916-50.5459-28.13172,0-52.58037,15.64433-65.13792,38.72497,11.89109-30.72742,34.8665-56.36868,64.99761-71.101l.03508-.03508c.07015,0,.17538,0,.24554-.03508,27.2548-5.85785,52.72068-12.52248,76.29239-19.53787h.03508c1.64862-.21046,3.29723-.38585,4.91077-.52615h.10523Z"/>
        <path class="cls-7" d="M293.29296,190.90187c29.28926,0,53.1416,23.85233,53.1416,53.1416,0,29.32434-23.85233,53.17668-53.1416,53.17668-29.32434,0-53.1416-23.85233-53.1416-53.17668,0-29.28926,23.81726-53.1416,53.1416-53.1416Z"/>
        <path class="cls-7" d="M454.36637,172.48647c29.32434,0,53.17668,23.81726,53.17668,53.1416,0,29.28926-23.85233,53.1416-53.17668,53.1416-29.28926,0-53.1416-23.85233-53.1416-53.1416,0-29.32434,23.85233-53.1416,53.1416-53.1416Z"/>
        <path class="cls-7" d="M391.64876,323.31741c-33.35819,3.15693-65.10284,4.70031-94.95334,5.08616-3.192.03508-5.61231,2.80616-5.36678,5.96308,1.12246,13.92555,5.64739,26.69357,12.52248,37.6025,15.46894,24.58895,42.9342,39.88251,70.92562,38.26897,1.824-.07015,3.648-.24554,5.43693-.49108,7.75201-1.05231,15.2234-3.40247,22.13356-6.84001,28.02649-13.78525,47.52928-45.28436,44.89851-80.25609-.24554-3.15693-3.0517-5.47201-6.20862-5.05108-15.92494,2.20985-32.37604,4.104-49.38836,5.71754ZM293.29296,318.16109c37.84804,0,69.06654-28.37726,73.55639-64.99761.31569-2.736,2.63077-4.84062,5.40185-5.01601l6.87508-.38585c2.49046-.17538,4.8757,1.29785,5.75262,3.648,10.6634,28.69296,38.58466,49.00252,71.101,48.30098,15.01294-.31569,29.0788-5.26154,40.72435-13.46955,3.57785,14.66217,7.08555,29.78034,10.83878,45.10897,6.31385,25.78157,12.66278,51.94898,18.90648,77.6604h.03508v.03508c9.04986,37.35697,17.85417,73.73178,25.78157,106.59889,16.55633,68.68069,29.32434,121.99768,32.83204,136.58969.49108,2.03446-1.05231,3.9637-3.15693,3.9637H222.47257s-9.85663-195.6593-3.648-391.56414c1.96431.21046,3.68308,1.50831,4.34954,3.43754,9.96186,29.14896,37.6025,50.0899,70.11885,50.0899Z"/>
        <path class="cls-7" d="M704.74574,267.79057l12.10155-40.72435c5.85785,6.10339,11.36494,5.82278,16.52125-.84185l16.20556,39.2862-8.76924.456-13.64494.66646-13.64494.70154-8.76924.456Z"/>
        <path class="cls-7" d="M715.16359,470.99142l.31569,6.48924c.14031,2.77108,1.05231,5.3317,2.52554,7.47139-19.92371,32.09542-39.53174,60.2973-76.29239,66.04992-20.37972,3.192-66.57608-21.9231-89.44626-35.35758-7.92739-32.86711-16.73171-69.24192-25.78157-106.59889,11.82094,7.6117,88.88502,56.57914,103.02104,54.36929,14.13602-2.20985,43.46036-42.05728,53.70283-56.54406,2.03446-2.87631,1.85908-6.73478-.456-9.36555-6.62955-7.50647-17.67879-24.34341-4.70031-42.37297,8.31324-11.5754,19.78341-12.4874,30.69234-9.26032,3.08677.912,6.10339,2.13969,8.9797,3.57785,5.29662,2.5957,10.13724,5.7877,14.10094,8.69909,2.17477,1.61354,4.06893,3.15693,5.61231,4.45477,2.70093,2.28,3.40247,4.8757,2.52554,7.29601-.912,2.45539-3.47262,4.70031-7.22585,6.2437-3.54277,1.50831-8.17293,2.38523-13.53971,2.20985-2.736-.07015-5.71754-.38585-8.83939-1.08739l4.24431,82.78163.56123,10.94401Z"/>
        <path class="cls-7" d="M758.37841,438.12431c-.94708.03508-1.92923.07015-2.91139.10523h-.03508c-2.38523-.87692-4.34954-1.85908-5.96308-2.94646v-.03508c-7.68185-5.19139-6.94524-12.83817-1.08739-20.90587l-.28062-5.40185c12.0314,5.26154,37.53235-2.42031,37.53235-2.42031-1.368.59631-1.75385,2.38523-.73662,3.43754,6.38401,6.6997,20.59018,26.09726-26.51818,28.1668Z"/>
        <path class="cls-7" d="M748.55686,384.31624c6.6997,1.08739,18.83633,1.824,41.39082-10.59324-.84185,1.40308-.87692,3.15693.21046,4.52493,5.3317,6.76985,14.3114,19.85356-4.52493,28.27203,0,0-25.50095,7.68185-37.53235,2.42031-6.62955-2.87631-9.19016-9.68124-1.19262-23.85233v-.03508l-.07015-1.19262c.52615.21046,1.12246.35077,1.71877.456Z"/>
        <path class="cls-7" d="M785.77352,343.90758c-1.61354.70154-.17538,3.01662,1.43816,4.63016,5.12124,5.19139,11.54032,18.59079,4.104,23.7471-.59631.38585-1.05231.87692-1.368,1.43816-22.55449,12.41724-34.69112,11.68063-41.39082,10.59324-.59631-.10523-1.19262-.24554-1.71877-.456-2.94646-1.05231-5.26154-3.5077-5.99816-6.62955-.56123-2.42031-.42092-4.70031.31569-6.91016.84185-2.56062,2.45539-4.94585,4.63016-7.19078,2.31508-2.35016,5.22647-4.56001,8.45355-6.52432,12.06648-7.43632,28.23696-11.85601,31.53419-12.69786Z"/>
        <path class="cls-7" d="M830.00557,318.7574c.31569,14.27632-23.67695,21.85295-43.63574,24.9748,0,0-.21046.03508-.59631.17538-3.29723.84185-19.46771,5.26154-31.53419,12.69786l-1.71877-33.67388c19.71325-9.26032,43.49543-17.5034,64.29607-16.62648,6.91016.31569,13.01355,5.50708,13.18894,12.45232Z"/>
        <polygon points="723.33653 459.59141 734.10515 459.06525 734.14023 459.06525 736.98146 458.92495 750.6264 458.22341 759.39564 457.76741 759.95688 468.71142 715.16359 470.99142 714.60236 460.04741 723.33653 459.59141"/>
        <path d="M447.24575,322.65094c2.63077,34.97173-16.87202,66.47084-44.89851,80.25609-10.45293-21.81787-28.30711-39.14589-51.49298-35.07696,0,0-7.36616-7.05047-37.49727-.59631-3.68308.80677-6.80493,2.42031-9.47078,4.70031l-.03508.03508c-6.87508-10.90894-11.40001-23.67695-12.52248-37.6025-.24554-3.15693,2.17477-5.92801,5.36678-5.96308,29.8505-.38585,61.59515-1.92923,94.95334-5.08616,17.01233-1.61354,33.46342-3.5077,49.38836-5.71754,3.15693-.42092,5.96308,1.89416,6.20862,5.05108Z"/>
        <path d="M723.93283,203.31912l9.4357,22.90526c-5.15631,6.66462-10.6634,6.94524-16.52125.84185l7.08555-23.7471Z"/>
        <path class="cls-5" d="M719.19744,378.35316l4.13908,81.23825-8.73416.456-4.24431-82.78163c3.12185.70154,6.10339,1.01723,8.83939,1.08739Z"/>
        <path class="cls-5" d="M732.73715,376.14331l4.03385,78.88809.21046,3.85847v.03508l-2.84123.14031h-.03508l-10.76863.52615-4.13908-81.23825c5.36678.17538,9.99693-.70154,13.53971-2.20985Z"/>
        <path class="cls-5" d="M736.771,455.0314l-4.03385-78.88809c3.75324-1.54339,6.31385-3.78831,7.22585-6.2437l1.19262.42092c-.73662,2.20985-.87692,4.48985-.31569,6.91016.73662,3.12185,3.0517,5.57724,5.99816,6.62955l.07015,1.19262v.03508c-7.99755,14.17109-5.43693,20.97602,1.19262,23.85233l.28062,5.40185c-5.85785,8.0677-6.59447,15.71448,1.08739,20.90587v.03508l.14031,3.12185,1.01723,19.78341v.03508l-13.64494.70154v-.03508l-.21046-3.85847Z"/>
        <path class="cls-5" d="M755.43195,438.22954h.03508c.98215-.03508,1.96431-.07015,2.91139-.10523l1.01723,19.6431-8.76924.456v-.03508l-1.01723-19.78341-.14031-3.12185c1.61354,1.08739,3.57785,2.06954,5.96308,2.94646Z"/>
        <path class="cls-5" d="M752.52056,322.93156l1.71877,33.67388c-3.22708,1.96431-6.13847,4.17416-8.45355,6.52432l-1.85908-35.98896-3.12185-61.17422,8.76924-.456,2.94646,57.42099Z"/>
        <path class="cls-5" d="M737.43747,362.6036c-1.54339-1.29785-3.43754-2.84123-5.61231-4.45477l-1.19262-23.81726-3.47262-67.69854,13.64494-.66646,3.12185,61.17422,1.85908,35.98896c-2.17477,2.24493-3.78831,4.63016-4.63016,7.19078l-1.19262-.42092c.87692-2.42031.17538-5.01601-2.52554-7.29601Z"/>
        <path class="cls-5" d="M730.63253,334.33157l1.19262,23.81726c-3.9637-2.91139-8.80432-6.10339-14.10094-8.69909l-.38585-7.08555-3.82339-75.02962,13.64494-.70154,3.47262,67.69854Z"/>
        <path class="cls-5" d="M717.33837,342.3642l.38585,7.08555c-2.87631-1.43816-5.89293-2.66585-8.9797-3.57785l-3.99877-78.08132,8.76924-.456,3.82339,75.02962Z"/>
        <path class="cls-4" d="M227.06765,98.05315c-.14031,2.24493-2.80616,3.40247-4.52493,1.92923l-19.01171-16.38094v-.03508l2.52554-41.35574c.17538-2.38523,3.08677-3.43754,4.73539-1.71877l18.24002,19.25725-1.96431,38.30404Z"/>
        <path class="cls-4" d="M327.14223,11.27274l27.99142,32.23573-9.99693,27.74588c-.73662,2.03446-3.47262,2.45539-4.77047.70154l-26.90403-36.02404,9.04986-23.85233c.73662-1.92923,3.26216-2.38523,4.63016-.80677Z"/>
        <path class="cls-4" d="M272.21171,51.82171l-5.47201,22.90526c-.42092,1.85908-2.63077,2.70093-4.20924,1.57846l-28.55265-19.95879,3.5077-29.60496c.24554-2.20985,2.87631-3.192,4.52493-1.71877l30.20127,26.7988Z"/>
        <path class="cls-8" d="M227.06765,98.05315c6.91016,31.6745,7.96247,36.90097,15.96002,48.96744-12.13663,1.99939-23.95757,3.71816-35.39266,5.15631h-.03508s-.03508,0-.03508.03508c-3.12185.42092-6.20862.80677-9.2954,1.15754-1.29785.14031-2.52554-.66646-2.91139-1.89416l-30.20127-94.32195c-.84185-2.63077,2.31508-4.70031,4.38462-2.91139l33.98958,29.32434v.03508l19.01171,16.38094c1.71877,1.47323,4.38462.31569,4.52493-1.92923Z"/>
        <path class="cls-8" d="M293.15265,137.54981c-30.13111,14.73232-53.10652,40.37358-64.99761,71.101v.03508c0,.03508-.03508.03508-.03508.07015-4.27939,7.85724-7.12062,16.5914-8.31324,25.85172-.28062,2.06954-1.64862,3.78831-3.648,4.4197-15.81971,4.94585-31.63942,9.8917-47.45913,14.83756-4.06893,1.29785-8.80432,2.5957-13.46955,4.24431,1.08739-9.85663,2.24493-19.60802,3.43754-29.25419,4.31447-34.65604,22.62464-58.96437,48.89729-76.64316,0-.03508.03508-.03508.03508-.03508h.03508c11.43509-1.43816,23.25603-3.15693,35.39266-5.15631,16.1354-2.63077,32.86711-5.7877,50.12498-9.47078Z"/>
        <path class="cls-8" d="M218.82457,264.63365c-6.20862,195.90484,3.648,391.56414,3.648,391.56414h-87.34164c-1.78893,0-3.26216-1.47323-3.22708-3.29723v-.10523c.17538-12.45232,1.05231-58.4733,3.68308-120.94537l40.12805-41.98712c6.13847-6.34893,10.06709-14.55694,11.08432-23.36126.94708-8.13786.59631-18.59079-3.78831-29.56988-2.98154-7.50647-7.12062-13.36432-11.01417-17.78402-5.05108-5.68247-13.53971-6.59447-19.81848-2.42031-3.71816,2.45539-7.40124,4.91077-11.01417,7.40124,2.35016-36.79573,5.22647-75.45055,8.76924-113.8949,2.49046-.70154,4.66524-2.03446,6.45416-3.78831,2.70093-2.77108,4.4197-6.55939,4.4197-10.69847v-6.73478c0-3.99877,2.5957-7.50647,6.38401-8.69909l49.52867-15.46894c.70154-.21046,1.40308-.28062,2.10462-.21046Z"/>
        <path class="cls-6" d="M144.60171,310.79493c-8.03262-.56123-14.06586-7.68185-14.06586-15.71448v-11.40001c0-14.45171,12.27694-21.18649,24.69418-25.57111,4.66524-1.64862,9.40063-2.94646,13.46955-4.24431,15.81971-4.94585,31.63942-9.8917,47.45913-14.83756,1.99939-.63139,3.36739-2.35016,3.648-4.4197,1.19262-9.26032,4.03385-17.99448,8.31324-25.85172,0-.03508.03508-.03508.03508-.07015v-.03508c12.55755-23.08064,37.0062-38.72497,65.13792-38.72497,32.65665,0,60.40253,21.18649,70.25916,50.5459.84185,2.45539,3.26216,3.99877,5.85785,3.85847l5.7877-.35077c2.80616-.17538,5.15631-2.38523,5.40185-5.19139,3.01662-33.00742,27.67572-59.77114,59.66591-65.94469h.03508c4.56001-.87692,9.26032-1.33292,14.06586-1.33292,42.19759,0,76.15209,35.25235,74.04747,77.94101-1.15754,23.36126-13.53971,44.02159-31.70957,56.75453v.03508c-11.64555,8.20801-25.71141,13.15386-40.72435,13.46955-32.51634.70154-60.43761-19.60802-71.101-48.30098-.87692-2.35016-3.26216-3.82339-5.75262-3.648l-6.87508.38585c-2.77108.17538-5.08616,2.28-5.40185,5.01601-4.48985,36.62035-35.70835,64.99761-73.55639,64.99761-32.51634,0-60.15699-20.94095-70.11885-50.0899-.66646-1.92923-2.38523-3.22708-4.34954-3.43754-.70154-.07015-1.40308,0-2.10462.21046l-49.52867,15.46894c-3.78831,1.19262-6.38401,4.70031-6.38401,8.69909v6.73478c0,4.13908-1.71877,7.92739-4.4197,10.69847-1.78893,1.75385-3.9637,3.08677-6.45416,3.78831-1.68369.49108-3.47262.70154-5.3317.56123ZM507.54305,225.62806c0-29.32434-23.85233-53.1416-53.17668-53.1416-29.28926,0-53.1416,23.81726-53.1416,53.1416,0,29.28926,23.85233,53.1416,53.1416,53.1416,29.32434,0,53.17668-23.85233,53.17668-53.1416ZM346.43456,244.04347c0-29.28926-23.85233-53.1416-53.1416-53.1416-29.32434,0-53.1416,23.85233-53.1416,53.1416,0,29.32434,23.81726,53.17668,53.1416,53.17668,29.28926,0,53.1416-23.85233,53.1416-53.17668Z"/>
        <path class="cls-6" d="M374.77675,410.20304v.03508c-27.99142,1.61354-55.45668-13.68002-70.92562-38.26897l.03508-.03508c2.66585-2.28,5.7877-3.89354,9.47078-4.70031,30.13111-6.45416,37.49727.59631,37.49727.59631,0,0,17.57356,19.88864,23.92249,42.37297Z"/>
        <path class="cls-6" d="M380.21367,409.74704c-1.78893.24554-3.61293.42092-5.43693.49108v-.03508c-6.34893-22.48433-23.92249-42.37297-23.92249-42.37297,23.18587-4.06893,41.04005,13.25909,51.49298,35.07696-6.91016,3.43754-14.38155,5.7877-22.13356,6.84001Z"/>
        <path class="cls-6" d="M759.95688,468.71142l.35077,6.48924c.38585,8.0677-5.82278,15.01294-13.89048,15.43386l-15.50402.77169c-5.36678.28062-10.17232-2.31508-12.90832-6.45416-1.47323-2.13969-2.38523-4.70031-2.52554-7.47139l-.31569-6.48924,44.79328-2.28Z"/>
      </g>
      <path class="cls-2" d="M552.2311,515.60932s.03508,0,.03508.03508c22.87018,13.43448,69.06654,38.54958,89.44626,35.35758,36.76066-5.75262,56.36868-33.9545,76.29239-66.04992"/>
      <path class="cls-2" d="M752.52056,322.93156c19.71325-9.26032,43.49543-17.5034,64.29607-16.62648,6.91016.31569,13.01355,5.50708,13.18894,12.45232.31569,14.27632-23.67695,21.85295-43.63574,24.9748,0,0-.21046.03508-.59631.17538-1.61354.70154-.17538,3.01662,1.43816,4.63016,5.12124,5.19139,11.54032,18.59079,4.104,23.7471-.59631.38585-1.05231.87692-1.368,1.43816-.84185,1.40308-.87692,3.15693.21046,4.52493,5.3317,6.76985,14.3114,19.85356-4.52493,28.27203-1.368.59631-1.75385,2.38523-.73662,3.43754,6.38401,6.6997,20.59018,26.09726-26.51818,28.1668-.94708.03508-1.92923.07015-2.91139.10523h-.03508"/>
      <path class="cls-2" d="M786.37809,343.72437s-50.55036,12.37311-45.55181,33.50878c.87671,3.70703,3.96166,6.49453,7.72333,7.09497,6.70836,1.07079,18.82702,1.80985,41.39327-10.59892"/>
      <path class="cls-2" d="M785.62158,406.52077s-61.41944,18.52775-38.64882-21.59842"/>
      <path class="cls-2" d="M750.97043,411.12058c-9.61431,10.907-10.7784,21.58891,4.47928,27.09342"/>
      <path id="_Левая_рука" data-name="Левая рука" class="cls-2" d="M186.80828,466.51646c-1.01354,8.80618-4.96233,16.98273-11.07768,23.34294l-46.54639,48.71295-32.95299,34.491c-6.22029,6.4997-8.10724,16.0046-4.75267,24.3215,2.82511,7.00462,29.19137,41.30798,39.53434,54.06696,1.54793,1.90952.17484,4.74554-2.28328,4.74554l-85.16897.00006c-2.72685,0-5.32967-1.06821-7.23598-3.018-6.95995-7.11868-15.88607-17.911-23.15748-32.69605,0,0-8.3169-16.9132-11.35708-35.57407-1.9569-12.09079,5.38143-30.43685,21.07165-52.2774.94358-1.32792,1.92214-2.65584,2.93546-4.01832,24.88073-33.1281,68.07255-73.52416,126.36058-111.89356,6.29004-4.15866,14.78183-3.25006,19.8139,2.41099,3.91381,4.43807,8.03728,10.30857,11.00751,17.78725,4.40309,11.00729,4.75245,21.45578,3.80909,29.59821Z"/>
      <path class="cls-2" d="M374.7767,410.22013c-6.35997-22.5045-23.93724-42.38814-23.93724-42.38814"/>
      <path class="cls-2" d="M303.87355,371.92055c2.69076-2.27142,5.80085-3.87888,9.47006-4.68261,30.15743-6.4648,37.49585.59406,37.49585.59406,23.2034-4.05361,41.06023,13.24411,51.50875,35.08466"/>
      <path class="cls-2" d="M441.0443,317.61074c3.13307-.42941,5.95607,1.87939,6.1943,5.03277,3.29709,43.64231-27.87265,81.80338-67.0259,87.09234-42.29407,5.713-85.05674-28.12717-88.878-75.36395-.25702-3.1772,2.17469-5.92025,5.362-5.96222,29.86368-.39325,61.59884-1.94575,94.96184-5.08977,16.99599-1.60167,33.46581-3.52721,49.38577-5.70917Z"/>
      <path class="cls-2" d="M454.38229,278.77307c-29.30558,0-53.14761-23.84032-53.14761-53.14761s23.84203-53.14761,53.14761-53.14761c29.30729,0,53.14931,23.84032,53.14931,53.14761s-23.84203,53.14761-53.14931,53.14761Z"/>
      <path class="cls-2" d="M293.28948,297.20444c-29.30558,0-53.14761-23.84032-53.14761-53.14761s23.84203-53.14761,53.14761-53.14761,53.14761,23.84032,53.14761,53.14761-23.84203,53.14761-53.14761,53.14761Z"/>
      <path class="cls-2" d="M528.4045,229.43578c-1.91209,38.38087-34.0003,69.4599-72.42019,70.27188-32.53319.68757-60.45207-19.60884-71.10376-48.30043-.87517-2.35736-3.2556-3.80987-5.76565-3.65904l-6.8619.41234c-2.76753.1663-5.07763,2.25351-5.41471,5.00546-4.48485,36.61483-35.70671,65.00921-73.55307,65.00921-32.51761,0-60.16168-20.94076-70.10728-50.08653-.90745-2.6593-3.7938-4.0816-6.47552-3.24271l-49.49838,15.48409c-3.80887,1.18801-6.39476,4.68249-6.39476,8.66626v6.74412c0,4.15866-1.71226,7.93256-4.43807,10.69334-2.959,2.95923-7.15379,4.68267-11.77928,4.36576-8.0301-.55017-14.04506-7.67448-14.04505-15.7234l.00002-11.39151c0-19.88343,23.20345-25.16014,38.15996-29.80808,15.82094-4.96866,31.64206-9.90671,47.46303-14.84278,1.99014-.62092,3.36743-2.37202,3.62931-4.44026,4.61527-36.45001,35.76342-64.65462,73.48602-64.65462,32.66892,0,60.42042,21.17033,70.28256,50.53834.82329,2.45165,3.25386,3.99402,5.83528,3.83704l5.78-.3515c2.83428-.17236,5.1755-2.35811,5.43212-5.18601,3.42532-37.7451,35.1562-67.25388,73.76604-67.25388,42.17695,0,76.14962,35.23119,74.02327,77.91291Z"/>
      <line class="cls-1" x1="285.62695" y1="210.85274" x2="323.64585" y2="238.0091"/>
      <line class="cls-1" x1="277.72089" y1="225.62546" x2="323.64585" y2="257.72069"/>
      <line class="cls-1" x1="291.31606" y1="251.24783" x2="320.59076" y2="271.27564"/>
      <line class="cls-1" x1="445.17055" y1="234.84904" x2="478.09764" y2="255.66073"/>
      <line class="cls-1" x1="438.38146" y1="214.24729" x2="480.47382" y2="241.67308"/>
      <line class="cls-1" x1="442.70954" y1="198.97184" x2="475.72146" y2="220.69692"/>
      <path class="cls-3" d="M313.47256,35.92917l9.04674-23.8382c.73484-1.93631,3.2702-2.38758,4.62803-.82374l27.99054,32.23725"/>
      <path class="cls-2" d="M233.98153,56.34321l3.49829-29.60831c.25966-2.19767,2.88375-3.19567,4.53819-1.72598l30.19884,26.82648"/>
      <path class="cls-2" d="M203.5447,83.5901l2.5261-41.36552c.146-2.3908,3.07446-3.45522,4.72156-1.71617l18.23326,19.25122"/>
      <path class="cls-2" d="M195.34954,151.46101c.40081,1.25177,1.61682,2.04942,2.92198,1.89405,29.33282-3.4918,61.22578-8.56928,95.14876-15.8801,34.66051-7.46991,66.44-16.19324,95.10967-25.31216,1.31018-.41673,2.09138-1.73747,1.85209-3.09134l-17.58209-99.47764c-.48829-2.76269-4.3212-3.09139-5.27275-.45219l-22.38915,62.09821c-.73989,2.05215-3.46522,2.45754-4.77036.70957L288.58797,2.60159c-1.38936-1.86075-4.31866-1.25621-4.85785,1.00255l-16.97454,71.10954c-.44871,1.87973-2.65078,2.71583-4.23398,1.60759l-29.10276-20.37193c-1.76269-1.23388-4.19443-.04634-4.30519,2.10244l-2.0612,39.98733c-.11727,2.27499-2.79915,3.42052-4.52382,1.93229l-52.97449-45.71186c-2.09343-1.80643-5.24022.27497-4.39702,2.90834l30.19243,94.29314Z"/>
      <path class="cls-2" d="M155.23003,258.10933c1.08739-9.85663,2.24493-19.60802,3.43754-29.25419,4.31447-34.65604,22.62464-58.96437,48.89729-76.64316,0-.03508.03508-.03508.03508-.03508h.03508"/>
      <path class="cls-2" d="M372.67213,117.06486h.03508c.66646.10523,1.33292.21046,1.96431.35077h.10523c28.23696,5.43693,49.21298,17.85417,65.48869,35.42773h.03508"/>
      <path class="cls-2" d="M496.70427,286.20598v.03508c3.57785,14.66217,7.08555,29.78034,10.83878,45.10897,6.31385,25.78157,12.66278,51.94898,18.90648,77.6604h.03508v.03508c9.04986,37.35697,17.85417,73.73178,25.78157,106.59889,16.55633,68.68069,29.32434,121.99768,32.83204,136.58969.49108,2.03446-1.05231,3.9637-3.15693,3.9637H135.13093c-1.78893,0-3.26216-1.47323-3.22708-3.29723.17538-12.34709,1.05231-58.43822,3.68308-121.0506"/>
      <path class="cls-2" d="M149.93341,310.2337c-3.54277,38.44435-6.41908,77.09916-8.76924,113.8949"/>
      <path class="cls-2" d="M228.11996,208.75605c0-.03508.03508-.03508.03508-.07015,11.85601-30.72742,34.8665-56.40376,64.99761-71.13608l.03508-.03508"/>
      <path class="cls-2" d="M369.72566,117.94179h.03508c1.64862-.21046,3.29723-.38585,4.91077-.52615h.10523"/>
      <path class="cls-2" d="M222.47257,656.19778s-9.85663-195.6593-3.648-391.56414"/>
      <polyline class="cls-2" points="758.37841 438.12431 759.39564 457.76741 734.14023 459.06525 734.10515 459.06525 723.33653 459.59141 714.60236 460.04741 710.35805 377.26578"/>
      <polyline class="cls-2" points="708.74451 345.87189 704.74574 267.79057 716.84729 227.06622 723.93283 203.31912 733.36854 226.22437 749.57409 265.51057 752.52056 322.93156 754.23933 356.60544"/>
      <path class="cls-2" d="M759.40011,457.75735l.89134,17.43398c.41329,8.0837-5.80596,15.01253-13.88967,15.42582l-15.49687.79231c-8.12096.4152-15.01443-5.84322-15.42773-13.92692l-.89134-17.43398"/>
      <line class="cls-2" x1="704.75943" y1="267.79277" x2="749.56769" y2="265.50187"/>
      <line class="cls-2" x1="715.14561" y1="470.99707" x2="759.95987" y2="468.70586"/>
      <g>
        <polyline class="cls-2" points="713.51498 267.33457 717.33837 342.3642 717.72421 349.44974"/>
        <line class="cls-2" x1="723.33653" y1="459.59141" x2="719.19744" y2="378.35316"/>
        <polyline class="cls-2" points="740.80485 265.96657 743.9267 327.1408 745.78578 363.12976"/>
        <line class="cls-2" x1="748.38148" y1="414.34213" x2="748.10086" y2="408.94027"/>
        <polyline class="cls-2" points="749.46886 435.248 749.46886 435.28307 749.60917 438.40492 750.6264 458.18833"/>
        <polyline class="cls-2" points="746.90825 385.08794 746.90825 385.05286 746.83809 383.86024"/>
        <polyline class="cls-2" points="727.15992 266.63303 730.63253 334.33157 731.82515 358.14883"/>
        <polyline class="cls-2" points="732.73715 376.14331 736.771 455.0314 736.98146 458.88987"/>
      </g>
      <path class="cls-2" d="M716.86324,227.07632c5.8298,6.0971,11.33349,5.81572,16.51106-.84416"/>
      <path d="M527.26146,407.74918c26.38079,16.69402,53.05212,33.35764,81.06324,47.13674,3.51361,1.66825,7.05835,3.27396,10.65753,4.64426,3.23592,1.15627,7.26227,2.78981,10.56214,2.33779,11.02693-2.93638,25.91487-21.71818,33.46717-30.69805,6.65873-8.26793,13.19277-16.91881,19.27542-25.64019,1.20908-2.04408,1.0826-4.76669-.35702-6.65659-.5851-.73449-1.26701-1.4778-1.84592-2.21276-3.15843-3.94812-5.81699-8.28964-7.56585-13.09095-4.62763-11.8281-.76289-25.26074,8.30798-33.88759,9.43956-9.27673,23.42612-8.02898,34.61723-2.94901,7.33278,3.19124,14.03357,7.58187,20.27665,12.52084,1.64072,1.35619,3.27165,2.48648,4.60394,4.2649,4.77768,6.86344-2.8509,13.05031-9.0006,14.76869-10.72965,3.38393-25.67491,1.05725-34.7634-5.55265-.31745-.20932-.04016-.73609.30622-.61857,3.83081,1.02877,7.42816,2.3099,11.14166,3.2662,5.54335,1.38682,11.28111,1.94399,16.93536,1.24837,3.61512-.52392,7.34282-1.47344,10.34822-3.53095,2.71986-1.80312,4.75301-4.90726,2.58735-7.84087-1.03854-1.36673-2.66153-2.53575-4.02682-3.65762-13.60188-10.58096-35.60023-23.83979-50.9676-9.73715-5.28445,5.09609-8.97188,12.33552-9.32871,19.72929-.3433,7.54211,2.77869,14.8396,7.14068,20.90972,1.10196,1.59756,2.40582,3.07387,3.63654,4.5739,1.4094,1.88295,2.04197,4.3376,1.69102,6.65895-.24099,2.21795-1.60464,4.09279-2.89223,5.83199-5.68577,7.93906-11.64514,15.90518-17.78844,23.48916-7.96959,9.47571-23.34062,28.90729-35.2427,31.75909-4.181.64734-8.33556-1.15678-12.18443-2.48155-3.72343-1.41839-7.32072-3.04998-10.88279-4.74108-28.23727-13.89169-54.85192-30.52851-81.39581-47.32157-1.5186-1.06551-.25284-3.54978,1.62396-2.52272h0Z"/>
    </g>
  </g>
</svg>