<?xml version="1.0" encoding="UTF-8"?>
<svg id="Layer_2" data-name="Layer 2" xmlns="http://www.w3.org/2000/svg" viewBox="0 0 100 100">
  <defs>
    <style>
      .cls-1 {
        fill: #ff5e16;
      }

      .cls-2 {
        fill: #fffb6c;
      }

      .cls-3 {
        fill: #fff;
      }

      .cls-3, .cls-4 {
        stroke: #000;
        stroke-linecap: round;
        stroke-linejoin: round;
        stroke-width: 2px;
      }

      .cls-4 {
        fill: none;
      }

      .cls-5 {
        fill: #95ebf2;
      }

      .cls-6 {
        fill: #333;
      }
    </style>
  </defs>
  <g id="Background">
    <rect class="cls-2" width="100" height="100"/>
    <path class="cls-5" d="M100,0v73.41998c-17.47998-2.17999-42.14001-17.44-53.38-23.41998-13.20001-7.03003-33.71997-1.28003-46.62,7.27997V0h100Z"/>
  </g>
  <g id="Icon">
    <g>
      <g>
        <rect class="cls-6" x="23.47222" y="18.47222" width="38.88889" height="38.88889" rx="1.59837" ry="1.59837"/>
        <path class="cls-6" d="M60.76321,58.33333H25.0706c-1.41751,0-2.5706-1.15262-2.5706-2.57012V20.0706c0-1.41751,1.15309-2.5706,2.5706-2.5706h35.69261c1.41751,0,2.57012,1.15309,2.57012,2.5706v35.69261c0,1.41751-1.15262,2.57012-2.57012,2.57012ZM25.0706,19.44444c-.34512,0-.62615.28103-.62615.62615v35.69261c0,.34465.28103.62568.62615.62568h35.69261c.34465,0,.62568-.28103.62568-.62568V20.0706c0-.34512-.28103-.62615-.62568-.62615H25.0706Z"/>
      </g>
      <g>
        <rect class="cls-6" x="67.22222" y="42.77778" width="24.30556" height="14.58333" rx="1.59837" ry="1.59837"/>
        <path class="cls-6" d="M89.92988,58.33333h-21.10975c-1.41751,0-2.57012-1.15262-2.57012-2.57012v-11.38706c0-1.41751,1.15262-2.5706,2.57012-2.5706h21.10975c1.41751,0,2.57012,1.15309,2.57012,2.5706v11.38706c0,1.41751-1.15262,2.57012-2.57012,2.57012ZM68.82012,43.75c-.34465,0-.62568.28103-.62568.62615v11.38706c0,.34465.28103.62568.62568.62568h21.10975c.34465,0,.62568-.28103.62568-.62568v-11.38706c0-.34512-.28103-.62615-.62568-.62615h-21.10975Z"/>
      </g>
      <g>
        <rect class="cls-6" x="67.22222" y="18.47222" width="14.58333" height="19.44444" rx="1.59837" ry="1.59837"/>
        <path class="cls-6" d="M80.20766,38.88889h-11.38753c-1.41751,0-2.57012-1.15309-2.57012-2.5706v-16.24769c0-1.41751,1.15262-2.5706,2.57012-2.5706h11.38753c1.41751,0,2.57012,1.15309,2.57012,2.5706v16.24769c0,1.41751-1.15262,2.5706-2.57012,2.5706ZM68.82012,19.44444c-.34465,0-.62568.28103-.62568.62615v16.24769c0,.34512.28103.62615.62568.62615h11.38753c.34465,0,.62568-.28103.62568-.62615v-16.24769c0-.34512-.28103-.62615-.62568-.62615h-11.38753Z"/>
      </g>
      <g>
        <rect class="cls-6" x="38.05556" y="62.22222" width="48.80716" height="24.30556" rx="1.59837" ry="1.59837"/>
        <path class="cls-6" d="M85.26435,87.5h-45.61042c-1.41751,0-2.5706-1.15262-2.5706-2.57012v-21.10975c0-1.41751,1.15309-2.57012,2.5706-2.57012h45.61042c1.41751,0,2.57012,1.15262,2.57012,2.57012v21.10975c0,1.41751-1.15262,2.57012-2.57012,2.57012ZM39.65393,63.19444c-.34512,0-.62615.28103-.62615.62568v21.10975c0,.34465.28103.62568.62615.62568h45.61042c.34465,0,.62568-.28103.62568-.62568v-21.10975c0-.34465-.28103-.62568-.62568-.62568h-45.61042Z"/>
      </g>
    </g>
    <g>
      <g>
        <rect class="cls-1" x="15.97222" y="15.97222" width="38.88889" height="38.88889" rx="1.59837" ry="1.59837"/>
        <path d="M53.26321,55.83333H17.5706c-1.41751,0-2.5706-1.15262-2.5706-2.57012V17.5706c0-1.41751,1.15309-2.5706,2.5706-2.5706h35.69261c1.41751,0,2.57012,1.15309,2.57012,2.5706v35.69261c0,1.41751-1.15262,2.57012-2.57012,2.57012ZM17.5706,16.94444c-.34512,0-.62615.28103-.62615.62615v35.69261c0,.34465.28103.62568.62615.62568h35.69261c.34465,0,.62568-.28103.62568-.62568V17.5706c0-.34512-.28103-.62615-.62568-.62615H17.5706Z"/>
      </g>
      <g>
        <rect class="cls-1" x="59.72222" y="40.27778" width="24.30556" height="14.58333" rx="1.59837" ry="1.59837"/>
        <path d="M82.42988,55.83333h-21.10975c-1.41751,0-2.57012-1.15262-2.57012-2.57012v-11.38706c0-1.41751,1.15262-2.5706,2.57012-2.5706h21.10975c1.41751,0,2.57012,1.15309,2.57012,2.5706v11.38706c0,1.41751-1.15262,2.57012-2.57012,2.57012ZM61.32012,41.25c-.34465,0-.62568.28103-.62568.62615v11.38706c0,.34465.28103.62568.62568.62568h21.10975c.34465,0,.62568-.28103.62568-.62568v-11.38706c0-.34512-.28103-.62615-.62568-.62615h-21.10975Z"/>
      </g>
      <g>
        <rect class="cls-1" x="59.72222" y="15.97222" width="14.58333" height="19.44444" rx="1.59837" ry="1.59837"/>
        <path d="M72.70766,36.38889h-11.38753c-1.41751,0-2.57012-1.15309-2.57012-2.5706v-16.24769c0-1.41751,1.15262-2.5706,2.57012-2.5706h11.38753c1.41751,0,2.57012,1.15309,2.57012,2.5706v16.24769c0,1.41751-1.15262,2.5706-2.57012,2.5706ZM61.32012,16.94444c-.34465,0-.62568.28103-.62568.62615v16.24769c0,.34512.28103.62615.62568.62615h11.38753c.34465,0,.62568-.28103.62568-.62615v-16.24769c0-.34512-.28103-.62615-.62568-.62615h-11.38753Z"/>
      </g>
      <g>
        <rect class="cls-1" x="30.55556" y="59.72222" width="48.80716" height="24.30556" rx="1.59837" ry="1.59837"/>
        <path d="M77.76435,85h-45.61042c-1.41751,0-2.5706-1.15262-2.5706-2.57012v-21.10975c0-1.41751,1.15309-2.57012,2.5706-2.57012h45.61042c1.41751,0,2.57012,1.15262,2.57012,2.57012v21.10975c0,1.41751-1.15262,2.57012-2.57012,2.57012ZM32.15393,60.69444c-.34512,0-.62615.28103-.62615.62568v21.10975c0,.34465.28103.62568.62615.62568h45.61042c.34465,0,.62568-.28103.62568-.62568v-21.10975c0-.34465-.28103-.62568-.62568-.62568h-45.61042Z"/>
      </g>
      <line class="cls-3" x1="19.25103" y1="21.85597" x2="42.91667" y2="21.85597"/>
      <line class="cls-3" x1="19.25103" y1="26.62963" x2="35.41667" y2="26.62963"/>
      <circle cx="78.57459" cy="45.47582" r="2.69805"/>
      <line class="cls-4" x1="71.4321" y1="19.44444" x2="67.22222" y2="19.44444"/>
      <line class="cls-4" x1="71.4321" y1="22.4321" x2="67.22222" y2="22.4321"/>
      <line class="cls-4" x1="64.41564" y1="19.44444" x2="63.33333" y2="19.44444"/>
      <path class="cls-4" d="M40.41667,64.87654c2.85577,0,2.85577,4,5.71155,4,2.85651,0,2.85651-4,5.71303-4,2.85496,0,2.85496,4,5.70993,4,2.85745,0,2.85745-4,5.71489-4,2.85941,0,2.85941,4,5.71882,4s2.85941-4,5.71882-4"/>
    </g>
  </g>
</svg>