<?xml version="1.0" encoding="UTF-8"?>
<svg id="Layer_2" data-name="Layer 2" xmlns="http://www.w3.org/2000/svg" viewBox="0 0 100 100">
  <defs>
    <style>
      .cls-1 {
        fill: #ff5e16;
      }

      .cls-2 {
        fill: #f7b0da;
      }

      .cls-3 {
        fill: #95ebf2;
      }

      .cls-4 {
        fill: #333;
      }
    </style>
  </defs>
  <g id="Background">
    <rect class="cls-2" width="100" height="100"/>
    <path class="cls-3" d="M100,0v100h-36.94c-4.28998-19.58002,12.90002-52.64001-5.83002-55.08002C39.90997,42.65997,14.60999,27.38,0,13.90997V0h100Z"/>
  </g>
  <g id="Icon">
    <path class="cls-4" d="M91.73767,81.25391l-28.24188-28.24188,28.24188-28.24152c.96387-.96387.96387-2.53271,0-3.49658-3.66602-3.66602-9.63086-3.66602-13.29688,0l-23.34174,23.34137-4.02789-4.02789c.4082-.99805.62207-2.07617.62207-3.15723,0-2.22266-.86523-4.31152-2.43652-5.88281l-10.59033-10.59033c-3.24316-3.24316-8.521-3.24316-11.76611,0l-3.85645,3.85645c-1.57129,1.57129-2.43652,3.66016-2.43652,5.88281s.86523,4.31152,2.43652,5.88281l10.59033,10.59033c2.40088,2.40039,5.95264,3.08936,9.04102,1.81543l4.02716,4.0271-4.02716,4.0271c-3.08838-1.27246-6.64062-.58594-9.04102,1.81543l-10.59033,10.59082c-1.57129,1.57031-2.43652,3.66016-2.43652,5.88281s.86523,4.3125,2.43652,5.88281l3.85645,3.85645c1.62207,1.62207,3.75293,2.43262,5.8833,2.43262s4.26123-.81055,5.88281-2.43262l10.59033-10.58984c1.57129-1.57129,2.43652-3.66113,2.43652-5.88281,0-1.08105-.21387-2.16016-.62207-3.1582l4.02795-4.02789,23.34167,23.34137c1.83301,1.83301,4.24023,2.75,6.64844,2.75,2.40723,0,4.81543-.91699,6.64746-2.74902.46777-.4668.72559-1.08789.72559-1.74902,0-.66016-.25781-1.28125-.72461-1.74805ZM45.08581,37.43018c0,.45752-.17822.8877-.50146,1.21094l-3.85596,3.85645c-.66748.66748-1.75391.66846-2.42236,0l-10.58984-10.59033c-.32324-.32373-.50146-.75342-.50146-1.21094s.17822-.88721.50146-1.21094l3.85596-3.85645c.33398-.3335.77246-.50049,1.21143-.50049.43848,0,.87695.16699,1.21094.50049l10.59033,10.59082c.32275.32275.50098.75293.50098,1.21045ZM45.08581,68.59473c0,.45703-.17822.8877-.50146,1.21094l-10.58984,10.58984c-.66846.66797-1.75488.66797-2.42236,0l-3.85547-3.85645c-.32373-.32324-.50195-.75391-.50195-1.21094s.17822-.8877.50146-1.21094l10.58984-10.58984c.32275-.32227.75293-.5,1.21094-.5.4585,0,.88867.17773,1.21143.5l3.85645,3.85742c.32324.32227.50098.75195.50098,1.20996Z"/>
    <g>
      <g>
        <path class="cls-1" d="M73.54067,18.45663l-36.25932,36.25939c-2.75718-1.43146-6.23371-.99206-8.54741,1.32157l-10.59016,10.59023c-1.42928,1.42928-2.14392,3.3026-2.14392,5.17592s.71464,3.74664,2.14392,5.17592l3.85638,3.85638c2.85856,2.85856,7.49327,2.85856,10.35183,0l10.59023-10.59023c1.42928-1.42928,2.14392-3.3026,2.14392-5.17592,0-1.1591-.27517-2.31757-.82234-3.37142l41.15964-41.15964c.57502-.57495.57502-1.50718,0-2.08219-3.28137-3.28129-8.6014-3.28129-11.88277,0ZM39.68427,66.98785l-10.59023,10.59023c-1.05758,1.05758-2.77834,1.05758-3.83599,0l-3.85631-3.85638c-.5123-.5123-.79443-1.19341-.79443-1.91796s.28213-1.40566.79443-1.91796l10.59016-10.59023c1.05765-1.05758,2.77841-1.05758,3.83599,0l3.85638,3.85638c.5123.5123.79443,1.19341.79443,1.91796,0,.72448-.28213,1.40566-.79443,1.91796Z"/>
        <path d="M27.17627,83.97559c-2.13037,0-4.26123-.81055-5.8833-2.43262l-3.85645-3.85645c-1.57129-1.57031-2.43652-3.66016-2.43652-5.88281s.86523-4.3125,2.43652-5.88281l10.59033-10.59082c2.40039-2.40137,5.95264-3.08789,9.04102-1.81543l35.76562-35.76514c3.66602-3.66602,9.63086-3.66602,13.29688,0,.96387.96387.96387,2.53271,0,3.49658l-40.6665,40.66602c.4082.99805.62207,2.07715.62207,3.1582,0,2.22168-.86523,4.31152-2.43652,5.88281l-10.59033,10.58984c-1.62158,1.62207-3.75244,2.43262-5.88281,2.43262ZM33.90381,54.8877c-1.63428,0-3.24365.6377-4.46289,1.85645l-10.59033,10.59082c-1.19336,1.19336-1.85059,2.78027-1.85059,4.46875s.65723,3.27539,1.85059,4.46875l3.85645,3.85645c2.46533,2.46289,6.47461,2.46289,8.93799,0l10.59033-10.58984c1.19336-1.19434,1.85059-2.78125,1.85059-4.46875,0-1.01074-.24561-2.01758-.70947-2.91113l-.33789-.65039,41.67773-41.67676c.18457-.18457.18457-.48389,0-.66846-2.88672-2.88574-7.58203-2.88574-10.46875,0l-36.77686,36.77686-.65039-.33691c-.92676-.48145-1.92627-.71582-2.9165-.71582ZM27.17627,79.37109c-.95068,0-1.90137-.3623-2.62549-1.08594l-3.85596-3.85645c-.70117-.70215-1.0874-1.63379-1.0874-2.625s.38623-1.92285,1.08691-2.625l10.59033-10.58984c1.44775-1.44727,3.80371-1.44727,5.25049,0l3.85596,3.85645c.70117.69922,1.0874,1.63184,1.0874,2.625,0,.99121-.38623,1.92383-1.0874,2.625l-10.58984,10.58984c-.72363.72363-1.67432,1.08594-2.625,1.08594ZM33.90967,59.50293c-.45801,0-.88818.17773-1.21094.5l-10.58984,10.58984c-.32324.32324-.50146.75391-.50146,1.21094s.17822.8877.50195,1.21094l3.85547,3.85645c.66748.66797,1.75391.66797,2.42236,0l10.58984-10.58984c.32324-.32324.50146-.75391.50146-1.21094,0-.45801-.17773-.8877-.50098-1.20996l-3.85645-3.85742c-.32275-.32227-.75293-.5-1.21143-.5Z"/>
      </g>
      <g>
        <path class="cls-1" d="M85.42344,80.51898c.57502-.57502.57502-1.50725,0-2.08219l-41.15964-41.15964c.54718-1.05386.82234-2.21232.82234-3.37142,0-1.87332-.71464-3.74664-2.14392-5.17592l-10.59023-10.59023c-2.85856-2.85856-7.49327-2.85856-10.35183,0l-3.85638,3.85638c-1.42928,1.42928-2.14392,3.3026-2.14392,5.17592,0,1.87332.71464,3.74664,2.14392,5.17592l10.59016,10.59023c2.3137,2.31363,5.79023,2.75303,8.54741,1.32157l36.25932,36.25939c3.28137,3.28129,8.6014,3.28129,11.88277,0ZM40.4787,33.90573c0,.72455-.28213,1.40566-.79443,1.91796l-3.85638,3.85638c-1.05758,1.05758-2.77834,1.05758-3.83599,0l-10.59016-10.59023c-.5123-.5123-.79443-1.19341-.79443-1.91796s.28213-1.40566.79443-1.91796l3.85631-3.85638c1.05765-1.05758,2.77841-1.05758,3.83599,0l10.59023,10.59023c.5123.5123.79443,1.19348.79443,1.91796Z"/>
        <path d="M79.48193,83.97559c-2.4082,0-4.81543-.91699-6.64844-2.75l-35.76562-35.76514c-3.08838,1.27393-6.64014.58496-9.04102-1.81543l-10.59033-10.59033c-1.57129-1.57129-2.43652-3.66016-2.43652-5.88281s.86523-4.31152,2.43652-5.88281l3.85645-3.85645c3.24512-3.24316,8.52295-3.24316,11.76611,0l10.59033,10.59033c1.57129,1.57129,2.43652,3.66016,2.43652,5.88281,0,1.08105-.21387,2.15918-.62207,3.15723l40.6665,40.6665c.4668.4668.72461,1.08789.72461,1.74805,0,.66113-.25781,1.28223-.72559,1.74902-1.83203,1.83203-4.24023,2.74902-6.64746,2.74902ZM37.4707,43.03467l12.02104,12.02104,24.75581,24.75581c2.88672,2.88672,7.58203,2.88672,10.46875,0l.00098-.00098c.11914-.11914.1377-.25977.1377-.33301,0-.07227-.01855-.21387-.13867-.33398l-35.22478-35.22396-6.45295-6.4528.3374-.65039c.46436-.89404.70996-1.90088.70996-2.91064,0-1.68848-.65723-3.27539-1.85059-4.46875l-10.59033-10.59033c-2.46338-2.46387-6.47266-2.46289-8.93799,0l-3.85645,3.85645c-1.19336,1.19336-1.85059,2.78027-1.85059,4.46875s.65723,3.27539,1.85059,4.46875l10.59033,10.59033c1.95752,1.95654,4.92139,2.4165,7.37988,1.14111l.6499-.3374ZM33.90967,41.47363c-.99219,0-1.9248-.38574-2.625-1.08643l-10.58984-10.59033c-.70117-.70117-1.0874-1.6333-1.0874-2.625s.38623-1.92383,1.0874-2.625l3.85596-3.85645c1.44727-1.44727,3.80322-1.44727,5.25049,0l10.58984,10.59033c.70117.7002,1.0874,1.63281,1.0874,2.625s-.38623,1.9248-1.08789,2.62549l-3.85547,3.85596c-.7002.70068-1.63281,1.08643-2.62549,1.08643ZM27.17627,21.604c-.43896,0-.87744.16699-1.21143.50049l-3.85596,3.85645c-.32324.32373-.50146.75342-.50146,1.21094s.17822.88721.50146,1.21094l10.58984,10.59033c.66846.66846,1.75488.66748,2.42236,0l3.85596-3.85645c.32324-.32324.50146-.75342.50146-1.21094s-.17822-.8877-.50098-1.21045l-10.59033-10.59082c-.33398-.3335-.77246-.50049-1.21094-.50049Z"/>
      </g>
    </g>
    <circle cx="49.49153" cy="49.48792" r="2.5"/>
  </g>
</svg>