<?xml version="1.0" encoding="UTF-8"?>
<svg id="Layer_2" data-name="Layer 2" xmlns="http://www.w3.org/2000/svg" viewBox="0 0 100 100">
  <defs>
    <style>
      .cls-1 {
        fill: #ff5e16;
      }

      .cls-2 {
        fill: #fffb6c;
      }

      .cls-3 {
        fill: #5bf672;
      }

      .cls-4 {
        fill: #333;
      }
    </style>
  </defs>
  <g id="Background">
    <rect class="cls-2" width="100" height="100"/>
    <path class="cls-3" d="M100,0v100H0v-1.85999c9.06-16.73004,23.13-37.32001,36.15997-33.98004,21.48004,5.52002,30.45001-21.65997,33.42004-31.65997,1.75-5.89001,13.45996-24.34003,28.60999-32.5h1.81Z"/>
  </g>
  <g id="Icon">
    <g>
      <path class="cls-4" d="M33.19446,17.5c-5.89697,0-10.69446,4.79749-10.69446,10.69446s4.79749,10.6944,10.69446,10.6944,10.69446-4.79749,10.69446-10.6944-4.79755-10.69446-10.69446-10.69446Z"/>
      <path class="cls-4" d="M81.80554,38.88885c5.89697,0,10.69446-4.79749,10.69446-10.6944s-4.79749-10.69446-10.69446-10.69446-10.69446,4.79749-10.69446,10.69446,4.79755,10.6944,10.69446,10.6944Z"/>
      <path class="cls-4" d="M57.5,17.5c-5.89697,0-10.69446,4.79749-10.69446,10.69446s4.79749,10.6944,10.69446,10.6944,10.69446-4.79749,10.69446-10.6944-4.79749-10.69446-10.69446-10.69446Z"/>
      <path class="cls-4" d="M33.19446,41.80554c-5.89697,0-10.69446,4.79749-10.69446,10.69446s4.79749,10.69446,10.69446,10.69446,10.69446-4.79755,10.69446-10.69446-4.79755-10.69446-10.69446-10.69446Z"/>
      <path class="cls-4" d="M81.80554,41.80554c-5.89691,0-10.69446,4.79749-10.69446,10.69446s4.79755,10.69446,10.69446,10.69446,10.69446-4.79755,10.69446-10.69446-4.79749-10.69446-10.69446-10.69446Z"/>
      <path class="cls-4" d="M57.5,41.80554c-5.89697,0-10.69446,4.79749-10.69446,10.69446s4.79749,10.69446,10.69446,10.69446,10.69446-4.79755,10.69446-10.69446-4.79749-10.69446-10.69446-10.69446Z"/>
      <path class="cls-4" d="M33.19446,66.11108c-5.89697,0-10.69446,4.79749-10.69446,10.69446s4.79749,10.69446,10.69446,10.69446,10.69446-4.79749,10.69446-10.69446-4.79755-10.69446-10.69446-10.69446Z"/>
      <path class="cls-4" d="M81.80554,66.11108c-5.89691,0-10.69446,4.79749-10.69446,10.69446s4.79755,10.69446,10.69446,10.69446,10.69446-4.79749,10.69446-10.69446-4.79749-10.69446-10.69446-10.69446Z"/>
      <path class="cls-4" d="M57.5,66.11108c-5.89697,0-10.69446,4.79749-10.69446,10.69446s4.79749,10.69446,10.69446,10.69446,10.69446-4.79749,10.69446-10.69446-4.79749-10.69446-10.69446-10.69446Z"/>
    </g>
    <g>
      <g>
        <g>
          <circle class="cls-1" cx="25.69444" cy="25.69444" r="9.72222"/>
          <path d="M25.69444,36.38889c-5.89695,0-10.69444-4.7975-10.69444-10.69444s4.7975-10.69444,10.69444-10.69444,10.69444,4.7975,10.69444,10.69444-4.7975,10.69444-10.69444,10.69444ZM25.69444,16.94444c-4.82456,0-8.75,3.92544-8.75,8.75s3.92544,8.75,8.75,8.75,8.75-3.92544,8.75-8.75-3.92544-8.75-8.75-8.75Z"/>
        </g>
        <g>
          <circle class="cls-1" cx="74.30556" cy="25.69444" r="9.72222"/>
          <path d="M74.30556,36.38889c-5.89695,0-10.69444-4.7975-10.69444-10.69444s4.7975-10.69444,10.69444-10.69444,10.69444,4.7975,10.69444,10.69444-4.7975,10.69444-10.69444,10.69444ZM74.30556,16.94444c-4.82503,0-8.75,3.92544-8.75,8.75s3.92497,8.75,8.75,8.75,8.75-3.92544,8.75-8.75-3.92497-8.75-8.75-8.75Z"/>
        </g>
        <g>
          <circle class="cls-1" cx="50" cy="25.69444" r="9.72222"/>
          <path d="M50,36.38889c-5.89695,0-10.69444-4.7975-10.69444-10.69444s4.7975-10.69444,10.69444-10.69444,10.69444,4.7975,10.69444,10.69444-4.7975,10.69444-10.69444,10.69444ZM50,16.94444c-4.82456,0-8.75,3.92544-8.75,8.75s3.92544,8.75,8.75,8.75c4.82503,0,8.75-3.92544,8.75-8.75s-3.92497-8.75-8.75-8.75Z"/>
        </g>
      </g>
      <g>
        <g>
          <circle class="cls-1" cx="25.69444" cy="50" r="9.72222"/>
          <path d="M25.69444,60.69444c-5.89695,0-10.69444-4.7975-10.69444-10.69444s4.7975-10.69444,10.69444-10.69444,10.69444,4.7975,10.69444,10.69444-4.7975,10.69444-10.69444,10.69444ZM25.69444,41.25c-4.82456,0-8.75,3.92544-8.75,8.75,0,4.82503,3.92544,8.75,8.75,8.75s8.75-3.92497,8.75-8.75c0-4.82456-3.92544-8.75-8.75-8.75Z"/>
        </g>
        <g>
          <circle class="cls-1" cx="74.30556" cy="50" r="9.72222"/>
          <path d="M74.30556,60.69444c-5.89695,0-10.69444-4.7975-10.69444-10.69444s4.7975-10.69444,10.69444-10.69444,10.69444,4.7975,10.69444,10.69444-4.7975,10.69444-10.69444,10.69444ZM74.30556,41.25c-4.82503,0-8.75,3.92544-8.75,8.75,0,4.82503,3.92497,8.75,8.75,8.75s8.75-3.92497,8.75-8.75c0-4.82456-3.92497-8.75-8.75-8.75Z"/>
        </g>
        <g>
          <circle class="cls-1" cx="50" cy="50" r="9.72222"/>
          <path d="M50,60.69444c-5.89695,0-10.69444-4.7975-10.69444-10.69444s4.7975-10.69444,10.69444-10.69444,10.69444,4.7975,10.69444,10.69444-4.7975,10.69444-10.69444,10.69444ZM50,41.25c-4.82456,0-8.75,3.92544-8.75,8.75,0,4.82503,3.92544,8.75,8.75,8.75,4.82503,0,8.75-3.92497,8.75-8.75,0-4.82456-3.92497-8.75-8.75-8.75Z"/>
        </g>
      </g>
      <g>
        <g>
          <circle class="cls-1" cx="25.69444" cy="74.30556" r="9.72222"/>
          <path d="M25.69444,85c-5.89695,0-10.69444-4.7975-10.69444-10.69444s4.7975-10.69444,10.69444-10.69444,10.69444,4.7975,10.69444,10.69444-4.7975,10.69444-10.69444,10.69444ZM25.69444,65.55556c-4.82456,0-8.75,3.92497-8.75,8.75s3.92544,8.75,8.75,8.75,8.75-3.92497,8.75-8.75-3.92544-8.75-8.75-8.75Z"/>
        </g>
        <g>
          <circle class="cls-1" cx="74.30556" cy="74.30556" r="9.72222"/>
          <path d="M74.30556,85c-5.89695,0-10.69444-4.7975-10.69444-10.69444s4.7975-10.69444,10.69444-10.69444,10.69444,4.7975,10.69444,10.69444-4.7975,10.69444-10.69444,10.69444ZM74.30556,65.55556c-4.82503,0-8.75,3.92497-8.75,8.75s3.92497,8.75,8.75,8.75,8.75-3.92497,8.75-8.75-3.92497-8.75-8.75-8.75Z"/>
        </g>
        <g>
          <circle class="cls-1" cx="50" cy="74.30556" r="9.72222"/>
          <path d="M50,85c-5.89695,0-10.69444-4.7975-10.69444-10.69444s4.7975-10.69444,10.69444-10.69444,10.69444,4.7975,10.69444,10.69444-4.7975,10.69444-10.69444,10.69444ZM50,65.55556c-4.82456,0-8.75,3.92497-8.75,8.75s3.92544,8.75,8.75,8.75c4.82503,0,8.75-3.92497,8.75-8.75s-3.92497-8.75-8.75-8.75Z"/>
        </g>
      </g>
    </g>
  </g>
</svg>