<?xml version="1.0" encoding="UTF-8"?>
<svg id="Layer_2" data-name="Layer 2" xmlns="http://www.w3.org/2000/svg" viewBox="0 0 100 100">
  <defs>
    <style>
      .cls-1 {
        fill: #ff5e16;
      }

      .cls-2 {
        fill: #fffb6c;
      }

      .cls-3 {
        fill: #f7b0da;
      }

      .cls-4 {
        fill: #333;
      }
    </style>
  </defs>
  <g id="Background">
    <rect class="cls-2" width="100" height="100"/>
    <path class="cls-3" d="M53.53003,25.38c-14.32001-3.70001-8.47003,13-1.23004,26.75,6.5,12.34998-5.76001,13.57996-29.29999,11.69-18.20001-1.46002-5.34998,23.09998,3.96997,36.17999H0V0h78.85999c-.66998,6.5.16003,13.82001,5.54004,18.63,11.69,10.45996-16.54004,10.45996-30.87,6.75Z"/>
  </g>
  <g id="Icon">
    <path class="cls-4" d="M80.91877,49.96426l-20.86688-31.29944c-.46906-.70404-1.25317-1.12433-2.09808-1.12433h-.00049c-.84784,0-1.63531.42175-2.10632,1.12866l-20.86115,31.29169c-4.82684,7.24054-5.40729,16.22925-1.55377,24.04639,3.82172,7.75153,11.23401,12.72266,19.82709,13.29688,1.54266.10327,3.12103.1554,4.6922.1554,1.57068,0,3.14954-.05212,4.69171-.1554,8.59503-.57422,16.00873-5.54535,19.83044-13.29779,3.8526-7.81525,3.27167-16.80304-1.55475-24.04205Z"/>
    <g>
      <g>
        <path class="cls-1" d="M48.71696,16.75789l-20.86127,31.29185c-9.80381,14.7057-.11733,34.63021,17.51739,35.80869,1.51319.10112,3.05734.15333,4.62587.15333s3.11267-.0522,4.62586-.15333c17.63472-1.17848,27.32317-21.10004,17.51936-35.80574-7.98857-11.98284-17.47964-26.21943-20.86656-31.2998-.60987-.9148-1.95078-.9098-2.56065.005Z"/>
        <path d="M49.99903,85c-1.57115,0-3.14953-.05211-4.69221-.15538-8.59306-.57422-16.00535-5.54534-19.82706-13.29686-3.85356-7.81714-3.27306-16.80588,1.55378-24.04639l20.86114-31.29172c.47096-.70692,1.25846-1.12866,2.10628-1.12866h.00048c.84493,0,1.62905.42029,2.09808,1.12432l20.86694,31.29944c4.82636,7.23906,5.40734,16.22684,1.55474,24.04204-3.82171,7.75248-11.23545,12.7236-19.83044,13.29782-1.5422.10326-3.12107.15538-4.69173.15538ZM50.00096,17.05748c-.08879,0-.3122.02413-.46179.24851l-20.86114,31.29172c-4.43068,6.64698-4.96388,14.89937-1.42542,22.0757,3.50613,7.11167,10.30463,11.67263,18.18643,12.1986,2.99753.20074,6.12294.20074,9.12048,0,7.88276-.52693,14.68271-5.08693,18.18884-12.19956,3.53701-7.17536,3.00429-15.42582-1.42639-22.07135l-20.86694-31.29992c-.14138-.21183-.34502-.24368-.45359-.24368h-.00048Z"/>
      </g>
      <path d="M70.54025,63.62254c-.18819-.23065-.46903-.36383-.76627-.36383H30.22504c-.29676,0-.57808.13318-.76579.36383-.18771.22969-.26202.53272-.20218.82321.31751,1.54702.83721,3.05447,1.54364,4.47797,2.8769,5.83776,8.4483,9.57841,14.90564,10.0069,1.4481.09265,2.89282.13994,4.29315.13994,1.39068,0,2.83444-.04729,4.29557-.13994,6.46506-.42946,12.03743-4.17107,14.90178-10.00497.7074-1.42542,1.22758-2.93287,1.54509-4.4799.05983-.29049-.01448-.59352-.2017-.82321Z"/>
      <path d="M69.77494,60.90777H30.22504c-.54575,0-.98824-.44201-.98824-.98824s.44249-.98824.98824-.98824h39.5499c.54623,0,.98824.44201.98824.98824s-.44201.98824-.98824.98824Z"/>
    </g>
  </g>
</svg>