<?xml version="1.0" encoding="UTF-8"?>
<svg id="Layer_2" data-name="Layer 2" xmlns="http://www.w3.org/2000/svg" viewBox="0 0 100 100">
  <defs>
    <style>
      .cls-1 {
        fill: #ff5e16;
      }

      .cls-2 {
        fill: #8b7ff6;
      }

      .cls-3 {
        fill: #5bf672;
      }

      .cls-4 {
        fill: #333;
      }
    </style>
  </defs>
  <g id="Background">
    <rect class="cls-3" width="100" height="100"/>
    <path class="cls-2" d="M82.91998,10.89996c9.22003,39.75-47.91998,48.31-72.34998,42.76001-4.17999-.95001-7.67999-.58997-10.57001.70001V0h81.17999c.22003,3.12.77002,6.72998,1.73999,10.89996Z"/>
    <path class="cls-2" d="M100,49.25v50.75h-40.27002c.39001-5.83002,4.63-10.85004,12.23999-10.34003,13.5.91003,27.16003-13.08002,21.65002-22.06-3.45001-5.59998.97003-14.38,6.38-18.34998Z"/>
  </g>
  <g id="Icon">
    <path class="cls-4" d="M79.62327,24.81689h-7.47107c-.54846-1.75446-2.28864-3.04932-4.36932-3.04932h-3.84839v-.3042c0-1.63422-1.32965-2.96338-2.96387-2.96338h-5.73468c-1.63379,0-2.96344,1.32916-2.96344,2.96338v.3042h-3.84839c-2.08063,0-3.82086,1.29486-4.36932,3.04932h-7.47156c-2.51593,0-4.56305,2.04712-4.56305,4.56305v53.55701c0,2.51593,2.04712,4.56305,4.56305,4.56305h43.04004c2.51691,0,4.56403-2.04712,4.56403-4.56305V29.37994c0-2.51593-2.04712-4.56305-4.56403-4.56305Z"/>
    <g>
      <g>
        <rect class="cls-1" x="24.88837" y="23.28873" width="50.22327" height="60.73944" rx="3.69547" ry="3.69547"/>
        <path d="M71.5198,85H28.47974c-2.51594,0-4.56305-2.04711-4.56305-4.56305V26.87995c0-2.51594,2.04711-4.56305,4.56305-4.56305h43.04006c2.51689,0,4.564,2.04711,4.564,4.56305v53.557c0,2.51594-2.04711,4.56305-4.564,4.56305ZM28.47974,24.26056c-1.44446,0-2.61939,1.17493-2.61939,2.61939v53.557c0,1.44446,1.17493,2.61939,2.61939,2.61939h43.04006c1.44446,0,2.62034-1.17493,2.62034-2.61939V26.87995c0-1.44446-1.17588-2.61939-2.62034-2.61939H28.47974Z"/>
      </g>
      <g>
        <path class="cls-1" d="M59.67941,20.23924h-4.33834c-.26615,0-.48191-.21576-.48191-.48191v-.79385c0-1.09996-.89169-1.99165-1.99165-1.99165h-5.735c-1.09996,0-1.99165.89169-1.99165,1.99165v.79385c0,.26615-.21576.48191-.48191.48191h-4.33834c-1.98506,0-3.5943,1.4463-3.5943,3.2304v5.4691c0,1.7841,1.60924,3.2304,3.5943,3.2304h19.3588c1.98506,0,3.5943-1.4463,3.5943-3.2304v-5.4691c0-1.7841-1.60924-3.2304-3.5943-3.2304Z"/>
        <path d="M59.67941,33.14086h-19.3588c-2.51784,0-4.5659-1.88482-4.5659-4.20194v-5.4694c0-2.31711,2.04806-4.20194,4.5659-4.20194h3.84841v-.30417c0-1.63427,1.32962-2.96342,2.96342-2.96342h5.73466c1.63427,0,2.96389,1.32915,2.96389,2.96342v.30417h3.84841c2.51784,0,4.5659,1.88482,4.5659,4.20194v5.4694c0,2.31711-2.04806,4.20194-4.5659,4.20194ZM40.32061,21.21125c-1.44588,0-2.62224,1.01311-2.62224,2.25827v5.4694c0,1.24516,1.17635,2.25827,2.62224,2.25827h19.3588c1.44636,0,2.62224-1.01311,2.62224-2.25827v-5.4694c0-1.24516-1.17588-2.25827-2.62224-2.25827h-4.33812c-.80195,0-1.45395-.65247-1.45395-1.45395v-.79388c0-.56231-.45744-1.01976-1.02023-1.01976h-5.73466c-.56231,0-1.01976.45744-1.01976,1.01976v.79388c0,.80148-.652,1.45395-1.45395,1.45395h-4.33812Z"/>
      </g>
      <path d="M67.00705,41.26761h-34.01503c-.53669,0-.97183-.43514-.97183-.97183s.43514-.97183.97183-.97183h34.01503c.53716,0,.97183.43514.97183.97183s-.43467.97183-.97183.97183Z"/>
      <path d="M67.00705,50.98592h-34.01503c-.53669,0-.97183-.43514-.97183-.97183s.43514-.97183.97183-.97183h34.01503c.53716,0,.97183.43514.97183.97183s-.43467.97183-.97183.97183Z"/>
      <path d="M67.00705,60.70423h-34.01503c-.53669,0-.97183-.43467-.97183-.97183s.43514-.97183.97183-.97183h34.01503c.53716,0,.97183.43467.97183.97183s-.43467.97183-.97183.97183Z"/>
      <path d="M67.00705,70.42254h-34.01503c-.53669,0-.97183-.43467-.97183-.97183s.43514-.97183.97183-.97183h34.01503c.53716,0,.97183.43467.97183.97183s-.43467.97183-.97183.97183Z"/>
    </g>
  </g>
</svg>