<?xml version="1.0" encoding="UTF-8"?>
<svg id="Layer_2" data-name="Layer 2" xmlns="http://www.w3.org/2000/svg" viewBox="0 0 100 100">
  <defs>
    <style>
      .cls-1 {
        fill: #ff5e16;
      }

      .cls-2 {
        fill: #fffb6c;
      }

      .cls-3 {
        fill: #95ebf2;
      }

      .cls-4 {
        fill: #333;
      }
    </style>
  </defs>
  <g id="Background">
    <rect class="cls-2" width="100" height="100"/>
    <path class="cls-3" d="M74.2428,80.45679c-30.51646,9.24004-25.92593-49.30041-50.20576-37.53086C15.0715,47.27193,6.34003,82.79999,0,84.94V0h100v17.76001c-11.56,1.94-5.09877,56.44164-25.7572,62.69678Z"/>
  </g>
  <g id="Icon">
    <path class="cls-4" d="M27.00055,47.26257l50.13513-.00085-11.05664-11.05664c-1.75439-1.75391-1.75439-4.60889,0-6.36377,1.75391-1.75488,4.60986-1.75488,6.36377,0l18.73828,18.73828c.8501.8501,1.31836,1.97998,1.31836,3.18213,0,1.20215-.46826,2.33203-1.31836,3.18164l-18.73828,18.73828c-.84961.85059-1.97998,1.31836-3.18213,1.31836-1.20166,0-2.33203-.46777-3.18164-1.31836-.8501-.84961-1.31787-1.97949-1.31787-3.18164,0-1.20215.46777-2.33203,1.31787-3.18164l11.05664-11.05664-50.13513.00085c-2.48145,0-4.5-2.01855-4.5-4.5s2.01855-4.5,4.5-4.5Z"/>
    <g>
      <path class="cls-1" d="M19.50006,46.50006l52.54901-.00089-12.76349-12.76349c-1.36682-1.36682-1.36682-3.58289,0-4.94971s3.58295-1.36688,4.94977,0l18.73834,18.73828c1.36682,1.36688,1.36682,3.58295,0,4.94977l-18.73834,18.73834c-1.36682,1.36682-3.58289,1.36682-4.94977,0-1.36682-1.36682-1.36682-3.58295,0-4.94977l12.76343-12.76343-52.54895.00089c-1.93292,0-3.49994-1.56702-3.49994-3.5v-.00006c0-1.93298,1.56702-3.49994,3.49994-3.49994Z"/>
      <path d="M58.57849,71.91907c-.8501-.84961-1.31787-1.97949-1.31787-3.18164s.46777-2.33203,1.31787-3.18164l11.05664-11.05664-50.13513.00089c-2.48145,0-4.5-2.01855-4.5-4.5,0-2.48145,2.01855-4.5,4.5-4.5l50.13513-.00089-11.05664-11.05664c-1.75439-1.75391-1.75439-4.60889,0-6.36377,1.75391-1.75488,4.60986-1.75488,6.36377,0l18.73828,18.73828c.8501.8501,1.31836,1.97998,1.31836,3.18213,0,1.20215-.46826,2.33203-1.31836,3.18164l-18.73828,18.73828c-.84961.85059-1.97998,1.31836-3.18213,1.31836-1.20166,0-2.33203-.46777-3.18164-1.31836ZM59.99256,29.4928c-.97461.9751-.97461,2.56104,0,3.53564l14.4707,14.4707-54.96326.00089c-1.37891,0-2.5,1.12158-2.5,2.5s1.12109,2.5,2.5,2.5l54.96326-.00089-14.4707,14.4707c-.47217.47168-.73193,1.09961-.73193,1.76758s.25977,1.2959.73193,1.76758c.94482.94629,2.5918.94434,3.53564,0l18.73828-18.73828c.47217-.47266.73242-1.09961.73242-1.76758,0-.66748-.26025-1.29541-.73242-1.76807l-18.73828-18.73828c-.4873-.4873-1.12744-.73096-1.76807-.73096-.64014,0-1.28027.24365-1.76758.73096Z"/>
    </g>
  </g>
</svg>