<?xml version="1.0" encoding="UTF-8"?>
<svg id="Layer_2" data-name="Layer 2" xmlns="http://www.w3.org/2000/svg" viewBox="0 0 100 100">
  <defs>
    <style>
      .cls-1 {
        fill: #ff5e16;
      }

      .cls-2 {
        fill: #5bf672;
      }

      .cls-3 {
        fill: #95ebf2;
      }

      .cls-4 {
        fill: #333;
      }
    </style>
  </defs>
  <g id="Background">
    <rect class="cls-2" width="100" height="100"/>
    <path class="cls-3" d="M100,21.76001v78.23999H0v-33.84003c7.77002-9.39001,19.33002-17.54999,28.09998-9.58002,13.34003,12.09003,26.34003,22.30005,28.48004,3.45001,1.57996-13.87,27.06-38.63,43.41998-38.26996Z"/>
  </g>
  <g id="Icon">
    <path class="cls-4" d="M82.79259,28.80416c-6.71808-7.05865-15.76886-10.94617-25.48535-10.94617-9.42114,0-18.39648,3.77948-25.00311,10.45081v-4.50934c0-2.34155-1.90503-4.24658-4.24658-4.24658s-4.24658,1.90503-4.24658,4.24658v15.32117c0,2.34149,1.90503,4.24658,4.24658,4.24658h15.32117c2.34155,0,4.24658-1.90509,4.24658-4.24658s-1.90503-4.24658-4.24658-4.24658h-5.60516c5.02563-5.37067,12.17969-8.52289,19.53369-8.52289,7.34869,0,14.20001,2.93475,19.29382,8.26349,5.08887,5.32391,7.70874,12.30817,7.37689,19.66705-.60535,13.40979-11.13934,24.32037-24.50146,25.37927-5.13318.40485-10.20844-.6394-14.69147-3.02472-1.89923-1.01117-4.24805-.40973-5.46552,1.39752-.672.99847-.89001,2.24127-.59711,3.4101.29248,1.16589,1.06812,2.15759,2.12793,2.71912,5.06897,2.68701,10.71014,4.07776,16.46857,4.07776.96106,0,1.92596-.03894,2.89142-.11682,17.51477-1.41406,31.37616-15.72992,32.24524-33.29919.48071-9.72815-2.95081-18.96924-9.66296-26.02057Z"/>
    <g>
      <path class="cls-1" d="M49.80749,15.99654c-10.07378,0-19.56437,4.48813-25.99998,12.00653v-7.06171c0-1.79491-1.45509-3.25-3.25-3.25s-3.25,1.45509-3.25,3.25v15.32142c0,1.79491,1.45509,3.25,3.25,3.25h15.32142c1.79491,0,3.25-1.45509,3.25-3.25s-1.45509-3.25-3.25-3.25h-7.78024c5.21171-6.56466,13.20357-10.51625,21.7088-10.51625,15.69412,0,28.38166,13.1223,27.66596,28.97154-.62371,13.81096-11.63587,25.23685-25.41764,26.32887-5.35674.4245-10.60698-.6737-15.23924-3.13937-1.45055-.77209-3.25289-.28791-4.17058,1.07525-1.07751,1.60046-.53349,3.78813,1.1712,4.69177,5.7236,3.03418,12.20523,4.3809,18.81359,3.84753,16.95838-1.36877,30.48902-15.36211,31.32884-32.35495.9704-19.63601-14.72474-35.92063-34.15213-35.92063Z"/>
      <path d="M49.81893,85.38272c-5.75846,0-11.39964-1.39071-16.46859-4.07773-1.05982-.56154-1.83547-1.55324-2.12791-2.71914-.29293-1.16882-.07494-2.4116.59706-3.41011,1.21748-1.80724,3.56631-2.40868,5.46552-1.39752,4.48307,2.38533,9.55834,3.42958,14.69151,3.02472,13.36211-1.05885,23.89609-11.96946,24.50142-25.37926.33186-7.35889-2.28801-14.3431-7.3769-19.66703-5.09376-5.32879-11.94513-8.26349-19.2938-8.26349-7.35403,0-14.50806,3.15221-19.5337,8.52285h5.60518c2.34153,0,4.24658,1.90505,4.24658,4.24658s-1.90505,4.24658-4.24658,4.24658h-15.32118c-2.34153,0-4.24658-1.90505-4.24658-4.24658v-15.32118c0-2.34153,1.90505-4.24658,4.24658-4.24658s4.24658,1.90505,4.24658,4.24658v4.50935c6.60661-6.67132,15.58199-10.45077,25.00311-10.45077,9.71648,0,18.7673,3.88747,25.48534,10.94613,6.7122,7.05136,10.14372,16.29244,9.66296,26.0206-.86907,17.56928-14.73044,31.88514-32.24522,33.2992-.96542.07786-1.93035.11678-2.89139.11678ZM35.33374,75.28376c-.71871,0-1.42477.35717-1.86077,1.00532-.36252.53818-.47492,1.18244-.31727,1.81308.15766.62772.55813,1.13962,1.12795,1.44132,5.57939,2.95855,11.89841,4.25291,18.26707,3.73516,16.51919-1.33329,29.59518-14.83749,30.41365-31.41118.45351-9.17684-2.78337-17.89482-9.11504-24.54717-6.33849-6.65965-14.87739-10.32717-24.04207-10.32717-9.70043,0-18.90111,4.24902-25.24252,11.65803l-1.75372,2.0486v-9.75833c0-1.24278-1.01067-2.25346-2.25346-2.25346s-2.25346,1.01067-2.25346,2.25346v15.32118c0,1.24278,1.01067,2.25346,2.25346,2.25346h15.32118c1.24278,0,2.25346-1.01067,2.25346-2.25346s-1.01067-2.25346-2.25346-2.25346h-9.84349l1.28317-1.61601c5.4154-6.8212,13.82244-10.89309,22.48884-10.89309,7.89756,0,15.26181,3.15367,20.73512,8.87953,5.46844,5.72099,8.28393,13.22635,7.92676,21.13365-.65107,14.4122-11.97238,26.13933-26.33494,27.27701-5.50445.43502-10.96559-.68708-15.78588-3.25245-.32213-.17128-.67005-.25401-1.01457-.25401Z"/>
    </g>
  </g>
</svg>