<?xml version="1.0" encoding="UTF-8"?>
<svg id="Layer_2" data-name="Layer 2" xmlns="http://www.w3.org/2000/svg" viewBox="0 0 100 100">
  <defs>
    <style>
      .cls-1 {
        fill: #ff5e16;
      }

      .cls-2 {
        fill: #f7b0da;
      }

      .cls-3 {
        fill: #95ebf2;
      }

      .cls-4 {
        fill: #333;
      }
    </style>
  </defs>
  <g id="Background">
    <rect class="cls-3" width="100" height="100"/>
    <path class="cls-2" d="M100,86.28998v13.71002H0V0h21.65002c-.24005,1.60999-1.10004,3.07996-2.85004,4.22998-8.64001,5.67999,8.40002,53.91003,32.21002,43.78998,21.52002-9.14996,36.71997,24.35004,48.98999,38.27002Z"/>
  </g>
  <g id="Icon">
    <g>
      <path class="cls-4" d="M92.34001,56.45024c-.3291-2.47949-1.37695-5.98682-3.33203-8.396-1.50098-1.8501-3.36816-2.8374-5.4043-2.85889-.74121-2.81494-3.28125-4.83496-6.26074-4.83496-.01465,0-.0293,0-.04492.00049-.81836-2.39551-2.97559-4.11523-5.50977-4.36426v-6.55859c0-3.04053-2.47363-5.51416-5.51465-5.51416-3.04004,0-5.51367,2.47363-5.51367,5.51416v26.29932c0,.41504-.22168.77148-.59375.9541-.37207.18359-.79004.14062-1.11816-.11133l-5.08545-3.91797c-2.73193-2.10645-6.64111-1.86328-8.89893.55273-1.25635,1.34473-1.8916,3.16016-1.74316,4.98242.14893,1.82422,1.06494,3.50977,2.51367,4.62598,0,0,7.88818,6.07715,8.00684,6.16895l2.77588,2.1377c4.27393,3.62207,4.38428,5.77734,4.64893,10.98535.03906.78516.08301,1.63086.14355,2.5498.10059,1.50293,1.35938,2.67969,2.86523,2.67969h18.53613c1.46582,0,2.69238-1.09863,2.85352-2.55664l.82227-7.4668c.27637-2.50977,1.08301-4.83496,2.33301-6.72363,2.89844-4.38379,4.14941-9.4082,3.52051-14.14746Z"/>
      <path class="cls-4" d="M57.06193,19.52635c-.30267-.72986-.89386-1.32104-1.62244-1.62317-.36884-.15271-.7547-.2298-1.14832-.2298h-12.5c-1.65424,0-3,1.34576-3,3s1.34576,3,3,3h5.25751l-18.25751,18.25751v-5.25751c0-1.65424-1.34576-3-3-3s-3,1.34576-3,3v12.5c0,.39313.07703.77881.22894,1.14624.30298.73065.89417,1.32178,1.62274,1.62396.36884.15265.7547.2298,1.14832.2298h12.5c1.65424,0,3-1.34583,3-3s-1.34576-3-3-3h-5.25751l18.25751-18.25751v5.25751c0,1.65417,1.34576,3,3,3s3-1.34583,3-3v-12.5c0-.39362-.07715-.77954-.22925-1.14703Z"/>
    </g>
    <g>
      <g>
        <g>
          <path class="cls-1" d="M58.73184,22.5c2.49302,0,4.51402,2.02099,4.51402,4.51402v7.56393c.12216-.00808.23834-.03652.36253-.03652,2.68743,0,4.9179,1.92794,5.40132,4.4747.26054-.03779.52013-.07978.7911-.07978,2.8365,0,5.14466,2.1533,5.44522,4.90982.24667-.03378.49124-.07533.7472-.07533,1.94713,0,3.49966,1.01469,4.6963,2.4895,1.80182,2.22066,2.7968,5.4845,3.11711,7.89831.62643,4.72064-.75948,9.52612-3.36374,13.4633-1.41316,2.13645-2.21287,4.62015-2.49307,7.16631l-.82171,7.46674c-.10434.94809-.90537,1.66581-1.85919,1.66581h-18.53659c-.98276-.00002-1.80187-.76547-1.86722-1.74605-.47073-7.06229.1443-9.75026-5.144-14.23185l-2.81213-2.16679c-.00038-.00025-8.00654-6.16895-8.00654-6.16895-2.5498-1.96454-2.90244-5.72356-.65036-8.13345,1.96321-2.10079,5.28021-2.19884,7.55789-.44392l5.08544,3.91827c1.35655,1.04521,3.3224.07818,3.3224-1.63433v-26.29971c0-2.49302,2.02099-4.51402,4.51402-4.51402h0Z"/>
          <path d="M75.26855,84.9209h-18.53613c-1.50586,0-2.76465-1.17676-2.86523-2.67969-.06055-.91895-.10449-1.76465-.14355-2.5498-.26465-5.20801-.375-7.36328-4.64893-10.98535l-2.77588-2.1377c-.11865-.0918-8.00684-6.16895-8.00684-6.16895-1.44873-1.11621-2.36475-2.80176-2.51367-4.62598-.14844-1.82227.48682-3.6377,1.74316-4.98242,2.25781-2.41602,6.16699-2.65918,8.89893-.55273l5.08545,3.91797c.32812.25195.74609.29492,1.11816.11133.37207-.18262.59375-.53906.59375-.9541v-26.29932c0-3.04053,2.47363-5.51416,5.51367-5.51416,3.04102,0,5.51465,2.47363,5.51465,5.51416v6.55859c2.53418.24902,4.69141,1.96875,5.50977,4.36426.01562-.00049.03027-.00049.04492-.00049,2.97949,0,5.51953,2.02002,6.26074,4.83496,2.03613.02148,3.90332,1.00879,5.4043,2.85889,1.95508,2.40918,3.00293,5.9165,3.33203,8.396.62891,4.73926-.62207,9.76367-3.52051,14.14746-1.25,1.88867-2.05664,4.21387-2.33301,6.72363l-.82227,7.4668c-.16113,1.45801-1.3877,2.55664-2.85352,2.55664ZM47.51953,64.98438l2.81201,2.16699c4.97119,4.21094,5.11963,7.13281,5.38916,12.43848.03906.77539.08203,1.61035.14258,2.51855.03027.45508.41211.8125.86914.8125h18.53613c.44434,0,.81641-.33301.86523-.77539l.82227-7.4668c.31152-2.82422,1.22852-5.45508,2.65332-7.6084,2.63184-3.98145,3.77051-8.52051,3.20605-12.78027-.29297-2.20898-1.20996-5.31348-2.90234-7.3999-1.14062-1.40625-2.45996-2.11914-3.91992-2.11914-.16699,0-.32715.02588-.48828.04883l-1.1416.15576-.11133-1.021c-.25-2.29053-2.16309-4.01807-4.45117-4.01807-.19629,0-.38379.03076-.57324.05859l-.94824.13818-.25195-.93066c-.40234-2.12158-2.26074-3.66113-4.41895-3.66113-.14746.02002-.2207.0293-.29492.03418l-1.06738.07275v-8.63428c0-1.9375-1.57715-3.51416-3.51465-3.51416s-3.51367,1.57666-3.51367,3.51416v26.29932c0,1.17676-.65527,2.22949-1.71094,2.74902-1.05469.51953-2.29102.39648-3.22168-.32227l-5.08545-3.91797c-1.9248-1.48193-4.65576-1.33594-6.21729.33398-.88477.94727-1.31494,2.1748-1.21045,3.45508.10303,1.2627.7373,2.43066,1.74072,3.2041,5.6792,4.375,7.41943,5.71582,7.98682,6.19531l.02002-.02637Z"/>
        </g>
        <path d="M63.24609,55.96094c-.55273,0-1-.44727-1-1v-20.38281c0-.55225.44727-1,1-1s1,.44775,1,1v20.38281c0,.55273-.44727,1-1,1Z"/>
        <path d="M69.00977,55.96094c-.55273,0-1-.44727-1-1v-15.94482c0-.55225.44727-1,1-1s1,.44775,1,1v15.94482c0,.55273-.44727,1-1,1Z"/>
        <path d="M75.24609,55.96094c-.55273,0-1-.44727-1-1v-11.11475c0-.55225.44727-1,1-1s1,.44775,1,1v11.11475c0,.55273-.44727,1-1,1Z"/>
        <path d="M73.36035,80.9209h-14.61914c-.53418,0-.97363-.41895-.99902-.95215l-.02441-.48145c-.24023-4.71973-.41309-8.12988-4.16895-12.06543-.38086-.39941-.36621-1.03223.0332-1.41406.39844-.38086,1.0332-.36621,1.41406.0332,4.13379,4.33203,4.4502,8.1416,4.69531,12.87988h13.66895c.55273,0,1,.44727,1,1s-.44727,1-1,1Z"/>
      </g>
      <g>
        <path class="cls-1" d="M18.24902,48.74951c-.25977,0-.51611-.05127-.76172-.15186-.48926-.20361-.88281-.59717-1.08447-1.08154-.10254-.25049-.15381-.50684-.15381-.7666v-12.5c0-1.10303.89697-2,2-2s2,.89697,2,2v7.67188l21.67188-21.67188h-7.67188c-1.10303,0-2-.89697-2-2s.89697-2,2-2h12.5c.25977,0,.51611.05127.76172.15186.48926.20361.88281.59717,1.08447,1.08154.10205.24707.15381.50439.15381.7666v12.5c0,1.10303-.89697,2-2,2s-2-.89697-2-2v-7.67188l-21.67188,21.67188h7.67188c1.10303,0,2,.89697,2,2s-.89697,2-2,2h-12.5Z"/>
        <path d="M46.74902,17.24951c.13025,0,.25989.02661.38214.07721.24445.10138.43927.2962.54065.54065.0506.12225.07721.25189.07721.38214v12.5c0,.55225-.44775,1-1,1s-1-.44775-1-1v-10.08594l-25.08594,25.08594h10.08594c.55225,0,1,.44775,1,1s-.44775,1-1,1h-12.5c-.13025,0-.25989-.02661-.38214-.07721-.24445-.10138-.43927-.2962-.54065-.54065-.05054-.12225-.07721-.25189-.07721-.38214v-12.5c0-.55225.44775-1,1-1s1,.44775,1,1v10.08594l25.08594-25.08594h-10.08594c-.55225,0-1-.44775-1-1s.44775-1,1-1h12.5M46.74902,15.24951h-12.5c-1.65421,0-3,1.34579-3,3s1.34579,3,3,3h5.25752l-18.25752,18.25752v-5.25752c0-1.65421-1.34579-3-3-3s-3,1.34579-3,3v12.5c0,.39315.07702.7788.22893,1.14625.30302.73064.89418,1.3218,1.62275,1.62396.36882.15266.75473.22979,1.14832.22979h12.5c1.65421,0,3-1.34579,3-3s-1.34579-3-3-3h-5.25752l18.25752-18.25752v5.25752c0,1.65421,1.34579,3,3,3s3-1.34579,3-3v-12.5c0-.39359-.07713-.7795-.22925-1.14702-.3027-.72987-.89386-1.32103-1.62243-1.62319-.36882-.15266-.75473-.22979-1.14832-.22979h0Z"/>
      </g>
    </g>
  </g>
</svg>