<?xml version="1.0" encoding="UTF-8"?>
<svg id="Layer_2" data-name="Layer 2" xmlns="http://www.w3.org/2000/svg" viewBox="0 0 793.74515 175.29994">
  <defs>
    <style>
      .cls-1 {
        fill: #ff5e16;
      }

      .cls-2 {
        fill: #ffe100;
      }

      .cls-3, .cls-4 {
        fill: #ff37ce;
      }

      .cls-5, .cls-6, .cls-7, .cls-8, .cls-4, .cls-9, .cls-10, .cls-11, .cls-12, .cls-13 {
        stroke-miterlimit: 10;
      }

      .cls-5, .cls-6, .cls-7, .cls-8, .cls-14, .cls-15, .cls-10, .cls-11, .cls-12, .cls-13, .cls-16 {
        fill: none;
      }

      .cls-5, .cls-6, .cls-8 {
        stroke: #6c47dc;
      }

      .cls-5, .cls-8, .cls-10, .cls-12 {
        stroke-width: 6px;
      }

      .cls-6 {
        stroke-width: 4px;
      }

      .cls-6, .cls-7, .cls-8, .cls-14, .cls-15, .cls-10, .cls-12, .cls-13, .cls-16 {
        stroke-linecap: round;
      }

      .cls-7 {
        stroke: #20d5f2;
      }

      .cls-7, .cls-15, .cls-11, .cls-16 {
        stroke-width: 3px;
      }

      .cls-17 {
        fill: #fff;
      }

      .cls-18, .cls-9 {
        fill: #20d5f2;
      }

      .cls-4, .cls-9 {
        stroke: #000;
        stroke-width: 2px;
      }

      .cls-14, .cls-15 {
        stroke: #fff;
      }

      .cls-14, .cls-15, .cls-16 {
        stroke-linejoin: round;
      }

      .cls-14, .cls-13 {
        stroke-width: 5px;
      }

      .cls-10, .cls-11 {
        stroke: #ffe100;
      }

      .cls-12, .cls-13 {
        stroke: #ff37ce;
      }

      .cls-16 {
        stroke: #ff5e16;
      }
    </style>
  </defs>
  <g id="Logo">
    <g>
      <path class="cls-4" d="M38.94454,134.01883c-7.18262-.24219-12.15186-.60059-14.90381-1.07812-8.26025-1.07715-13.64697-4.90723-16.16113-11.49219-.83594-2.51367-1.07764-5.08691-.71826-7.7207,1.31592-6.94141,5.68457-11.43066,13.1084-13.46777,1.5542-.59766,3.82959-1.01562,6.82324-1.25684l.89795-.17969v-.89746c0-2.87305-.06152-5.68457-.17969-8.44043-.12061-6.82324-.1792-15.86035-.1792-27.11377,0-11.25098.11768-17.65674.35889-19.21387l.17969-.53857h-2.15479c-4.19189-.35889-7.18262-.95654-8.97852-1.79541-3.9502-1.7959-6.58496-5.146-7.90088-10.05566-.71826-2.51416-.83887-4.90723-.35889-7.18262.95654-5.98486,4.30957-10.29443,10.05566-12.92871,5.26611-2.51416,13.16699-3.83008,23.70264-3.95068,11.49219-.23828,20.47021.78027,26.93457,3.05273,5.50488,1.91602,9.27588,4.73047,11.31299,8.43945,1.6748,2.87305,2.33398,5.92578,1.9751,9.15771-.95947,8.50146-7.00293,13.58838-18.13623,15.26318l-1.9751.17969v4.30957c0,2.27539-.12061,7.48291-.35938,15.62207,0,6.94434-.12061,13.88818-.35889,20.83008,0,2.1543-.03076,4.69922-.08984,7.63086-.06152,2.93555-.08984,4.46094-.08984,4.5791v2.51367l.53857.17969c5.38721,1.19824,9.45557,2.81445,12.21045,4.84863,5.50488,3.83203,7.95996,8.91895,7.3623,15.2627-.95947,6.94434-4.91016,11.49219-11.85107,13.64746-4.91016,1.55371-15.26318,2.1543-31.06494,1.7959Z"/>
      <path class="cls-4" d="M151.5129,133.30008c-3.9502-.71777-7.18262-2.45215-9.69629-5.20703-3.35303-3.23242-5.56641-8.19824-6.64404-14.9043-.47998-3.70898-.47998-9.45508,0-17.23828.11768-2.15527.20752-4.75879.26953-7.81152.05859-3.05176.02783-4.99609-.08984-5.83594-.60059-3.8291-1.55713-6.28418-2.87305-7.36182-.35938-.35889-.78027-.53857-1.25684-.53857-1.31885,0-1.97559,1.07715-1.97559,3.23193.47705,5.8667.11816,14.42725-1.07715,25.67822-.12061.35938-.30029,2.0957-.53857,5.20703-.83936,7.54199-2.27588,12.92871-4.30957,16.16113-2.87305,4.19141-6.64404,6.82324-11.31299,7.90137-2.27539.59668-4.66846.65625-7.18262.17871-2.51367-.71777-4.90967-2.09277-7.18262-4.12988-4.0708-3.70898-6.58496-10.77344-7.5415-21.18848-.23877-2.03418-.35938-6.16406-.35938-12.38965,0-6.22363.06201-10.89258.17969-14.00684.35938-10.53223,1.13623-18.61279,2.33447-24.24121,1.19531-5.26611,3.11133-9.3374,5.74609-12.21045,2.39307-2.39307,5.20752-3.9502,8.43945-4.66846,1.07764-.11768,2.63184-.17969,4.66895-.17969,3.82959.12061,6.82324.89795,8.97803,2.33447,2.27246,1.55713,3.41162,2.63428,3.41162,3.23193,0,.2417.41797,0,1.25732-.71826,3.82959-2.75244,9.27539-4.24756,16.34033-4.48877,8.01855-.35938,14.84229,2.0957,20.47021,7.36182l1.07763,1.07764,1.07715-1.07764c4.18896-3.70898,9.27588-6.16406,15.26318-7.36182,9.3374-2.03418,17.65625,0,24.95947,6.10498,7.90088,6.58496,12.62891,16.69971,14.18604,30.34668.59766,4.90967.89746,11.34326.89746,19.30322,0,7.96289-.2998,14.15723-.89746,18.58496-.47998,3.47363-1.25732,6.34668-2.33447,8.61914-2.15479,4.30957-5.8667,7.3623-11.1333,9.1582-8.25977,2.75195-14.90381,1.61621-19.93164-3.41211-3.11426-3.11133-5.02783-7.65918-5.74609-13.64648-.47949-3.35059-.47949-8.67871,0-15.98145.59766-11.73047,0-19.15234-1.79541-22.2666-.71826-1.19482-1.49854-1.94434-2.33447-2.24414-.83887-.29785-1.43652-.02832-1.7959.80762-.24121.35938-.2998,1.13916-.1792,2.33447.35889,3.95068.53857,10.23486.53857,18.854,0,8.97852-.24121,15.08398-.71826,18.31641-1.43652,9.45801-5.74609,15.32422-12.92871,17.59766-2.99365.95605-5.74609,1.19434-8.26025.71777Z"/>
      <path class="cls-4" d="M295.46944,132.40262c-3.83252-.59766-7.00293-1.91406-9.51709-3.95117l-.89795-.71777-1.07715.35938c-4.30957,1.43652-8.79883,2.1543-13.46729,2.1543-6.10547.24121-11.73389-.77734-16.87939-3.05273-14.60645-6.34375-22.92529-18.6748-24.95947-36.99023-.12061-1.07715-.17969-2.87305-.17969-5.38672,0-2.51465.05908-4.30957.17969-5.38721.83594-6.10547,2.51367-11.73047,5.02783-16.87939,2.87305-5.625,6.64404-10.35303,11.3125-14.18555,5.38721-4.66846,11.73047-7.78027,19.03418-9.3374,3.70898-.95654,7.95947-1.19531,12.74902-.71826,3.3501.35938,6.70264,1.31885,10.05566,2.87305.23828.12061.53857.24121.89795.35938.23828.12061.47656.1792.71826.1792l.1792.17969c.23877-.23828.53906-.41797.89795-.53857,2.87305-2.27246,6.70264-3.29102,11.49219-3.05273,6.10547.35938,10.65332,2.87305,13.64697,7.54199,1.07764,1.31836,1.91357,3.11426,2.51416,5.38672.47656,1.31885,1.07715,4.66895,1.79541,10.05566,1.7959,13.64697,1.73389,28.49219-.17969,44.53223-.95947,6.82324-2.0957,11.97168-3.41162,15.44238-1.19775,2.75586-2.27539,4.66895-3.23193,5.74609-2.15479,2.63477-4.96924,4.37207-8.43994,5.20801-.71826.11719-2.03662.20703-3.9502.26953-1.9165.05859-3.35303.02734-4.30957-.08984ZM278.10452,95.75444c.94355,0,1.41763-.18501,1.41763-.56582.56736-.56736.94355-5.5734,1.13395-15.02582.18578-5.47858.09328-8.50425-.28368-9.07084-.56659-1.3205-1.89095-1.98499-3.96844-1.98499-2.83526,0-5.48398.94817-7.93766,2.83526-2.45831,1.89172-4.15962,4.35003-5.10317,7.37107-1.13395,3.40108-1.23108,6.42752-.28291,9.07161,1.51014,4.34925,4.06172,6.80371,7.65398,7.36953.56659.19118,1.79382.28368,3.68553.28368,1.88632,0,3.11817-.0925,3.68476-.28368Z"/>
      <path class="cls-4" d="M373.84786,174.24149c-7.42383-.60059-13.94727-2.63477-19.57227-6.10547-5.62842-3.47363-9.4585-7.7832-11.49219-12.92871-1.31885-3.11426-1.85742-5.9873-1.61621-8.61914,0-1.67773.47705-3.5918,1.43652-5.74609,1.43652-3.83301,4.24756-6.70605,8.43945-8.61914,2.87305-1.31641,5.86377-1.7959,8.97852-1.43652,3.34961.47949,6.64355,1.7959,9.87598,3.9502,2.99072,1.91309,5.3252,2.81152,7.00293,2.69336,3.3501-.24121,5.50488-2.45508,6.46436-6.64355l.17969-1.97559c-.95947.47949-3.29395,1.01855-7.00293,1.61621-5.02783.60059-8.97852.60059-11.85156,0-8.14209-1.19531-15.2041-4.72754-21.18848-10.59473-9.4585-9.45508-14.00635-21.78613-13.64746-36.99023.12109-7.4209,1.7959-14.42383,5.02832-21.00928,3.34961-6.70264,8.01855-12.14844,14.00586-16.34033,7.65967-5.14551,16.5791-7.4209,26.75537-6.82324,4.54785.35889,8.73682,1.43652,12.56934,3.23193l1.61621.71826,1.25684-.89795c3.4707-2.39307,7.60059-3.6499,12.39014-3.77051,4.78613-.11816,8.97852.89746,12.56934,3.05225,3.70898,2.39648,6.04395,5.74609,7.00293,10.05566l.53906,2.69385c.71875,2.87305,1.13672,11.79248,1.25684,26.75537.11816,14.72363,0,24.7207-.35938,29.9873,0,.24121-.03027.69043-.08984,1.34668-.06152.65918-.15137,1.49805-.26855,2.51367-.12109,1.01855-.17969,1.94727-.17969,2.7832-.60059,9.45801-1.67773,17.11816-3.23242,22.98438-1.55664,5.86426-4.01172,11.3125-7.3623,16.34082-2.39551,3.70898-4.78906,6.52344-7.18262,8.43945-5.62793,4.90723-13.10791,7.95996-22.44531,9.1582-4.55127.23828-7.84229.29688-9.87646.17969ZM381.31616,99.99384c1.93513-.64198,3.14476-1.6102,3.62821-2.90204.48411-.96823.48411-5.23841,0-12.82109-.32493-7.57741-.72551-11.9318-1.20897-13.06183-1.13069-2.74024-3.10727-4.14982-5.92643-4.23335-2.82377-.07893-5.52586,1.17213-8.10362,3.74924-1.61415,1.61415-2.9027,3.87027-3.87027,6.77297-.32493,1.93579-.48345,3.62887-.48345,5.07989,0,1.93513.2414,3.87027.72551,5.8054,2.09366,7.90366,6.12639,11.85287,12.09426,11.85287,1.45168,0,2.49818-.07893,3.14476-.24206Z"/>
      <path class="cls-4" d="M474.09834,134.19754c-6.10547-.47949-11.13379-1.67773-15.08398-3.59082-5.14844-2.39355-9.66895-6.22363-13.55762-11.49219-3.89062-5.2666-6.6748-11.43066-8.34961-18.49512-.83887-3.70898-1.31543-7.48047-1.43652-11.3125-.35938-9.33789,1.6748-18.31592,6.10547-26.93506,5.86426-11.49219,14.42383-18.37451,25.67773-20.65039,6.34375-1.31592,13.52637-1.37451,21.54785-.1792,6.58203.95947,12.26952,3.35254,17.05859,7.18262,2.63184,2.27539,4.48926,4.12988,5.56641,5.56641,5.86426,7.18262,9.45605,16.04297,10.77441,26.5752.71777,4.30957.71777,8.79883,0,13.46777-.47949,4.43066-1.67773,9.04004-3.5918,13.82617-5.02734,12.92871-13.22852,21.07129-24.59961,24.42188-3.35352,1.07715-8.02246,1.61523-14.00684,1.61523-3.59082.23926-5.62793.23926-6.10449,0ZM481.70502,103.36617c4.15911-1.78847,6.97645-5.58912,8.44402-11.40195.97638-2.97876.97638-5.73502,0-8.27122-1.46757-6.25965-4.2849-10.2068-8.44402-11.84877-1.96275-.74408-3.79771-.74408-5.50688,0-3.91751,1.78847-6.85465,5.96299-8.81141,12.5199-1.22797,4.91799.1198,9.98674,4.03931,15.20139,2.20235,2.23589,4.03731,3.57694,5.50688,4.02436,1.46757.44742,3.05694.37326,4.7721-.22371Z"/>
      <path class="cls-9" d="M551.63252,135.45535c-6.10547-1.07812-10.65625-4.66895-13.64746-10.77441-2.87305-5.625-4.24805-16.99707-4.12988-34.11719.23828-15.56055.71875-29.80811,1.43652-42.73682.71875-10.65332,1.97559-18.5542,3.77148-23.70264,1.79492-5.14551,4.60645-8.79883,8.43945-10.95361,2.63184-1.5542,5.74609-2.57275,9.33691-3.05273.35938,0,1.10547-.11768,2.24512-.35889,1.13574-.23877,1.88477-.35938,2.24414-.35938,3.83008-.71826,7.18262-1.13623,10.05566-1.25684,6.46484-.11768,13.04688.78027,19.75195,2.69336.23828.12061,1.07812.4209,2.51465.89795,3.9502.95947,8.13867,3.17334,12.56934,6.64404,3.59082,2.75537,6.64355,5.9873,9.15723,9.69629,4.18945,6.58496,6.22363,14.12695,6.10547,22.62549-.35938,10.41455-3.17285,19.21338-8.43945,26.396-.35938.71826-.83887,1.37793-1.43652,1.9751l-.71777.53906,1.07715,1.43604c3.9502,6.22656,6.58203,14.00684,7.90039,23.34375.95703,7.42383.11816,13.76758-2.51367,19.03418-2.03711,4.19141-5.14844,7.3623-9.33691,9.5166-4.91016,2.39355-9.99707,3.05273-15.26367,1.97559-5.50781-1.31836-9.15723-4.90723-10.95312-10.77441-.83887-2.27246-1.43652-5.98438-1.7959-11.13281-.24121-4.30957-.78027-7.47949-1.61621-9.5166-.35938-1.07812-1.07715-2.27246-2.1543-3.5918-.83887-.83594-1.37793-1.13574-1.61621-.89746,0,.95898-.06152,1.97461-.17969,3.05273-.35938,9.57812-1.49805,16.76074-3.41211,21.54785-3.47363,8.25977-8.97754,12.26953-16.51953,12.03027-1.55762,0-2.51367-.06152-2.87305-.17871ZM578.46936,69.15908c7.8841-3.17884,12.17028-8.68591,12.86133-16.5222.33573-2.93724-.34692-5.99528-2.05916-9.17911-1.72063-2.69064-4.37291-4.70936-7.97363-6.05817-3.60072-1.34182-6.77619-1.52553-9.5152-.55011-2.40608,1.22701-4.11551,2.56983-5.14509,4.03845-.34692.98041-.34692,3.30464,0,6.97569.33573,1.22801.59313,3.30464.77218,6.24188.16787,2.93724.25739,5.01986.25739,6.24188,0,4.16425.33573,6.79198,1.02678,7.8932.68265,1.10221,2.22702,1.65232,4.6303,1.65232.68265,0,2.39489-.24061,5.14509-.73381Z"/>
      <path class="cls-9" d="M675.51241,133.30008c-9.5791-.95996-18.07715-3.83008-25.49805-8.61914-7.30371-4.78613-12.81152-11.55078-16.52051-20.29102-4.66895-10.77344-5.14551-22.26562-1.43652-34.47656,4.06836-13.52637,12.14941-22.92236,24.24121-28.19189,3.5918-1.43652,7.95996-2.45215,13.1084-3.05225,6.58203-.83643,12.86719-.29736,18.85449,1.61572,7.18262,2.39648,12.74902,6.58545,16.7002,12.56982,4.78613,7.18262,6.16406,14.54492,4.12988,22.08643-2.63477,10.41455-10.71582,16.8208-24.24121,19.21338-4.07129.71875-9.04004.95996-14.9043.71875l-1.61621-.17969.17969.35938c.35938.71777,1.31543,1.67773,2.87305,2.87305.11816,0,.32812.06152.62793.17871.29785.12109.56738.24219.80859.35938.23828.12109.47656.17969.71777.17969.71875.24121,1.7959.30078,3.23242.17969,1.43652,0,4.24805-.53906,8.43945-1.61621,4.66895-1.31543,8.37793-1.85449,11.13379-1.61621,4.66797.71875,8.37695,3.11426,11.13281,7.18262.83594,1.55762,1.61621,3.5918,2.33398,6.10547.59766,2.87305.65625,5.50781.17969,7.90039-2.03711,9.69727-9.69629,15.26367-22.98438,16.7002-1.07715.11816-2.93457.14844-5.56641.08984-2.63477-.06152-4.61035-.15137-5.92578-.26953ZM680.40717,72.73358c4.2581-5.00423,5.50654-8.15766,4.25998-10.01002-3.64631-5.41839-9.35624-9.14461-15.28758-6.98997-3.5892,1.30383-8.22846,6.0787-9.56227,10.22999-3.61379,11.25014,16.31247,11.79658,20.58987,6.77Z"/>
      <path class="cls-9" d="M750.44502,132.22293c-4.07129-.47754-7.54199-2.27246-10.41504-5.3877-4.30957-4.54785-6.94434-12.20996-7.90039-22.98438l-.17969-2.1543-1.43652-.53906c-4.91016-1.6748-8.56055-4.60645-10.95312-8.79883-1.43652-2.87305-2.15527-5.86328-2.15527-8.97754,0-1.91406.29785-3.771.89746-5.56689,1.7959-5.02783,5.86426-8.25977,12.21094-9.69629.83594-.11816,1.25684-.35938,1.25684-.71826v-.35938c0-.23828.02832-.47705.08984-.71826.05859-.23828.08984-.53857.08984-.89795v-1.07715c.23828-6.46436.71777-12.50781,1.43652-18.13623,1.55469-11.13281,4.24805-19.63135,8.08008-25.49805,3.5918-5.38721,8.67871-9.2168,15.26367-11.49219,4.30957-1.31592,8.73633-1.97559,13.28711-1.97559,4.78711,0,8.61914.71826,11.49219,2.15479,2.75293,1.31885,5.14648,3.35303,7.18262,6.10547,2.03418,2.75537,3.35059,5.68701,3.95117,8.79883.23828,2.51367.05859,4.78906-.53906,6.82324-.71777,2.396-1.97559,4.43018-3.77051,6.10547-1.55762,1.55713-4.12988,3.23193-7.72168,5.02783l-2.69336,1.34668c-1.07715.53857-1.67773.86963-1.7959.9873-2.39551,1.7959-4.01172,5.02783-4.84766,9.69678-.24219,1.19824-.35938,3.65283-.35938,7.3623,0,3.71191.05859,5.56641.17969,5.56641,4.66797,1.43652,8.31836,3.29395,10.95312,5.56641,3.11133,2.51416,4.90723,5.53857,5.38672,9.06836.47754,3.53223-.4209,7.03418-2.69336,10.50391-2.1543,3.11523-5.56641,5.6875-10.23535,7.72168l-1.61621.71875-.17871,3.9502c0,8.1416-1.31934,14.30664-3.95117,18.49512-2.51367,4.55078-6.22559,7.48242-11.13281,8.79883-2.51367.59766-4.91016.65625-7.18262.17969Z"/>
    </g>
    <g>
      <path d="M31.94454,130.01883c-7.18262-.24219-12.15186-.60059-14.90381-1.07812-8.26025-1.07715-13.64697-4.90723-16.16113-11.49219-.83594-2.51367-1.07764-5.08691-.71826-7.7207,1.31592-6.94141,5.68457-11.43066,13.1084-13.46777,1.5542-.59766,3.82959-1.01562,6.82324-1.25684l.89795-.17969v-.89746c0-2.87305-.06152-5.68457-.17969-8.44043-.12061-6.82324-.1792-15.86035-.1792-27.11377,0-11.25098.11768-17.65674.35889-19.21387l.17969-.53857h-2.15479c-4.19189-.35889-7.18262-.95654-8.97852-1.79541-3.9502-1.7959-6.58496-5.146-7.90088-10.05566-.71826-2.51416-.83887-4.90723-.35889-7.18262.95654-5.98486,4.30957-10.29443,10.05566-12.92871,5.26611-2.51416,13.16699-3.83008,23.70264-3.95068,11.49219-.23828,20.47021.78027,26.93457,3.05273,5.50488,1.91602,9.27588,4.73047,11.31299,8.43945,1.6748,2.87305,2.33398,5.92578,1.9751,9.15771-.95947,8.50146-7.00293,13.58838-18.13623,15.26318l-1.9751.17969v4.30957c0,2.27539-.12061,7.48291-.35938,15.62207,0,6.94434-.12061,13.88818-.35889,20.83008,0,2.1543-.03076,4.69922-.08984,7.63086-.06152,2.93555-.08984,4.46094-.08984,4.5791v2.51367l.53857.17969c5.38721,1.19824,9.45557,2.81445,12.21045,4.84863,5.50488,3.83203,7.95996,8.91895,7.3623,15.2627-.95947,6.94434-4.91016,11.49219-11.85107,13.64746-4.91016,1.55371-15.26318,2.1543-31.06494,1.7959Z"/>
      <path d="M144.5129,129.30008c-3.9502-.71777-7.18262-2.45215-9.69629-5.20703-3.35303-3.23242-5.56641-8.19824-6.64404-14.9043-.47998-3.70898-.47998-9.45508,0-17.23828.11768-2.15527.20752-4.75879.26953-7.81152.05859-3.05176.02783-4.99609-.08984-5.83594-.60059-3.8291-1.55713-6.28418-2.87305-7.36182-.35938-.35889-.78027-.53857-1.25684-.53857-1.31885,0-1.97559,1.07715-1.97559,3.23193.47705,5.8667.11816,14.42725-1.07715,25.67822-.12061.35938-.30029,2.0957-.53857,5.20703-.83936,7.54199-2.27588,12.92871-4.30957,16.16113-2.87305,4.19141-6.64404,6.82324-11.31299,7.90137-2.27539.59668-4.66846.65625-7.18262.17871-2.51367-.71777-4.90967-2.09277-7.18262-4.12988-4.0708-3.70898-6.58496-10.77344-7.5415-21.18848-.23877-2.03418-.35938-6.16406-.35938-12.38965,0-6.22363.06201-10.89258.17969-14.00684.35938-10.53223,1.13623-18.61279,2.33447-24.24121,1.19531-5.26611,3.11133-9.3374,5.74609-12.21045,2.39307-2.39307,5.20752-3.9502,8.43945-4.66846,1.07764-.11768,2.63184-.17969,4.66895-.17969,3.82959.12061,6.82324.89795,8.97803,2.33447,2.27246,1.55713,3.41162,2.63428,3.41162,3.23193,0,.2417.41797,0,1.25732-.71826,3.82959-2.75244,9.27539-4.24756,16.34033-4.48877,8.01855-.35938,14.84229,2.0957,20.47021,7.36182l1.07763,1.07764,1.07715-1.07764c4.18896-3.70898,9.27588-6.16406,15.26318-7.36182,9.3374-2.03418,17.65625,0,24.95947,6.10498,7.90088,6.58496,12.62891,16.69971,14.18604,30.34668.59766,4.90967.89746,11.34326.89746,19.30322,0,7.96289-.2998,14.15723-.89746,18.58496-.47998,3.47363-1.25732,6.34668-2.33447,8.61914-2.15479,4.30957-5.8667,7.3623-11.1333,9.1582-8.25977,2.75195-14.90381,1.61621-19.93164-3.41211-3.11426-3.11133-5.02783-7.65918-5.74609-13.64648-.47949-3.35059-.47949-8.67871,0-15.98145.59766-11.73047,0-19.15234-1.79541-22.2666-.71826-1.19482-1.49854-1.94434-2.33447-2.24414-.83887-.29785-1.43652-.02832-1.7959.80762-.24121.35938-.2998,1.13916-.1792,2.33447.35889,3.95068.53857,10.23486.53857,18.854,0,8.97852-.24121,15.08398-.71826,18.31641-1.43652,9.45801-5.74609,15.32422-12.92871,17.59766-2.99365.95605-5.74609,1.19434-8.26025.71777Z"/>
      <path d="M288.46944,128.40262c-3.83252-.59766-7.00293-1.91406-9.51709-3.95117l-.89795-.71777-1.07715.35938c-4.30957,1.43652-8.79883,2.1543-13.46729,2.1543-6.10547.24121-11.73389-.77734-16.87939-3.05273-14.60645-6.34375-22.92529-18.6748-24.95947-36.99023-.12061-1.07715-.17969-2.87305-.17969-5.38672,0-2.51465.05908-4.30957.17969-5.38721.83594-6.10547,2.51367-11.73047,5.02783-16.87939,2.87305-5.625,6.64404-10.35303,11.3125-14.18555,5.38721-4.66846,11.73047-7.78027,19.03418-9.3374,3.70898-.95654,7.95947-1.19531,12.74902-.71826,3.3501.35938,6.70264,1.31885,10.05566,2.87305.23828.12061.53857.24121.89795.35938.23828.12061.47656.1792.71826.1792l.1792.17969c.23877-.23828.53906-.41797.89795-.53857,2.87305-2.27246,6.70264-3.29102,11.49219-3.05273,6.10547.35938,10.65332,2.87305,13.64697,7.54199,1.07764,1.31836,1.91357,3.11426,2.51416,5.38672.47656,1.31885,1.07715,4.66895,1.79541,10.05566,1.7959,13.64697,1.73389,28.49219-.17969,44.53223-.95947,6.82324-2.0957,11.97168-3.41162,15.44238-1.19775,2.75586-2.27539,4.66895-3.23193,5.74609-2.15479,2.63477-4.96924,4.37207-8.43994,5.20801-.71826.11719-2.03662.20703-3.9502.26953-1.9165.05859-3.35303.02734-4.30957-.08984ZM271.10452,91.75444c.94355,0,1.41763-.18501,1.41763-.56582.56736-.56736.94355-5.5734,1.13395-15.02582.18578-5.47858.09328-8.50425-.28368-9.07084-.56659-1.3205-1.89095-1.98499-3.96844-1.98499-2.83526,0-5.48398.94817-7.93766,2.83526-2.45831,1.89172-4.15962,4.35003-5.10317,7.37107-1.13395,3.40108-1.23108,6.42752-.28291,9.07161,1.51014,4.34925,4.06172,6.80371,7.65398,7.36953.56659.19118,1.79382.28368,3.68553.28368,1.88632,0,3.11817-.0925,3.68476-.28368Z"/>
      <path d="M366.84786,170.24149c-7.42383-.60059-13.94727-2.63477-19.57227-6.10547-5.62842-3.47363-9.4585-7.7832-11.49219-12.92871-1.31885-3.11426-1.85742-5.9873-1.61621-8.61914,0-1.67773.47705-3.5918,1.43652-5.74609,1.43652-3.83301,4.24756-6.70605,8.43945-8.61914,2.87305-1.31641,5.86377-1.7959,8.97852-1.43652,3.34961.47949,6.64355,1.7959,9.87598,3.9502,2.99072,1.91309,5.3252,2.81152,7.00293,2.69336,3.3501-.24121,5.50488-2.45508,6.46436-6.64355l.17969-1.97559c-.95947.47949-3.29395,1.01855-7.00293,1.61621-5.02783.60059-8.97852.60059-11.85156,0-8.14209-1.19531-15.2041-4.72754-21.18848-10.59473-9.4585-9.45508-14.00635-21.78613-13.64746-36.99023.12109-7.4209,1.7959-14.42383,5.02832-21.00928,3.34961-6.70264,8.01855-12.14844,14.00586-16.34033,7.65967-5.14551,16.5791-7.4209,26.75537-6.82324,4.54785.35889,8.73682,1.43652,12.56934,3.23193l1.61621.71826,1.25684-.89795c3.4707-2.39307,7.60059-3.6499,12.39014-3.77051,4.78613-.11816,8.97852.89746,12.56934,3.05225,3.70898,2.39648,6.04395,5.74609,7.00293,10.05566l.53906,2.69385c.71875,2.87305,1.13672,11.79248,1.25684,26.75537.11816,14.72363,0,24.7207-.35938,29.9873,0,.24121-.03027.69043-.08984,1.34668-.06152.65918-.15137,1.49805-.26855,2.51367-.12109,1.01855-.17969,1.94727-.17969,2.7832-.60059,9.45801-1.67773,17.11816-3.23242,22.98438-1.55664,5.86426-4.01172,11.3125-7.3623,16.34082-2.39551,3.70898-4.78906,6.52344-7.18262,8.43945-5.62793,4.90723-13.10791,7.95996-22.44531,9.1582-4.55127.23828-7.84229.29688-9.87646.17969ZM374.31616,95.99384c1.93513-.64198,3.14476-1.6102,3.62821-2.90204.48411-.96823.48411-5.23841,0-12.82109-.32493-7.57741-.72551-11.9318-1.20897-13.06183-1.13069-2.74024-3.10727-4.14982-5.92643-4.23335-2.82377-.07893-5.52586,1.17213-8.10362,3.74924-1.61415,1.61415-2.9027,3.87027-3.87027,6.77297-.32493,1.93579-.48345,3.62887-.48345,5.07989,0,1.93513.2414,3.87027.72551,5.8054,2.09366,7.90366,6.12639,11.85287,12.09426,11.85287,1.45168,0,2.49818-.07893,3.14476-.24206Z"/>
      <path d="M467.09834,130.19754c-6.10547-.47949-11.13379-1.67773-15.08398-3.59082-5.14844-2.39355-9.66895-6.22363-13.55762-11.49219-3.89062-5.2666-6.6748-11.43066-8.34961-18.49512-.83887-3.70898-1.31543-7.48047-1.43652-11.3125-.35938-9.33789,1.6748-18.31592,6.10547-26.93506,5.86426-11.49219,14.42383-18.37451,25.67773-20.65039,6.34375-1.31592,13.52637-1.37451,21.54785-.1792,6.58203.95947,12.26952,3.35254,17.05859,7.18262,2.63184,2.27539,4.48926,4.12988,5.56641,5.56641,5.86426,7.18262,9.45605,16.04297,10.77441,26.5752.71777,4.30957.71777,8.79883,0,13.46777-.47949,4.43066-1.67773,9.04004-3.5918,13.82617-5.02734,12.92871-13.22852,21.07129-24.59961,24.42188-3.35352,1.07715-8.02246,1.61523-14.00684,1.61523-3.59082.23926-5.62793.23926-6.10449,0ZM474.70502,99.36617c4.15911-1.78847,6.97645-5.58912,8.44402-11.40195.97638-2.97876.97638-5.73502,0-8.27122-1.46757-6.25965-4.2849-10.2068-8.44402-11.84877-1.96275-.74408-3.79771-.74408-5.50688,0-3.91751,1.78847-6.85465,5.96299-8.81141,12.5199-1.22797,4.91799.1198,9.98674,4.03931,15.20139,2.20235,2.23589,4.03731,3.57694,5.50688,4.02436,1.46757.44742,3.05694.37326,4.7721-.22371Z"/>
      <path d="M544.63252,131.45535c-6.10547-1.07812-10.65625-4.66895-13.64746-10.77441-2.87305-5.625-4.24805-16.99707-4.12988-34.11719.23828-15.56055.71875-29.80811,1.43652-42.73682.71875-10.65332,1.97559-18.5542,3.77148-23.70264,1.79492-5.14551,4.60645-8.79883,8.43945-10.95361,2.63184-1.5542,5.74609-2.57275,9.33691-3.05273.35938,0,1.10547-.11768,2.24512-.35889,1.13574-.23877,1.88477-.35938,2.24414-.35938,3.83008-.71826,7.18262-1.13623,10.05566-1.25684,6.46484-.11768,13.04688.78027,19.75195,2.69336.23828.12061,1.07812.4209,2.51465.89795,3.9502.95947,8.13867,3.17334,12.56934,6.64404,3.59082,2.75537,6.64355,5.9873,9.15723,9.69629,4.18945,6.58496,6.22363,14.12695,6.10547,22.62549-.35938,10.41455-3.17285,19.21338-8.43945,26.396-.35938.71826-.83887,1.37793-1.43652,1.9751l-.71777.53906,1.07715,1.43604c3.9502,6.22656,6.58203,14.00684,7.90039,23.34375.95703,7.42383.11816,13.76758-2.51367,19.03418-2.03711,4.19141-5.14844,7.3623-9.33691,9.5166-4.91016,2.39355-9.99707,3.05273-15.26367,1.97559-5.50781-1.31836-9.15723-4.90723-10.95312-10.77441-.83887-2.27246-1.43652-5.98438-1.7959-11.13281-.24121-4.30957-.78027-7.47949-1.61621-9.5166-.35938-1.07812-1.07715-2.27246-2.1543-3.5918-.83887-.83594-1.37793-1.13574-1.61621-.89746,0,.95898-.06152,1.97461-.17969,3.05273-.35938,9.57812-1.49805,16.76074-3.41211,21.54785-3.47363,8.25977-8.97754,12.26953-16.51953,12.03027-1.55762,0-2.51367-.06152-2.87305-.17871ZM571.46936,65.15908c7.8841-3.17884,12.17028-8.68591,12.86133-16.5222.33573-2.93724-.34692-5.99528-2.05916-9.17911-1.72063-2.69064-4.37291-4.70936-7.97363-6.05817-3.60072-1.34182-6.77619-1.52553-9.5152-.55011-2.40608,1.22701-4.11551,2.56983-5.14509,4.03845-.34692.98041-.34692,3.30464,0,6.97569.33573,1.22801.59313,3.30464.77218,6.24188.16787,2.93724.25739,5.01986.25739,6.24188,0,4.16425.33573,6.79198,1.02678,7.8932.68265,1.10221,2.22702,1.65232,4.6303,1.65232.68265,0,2.39489-.24061,5.14509-.73381Z"/>
      <path d="M668.51241,129.30008c-9.5791-.95996-18.07715-3.83008-25.49805-8.61914-7.30371-4.78613-12.81152-11.55078-16.52051-20.29102-4.66895-10.77344-5.14551-22.26562-1.43652-34.47656,4.06836-13.52637,12.14941-22.92236,24.24121-28.19189,3.5918-1.43652,7.95996-2.45215,13.1084-3.05225,6.58203-.83643,12.86719-.29736,18.85449,1.61572,7.18262,2.39648,12.74902,6.58545,16.7002,12.56982,4.78613,7.18262,6.16406,14.54492,4.12988,22.08643-2.63477,10.41455-10.71582,16.8208-24.24121,19.21338-4.07129.71875-9.04004.95996-14.9043.71875l-1.61621-.17969.17969.35938c.35938.71777,1.31543,1.67773,2.87305,2.87305.11816,0,.32812.06152.62793.17871.29785.12109.56738.24219.80859.35938.23828.12109.47656.17969.71777.17969.71875.24121,1.7959.30078,3.23242.17969,1.43652,0,4.24805-.53906,8.43945-1.61621,4.66895-1.31543,8.37793-1.85449,11.13379-1.61621,4.66797.71875,8.37695,3.11426,11.13281,7.18262.83594,1.55762,1.61621,3.5918,2.33398,6.10547.59766,2.87305.65625,5.50781.17969,7.90039-2.03711,9.69727-9.69629,15.26367-22.98438,16.7002-1.07715.11816-2.93457.14844-5.56641.08984-2.63477-.06152-4.61035-.15137-5.92578-.26953ZM673.40717,68.73358c4.2581-5.00423,5.50654-8.15766,4.25998-10.01002-3.64631-5.41839-9.35624-9.14461-15.28758-6.98997-3.5892,1.30383-8.22846,6.0787-9.56227,10.22999-3.61379,11.25014,16.31247,11.79658,20.58987,6.77Z"/>
      <path d="M743.44502,128.22293c-4.07129-.47754-7.54199-2.27246-10.41504-5.3877-4.30957-4.54785-6.94434-12.20996-7.90039-22.98438l-.17969-2.1543-1.43652-.53906c-4.91016-1.6748-8.56055-4.60645-10.95312-8.79883-1.43652-2.87305-2.15527-5.86328-2.15527-8.97754,0-1.91406.29785-3.771.89746-5.56689,1.7959-5.02783,5.86426-8.25977,12.21094-9.69629.83594-.11816,1.25684-.35938,1.25684-.71826v-.35938c0-.23828.02832-.47705.08984-.71826.05859-.23828.08984-.53857.08984-.89795v-1.07715c.23828-6.46436.71777-12.50781,1.43652-18.13623,1.55469-11.13281,4.24805-19.63135,8.08008-25.49805,3.5918-5.38721,8.67871-9.2168,15.26367-11.49219,4.30957-1.31592,8.73633-1.97559,13.28711-1.97559,4.78711,0,8.61914.71826,11.49219,2.15479,2.75293,1.31885,5.14648,3.35303,7.18262,6.10547,2.03418,2.75537,3.35059,5.68701,3.95117,8.79883.23828,2.51367.05859,4.78906-.53906,6.82324-.71777,2.396-1.97559,4.43018-3.77051,6.10547-1.55762,1.55713-4.12988,3.23193-7.72168,5.02783l-2.69336,1.34668c-1.07715.53857-1.67773.86963-1.7959.9873-2.39551,1.7959-4.01172,5.02783-4.84766,9.69678-.24219,1.19824-.35938,3.65283-.35938,7.3623,0,3.71191.05859,5.56641.17969,5.56641,4.66797,1.43652,8.31836,3.29395,10.95312,5.56641,3.11133,2.51416,4.90723,5.53857,5.38672,9.06836.47754,3.53223-.4209,7.03418-2.69336,10.50391-2.1543,3.11523-5.56641,5.6875-10.23535,7.72168l-1.61621.71875-.17871,3.9502c0,8.1416-1.31934,14.30664-3.95117,18.49512-2.51367,4.55078-6.22559,7.48242-11.13281,8.79883-2.51367.59766-4.91016.65625-7.18262.17969Z"/>
    </g>
    <path class="cls-1" d="M60.49973,40.68804c-.95859,0-1.91688-.36576-2.64839-1.09697l-6.35657-6.35627c-1.46273-1.46273-1.46273-3.83406,0-5.29679,1.46242-1.46242,3.83376-1.46242,5.29679,0l3.70818,3.70787,16.4195-16.4195c1.46242-1.46242,3.83437-1.46242,5.29679,0,1.46273,1.46273,1.46273,3.83406,0,5.29679l-19.06789,19.06789c-.73121.73121-1.6898,1.09697-2.64839,1.09697Z"/>
    <path class="cls-3" d="M751.08445,82.49152c-.16371-.94451.03302-1.95118.62855-2.79683l5.1773-7.34873c1.19143-1.69105,3.52793-2.09603,5.21897-.9046,1.6907,1.19118,2.09568,3.52768.9046,5.21897l-3.02011,4.28694,18.98244,13.37411c1.6907,1.19118,2.09578,3.52828.9046,5.21897-1.19143,1.69105-3.52793,2.09603-5.21897.9046l-22.04423-15.5313c-.84535-.59559-1.36944-1.47763-1.53315-2.42214Z"/>
    <path class="cls-2" d="M57.5171,98.84753l2.78407,16.06237c.45382,2.61827,3.54951,3.79043,5.62367,2.12937l12.28173-9.83562c2.07416-1.66106,1.6068-4.93807-.84902-5.95307l-15.0658-6.22674c-2.54202-1.05062-5.2444,1.11353-4.77465,3.8237Z"/>
    <path class="cls-1" d="M602.33227,103.02621l-14.69897,13.29185c-1.97097,1.78229-1.3082,5.02543,1.20399,5.89155l18.08346,6.2345c2.5122.86611,5.03281-1.27952,4.57899-3.89779l-3.38448-19.52635c-.46975-2.71017-3.74284-3.83861-5.78299-1.99376Z"/>
    <circle class="cls-17" cx="187.4954" cy="53.06334" r="5.99097"/>
    <circle class="cls-17" cx="696.20461" cy="117.809" r="8.637"/>
    <path class="cls-7" d="M335.59414,94.224c-.65529-2.43766,2.72754-5.62643,2.34001-7.84272-.43779-2.50379-4.6758-4.42521-4.78645-6.65673-.12649-2.55094,3.93747-4.77584,4.21679-6.98622.31846-2.52012-2.95593-5.79758-2.14214-7.89759.89285-2.30401,5.50725-2.39934,6.95306-4.22804,1.46649-1.85486.48617-6.34959,2.47464-7.74839,1.87668-1.32016,5.88429,1.04189,8.18501.09923,2.10518-.86254,3.16515-5.37086,5.59352-5.9397,2.22186-.52046,5.26353,3.01101,7.73155,2.7193,2.27888-.26935,4.35196-4.42959,6.8216-4.51732,2.30712-.08196,4.71107,3.91054,7.16918,3.97621"/>
    <path class="cls-6" d="M363.88504,160.81978c2.33586-2.72309,11.05498,2.80714,13.08196,1.46351,2.97447-1.97169,1.93124-11.8345,4.45212-12.3306,3.02652-.5956,8.89017,8.67138,11.66197,7.38273,2.1659-1.00696-1.83724-10.16151.40995-13.26508,1.41053-1.94807,11.44103.58718,12.9502-2.65768"/>
    <circle class="cls-11" cx="294.1803" cy="52.40922" r="5.89671"/>
    <circle class="cls-5" cx="765.79684" cy="16.57792" r="6.30435"/>
    <path class="cls-6" d="M542.93647,110.24389l-7.60062-11.07482c-.30822-.4491-.28497-1.04729.05716-1.47112l10.88457-13.48352c.34233-.42408.36539-1.02268.05668-1.47182l-10.64832-15.49263c-.34198-.49756-.27305-1.16962.16282-1.5874l10.22225-9.79796c.48421-.46411.50824-1.23028.05407-1.72382l-6.87639-7.47246"/>
    <path class="cls-13" d="M685.12653,47.15781c5.48546,7.86386,19.88875,16.46468,3.42785,27.59637"/>
    <path class="cls-8" d="M89.74239,114.98551c8.23045,4.6126,23.86831,3.37803,21.39918-11.84831"/>
    <path class="cls-10" d="M736.67725,99.50258c-5.34979-10.28807-10.69959-11.91378-12.34568-13.3643s-5.34979-10.89683,6.17284-15.22717,12.78111-12.67844,9.87654-18.87695"/>
    <path class="cls-18" d="M20.28806,15.86537c.61825-1.51761,4.25927-2.52604,9.07352-3.62571.55525-.12683.90305-.67955.77827-1.23527l-.15645-.69672c-.12499-.55664-.67724-.90651-1.23428-.78334-5.22271,1.15483-9.00572,1.81255-10.42315.67821-1.32939-1.06398-1.51912-4.58714-1.53893-9.17073-.00246-.57021-.46451-1.03182-1.03472-1.03182h-.71485c-.57021,0-1.03226.46161-1.03472,1.03182-.01981,4.58365-.20961,8.10675-1.539,9.17073-1.4169,1.13427-5.20002.47676-10.42309-.67818-.55707-.12318-1.10934.22672-1.2343.78339l-.1564.69669c-.12475.5557.22305,1.10838.77828,1.23521,4.81428,1.09968,8.45532,2.10811,9.07358,3.6258.67122,1.64771-1.60414,5.49775-4.77522,10.40766-.30954.47928-.17382,1.11923.30459,1.43012l.29922.19445s0,0,0,.00002c0,0,0,0,0-.00002l.29922.19445c.47841.3109,1.11823.17509,1.43051-.30242,3.11307-4.76015,5.63404-8.29572,7.33477-8.29572s4.22177,3.53556,7.33491,8.2957c.31229.47751.95213.61331,1.43053.30239l.59833-.38886c.47838-.3109.61409-.95083.30456-1.43009-3.17103-4.90993-5.44639-8.76006-4.77517-10.40777Z"/>
    <path class="cls-2" d="M462.03731,123.2504c.61825-1.51761,4.25927-2.52604,9.07352-3.62571.55525-.12683.90305-.67955.77827-1.23527l-.15645-.69672c-.12499-.55664-.67724-.90651-1.23428-.78334-5.22271,1.15483-9.00572,1.81255-10.42315.67821-1.32939-1.06398-1.51912-4.58714-1.53893-9.17073-.00246-.57021-.46451-1.03182-1.03472-1.03182h-.71485c-.57021,0-1.03226.46161-1.03472,1.03182-.01981,4.58365-.20961,8.10675-1.539,9.17073-1.4169,1.13427-5.20002.47676-10.42309-.67818-.55707-.12318-1.10934.22672-1.2343.78339l-.1564.69669c-.12475.5557.22305,1.10838.77828,1.23521,4.81428,1.09968,8.45532,2.10811,9.07358,3.6258.67122,1.64771-1.60414,5.49775-4.77522,10.40766-.30954.47928-.17382,1.11923.30459,1.43012l.29922.19445s0,0,0,.00002c0,0,0,0,0-.00002l.29922.19445c.47841.3109,1.11823.17509,1.43051-.30242,3.11307-4.76015,5.63404-8.29572,7.33477-8.29572s4.22177,3.53556,7.33491,8.2957c.31229.47751.95213.61331,1.43053.30239l.59833-.38886c.47838-.3109.61409-.95083.30456-1.43009-3.17103-4.90993-5.44639-8.76006-4.77517-10.40777Z"/>
    <path class="cls-12" d="M603.48675,33.82092c-8.74944-20.22678-22.7791-5.08248-24.59121-8.88164-5.15598-10.80971-16.9391-14.44788-27.03963-3.94258"/>
    <path class="cls-1" d="M293.18756,117.14114c-2.126.58974-5.34593,1.67142-7.13219.15564-1.61142-1.53195-2.26048-4.14908-2.90852-6.61524-1.11017-4.63207.31947-5.81131,4.55769-7.21879,2.49897-.71434,4.9866-1.55541,6.95723-.63548,1.55757.90518,2.17634,2.91334,2.7598,4.57121.56382,1.80651,1.22302,4.21639.93037,5.92091-.45653,2.28174-2.73814,2.97009-5.11601,3.80652l-.04838.01523Z"/>
    <path class="cls-2" d="M106.6573,61.57477c-2.76446.76685-6.95136,2.17336-9.27405.20238-2.09535-1.99201-2.93933-5.39509-3.78197-8.60186-1.44357-6.02312.41541-7.5565,5.92641-9.38666,3.24943-.92887,6.48412-2.02252,9.04654-.82632,2.02532,1.17702,2.82992,3.78824,3.58859,5.94399.73314,2.34902,1.59031,5.48261,1.20977,7.69902-.59363,2.96697-3.56042,3.86204-6.65239,4.94965l-.0629.0198Z"/>
    <path class="cls-18" d="M244.64065,72.09498c-1.17163.89904-1.94435-1.10463-2.25842-2.03171-1.0229-3.66285-3.97083-6.49797-7.62343-7.48966-.37017-.12821-.71933-.27221-1.02711-.44198-1.2351-.65552-1.4181-1.51772-.1785-2.25057.29468-.18058.64072-.33965,1.01032-.4752,3.99032-1.09316,6.85326-3.93934,7.94808-7.93014.27087-.73699.77885-1.81773,1.52426-1.88439.73161-.03957,1.32653,1.13442,1.58343,1.8603,1.0791,3.96166,3.94234,6.85551,7.90874,7.93638.4279.15412.8273.33972,1.1524.55226,1.66771,1.06762.23076,2.08176-1.05595,2.54524-3.51149.95324-6.50636,3.4587-7.66025,6.96532-.29292.88022-.64173,2.05973-1.31046,2.63316l-.01311.01097Z"/>
    <path class="cls-14" d="M10.89024,113.04636c-.27873-12.39556,18.40097-5.07642,20.14098-12.01688.80182-3.20508-.64889-7.9975-.87789-11.26318-.33147-4.72699-.55521-9.46152-.67116-14.1987-.23191-9.47436-.03255-18.95925.59854-28.41542"/>
    <path class="cls-16" d="M193.63867,122.4486c.83704.76888,2.14677.30077,2.75749-.66627s.69784-2.24632.71233-3.45684c.04298-3.58959-.39839-7.29792-1.92888-10.48575s-4.29573-5.77754-7.42238-6.13445c-.41067-.04688-.8633-.04117-1.17323.2584-.33705.32578-.39774.8922-.40042,1.40509-.02847,5.44326,4.54721,10.4834,9.28385,10.22622.58829-.03194,1.2083-.15239,1.63719-.60173.45965-.48157.60542-1.23623.71975-1.94495.77509-4.80427,1.14184-9.79106.26981-14.63142-.87202-4.84035-3.10113-9.54969-6.6665-12.40243-.80942-.64764-1.78071-1.21515-2.72608-.98348-1.19004.29164-1.88071,1.80423-1.82909,3.20867s.66749,2.71161,1.3038,3.93361c1.83096,3.51624,3.96369,6.83277,6.35592,9.88381,1.67139,2.1317,3.56623,4.2035,5.93011,5.0789.74043.2742,1.67219.36318,2.14881-.31523.24411-.34746.30471-.81827.35054-1.26638,1.05455-10.31171-1.36968-21.16064-6.66291-29.81789-.74979-1.22631-1.59444-2.44906-2.75143-3.13806s-2.70313-.69695-3.58189.35116c-.92143,1.09899-.79304,2.98407-.04914,4.30177s1.95707,2.18402,3.15754,2.93499c1.69501,1.06033,3.45195,1.98506,5.25327,2.76493.66861.28947,1.42023.55826,2.06388.24357.67382-.32944,1.00202-1.18634,1.23466-1.98428.68211-2.33954,1.05222-4.80792,1.09388-7.29539"/>
    <path class="cls-18" d="M473.33128,51.91331c-1.3376,3.39957,2.13644,6.71559,5.47097,5.22323,7.53296-3.37135,18.44309-6.22102,25.7944.68476,12.22799,11.4869-5.02953-21.86216-17.15129-21.12107-6.83839.41808-11.41964,8.36502-14.11408,15.21308Z"/>
    <circle class="cls-1" cx="752.59684" cy="22.88227" r="8.637"/>
    <circle class="cls-2" cx="384.79385" cy="112.8776" r="8.637"/>
    <path class="cls-15" d="M402.91632,44.01426c2.37555,4.45044,4.80853,9.10872,4.94348,14.15168.1307,4.88428-1.90909,9.52371-3.15945,14.24716-2.23943,8.45993-1.89639,17.27833-.60096,25.85815,1.13593,7.52341,5.538,16.22429,2.06682,23.49274"/>
  </g>
</svg>