<?xml version="1.0" encoding="UTF-8"?>
<svg id="Layer_2" data-name="Layer 2" xmlns="http://www.w3.org/2000/svg" xmlns:xlink="http://www.w3.org/1999/xlink" viewBox="0 0 176 88">
  <defs>
    <style>
      .cls-1 {
        fill: #ffe100;
      }

      .cls-2 {
        fill: #ff37ce;
      }

      .cls-3 {
        fill: url(#linear-gradient-2);
      }

      .cls-4 {
        fill: url(#linear-gradient);
      }

      .cls-5 {
        fill: #333;
      }
    </style>
    <linearGradient id="linear-gradient" x1="10.3205" y1="17.54199" x2="167.79968" y2="70.17095" gradientUnits="userSpaceOnUse">
      <stop offset="0" stop-color="#95ebf2"/>
      <stop offset=".03434" stop-color="#95ebf2" stop-opacity=".89976"/>
      <stop offset=".13403" stop-color="#95ebf2" stop-opacity=".62999"/>
      <stop offset=".229" stop-color="#95ebf2" stop-opacity=".40519"/>
      <stop offset=".3166" stop-color="#95ebf2" stop-opacity=".22988"/>
      <stop offset=".39526" stop-color="#95ebf2" stop-opacity=".10402"/>
      <stop offset=".46221" stop-color="#95ebf2" stop-opacity=".02736"/>
      <stop offset=".50947" stop-color="#95ebf2" stop-opacity="0"/>
    </linearGradient>
    <linearGradient id="linear-gradient-2" x1="15.3813" y1="11.97676" x2="167.41324" y2="78.63199" gradientUnits="userSpaceOnUse">
      <stop offset=".58627" stop-color="#95ebf2" stop-opacity="0"/>
      <stop offset="1" stop-color="#95ebf2"/>
    </linearGradient>
  </defs>
  <g id="Design">
    <g>
      <g>
        <path d="M158.97266,5.95947c-.01373-.00659-.02704-.01379-.04071-.02039-.013-.00623-.02576-.01318-.03876-.01941-.01373-.00659-.02704-.01367-.04071-.02026-.013-.00635-.02576-.01318-.03876-.01953-.01373-.00659-.02704-.01367-.04071-.02026-.013-.00635-.02576-.01318-.03876-.01941-.01373-.00659-.02704-.01379-.04071-.02039-.013-.00623-.02576-.01318-.03876-.01929-.01373-.00659-.02704-.01379-.04071-.02039-.013-.00623-.02576-.01318-.03876-.01941-.01373-.00659-.02704-.01367-.04071-.02026-.013-.00635-.02576-.01318-.03876-.01953-.01373-.00659-.02704-.01367-.04071-.02026-.013-.00635-.02576-.01318-.03876-.01941-.01373-.00659-.02704-.01379-.04071-.02039-.013-.00623-.02576-.01318-.03876-.01929-.01373-.00659-.02704-.01379-.04071-.02039-.013-.00623-.02576-.01318-.03876-.01941-.01373-.00659-.02704-.01367-.04071-.02026-.013-.00635-.02576-.01318-.03876-.01953-.01373-.00659-.02704-.01367-.04071-.02026-.013-.00635-.02576-.01318-.03876-.01941-.01373-.00659-.02704-.01379-.04071-.02039-.013-.00623-.02576-.01318-.03876-.01929-.01355-.00659-.02667-.01367-.04022-.02026-.01355-.00647-.02673-.01343-.04028-.02002-.013-.00635-.02576-.01318-.03876-.01941-.01373-.00659-.02704-.01379-.04071-.02039-.013-.00623-.02576-.01318-.03876-.01929-.01373-.00659-.02704-.01379-.04071-.02039-.013-.00623-.02576-.01318-.03876-.01941-.01373-.00659-.02704-.01367-.04071-.02026-.013-.00635-.02576-.01318-.03876-.01953-.01373-.00659-.02704-.01367-.04071-.02026-.013-.00635-.02576-.01318-.03876-.01941-.01373-.00659-.02704-.01379-.04071-.02039-.013-.00623-.02576-.01318-.03876-.01929-.01373-.00659-.02704-.01379-.04071-.02039-.013-.00623-.02576-.01318-.03876-.01941-.01373-.00659-.02704-.01367-.04071-.02026-.013-.00635-.02576-.01318-.03876-.01953-.01373-.00659-.02704-.01367-.04071-.02026-.013-.00635-.02576-.01318-.03876-.01941-.01373-.00659-.02704-.01379-.04071-.02039-.013-.00623-.02576-.01318-.03876-.01929-.01373-.00659-.02704-.01379-.04071-.02039-.013-.00623-.02576-.01318-.03876-.01941-.01373-.00659-.02704-.01367-.04071-.02026-.013-.00635-.02576-.01318-.03876-.01953-.01373-.00659-.02704-.01367-.04071-.02026-.013-.00635-.02576-.01318-.03876-.01941-.01373-.00659-.02704-.01379-.04071-.02039-.013-.00623-.02576-.01318-.03876-.01929-.01373-.00659-.02704-.01379-.04071-.02039-.013-.00623-.02576-.01318-.03876-.01941-.01373-.00659-.02704-.01367-.04071-.02026-.013-.00635-.02576-.01318-.03876-.01953-.01373-.00659-.02704-.01367-.04071-.02026-.013-.00635-.02576-.01318-.03876-.01941-.01373-.00659-.02704-.01379-.04071-.02039-.013-.00623-.02576-.01318-.03876-.01929-.01373-.00659-.02704-.01379-.04071-.02039-.013-.00623-.02576-.01318-.03876-.01941-.01373-.00659-.02704-.01367-.04071-.02026-.013-.00635-.02576-.01318-.03876-.01953-.01373-.00659-.02704-.01367-.04071-.02026-.013-.00635-.02576-.01318-.03876-.01941-.01373-.00659-.02704-.01379-.04071-.02039-.013-.00623-.02576-.01318-.03876-.01929-.01373-.00659-.02704-.01379-.04071-.02039-.013-.00623-.02576-.01318-.03876-.01941-.01373-.00659-.02704-.01367-.04071-.02026-.013-.00635-.02576-.01318-.03876-.01953-.01373-.00659-.02704-.01367-.04071-.02026-.01318-.00635-.02606-.01331-.03925-.01965-.01324-.00647-.02612-.01331-.03931-.01965-.01373-.00659-.02704-.01367-.04071-.02026-.013-.00635-.02576-.01318-.03876-.01953-.01373-.00659-.02704-.01367-.04071-.02026-.013-.00635-.02576-.01318-.03876-.01941-.01373-.00659-.02704-.01379-.04071-.02039-.013-.00623-.02576-.01318-.03876-.01929-.01373-.00659-.02704-.01379-.04071-.02039-.013-.00623-.02576-.01318-.03876-.01941-.01373-.00659-.02704-.01367-.04071-.02026-.013-.00635-.02576-.01318-.03876-.01953-.01373-.00659-.02704-.01367-.04071-.02026-.013-.00635-.02576-.01318-.03876-.01941-.01373-.00659-.02704-.01379-.04071-.02039-.013-.00623-.02576-.01318-.03876-.01929-.01373-.00659-.02704-.01379-.04071-.02039-.013-.00623-.02576-.01318-.03876-.01941-.01373-.00659-.02704-.01367-.04071-.02026-.013-.00635-.02576-.01318-.03876-.01953-.01373-.00659-.02704-.01367-.04071-.02026-.013-.00635-.02576-.01318-.03876-.01941-.01373-.00659-.02704-.01379-.04071-.02039-.013-.00623-.02576-.01318-.03876-.01929-.01373-.00659-.02704-.01379-.04071-.02039-.013-.00623-.02576-.01318-.03876-.01941-.01373-.00659-.02704-.01367-.04071-.02026-.013-.00635-.02576-.01318-.03876-.01953-.01373-.00659-.02704-.01367-.04071-.02026-.013-.00635-.02576-.01318-.03876-.01941-.01373-.00659-.02704-.01379-.04071-.02039-.013-.00623-.02576-.01318-.03876-.01929-.01373-.00659-.02704-.01379-.04071-.02039-.013-.00623-.02576-.01318-.03876-.01941-.01373-.00659-.02704-.01367-.04071-.02026-.013-.00635-.02576-.01318-.03876-.01953-.01373-.00659-.02704-.01367-.04071-.02026-.013-.00635-.02576-.01318-.03876-.01941-.01373-.00659-.02704-.01379-.04071-.02039-.013-.00623-.02576-.01318-.03876-.01929-.01373-.00659-.02704-.01379-.04071-.02039-.013-.00623-.02576-.01318-.03876-.01941-.01373-.00659-.02704-.01367-.04071-.02026-.013-.00635-.02576-.01318-.03876-.01953-.01373-.00659-.02704-.01367-.04071-.02026-.013-.00635-.02576-.01318-.03876-.01941-.01373-.00659-.02704-.01379-.04071-.02039-.013-.00623-.02576-.01318-.03876-.01929-.01373-.00659-.02704-.01379-.04071-.02039-.013-.00623-.02576-.01318-.03876-.01941-.01355-.00659-.02667-.01367-.04022-.02014s-.02673-.01355-.04028-.02014c-.013-.00623-.02576-.01318-.03876-.01929-.01373-.00659-.02704-.01379-.04071-.02039-.013-.00623-.02576-.01318-.03876-.01941-.01373-.00659-.02704-.01367-.04071-.02026-.013-.00635-.02576-.01318-.03876-.01953-.01373-.00659-.02704-.01367-.04071-.02026-.013-.00635-.02576-.01318-.03876-.01941-.01373-.00659-.02704-.01379-.04071-.02039-.013-.00623-.02576-.01318-.03876-.01929-.01373-.00659-.02704-.01379-.04071-.02039-.013-.00623-.02576-.01318-.03876-.01941-.01373-.00659-.02704-.01367-.04071-.02026-.013-.00635-.02576-.01318-.03876-.01953-.01373-.00659-.02704-.01367-.04071-.02026-.013-.00635-.02576-.01318-.03876-.01941-.01373-.00659-.02704-.01379-.04071-.02039-.013-.00623-.02576-.01318-.03876-.01929-.01373-.00659-.02704-.01379-.04071-.02039-.013-.00623-.02576-.01318-.03876-.01941-.01373-.00659-.02704-.01367-.04071-.02026-.013-.00635-.02576-.01318-.03876-.01953-.01373-.00659-.02704-.01367-.04071-.02026-.013-.00635-.02576-.01318-.03876-.01941-.01373-.00659-.02704-.01379-.04071-.02039-3.94855-1.9082-8.37781-2.97876-13.05731-2.97876H30.04596C13.45203,0,0,13.45203,0,30.0459v24.9082C0,66.88428,6.95331,77.19019,17.02832,82.04102c.013.00635.02576.01318.03876.01941.01373.00659.02704.01379.04071.02039.013.00623.02576.01318.03876.01929.01373.00659.02704.01379.04071.02039.013.00623.02576.01318.03876.01941.01373.00659.02704.01367.04071.02026.013.00635.02576.01318.03876.01953.01373.00659.02704.01367.04071.02026.013.00635.02576.01318.03876.01941.01373.00659.02704.01379.04071.02039.013.00623.02576.01318.03876.01929.01373.00659.02704.01379.04071.02039.013.00623.02576.01318.03876.01941.01373.00659.02704.01367.04071.02026.013.00635.02576.01318.03876.01953.01373.00659.02704.01367.04071.02026.013.00635.02576.01318.03876.01941.01373.00659.02704.01379.04071.02039.013.00623.02576.01318.03876.01929.01373.00659.02704.01379.04071.02039.013.00623.02576.01318.03876.01941.01373.00659.02704.01367.04071.02026.013.00635.02576.01318.03876.01953.01373.00659.02704.01367.04071.02026.01318.00635.02606.01331.03925.01965.01324.00647.02612.01331.03931.01965.01373.00659.02704.01367.04071.02026.013.00635.02576.01318.03876.01953.01373.00659.02704.01367.04071.02026.013.00635.02576.01318.03876.01941.01373.00659.02704.01379.04071.02039.013.00623.02576.01318.03876.01929.01373.00659.02704.01379.04071.02039.013.00623.02576.01318.03876.01941.01373.00659.02704.01367.04071.02026.013.00635.02576.01318.03876.01953.01373.00659.02704.01367.04071.02026.013.00635.02576.01318.03876.01941.01373.00659.02704.01379.04071.02039.013.00623.02576.01318.03876.01929.01373.00659.02704.01379.04071.02039.013.00623.02576.01318.03876.01941.01373.00659.02704.01367.04071.02026.013.00635.02576.01318.03876.01953.01373.00659.02704.01367.04071.02026.013.00635.02576.01318.03876.01941.01373.00659.02704.01379.04071.02039.013.00623.02576.01318.03876.01929.01373.00659.02704.01379.04071.02039.013.00623.02576.01318.03876.01941.01373.00659.02704.01367.04071.02026.013.00635.02576.01318.03876.01953.01373.00659.02704.01367.04071.02026.013.00635.02576.01318.03876.01941.01373.00659.02704.01379.04071.02039.013.00623.02576.01318.03876.01929.01373.00659.02704.01379.04071.02039.013.00623.02576.01318.03876.01941.01373.00659.02704.01367.04071.02026.013.00635.02576.01318.03876.01953.01373.00659.02704.01367.04071.02026.013.00635.02576.01318.03876.01941.01373.00659.02704.01379.04071.02039.013.00623.02576.01318.03876.01929.01373.00659.02704.01379.04071.02039.013.00623.02576.01318.03876.01941.01373.00659.02704.01367.04071.02026.013.00635.02576.01318.03876.01953.01373.00659.02704.01367.04071.02026.013.00635.02576.01318.03876.01941.01373.00659.02704.01379.04071.02039.013.00623.02576.01318.03876.01929.01373.00659.02704.01379.04071.02039.013.00623.02576.01318.03876.01941.01355.00659.02667.01367.04022.02014s.02673.01355.04028.02014c.013.00623.02576.01318.03876.01929.01373.00659.02704.01379.04071.02039.013.00623.02576.01318.03876.01941.01373.00659.02704.01367.04071.02026.013.00635.02576.01318.03876.01953.01373.00659.02704.01367.04071.02026.013.00635.02576.01318.03876.01941.01373.00659.02704.01379.04071.02039.013.00623.02576.01318.03876.01929.01373.00659.02704.01379.04071.02039.013.00623.02576.01318.03876.01941.01373.00659.02704.01367.04071.02026.013.00635.02576.01318.03876.01953.01373.00659.02704.01367.04071.02026.013.00635.02576.01318.03876.01941.01373.00659.02704.01379.04071.02039.013.00623.02576.01318.03876.01929.01373.00659.02704.01379.04071.02039.013.00623.02576.01318.03876.01941.01373.00659.02704.01367.04071.02026.013.00635.02576.01318.03876.01953.01373.00659.02704.01367.04071.02026.013.00635.02576.01318.03876.01941.01373.00659.02704.01379.04071.02039.013.00623.02576.01318.03876.01929.01373.00659.02704.01379.04071.02039.013.00623.02576.01318.03876.01941.01373.00659.02704.01367.04071.02026.013.00635.02576.01318.03876.01953.01373.00659.02704.01367.04071.02026.013.00635.02576.01318.03876.01941.01373.00659.02704.01379.04071.02039.013.00623.02576.01318.03876.01929.01373.00659.02704.01379.04071.02039.013.00623.02576.01318.03876.01941.01373.00659.02704.01367.04071.02026.013.00635.02576.01318.03876.01953.01373.00659.02704.01367.04071.02026.013.00635.02576.01318.03876.01941.01373.00659.02704.01379.04071.02039.013.00623.02576.01318.03876.01929.01373.00659.02704.01379.04071.02039.013.00623.02576.01318.03876.01941.01373.00659.02704.01367.04071.02026.013.00635.02576.01318.03876.01953.01373.00659.02704.01367.04071.02026.013.00635.02576.01318.03876.01941.01373.00659.02704.01379.04071.02039.01318.00635.02606.01318.03925.01953.01324.00647.02612.01343.03931.01978.01373.00659.02704.01367.04071.02026.013.00635.02576.01318.03876.01941.01373.00659.02704.01379.04071.02039.013.00623.02576.01318.03876.01929.01373.00659.02704.01379.04071.02039.013.00623.02576.01318.03876.01941.01373.00659.02704.01367.04071.02026.013.00635.02576.01318.03876.01953.01373.00659.02704.01367.04071.02026.013.00635.02576.01318.03876.01941.01373.00659.02704.01379.04071.02039.013.00623.02576.01318.03876.01929.01373.00659.02704.01379.04071.02039.013.00623.02576.01318.03876.01941.01373.00659.02704.01367.04071.02026.013.00635.02576.01318.03876.01953.01373.00659.02704.01367.04071.02026.013.00635.02576.01318.03876.01941.01373.00659.02704.01379.04071.02039.013.00623.02576.01318.03876.01929.01373.00659.02704.01379.04071.02039.013.00623.02576.01318.03876.01941.01373.00659.02704.01367.04071.02026.013.00635.02576.01318.03876.01953,3.94885,1.90857,8.37836,2.97925,13.05829,2.97925h109.91815c16.58838,0,30.03595-13.44751,30.03595-30.03589v-24.91821c0-11.92981-6.95288-22.2356-17.02734-27.08643Z"/>
        <g>
          <path class="cls-2" d="M30.04572,82.99955c-15.46436,0-28.0459-12.58105-28.0459-28.0459v-24.90723C1.99982,14.58158,14.58136,1.99955,30.04572,1.99955h109.9082c15.46436,0,28.0459,12.58105,28.0459,28.0459v24.91895c0,15.45898-12.57666,28.03516-28.03564,28.03516H30.04572Z"/>
          <path d="M139.95413,4.00003c14.36176,0,26.04587,11.6842,26.04587,26.0459v24.91809c0,14.35632-11.67966,26.03601-26.03592,26.03601H30.04587c-14.36176,0-26.04587-11.6842-26.04587-26.0459v-24.9082C4,15.68424,15.68414,4.00003,30.04593,4.00003h109.9082M139.95413.00003H30.04593C13.45203.00003,0,13.45206,0,30.04593v24.9082c0,16.59387,13.452,30.0459,30.04587,30.0459h109.91821c16.58838,0,30.03592-13.44763,30.03592-30.03601v-24.91809C170,13.45194,156.548.00003,139.95413.00003h0Z"/>
        </g>
        <g>
          <path class="cls-4" d="M30.04572,82.99955c-15.46436,0-28.0459-12.58105-28.0459-28.0459v-24.90723C1.99982,14.58158,14.58136,1.99955,30.04572,1.99955h109.9082c15.46436,0,28.0459,12.58105,28.0459,28.0459v24.91895c0,15.45898-12.57666,28.03516-28.03564,28.03516H30.04572Z"/>
          <path d="M139.95413,4.00003c14.36176,0,26.04587,11.6842,26.04587,26.0459v24.91809c0,14.35632-11.67966,26.03601-26.03592,26.03601H30.04587c-14.36176,0-26.04587-11.6842-26.04587-26.0459v-24.9082C4,15.68424,15.68414,4.00003,30.04593,4.00003h109.9082M139.95413.00003H30.04593C13.45203.00003,0,13.45206,0,30.04593v24.9082c0,16.59387,13.452,30.0459,30.04587,30.0459h109.91821c16.58838,0,30.03592-13.44763,30.03592-30.03601v-24.91809C170,13.45194,156.548.00003,139.95413.00003h0Z"/>
        </g>
        <g>
          <path class="cls-3" d="M30.04572,82.99955c-15.46436,0-28.0459-12.58105-28.0459-28.0459v-24.90723C1.99982,14.58158,14.58136,1.99955,30.04572,1.99955h109.9082c15.46436,0,28.0459,12.58105,28.0459,28.0459v24.91895c0,15.45898-12.57666,28.03516-28.03564,28.03516H30.04572Z"/>
          <path d="M139.95413,4.00003c14.36176,0,26.04587,11.6842,26.04587,26.0459v24.91809c0,14.35632-11.67966,26.03601-26.03592,26.03601H30.04587c-14.36176,0-26.04587-11.6842-26.04587-26.0459v-24.9082C4,15.68424,15.68414,4.00003,30.04593,4.00003h109.9082M139.95413.00003H30.04593C13.45203.00003,0,13.45206,0,30.04593v24.9082c0,16.59387,13.452,30.0459,30.04587,30.0459h109.91821c16.58838,0,30.03592-13.44763,30.03592-30.03601v-24.91809C170,13.45194,156.548.00003,139.95413.00003h0Z"/>
        </g>
      </g>
      <g>
        <polygon class="cls-5" points="29.48267 42.2832 24.37183 42.2832 24.37183 37.28613 20.60962 37.28613 20.60962 50.58594 24.37183 50.58594 24.37183 45.39941 29.48267 45.39941 29.48267 50.58594 33.24487 50.58594 33.24487 37.28613 29.48267 37.28613 29.48267 42.2832"/>
        <path class="cls-5" d="M43.96997,40.78223c-.88037-.45605-1.88428-.68457-3.01123-.68457-1.12744,0-2.12793.22852-3.00195.68457s-1.56152,1.08594-2.06152,1.89062c-.50049.80371-.75049,1.72559-.75049,2.76367,0,1.02637.25,1.94141.75049,2.74609.5.80469,1.1875,1.43457,2.06152,1.89062s1.87451.68359,3.00195.68359c1.12695,0,2.13086-.22754,3.01123-.68359s1.5708-1.08594,2.07129-1.89062c.5-.80469.75049-1.71973.75049-2.74609,0-1.03809-.25049-1.95996-.75049-2.76367-.50049-.80469-1.19092-1.43457-2.07129-1.89062ZM42.83032,46.75781c-.19678.37305-.45605.65527-.7793.84473-.32275.19043-.68701.28516-1.09229.28516-.40576,0-.76953-.09473-1.09277-.28516-.32275-.18945-.58252-.47168-.77881-.84473-.19629-.37402-.29443-.82031-.29443-1.33984,0-.53223.09814-.97559.29443-1.33008s.45605-.62695.77881-.81738c.32324-.18945.68701-.28418,1.09277-.28418.40527,0,.76953.09473,1.09229.28418.32324.19043.58252.46289.7793.81738.19629.35449.29443.79785.29443,1.33008,0,.51953-.09814.96582-.29443,1.33984Z"/>
        <path class="cls-5" d="M57.57398,45.5791c-.22784-.16443-.50861-.28906-.81415-.39502.15021-.07422.29993-.14893.43378-.24072.70312-.48145,1.05469-1.14062,1.05469-1.97656,0-.84863-.37695-1.51074-1.13037-1.98535-.75391-.47461-1.79541-.71289-3.12549-.71289h-5.5293v10.31738h5.79541c1.44385,0,2.51709-.26562,3.22021-.79785s1.05469-1.26074,1.05469-2.18555c0-.88574-.32031-1.56055-.95947-2.02344ZM51.69312,42.625h1.97607c.43066,0,.74756.06641.9502.19922s.30371.3584.30371.6748c0,.30371-.10107.53516-.30371.69336s-.51953.2373-.9502.2373h-1.97607v-1.80469ZM54.91382,48.02051c-.20898.16504-.53516.24707-.97852.24707h-2.24219v-1.91895h2.28027c.43018,0,.74707.07617.94971.22852.20264.15137.3042.39258.3042.72168,0,.31641-.10449.55762-.31348.72168Z"/>
        <path class="cls-5" d="M64.5564,40.09766c-.81104,0-1.62451.1084-2.44141.32324-.81689.21582-1.51709.5127-2.09961.89258l1.19678,2.43262c.35449-.25293.78857-.46191,1.30176-.62695s1.0166-.24707,1.51025-.24707c.76025,0,1.31396.15527,1.6626.46582.31525.28125.48035.67383.51013,1.16797h-2.03943c-1.05176,0-1.91602.12402-2.59375.37012-.67773.24707-1.17773.60547-1.50098,1.07422-.32275.46875-.48438,1.01953-.48438,1.65234,0,.58301.14893,1.11523.44629,1.59668.29785.48145.73486.86133,1.31104,1.13965s1.27002.41797,2.08057.41797c.89941,0,1.62451-.18066,2.17578-.54102.37317-.24487.65668-.57617.86426-.98047v1.35059h3.36328v-5.71875c0-1.63379-.45947-2.83789-1.37793-3.61035s-2.21338-1.15918-3.88525-1.15918ZM65.51587,48.18262c-.32324.19629-.6875.29395-1.09229.29395-.41846,0-.74756-.09766-.98828-.29395s-.36084-.44629-.36084-.75098c0-.3291.1167-.58203.35156-.75977.23389-.17676.64258-.26562,1.2251-.26562h1.55811v.87402c-.13916.40527-.37061.70605-.69336.90234Z"/>
        <path class="cls-5" d="M72.74536,41.28516c-.9248.67773-1.38721,1.6377-1.38721,2.87891,0,1.16504.44336,2.06152,1.33008,2.68848.2384.16858.50433.3103.78943.43359l-2.29041,3.2998h3.81885l1.81702-2.79297h1.64099v2.79297h3.19238v-10.31738h-5.16797c-1.5708,0-2.81885.33984-3.74316,1.0166ZM78.46411,43.1377v2.35645h-1.91895c-1.00049,0-1.50098-.40527-1.50098-1.21582,0-.40527.12988-.69727.38965-.87402.25928-.17773.63623-.2666,1.13037-.2666h1.8999Z"/>
        <path class="cls-5" d="M100.38989,40.26855h-9.51904l-.1333,3.61035c-.02539.51953-.06982,1.01074-.13281,1.47266-.06348.46289-.15186.87109-.26611,1.22559-.11377.35449-.28516.62988-.51318.82617-.22754.19629-.5127.29492-.85498.29492h-.3418v5.01562h3.36279v-2.12793h6.479v2.12793h3.34424v-5.01562h-1.4248v-7.42969ZM93.26489,47.62207c.18994-.25293.33252-.55371.42725-.90234.09521-.34863.16162-.74121.19971-1.17871.0376-.43652.06934-.90234.09473-1.39648l.03809-.9873h2.75488v4.54102h-3.5921c.02386-.02759.0553-.04675.07745-.07617Z"/>
        <path class="cls-5" d="M111.45679,40.78223c-.88037-.45605-1.88428-.68457-3.01123-.68457-1.12744,0-2.12793.22852-3.00195.68457s-1.56152,1.08594-2.06152,1.89062c-.50049.80371-.75049,1.72559-.75049,2.76367,0,1.02637.25,1.94141.75049,2.74609.5.80469,1.1875,1.43457,2.06152,1.89062s1.87451.68359,3.00195.68359c1.12695,0,2.13086-.22754,3.01123-.68359s1.5708-1.08594,2.07129-1.89062c.5-.80469.75049-1.71973.75049-2.74609,0-1.03809-.25049-1.95996-.75049-2.76367-.50049-.80469-1.19092-1.43457-2.07129-1.89062ZM110.31714,46.75781c-.19678.37305-.45605.65527-.7793.84473-.32275.19043-.68701.28516-1.09229.28516-.40576,0-.76953-.09473-1.09277-.28516-.32275-.18945-.58252-.47168-.77881-.84473-.19629-.37402-.29443-.82031-.29443-1.33984,0-.53223.09814-.97559.29443-1.33008s.45605-.62695.77881-.81738c.32324-.18945.68701-.28418,1.09277-.28418.40527,0,.76953.09473,1.09229.28418.32324.19043.58252.46289.7793.81738.19629.35449.29443.79785.29443,1.33008,0,.51953-.09814.96582-.29443,1.33984Z"/>
        <path class="cls-5" d="M119.96851,43.27051c.33545-.18945.7124-.28418,1.13086-.28418.41797,0,.8042.11035,1.15869.33203s.65234.57324.89307,1.05469l2.79297-1.44434c-.35449-.88672-.95654-1.58008-1.80518-2.08008s-1.85547-.75098-3.021-.75098c-1.15234,0-2.17236.23145-3.05859.69336-.88672.46289-1.5835,1.09277-2.09033,1.89062s-.75977,1.7168-.75977,2.75488c0,1.02637.25293,1.94141.75977,2.74609s1.20361,1.43457,2.09033,1.89062c.88623.45605,1.90625.68359,3.05859.68359,1.16553,0,2.17236-.25,3.021-.75.84863-.50098,1.45068-1.19434,1.80518-2.08105l-2.79297-1.4248c-.24072.48145-.53857.83301-.89307,1.05469s-.74072.33203-1.15869.33203c-.41846,0-.79541-.09473-1.13086-.28516-.33545-.18945-.60498-.46777-.80762-.83594-.20264-.36719-.30371-.81055-.30371-1.33008,0-.54395.10107-.99414.30371-1.34863s.47217-.62695.80762-.81738Z"/>
        <polygon class="cls-5" points="138.69312 40.26855 134.85523 40.26855 132.32886 44.10742 131.05542 44.10742 131.05542 40.26855 127.44507 40.26855 127.44507 50.58594 131.05542 50.58594 131.05542 46.91895 132.27338 46.91895 134.66528 50.58594 138.92114 50.58594 135.229 45.21997 138.69312 40.26855"/>
        <path class="cls-5" d="M148.01245,41.25684c-.91846-.77246-2.21338-1.15918-3.88525-1.15918-.81104,0-1.62451.1084-2.44141.32324-.81689.21582-1.51709.5127-2.09961.89258l1.19678,2.43262c.35449-.25293.78857-.46191,1.30176-.62695s1.0166-.24707,1.51025-.24707c.76025,0,1.31396.15527,1.6626.46582.31525.28125.48035.67383.51013,1.16797h-2.03943c-1.05176,0-1.91602.12402-2.59375.37012-.67773.24707-1.17773.60547-1.50098,1.07422-.32275.46875-.48438,1.01953-.48438,1.65234,0,.58301.14893,1.11523.44629,1.59668.29785.48145.73486.86133,1.31104,1.13965s1.27002.41797,2.08057.41797c.89941,0,1.62451-.18066,2.17578-.54102.37317-.24487.65668-.57617.86426-.98047v1.35059h3.36328v-5.71875c0-1.63379-.45947-2.83789-1.37793-3.61035ZM145.08667,48.18262c-.32324.19629-.6875.29395-1.09229.29395-.41846,0-.74756-.09766-.98828-.29395s-.36084-.44629-.36084-.75098c0-.3291.1167-.58203.35156-.75977.23389-.17676.64258-.26562,1.2251-.26562h1.55811v.87402c-.13916.40527-.37061.70605-.69336.90234Z"/>
      </g>
      <g>
        <polygon class="cls-1" points="27.48267 41.2832 22.37183 41.2832 22.37183 36.28613 18.60962 36.28613 18.60962 49.58594 22.37183 49.58594 22.37183 44.39941 27.48267 44.39941 27.48267 49.58594 31.24487 49.58594 31.24487 36.28613 27.48267 36.28613 27.48267 41.2832"/>
        <path class="cls-1" d="M41.96997,39.78223c-.88037-.45605-1.88428-.68457-3.01123-.68457-1.12744,0-2.12793.22852-3.00195.68457s-1.56152,1.08594-2.06152,1.89062c-.50049.80371-.75049,1.72559-.75049,2.76367,0,1.02637.25,1.94141.75049,2.74609.5.80469,1.1875,1.43457,2.06152,1.89062s1.87451.68359,3.00195.68359c1.12695,0,2.13086-.22754,3.01123-.68359s1.5708-1.08594,2.07129-1.89062c.5-.80469.75049-1.71973.75049-2.74609,0-1.03809-.25049-1.95996-.75049-2.76367-.50049-.80469-1.19092-1.43457-2.07129-1.89062ZM40.83032,45.75781c-.19678.37305-.45605.65527-.7793.84473-.32275.19043-.68701.28516-1.09229.28516-.40576,0-.76953-.09473-1.09277-.28516-.32275-.18945-.58252-.47168-.77881-.84473-.19629-.37402-.29443-.82031-.29443-1.33984,0-.53223.09814-.97559.29443-1.33008s.45605-.62695.77881-.81738c.32324-.18945.68701-.28418,1.09277-.28418.40527,0,.76953.09473,1.09229.28418.32324.19043.58252.46289.7793.81738.19629.35449.29443.79785.29443,1.33008,0,.51953-.09814.96582-.29443,1.33984Z"/>
        <path class="cls-1" d="M55.57398,44.5791c-.22784-.16443-.50861-.28906-.81415-.39502.15021-.07422.29993-.14893.43378-.24072.70312-.48145,1.05469-1.14062,1.05469-1.97656,0-.84863-.37695-1.51074-1.13037-1.98535-.75391-.47461-1.79541-.71289-3.12549-.71289h-5.5293v10.31738h5.79541c1.44385,0,2.51709-.26562,3.22021-.79785s1.05469-1.26074,1.05469-2.18555c0-.88574-.32031-1.56055-.95947-2.02344ZM49.69312,41.625h1.97607c.43066,0,.74756.06641.9502.19922s.30371.3584.30371.6748c0,.30371-.10107.53516-.30371.69336s-.51953.2373-.9502.2373h-1.97607v-1.80469ZM52.91382,47.02051c-.20898.16504-.53516.24707-.97852.24707h-2.24219v-1.91895h2.28027c.43018,0,.74707.07617.94971.22852.20264.15137.3042.39258.3042.72168,0,.31641-.10449.55762-.31348.72168Z"/>
        <path class="cls-1" d="M62.5564,39.09766c-.81104,0-1.62451.1084-2.44141.32324-.81689.21582-1.51709.5127-2.09961.89258l1.19678,2.43262c.35449-.25293.78857-.46191,1.30176-.62695s1.0166-.24707,1.51025-.24707c.76025,0,1.31396.15527,1.6626.46582.31525.28125.48035.67383.51013,1.16797h-2.03943c-1.05176,0-1.91602.12402-2.59375.37012-.67773.24707-1.17773.60547-1.50098,1.07422-.32275.46875-.48438,1.01953-.48438,1.65234,0,.58301.14893,1.11523.44629,1.59668.29785.48145.73486.86133,1.31104,1.13965s1.27002.41797,2.08057.41797c.89941,0,1.62451-.18066,2.17578-.54102.37317-.24487.65668-.57617.86426-.98047v1.35059h3.36328v-5.71875c0-1.63379-.45947-2.83789-1.37793-3.61035s-2.21338-1.15918-3.88525-1.15918ZM63.51587,47.18262c-.32324.19629-.6875.29395-1.09229.29395-.41846,0-.74756-.09766-.98828-.29395s-.36084-.44629-.36084-.75098c0-.3291.1167-.58203.35156-.75977.23389-.17676.64258-.26562,1.2251-.26562h1.55811v.87402c-.13916.40527-.37061.70605-.69336.90234Z"/>
        <path class="cls-1" d="M70.74536,40.28516c-.9248.67773-1.38721,1.6377-1.38721,2.87891,0,1.16504.44336,2.06152,1.33008,2.68848.2384.16858.50433.3103.78943.43359l-2.29041,3.2998h3.81885l1.81702-2.79297h1.64099v2.79297h3.19238v-10.31738h-5.16797c-1.5708,0-2.81885.33984-3.74316,1.0166ZM76.46411,42.1377v2.35645h-1.91895c-1.00049,0-1.50098-.40527-1.50098-1.21582,0-.40527.12988-.69727.38965-.87402.25928-.17773.63623-.2666,1.13037-.2666h1.8999Z"/>
        <path class="cls-1" d="M98.38989,39.26855h-9.51904l-.1333,3.61035c-.02539.51953-.06982,1.01074-.13281,1.47266-.06348.46289-.15186.87109-.26611,1.22559-.11377.35449-.28516.62988-.51318.82617-.22754.19629-.5127.29492-.85498.29492h-.3418v5.01562h3.36279v-2.12793h6.479v2.12793h3.34424v-5.01562h-1.4248v-7.42969ZM91.26489,46.62207c.18994-.25293.33252-.55371.42725-.90234.09521-.34863.16162-.74121.19971-1.17871.0376-.43652.06934-.90234.09473-1.39648l.03809-.9873h2.75488v4.54102h-3.5921c.02386-.02759.0553-.04675.07745-.07617Z"/>
        <path class="cls-1" d="M109.45679,39.78223c-.88037-.45605-1.88428-.68457-3.01123-.68457-1.12744,0-2.12793.22852-3.00195.68457s-1.56152,1.08594-2.06152,1.89062c-.50049.80371-.75049,1.72559-.75049,2.76367,0,1.02637.25,1.94141.75049,2.74609.5.80469,1.1875,1.43457,2.06152,1.89062s1.87451.68359,3.00195.68359c1.12695,0,2.13086-.22754,3.01123-.68359s1.5708-1.08594,2.07129-1.89062c.5-.80469.75049-1.71973.75049-2.74609,0-1.03809-.25049-1.95996-.75049-2.76367-.50049-.80469-1.19092-1.43457-2.07129-1.89062ZM108.31714,45.75781c-.19678.37305-.45605.65527-.7793.84473-.32275.19043-.68701.28516-1.09229.28516-.40576,0-.76953-.09473-1.09277-.28516-.32275-.18945-.58252-.47168-.77881-.84473-.19629-.37402-.29443-.82031-.29443-1.33984,0-.53223.09814-.97559.29443-1.33008s.45605-.62695.77881-.81738c.32324-.18945.68701-.28418,1.09277-.28418.40527,0,.76953.09473,1.09229.28418.32324.19043.58252.46289.7793.81738.19629.35449.29443.79785.29443,1.33008,0,.51953-.09814.96582-.29443,1.33984Z"/>
        <path class="cls-1" d="M117.96851,42.27051c.33545-.18945.7124-.28418,1.13086-.28418.41797,0,.8042.11035,1.15869.33203s.65234.57324.89307,1.05469l2.79297-1.44434c-.35449-.88672-.95654-1.58008-1.80518-2.08008s-1.85547-.75098-3.021-.75098c-1.15234,0-2.17236.23145-3.05859.69336-.88672.46289-1.5835,1.09277-2.09033,1.89062s-.75977,1.7168-.75977,2.75488c0,1.02637.25293,1.94141.75977,2.74609s1.20361,1.43457,2.09033,1.89062c.88623.45605,1.90625.68359,3.05859.68359,1.16553,0,2.17236-.25,3.021-.75.84863-.50098,1.45068-1.19434,1.80518-2.08105l-2.79297-1.4248c-.24072.48145-.53857.83301-.89307,1.05469s-.74072.33203-1.15869.33203c-.41846,0-.79541-.09473-1.13086-.28516-.33545-.18945-.60498-.46777-.80762-.83594-.20264-.36719-.30371-.81055-.30371-1.33008,0-.54395.10107-.99414.30371-1.34863s.47217-.62695.80762-.81738Z"/>
        <polygon class="cls-1" points="136.69312 39.26855 132.85523 39.26855 130.32886 43.10742 129.05542 43.10742 129.05542 39.26855 125.44507 39.26855 125.44507 49.58594 129.05542 49.58594 129.05542 45.91895 130.27338 45.91895 132.66528 49.58594 136.92114 49.58594 133.229 44.21997 136.69312 39.26855"/>
        <path class="cls-1" d="M146.01245,40.25684c-.91846-.77246-2.21338-1.15918-3.88525-1.15918-.81104,0-1.62451.1084-2.44141.32324-.81689.21582-1.51709.5127-2.09961.89258l1.19678,2.43262c.35449-.25293.78857-.46191,1.30176-.62695s1.0166-.24707,1.51025-.24707c.76025,0,1.31396.15527,1.6626.46582.31525.28125.48035.67383.51013,1.16797h-2.03943c-1.05176,0-1.91602.12402-2.59375.37012-.67773.24707-1.17773.60547-1.50098,1.07422-.32275.46875-.48438,1.01953-.48438,1.65234,0,.58301.14893,1.11523.44629,1.59668.29785.48145.73486.86133,1.31104,1.13965s1.27002.41797,2.08057.41797c.89941,0,1.62451-.18066,2.17578-.54102.37317-.24487.65668-.57617.86426-.98047v1.35059h3.36328v-5.71875c0-1.63379-.45947-2.83789-1.37793-3.61035ZM143.08667,47.18262c-.32324.19629-.6875.29395-1.09229.29395-.41846,0-.74756-.09766-.98828-.29395s-.36084-.44629-.36084-.75098c0-.3291.1167-.58203.35156-.75977.23389-.17676.64258-.26562,1.2251-.26562h1.55811v.87402c-.13916.40527-.37061.70605-.69336.90234Z"/>
      </g>
    </g>
  </g>
</svg>