<?xml version="1.0" encoding="UTF-8"?>
<svg id="Layer_2" data-name="Layer 2" xmlns="http://www.w3.org/2000/svg" xmlns:xlink="http://www.w3.org/1999/xlink" viewBox="0 0 176 88">
  <defs>
    <style>
      .cls-1 {
        fill: none;
      }

      .cls-2 {
        fill: #fffb6c;
      }

      .cls-3 {
        fill: #ff37ce;
      }

      .cls-4 {
        fill: #5bf672;
      }

      .cls-5 {
        fill: url(#New_Pattern);
      }

      .cls-6 {
        fill: #333;
      }
    </style>
    <pattern id="New_Pattern" data-name="New Pattern" x="0" y="0" width="40" height="40" patternTransform="translate(-240.98212 -1327.19017)" patternUnits="userSpaceOnUse" viewBox="0 0 40 40">
      <g>
        <rect class="cls-1" width="40" height="40"/>
        <rect class="cls-2" x="18.06453" y="-.00005" width="21.93548" height="21.93548"/>
        <rect class="cls-2" x=".00002" y="18.1935" width="21.80645" height="21.80645"/>
        <rect class="cls-4" x=".00002" y="-.00005" width="20" height="20"/>
        <rect class="cls-4" x="20.00002" y="19.99995" width="20" height="20"/>
      </g>
    </pattern>
  </defs>
  <g id="Design">
    <g>
      <g>
        <path d="M158.97266,5.95947c-.01373-.00659-.02704-.01379-.04071-.02039-.013-.00623-.02576-.01318-.03876-.01941-.01373-.00659-.02704-.01367-.04071-.02026-.013-.00635-.02576-.01318-.03876-.01953-.01373-.00659-.02704-.01367-.04071-.02026-.013-.00635-.02576-.01318-.03876-.01941-.01373-.00659-.02704-.01379-.04071-.02039-.013-.00623-.02576-.01318-.03876-.01929-.01373-.00659-.02704-.01379-.04071-.02039-.013-.00623-.02576-.01318-.03876-.01941-.01373-.00659-.02704-.01367-.04071-.02026-.013-.00635-.02576-.01318-.03876-.01953-.01373-.00659-.02704-.01367-.04071-.02026-.013-.00635-.02576-.01318-.03876-.01941-.01373-.00659-.02704-.01379-.04071-.02039-.013-.00623-.02576-.01318-.03876-.01929-.01373-.00659-.02704-.01379-.04071-.02039-.013-.00623-.02576-.01318-.03876-.01941-.01373-.00659-.02704-.01367-.04071-.02026-.013-.00635-.02576-.01318-.03876-.01953-.01373-.00659-.02704-.01367-.04071-.02026-.013-.00635-.02576-.01318-.03876-.01941-.01373-.00659-.02704-.01379-.04071-.02039-.013-.00623-.02576-.01318-.03876-.01929-.01355-.00659-.02667-.01367-.04022-.02026-.01355-.00647-.02673-.01343-.04028-.02002-.013-.00635-.02576-.01318-.03876-.01941-.01373-.00659-.02704-.01379-.04071-.02039-.013-.00623-.02576-.01318-.03876-.01929-.01373-.00659-.02704-.01379-.04071-.02039-.013-.00623-.02576-.01318-.03876-.01941-.01373-.00659-.02704-.01367-.04071-.02026-.013-.00635-.02576-.01318-.03876-.01953-.01373-.00659-.02704-.01367-.04071-.02026-.013-.00635-.02576-.01318-.03876-.01941-.01373-.00659-.02704-.01379-.04071-.02039-.013-.00623-.02576-.01318-.03876-.01929-.01373-.00659-.02704-.01379-.04071-.02039-.013-.00623-.02576-.01318-.03876-.01941-.01373-.00659-.02704-.01367-.04071-.02026-.013-.00635-.02576-.01318-.03876-.01953-.01373-.00659-.02704-.01367-.04071-.02026-.013-.00635-.02576-.01318-.03876-.01941-.01373-.00659-.02704-.01379-.04071-.02039-.013-.00623-.02576-.01318-.03876-.01929-.01373-.00659-.02704-.01379-.04071-.02039-.013-.00623-.02576-.01318-.03876-.01941-.01373-.00659-.02704-.01367-.04071-.02026-.013-.00635-.02576-.01318-.03876-.01953-.01373-.00659-.02704-.01367-.04071-.02026-.013-.00635-.02576-.01318-.03876-.01941-.01373-.00659-.02704-.01379-.04071-.02039-.013-.00623-.02576-.01318-.03876-.01929-.01373-.00659-.02704-.01379-.04071-.02039-.013-.00623-.02576-.01318-.03876-.01941-.01373-.00659-.02704-.01367-.04071-.02026-.013-.00635-.02576-.01318-.03876-.01953-.01373-.00659-.02704-.01367-.04071-.02026-.013-.00635-.02576-.01318-.03876-.01941-.01373-.00659-.02704-.01379-.04071-.02039-.013-.00623-.02576-.01318-.03876-.01929-.01373-.00659-.02704-.01379-.04071-.02039-.013-.00623-.02576-.01318-.03876-.01941-.01373-.00659-.02704-.01367-.04071-.02026-.013-.00635-.02576-.01318-.03876-.01953-.01373-.00659-.02704-.01367-.04071-.02026-.013-.00635-.02576-.01318-.03876-.01941-.01373-.00659-.02704-.01379-.04071-.02039-.013-.00623-.02576-.01318-.03876-.01929-.01373-.00659-.02704-.01379-.04071-.02039-.013-.00623-.02576-.01318-.03876-.01941-.01373-.00659-.02704-.01367-.04071-.02026-.013-.00635-.02576-.01318-.03876-.01953-.01373-.00659-.02704-.01367-.04071-.02026-.01318-.00635-.02606-.01331-.03925-.01965-.01324-.00647-.02612-.01331-.03931-.01965-.01373-.00659-.02704-.01367-.04071-.02026-.013-.00635-.02576-.01318-.03876-.01953-.01373-.00659-.02704-.01367-.04071-.02026-.013-.00635-.02576-.01318-.03876-.01941-.01373-.00659-.02704-.01379-.04071-.02039-.013-.00623-.02576-.01318-.03876-.01929-.01373-.00659-.02704-.01379-.04071-.02039-.013-.00623-.02576-.01318-.03876-.01941-.01373-.00659-.02704-.01367-.04071-.02026-.013-.00635-.02576-.01318-.03876-.01953-.01373-.00659-.02704-.01367-.04071-.02026-.013-.00635-.02576-.01318-.03876-.01941-.01373-.00659-.02704-.01379-.04071-.02039-.013-.00623-.02576-.01318-.03876-.01929-.01373-.00659-.02704-.01379-.04071-.02039-.013-.00623-.02576-.01318-.03876-.01941-.01373-.00659-.02704-.01367-.04071-.02026-.013-.00635-.02576-.01318-.03876-.01953-.01373-.00659-.02704-.01367-.04071-.02026-.013-.00635-.02576-.01318-.03876-.01941-.01373-.00659-.02704-.01379-.04071-.02039-.013-.00623-.02576-.01318-.03876-.01929-.01373-.00659-.02704-.01379-.04071-.02039-.013-.00623-.02576-.01318-.03876-.01941-.01373-.00659-.02704-.01367-.04071-.02026-.013-.00635-.02576-.01318-.03876-.01953-.01373-.00659-.02704-.01367-.04071-.02026-.013-.00635-.02576-.01318-.03876-.01941-.01373-.00659-.02704-.01379-.04071-.02039-.013-.00623-.02576-.01318-.03876-.01929-.01373-.00659-.02704-.01379-.04071-.02039-.013-.00623-.02576-.01318-.03876-.01941-.01373-.00659-.02704-.01367-.04071-.02026-.013-.00635-.02576-.01318-.03876-.01953-.01373-.00659-.02704-.01367-.04071-.02026-.013-.00635-.02576-.01318-.03876-.01941-.01373-.00659-.02704-.01379-.04071-.02039-.013-.00623-.02576-.01318-.03876-.01929-.01373-.00659-.02704-.01379-.04071-.02039-.013-.00623-.02576-.01318-.03876-.01941-.01373-.00659-.02704-.01367-.04071-.02026-.013-.00635-.02576-.01318-.03876-.01953-.01373-.00659-.02704-.01367-.04071-.02026-.013-.00635-.02576-.01318-.03876-.01941-.01373-.00659-.02704-.01379-.04071-.02039-.013-.00623-.02576-.01318-.03876-.01929-.01373-.00659-.02704-.01379-.04071-.02039-.013-.00623-.02576-.01318-.03876-.01941-.01355-.00659-.02667-.01367-.04022-.02014s-.02673-.01355-.04028-.02014c-.013-.00623-.02576-.01318-.03876-.01929-.01373-.00659-.02704-.01379-.04071-.02039-.013-.00623-.02576-.01318-.03876-.01941-.01373-.00659-.02704-.01367-.04071-.02026-.013-.00635-.02576-.01318-.03876-.01953-.01373-.00659-.02704-.01367-.04071-.02026-.013-.00635-.02576-.01318-.03876-.01941-.01373-.00659-.02704-.01379-.04071-.02039-.013-.00623-.02576-.01318-.03876-.01929-.01373-.00659-.02704-.01379-.04071-.02039-.013-.00623-.02576-.01318-.03876-.01941-.01373-.00659-.02704-.01367-.04071-.02026-.013-.00635-.02576-.01318-.03876-.01953-.01373-.00659-.02704-.01367-.04071-.02026-.013-.00635-.02576-.01318-.03876-.01941-.01373-.00659-.02704-.01379-.04071-.02039-.013-.00623-.02576-.01318-.03876-.01929-.01373-.00659-.02704-.01379-.04071-.02039-.013-.00623-.02576-.01318-.03876-.01941-.01373-.00659-.02704-.01367-.04071-.02026-.013-.00635-.02576-.01318-.03876-.01953-.01373-.00659-.02704-.01367-.04071-.02026-.013-.00635-.02576-.01318-.03876-.01941-.01373-.00659-.02704-.01379-.04071-.02039-3.94855-1.9082-8.37781-2.97876-13.05731-2.97876H30.04596C13.45203,0,0,13.45203,0,30.0459v24.9082C0,66.88428,6.95331,77.19019,17.02832,82.04102c.013.00635.02576.01318.03876.01941.01373.00659.02704.01379.04071.02039.013.00623.02576.01318.03876.01929.01373.00659.02704.01379.04071.02039.013.00623.02576.01318.03876.01941.01373.00659.02704.01367.04071.02026.013.00635.02576.01318.03876.01953.01373.00659.02704.01367.04071.02026.013.00635.02576.01318.03876.01941.01373.00659.02704.01379.04071.02039.013.00623.02576.01318.03876.01929.01373.00659.02704.01379.04071.02039.013.00623.02576.01318.03876.01941.01373.00659.02704.01367.04071.02026.013.00635.02576.01318.03876.01953.01373.00659.02704.01367.04071.02026.013.00635.02576.01318.03876.01941.01373.00659.02704.01379.04071.02039.013.00623.02576.01318.03876.01929.01373.00659.02704.01379.04071.02039.013.00623.02576.01318.03876.01941.01373.00659.02704.01367.04071.02026.013.00635.02576.01318.03876.01953.01373.00659.02704.01367.04071.02026.01318.00635.02606.01331.03925.01965.01324.00647.02612.01331.03931.01965.01373.00659.02704.01367.04071.02026.013.00635.02576.01318.03876.01953.01373.00659.02704.01367.04071.02026.013.00635.02576.01318.03876.01941.01373.00659.02704.01379.04071.02039.013.00623.02576.01318.03876.01929.01373.00659.02704.01379.04071.02039.013.00623.02576.01318.03876.01941.01373.00659.02704.01367.04071.02026.013.00635.02576.01318.03876.01953.01373.00659.02704.01367.04071.02026.013.00635.02576.01318.03876.01941.01373.00659.02704.01379.04071.02039.013.00623.02576.01318.03876.01929.01373.00659.02704.01379.04071.02039.013.00623.02576.01318.03876.01941.01373.00659.02704.01367.04071.02026.013.00635.02576.01318.03876.01953.01373.00659.02704.01367.04071.02026.013.00635.02576.01318.03876.01941.01373.00659.02704.01379.04071.02039.013.00623.02576.01318.03876.01929.01373.00659.02704.01379.04071.02039.013.00623.02576.01318.03876.01941.01373.00659.02704.01367.04071.02026.013.00635.02576.01318.03876.01953.01373.00659.02704.01367.04071.02026.013.00635.02576.01318.03876.01941.01373.00659.02704.01379.04071.02039.013.00623.02576.01318.03876.01929.01373.00659.02704.01379.04071.02039.013.00623.02576.01318.03876.01941.01373.00659.02704.01367.04071.02026.013.00635.02576.01318.03876.01953.01373.00659.02704.01367.04071.02026.013.00635.02576.01318.03876.01941.01373.00659.02704.01379.04071.02039.013.00623.02576.01318.03876.01929.01373.00659.02704.01379.04071.02039.013.00623.02576.01318.03876.01941.01373.00659.02704.01367.04071.02026.013.00635.02576.01318.03876.01953.01373.00659.02704.01367.04071.02026.013.00635.02576.01318.03876.01941.01373.00659.02704.01379.04071.02039.013.00623.02576.01318.03876.01929.01373.00659.02704.01379.04071.02039.013.00623.02576.01318.03876.01941.01355.00659.02667.01367.04022.02014s.02673.01355.04028.02014c.013.00623.02576.01318.03876.01929.01373.00659.02704.01379.04071.02039.013.00623.02576.01318.03876.01941.01373.00659.02704.01367.04071.02026.013.00635.02576.01318.03876.01953.01373.00659.02704.01367.04071.02026.013.00635.02576.01318.03876.01941.01373.00659.02704.01379.04071.02039.013.00623.02576.01318.03876.01929.01373.00659.02704.01379.04071.02039.013.00623.02576.01318.03876.01941.01373.00659.02704.01367.04071.02026.013.00635.02576.01318.03876.01953.01373.00659.02704.01367.04071.02026.013.00635.02576.01318.03876.01941.01373.00659.02704.01379.04071.02039.013.00623.02576.01318.03876.01929.01373.00659.02704.01379.04071.02039.013.00623.02576.01318.03876.01941.01373.00659.02704.01367.04071.02026.013.00635.02576.01318.03876.01953.01373.00659.02704.01367.04071.02026.013.00635.02576.01318.03876.01941.01373.00659.02704.01379.04071.02039.013.00623.02576.01318.03876.01929.01373.00659.02704.01379.04071.02039.013.00623.02576.01318.03876.01941.01373.00659.02704.01367.04071.02026.013.00635.02576.01318.03876.01953.01373.00659.02704.01367.04071.02026.013.00635.02576.01318.03876.01941.01373.00659.02704.01379.04071.02039.013.00623.02576.01318.03876.01929.01373.00659.02704.01379.04071.02039.013.00623.02576.01318.03876.01941.01373.00659.02704.01367.04071.02026.013.00635.02576.01318.03876.01953.01373.00659.02704.01367.04071.02026.013.00635.02576.01318.03876.01941.01373.00659.02704.01379.04071.02039.013.00623.02576.01318.03876.01929.01373.00659.02704.01379.04071.02039.013.00623.02576.01318.03876.01941.01373.00659.02704.01367.04071.02026.013.00635.02576.01318.03876.01953.01373.00659.02704.01367.04071.02026.013.00635.02576.01318.03876.01941.01373.00659.02704.01379.04071.02039.01318.00635.02606.01318.03925.01953.01324.00647.02612.01343.03931.01978.01373.00659.02704.01367.04071.02026.013.00635.02576.01318.03876.01941.01373.00659.02704.01379.04071.02039.013.00623.02576.01318.03876.01929.01373.00659.02704.01379.04071.02039.013.00623.02576.01318.03876.01941.01373.00659.02704.01367.04071.02026.013.00635.02576.01318.03876.01953.01373.00659.02704.01367.04071.02026.013.00635.02576.01318.03876.01941.01373.00659.02704.01379.04071.02039.013.00623.02576.01318.03876.01929.01373.00659.02704.01379.04071.02039.013.00623.02576.01318.03876.01941.01373.00659.02704.01367.04071.02026.013.00635.02576.01318.03876.01953.01373.00659.02704.01367.04071.02026.013.00635.02576.01318.03876.01941.01373.00659.02704.01379.04071.02039.013.00623.02576.01318.03876.01929.01373.00659.02704.01379.04071.02039.013.00623.02576.01318.03876.01941.01373.00659.02704.01367.04071.02026.013.00635.02576.01318.03876.01953,3.94885,1.90857,8.37836,2.97925,13.05829,2.97925h109.91815c16.58838,0,30.03595-13.44751,30.03595-30.03589v-24.91821c0-11.92981-6.95288-22.2356-17.02734-27.08643Z"/>
        <g>
          <path class="cls-5" d="M30.04572,83.00026c-15.46436,0-28.0459-12.58105-28.0459-28.0459v-24.9082C1.99982,14.58131,14.58136,2.00026,30.04572,2.00026h109.9082c15.46436,0,28.0459,12.58105,28.0459,28.0459v24.91797c0,15.45898-12.57666,28.03613-28.03564,28.03613H30.04572Z"/>
          <path d="M139.95413,4.00001c14.36176,0,26.04587,11.6842,26.04587,26.0459v24.91821c0,14.3562-11.67966,26.03589-26.03592,26.03589H30.04587c-14.36176,0-26.04587-11.6842-26.04587-26.0459v-24.9082C4,15.68422,15.68414,4.00001,30.04593,4.00001h109.9082M139.95413.00001H30.04593C13.45203.00001,0,13.45204,0,30.04591v24.9082c0,16.59387,13.452,30.0459,30.04587,30.0459h109.91821c16.58838,0,30.03592-13.44751,30.03592-30.03589v-24.91821C170,13.45204,156.548.00001,139.95413.00001h0Z"/>
        </g>
      </g>
      <g>
        <path class="cls-6" d="M19.21582,39.09949c-.65918-.62012-1.43799-1.10156-2.3374-1.44336s-1.88086-.51367-2.94482-.51367-2.0459.17188-2.94482.51367c-.8999.3418-1.67871.82617-2.33691,1.45312-.65918.62695-1.17529,1.3584-1.54883,2.19434s-.56055,1.74805-.56055,2.73633c0,1.00098.18701,1.92188.56055,2.76465s.88965,1.57715,1.54883,2.2041c.6582.62695,1.44043,1.11133,2.34619,1.45312s1.88428.5127,2.93555.5127c1.06396,0,2.04541-.1709,2.94482-.5127s1.68164-.82324,2.34668-1.44434c.66504-.62012,1.18115-1.35156,1.54834-2.19434.36719-.8418.55127-1.76953.55127-2.7832,0-1.00098-.18701-1.91895-.56055-2.75488-.37402-.83594-.89014-1.56445-1.54834-2.18555ZM17.24902,45.62683c-.18359.46191-.43701.86133-.75977,1.19629-.32324.33594-.70312.59277-1.14014.76953-.43701.17773-.90918.2666-1.41553.2666-.50684,0-.97852-.08887-1.41553-.2666-.43701-.17676-.82031-.43359-1.14941-.76953-.32959-.33496-.58301-.73438-.76025-1.19629-.17725-.46289-.26562-.98535-.26562-1.56836,0-.58203.08838-1.10449.26562-1.56738.17725-.46191.43066-.86133.76025-1.19629.3291-.33594.7124-.59277,1.14941-.76953.43701-.17773.90869-.2666,1.41553-.2666.50635,0,.97852.08887,1.41553.2666.43701.17676.81689.43359,1.14014.76953.32275.33496.57617.73438.75977,1.19629.18359.46289.27539.98535.27539,1.56738,0,.58301-.0918,1.10547-.27539,1.56836Z"/>
        <polygon class="cls-6" points="22.02734 43.28015 25.3335 43.28015 25.3335 50.70886 28.94336 50.70886 28.94336 43.28015 32.24951 43.28015 32.24951 40.39148 22.02734 40.39148 22.02734 43.28015"/>
        <polygon class="cls-6" points="44.90332 40.39148 41.06543 40.39148 38.53906 44.23035 37.26563 44.23035 37.26563 40.39148 33.65527 40.39148 33.65527 50.70886 37.26563 50.70886 37.26563 47.04187 38.48358 47.04187 40.87549 50.70886 45.13135 50.70886 41.43921 45.3429 44.90332 40.39148"/>
        <path class="cls-6" d="M55.36279,40.88562c-.7666-.44336-1.61816-.66504-2.55566-.66504-.9248,0-1.69385.19336-2.30811.58008-.26929.16943-.5033.38306-.71289.62769v-1.03687h-3.45801v14.00293h3.61035v-4.62036c.19043.20032.39478.38208.62695.52661.62012.38672,1.36768.5791,2.2417.5791.9375,0,1.78906-.21484,2.55566-.64551.76611-.43066,1.37402-1.04492,1.82422-1.84375.44922-.79785.67432-1.73535.67432-2.81152,0-1.10254-.2251-2.04883-.67432-2.84082-.4502-.79102-1.05811-1.40918-1.82422-1.85254ZM53.91895,46.88953c-.19678.36816-.45605.64648-.7793.83594-.32275.19043-.68701.28516-1.09229.28516-.40576,0-.76953-.09473-1.09277-.28516-.32275-.18945-.58252-.46777-.77881-.83594-.19629-.36719-.29443-.80371-.29443-1.31055,0-.54492.09814-.99805.29443-1.3584.19629-.36133.45605-.63672.77881-.82715.32324-.18945.68701-.28418,1.09277-.28418.40527,0,.76953.09473,1.09229.28418.32324.19043.58252.46582.7793.82715.19629.36035.29443.81348.29443,1.3584,0,.50684-.09814.94336-.29443,1.31055Z"/>
        <rect class="cls-6" x="70.43945" y="40.39148" width="3.59082" height="10.31738"/>
        <path class="cls-6" d="M65.49951,43.60242h-2.31787v-3.21094h-3.59131v10.31738l5.43408.01855c1.46924,0,2.59375-.3252,3.37256-.97852.77881-.65137,1.16846-1.55469,1.16846-2.70703,0-1.08887-.33887-1.93457-1.0166-2.53613s-1.69385-.90332-3.04932-.90332ZM65.67041,47.94421c-.24072.20898-.57666.30762-1.00684.29492h-1.48193v-2.43262l1.48193.01953c.43018,0,.76611.0918,1.00684.27539s.36133.48438.36133.90234-.12061.73145-.36133.94043Z"/>
        <polygon class="cls-6" points="75.45508 43.28015 78.76123 43.28015 78.76123 50.70886 82.37109 50.70886 82.37109 43.28015 85.67725 43.28015 85.67725 40.39148 75.45508 40.39148 75.45508 43.28015"/>
        <path class="cls-6" d="M93.125,43.60242h-2.45068v-3.21094h-3.59131v10.31738l5.58594.01855c1.45654,0,2.60303-.3252,3.43945-.97852.83594-.65137,1.25391-1.55469,1.25391-2.70703,0-1.08887-.36426-1.93457-1.09277-2.53613s-1.77637-.90332-3.14453-.90332ZM93.32471,47.94421c-.23438.20898-.57324.30762-1.0166.29492h-1.63379v-2.43262l1.63379.01953c.44336,0,.78223.0918,1.0166.27539s.35156.48438.35156.90234-.11719.73145-.35156.94043Z"/>
        <path class="cls-6" d="M115.16504,40.39148h-9.51904l-.1333,3.61035c-.02539.51953-.06982,1.01074-.13281,1.47266-.06348.46289-.15186.87109-.26611,1.22559-.11377.35449-.28516.62988-.51318.82617-.22754.19629-.5127.29492-.85498.29492h-.3418v5.01562h3.36279v-2.12793h6.479v2.12793h3.34424v-5.01562h-1.4248v-7.42969ZM108.04004,47.745c.18994-.25293.33252-.55371.42725-.90234.09521-.34863.16162-.74121.19971-1.17871.0376-.43652.06934-.90234.09473-1.39648l.03809-.9873h2.75488v4.54102h-3.5921c.02386-.02759.0553-.04675.07745-.07617Z"/>
        <path class="cls-6" d="M126.23193,40.90515c-.88037-.45605-1.88428-.68457-3.01123-.68457-1.12744,0-2.12793.22852-3.00195.68457s-1.56152,1.08594-2.06152,1.89062c-.50049.80371-.75049,1.72559-.75049,2.76367,0,1.02637.25,1.94141.75049,2.74609.5.80469,1.1875,1.43457,2.06152,1.89062s1.87451.68359,3.00195.68359c1.12695,0,2.13086-.22754,3.01123-.68359s1.5708-1.08594,2.07129-1.89062c.5-.80469.75049-1.71973.75049-2.74609,0-1.03809-.25049-1.95996-.75049-2.76367-.50049-.80469-1.19092-1.43457-2.07129-1.89062ZM125.09229,46.88074c-.19678.37305-.45605.65527-.7793.84473-.32275.19043-.68701.28516-1.09229.28516-.40576,0-.76953-.09473-1.09277-.28516-.32275-.18945-.58252-.47168-.77881-.84473-.19629-.37402-.29443-.82031-.29443-1.33984,0-.53223.09814-.97559.29443-1.33008s.45605-.62695.77881-.81738c.32324-.18945.68701-.28418,1.09277-.28418.40527,0,.76953.09473,1.09229.28418.32324.19043.58252.46289.7793.81738.19629.35449.29443.79785.29443,1.33008,0,.51953-.09814.96582-.29443,1.33984Z"/>
        <path class="cls-6" d="M134.74365,43.39343c.33545-.18945.7124-.28418,1.13086-.28418.41797,0,.8042.11035,1.15869.33203s.65234.57324.89307,1.05469l2.79297-1.44434c-.35449-.88672-.95654-1.58008-1.80518-2.08008s-1.85547-.75098-3.021-.75098c-1.15234,0-2.17236.23145-3.05859.69336-.88672.46289-1.5835,1.09277-2.09033,1.89062s-.75977,1.7168-.75977,2.75488c0,1.02637.25293,1.94141.75977,2.74609s1.20361,1.43457,2.09033,1.89062c.88623.45605,1.90625.68359,3.05859.68359,1.16553,0,2.17236-.25,3.021-.75.84863-.50098,1.45068-1.19434,1.80518-2.08105l-2.79297-1.4248c-.24072.48145-.53857.83301-.89307,1.05469s-.74072.33203-1.15869.33203c-.41846,0-.79541-.09473-1.13086-.28516-.33545-.18945-.60498-.46777-.80762-.83594-.20264-.36719-.30371-.81055-.30371-1.33008,0-.54395.10107-.99414.30371-1.34863s.47217-.62695.80762-.81738Z"/>
        <path class="cls-6" d="M162.0376,40.39148l-2.54486,6.30664-2.52838-6.30664h-7.33398l-2.52637,3.83887h-1.27344v-3.83887h-3.61035v10.31738h3.61035v-3.66699h1.21796l2.39191,3.66699h4.25586l-3.69214-5.36597,3.3338-4.76514,4.32465,10.24158c-.13806.2688-.28827.49231-.46094.63074-.22168.17676-.53516.26562-.94043.26562-.27881,0-.56055-.05371-.84521-.16113-.28516-.1084-.53564-.25-.75049-.42773l-1.27295,2.50781c.35449.27832.81006.50391,1.36768.6748.55713.1709,1.10205.25684,1.63428.25684.68359,0,1.30762-.10156,1.87109-.30469.56348-.20215,1.07373-.55371,1.52979-1.05469.45605-.5.86719-1.19336,1.23486-2.08008l4.42725-10.73535h-3.41992Z"/>
      </g>
      <g>
        <path class="cls-3" d="M17.21582,38.09949c-.65918-.62012-1.43799-1.10156-2.3374-1.44336s-1.88086-.51367-2.94482-.51367-2.0459.17188-2.94482.51367c-.8999.3418-1.67871.82617-2.33691,1.45312-.65918.62695-1.17529,1.3584-1.54883,2.19434s-.56055,1.74805-.56055,2.73633c0,1.00098.18701,1.92188.56055,2.76465s.88965,1.57715,1.54883,2.2041c.6582.62695,1.44043,1.11133,2.34619,1.45312s1.88428.5127,2.93555.5127c1.06396,0,2.04541-.1709,2.94482-.5127s1.68164-.82324,2.34668-1.44434c.66504-.62012,1.18115-1.35156,1.54834-2.19434.36719-.8418.55127-1.76953.55127-2.7832,0-1.00098-.18701-1.91895-.56055-2.75488-.37402-.83594-.89014-1.56445-1.54834-2.18555ZM15.24902,44.62683c-.18359.46191-.43701.86133-.75977,1.19629-.32324.33594-.70312.59277-1.14014.76953-.43701.17773-.90918.2666-1.41553.2666-.50684,0-.97852-.08887-1.41553-.2666-.43701-.17676-.82031-.43359-1.14941-.76953-.32959-.33496-.58301-.73438-.76025-1.19629-.17725-.46289-.26562-.98535-.26562-1.56836,0-.58203.08838-1.10449.26562-1.56738.17725-.46191.43066-.86133.76025-1.19629.3291-.33594.7124-.59277,1.14941-.76953.43701-.17773.90869-.2666,1.41553-.2666.50635,0,.97852.08887,1.41553.2666.43701.17676.81689.43359,1.14014.76953.32275.33496.57617.73438.75977,1.19629.18359.46289.27539.98535.27539,1.56738,0,.58301-.0918,1.10547-.27539,1.56836Z"/>
        <polygon class="cls-3" points="20.02734 42.28015 23.3335 42.28015 23.3335 49.70886 26.94336 49.70886 26.94336 42.28015 30.24951 42.28015 30.24951 39.39148 20.02734 39.39148 20.02734 42.28015"/>
        <polygon class="cls-3" points="42.90332 39.39148 39.06543 39.39148 36.53906 43.23035 35.26563 43.23035 35.26563 39.39148 31.65527 39.39148 31.65527 49.70886 35.26563 49.70886 35.26563 46.04187 36.48358 46.04187 38.87549 49.70886 43.13135 49.70886 39.43921 44.3429 42.90332 39.39148"/>
        <path class="cls-3" d="M53.36279,39.88562c-.7666-.44336-1.61816-.66504-2.55566-.66504-.9248,0-1.69385.19336-2.30811.58008-.26929.16943-.5033.38306-.71289.62769v-1.03687h-3.45801v14.00293h3.61035v-4.62036c.19043.20032.39478.38208.62695.52661.62012.38672,1.36768.5791,2.2417.5791.9375,0,1.78906-.21484,2.55566-.64551.76611-.43066,1.37402-1.04492,1.82422-1.84375.44922-.79785.67432-1.73535.67432-2.81152,0-1.10254-.2251-2.04883-.67432-2.84082-.4502-.79102-1.05811-1.40918-1.82422-1.85254ZM51.91895,45.88953c-.19678.36816-.45605.64648-.7793.83594-.32275.19043-.68701.28516-1.09229.28516-.40576,0-.76953-.09473-1.09277-.28516-.32275-.18945-.58252-.46777-.77881-.83594-.19629-.36719-.29443-.80371-.29443-1.31055,0-.54492.09814-.99805.29443-1.3584.19629-.36133.45605-.63672.77881-.82715.32324-.18945.68701-.28418,1.09277-.28418.40527,0,.76953.09473,1.09229.28418.32324.19043.58252.46582.7793.82715.19629.36035.29443.81348.29443,1.3584,0,.50684-.09814.94336-.29443,1.31055Z"/>
        <rect class="cls-3" x="68.43945" y="39.39148" width="3.59082" height="10.31738"/>
        <path class="cls-3" d="M63.49951,42.60242h-2.31787v-3.21094h-3.59131v10.31738l5.43408.01855c1.46924,0,2.59375-.3252,3.37256-.97852.77881-.65137,1.16846-1.55469,1.16846-2.70703,0-1.08887-.33887-1.93457-1.0166-2.53613s-1.69385-.90332-3.04932-.90332ZM63.67041,46.94421c-.24072.20898-.57666.30762-1.00684.29492h-1.48193v-2.43262l1.48193.01953c.43018,0,.76611.0918,1.00684.27539s.36133.48438.36133.90234-.12061.73145-.36133.94043Z"/>
        <polygon class="cls-3" points="73.45508 42.28015 76.76123 42.28015 76.76123 49.70886 80.37109 49.70886 80.37109 42.28015 83.67725 42.28015 83.67725 39.39148 73.45508 39.39148 73.45508 42.28015"/>
        <path class="cls-3" d="M91.125,42.60242h-2.45068v-3.21094h-3.59131v10.31738l5.58594.01855c1.45654,0,2.60303-.3252,3.43945-.97852.83594-.65137,1.25391-1.55469,1.25391-2.70703,0-1.08887-.36426-1.93457-1.09277-2.53613s-1.77637-.90332-3.14453-.90332ZM91.32471,46.94421c-.23438.20898-.57324.30762-1.0166.29492h-1.63379v-2.43262l1.63379.01953c.44336,0,.78223.0918,1.0166.27539s.35156.48438.35156.90234-.11719.73145-.35156.94043Z"/>
        <path class="cls-3" d="M113.16504,39.39148h-9.51904l-.1333,3.61035c-.02539.51953-.06982,1.01074-.13281,1.47266-.06348.46289-.15186.87109-.26611,1.22559-.11377.35449-.28516.62988-.51318.82617-.22754.19629-.5127.29492-.85498.29492h-.3418v5.01562h3.36279v-2.12793h6.479v2.12793h3.34424v-5.01562h-1.4248v-7.42969ZM106.04004,46.745c.18994-.25293.33252-.55371.42725-.90234.09521-.34863.16162-.74121.19971-1.17871.0376-.43652.06934-.90234.09473-1.39648l.03809-.9873h2.75488v4.54102h-3.5921c.02386-.02759.0553-.04675.07745-.07617Z"/>
        <path class="cls-3" d="M124.23193,39.90515c-.88037-.45605-1.88428-.68457-3.01123-.68457-1.12744,0-2.12793.22852-3.00195.68457s-1.56152,1.08594-2.06152,1.89062c-.50049.80371-.75049,1.72559-.75049,2.76367,0,1.02637.25,1.94141.75049,2.74609.5.80469,1.1875,1.43457,2.06152,1.89062s1.87451.68359,3.00195.68359c1.12695,0,2.13086-.22754,3.01123-.68359s1.5708-1.08594,2.07129-1.89062c.5-.80469.75049-1.71973.75049-2.74609,0-1.03809-.25049-1.95996-.75049-2.76367-.50049-.80469-1.19092-1.43457-2.07129-1.89062ZM123.09229,45.88074c-.19678.37305-.45605.65527-.7793.84473-.32275.19043-.68701.28516-1.09229.28516-.40576,0-.76953-.09473-1.09277-.28516-.32275-.18945-.58252-.47168-.77881-.84473-.19629-.37402-.29443-.82031-.29443-1.33984,0-.53223.09814-.97559.29443-1.33008s.45605-.62695.77881-.81738c.32324-.18945.68701-.28418,1.09277-.28418.40527,0,.76953.09473,1.09229.28418.32324.19043.58252.46289.7793.81738.19629.35449.29443.79785.29443,1.33008,0,.51953-.09814.96582-.29443,1.33984Z"/>
        <path class="cls-3" d="M132.74365,42.39343c.33545-.18945.7124-.28418,1.13086-.28418.41797,0,.8042.11035,1.15869.33203s.65234.57324.89307,1.05469l2.79297-1.44434c-.35449-.88672-.95654-1.58008-1.80518-2.08008s-1.85547-.75098-3.021-.75098c-1.15234,0-2.17236.23145-3.05859.69336-.88672.46289-1.5835,1.09277-2.09033,1.89062s-.75977,1.7168-.75977,2.75488c0,1.02637.25293,1.94141.75977,2.74609s1.20361,1.43457,2.09033,1.89062c.88623.45605,1.90625.68359,3.05859.68359,1.16553,0,2.17236-.25,3.021-.75.84863-.50098,1.45068-1.19434,1.80518-2.08105l-2.79297-1.4248c-.24072.48145-.53857.83301-.89307,1.05469s-.74072.33203-1.15869.33203c-.41846,0-.79541-.09473-1.13086-.28516-.33545-.18945-.60498-.46777-.80762-.83594-.20264-.36719-.30371-.81055-.30371-1.33008,0-.54395.10107-.99414.30371-1.34863s.47217-.62695.80762-.81738Z"/>
        <path class="cls-3" d="M160.0376,39.39148l-2.54486,6.30664-2.52838-6.30664h-7.33398l-2.52637,3.83887h-1.27344v-3.83887h-3.61035v10.31738h3.61035v-3.66699h1.21796l2.39191,3.66699h4.25586l-3.69214-5.36597,3.3338-4.76514,4.32465,10.24158c-.13806.2688-.28827.49231-.46094.63074-.22168.17676-.53516.26562-.94043.26562-.27881,0-.56055-.05371-.84521-.16113-.28516-.1084-.53564-.25-.75049-.42773l-1.27295,2.50781c.35449.27832.81006.50391,1.36768.6748.55713.1709,1.10205.25684,1.63428.25684.68359,0,1.30762-.10156,1.87109-.30469.56348-.20215,1.07373-.55371,1.52979-1.05469.45605-.5.86719-1.19336,1.23486-2.08008l4.42725-10.73535h-3.41992Z"/>
      </g>
    </g>
  </g>
</svg>