<?xml version="1.0" encoding="UTF-8"?>
<svg id="Layer_2" data-name="Layer 2" xmlns="http://www.w3.org/2000/svg" viewBox="0 0 54.02 54.02">
  <defs>
    <style>
      .cls-1 {
        fill: lime;
        stroke: #000;
        stroke-miterlimit: 10;
      }

      .cls-2 {
        fill: #ffe100;
      }
    </style>
  </defs>
  <g id="Design">
    <g>
      <g>
        <path class="cls-2" d="M27.01,53.02C12.67,53.02,1,41.35,1,27.01S12.67,1,27.01,1s26.01,11.67,26.01,26.01-11.67,26.01-26.01,26.01ZM27.01,9.58c-9.61,0-17.43,7.82-17.43,17.43s7.82,17.43,17.43,17.43,17.43-7.82,17.43-17.43-7.82-17.43-17.43-17.43Z"/>
        <path d="M27.01,1.5c14.07,0,25.51,11.44,25.51,25.51s-11.44,25.51-25.51,25.51S1.5,41.08,1.5,27.01,12.94,1.5,27.01,1.5M27.01,44.94c9.89,0,17.93-8.04,17.93-17.93s-8.04-17.93-17.93-17.93S9.08,17.13,9.08,27.01s8.04,17.93,17.93,17.93M27.01.5C12.37.5.5,12.37.5,27.01s11.87,26.51,26.51,26.51,26.51-11.87,26.51-26.51S41.65.5,27.01.5h0ZM27.01,43.94c-9.35,0-16.93-7.58-16.93-16.93s7.58-16.93,16.93-16.93,16.93,7.58,16.93,16.93-7.58,16.93-16.93,16.93h0Z"/>
      </g>
      <circle class="cls-1" cx="27.01" cy="27.01" r="8.72"/>
    </g>
  </g>
</svg>