<?xml version="1.0" encoding="UTF-8"?>
<svg id="Layer_2" data-name="Layer 2" xmlns="http://www.w3.org/2000/svg" viewBox="0 0 58.1 58.1">
  <defs>
    <style>
      .cls-1 {
        fill: #20d5f2;
        stroke: #000;
        stroke-miterlimit: 10;
      }

      .cls-2 {
        fill: #6c47dc;
      }
    </style>
  </defs>
  <g id="Design">
    <g>
      <g>
        <path class="cls-2" d="M29.05,57.1C13.58,57.1,1,44.52,1,29.05S13.58,1,29.05,1s28.05,12.58,28.05,28.05-12.58,28.05-28.05,28.05ZM29.05,10.32c-10.33,0-18.73,8.4-18.73,18.73s8.4,18.73,18.73,18.73,18.73-8.4,18.73-18.73-8.4-18.73-18.73-18.73Z"/>
        <path d="M29.05,1.5c15.19,0,27.55,12.36,27.55,27.55s-12.36,27.55-27.55,27.55S1.5,44.24,1.5,29.05,13.86,1.5,29.05,1.5M29.05,48.28c10.6,0,19.23-8.63,19.23-19.23s-8.63-19.23-19.23-19.23S9.82,18.45,9.82,29.05s8.63,19.23,19.23,19.23M29.05.5C13.28.5.5,13.28.5,29.05s12.78,28.55,28.55,28.55,28.55-12.78,28.55-28.55S44.82.5,29.05.5h0ZM29.05,47.28c-10.07,0-18.23-8.16-18.23-18.23S18.98,10.82,29.05,10.82s18.23,8.16,18.23,18.23-8.16,18.23-18.23,18.23h0Z"/>
      </g>
      <circle class="cls-1" cx="29.05" cy="29.05" r="9.39"/>
    </g>
  </g>
</svg>