<?xml version="1.0" encoding="UTF-8"?>
<svg id="Layer_2" data-name="Layer 2" xmlns="http://www.w3.org/2000/svg" viewBox="0 0 47.51 47.51">
  <defs>
    <style>
      .cls-1 {
        fill: #ff37ce;
      }

      .cls-2 {
        fill: #ffe100;
        stroke: #000;
        stroke-miterlimit: 10;
      }
    </style>
  </defs>
  <g id="Design">
    <g>
      <g>
        <path class="cls-1" d="M23.76,46.51c-12.55,0-22.76-10.21-22.76-22.76S11.21,1,23.76,1s22.76,10.21,22.76,22.76-10.21,22.76-22.76,22.76ZM23.76,8.4c-8.46,0-15.35,6.89-15.35,15.35s6.89,15.35,15.35,15.35,15.35-6.89,15.35-15.35-6.89-15.35-15.35-15.35Z"/>
        <path d="M23.76,1.5c12.27,0,22.26,9.98,22.26,22.26s-9.98,22.26-22.26,22.26S1.5,36.03,1.5,23.76,11.48,1.5,23.76,1.5M23.76,39.61c8.74,0,15.85-7.11,15.85-15.85s-7.11-15.85-15.85-15.85-15.85,7.11-15.85,15.85,7.11,15.85,15.85,15.85M23.76.5C10.91.5.5,10.91.5,23.76s10.41,23.26,23.26,23.26,23.26-10.41,23.26-23.26S36.6.5,23.76.5h0ZM23.76,38.61c-8.2,0-14.85-6.65-14.85-14.85s6.65-14.85,14.85-14.85,14.85,6.65,14.85,14.85-6.65,14.85-14.85,14.85h0Z"/>
      </g>
      <circle class="cls-2" cx="23.76" cy="23.76" r="7.65"/>
    </g>
  </g>
</svg>