<?xml version="1.0" encoding="UTF-8"?>
<svg id="Layer_2" data-name="Layer 2" xmlns="http://www.w3.org/2000/svg" viewBox="0 0 91 91">
  <g id="Design">
    <g>
      <circle cx="87.5" cy="3.5" r="3.5"/>
      <circle cx="87.5" cy="17.5" r="3.5"/>
      <circle cx="87.5" cy="31.5" r="3.5"/>
      <circle cx="87.5" cy="45.5" r="3.5"/>
      <circle cx="87.5" cy="59.5" r="3.5"/>
      <circle cx="87.5" cy="73.5" r="3.5"/>
      <circle cx="87.5" cy="87.5" r="3.5"/>
      <circle cx="73.5" cy="3.5" r="3.5"/>
      <circle cx="73.5" cy="17.5" r="3.5"/>
      <circle cx="73.5" cy="31.5" r="3.5"/>
      <circle cx="73.5" cy="45.5" r="3.5"/>
      <circle cx="73.5" cy="59.5" r="3.5"/>
      <circle cx="73.5" cy="73.5" r="3.5"/>
      <circle cx="73.5" cy="87.5" r="3.5"/>
      <circle cx="59.5" cy="3.5" r="3.5"/>
      <circle cx="59.5" cy="17.5" r="3.5"/>
      <circle cx="59.5" cy="31.5" r="3.5"/>
      <circle cx="59.5" cy="45.5" r="3.5"/>
      <circle cx="59.5" cy="59.5" r="3.5"/>
      <circle cx="59.5" cy="73.5" r="3.5"/>
      <circle cx="59.5" cy="87.5" r="3.5"/>
      <circle cx="45.5" cy="3.5" r="3.5"/>
      <circle cx="45.5" cy="17.5" r="3.5"/>
      <circle cx="45.5" cy="31.5" r="3.5"/>
      <circle cx="45.5" cy="45.5" r="3.5"/>
      <circle cx="45.5" cy="59.5" r="3.5"/>
      <circle cx="45.5" cy="73.5" r="3.5"/>
      <circle cx="45.5" cy="87.5" r="3.5"/>
      <circle cx="31.5" cy="3.5" r="3.5"/>
      <circle cx="31.5" cy="17.5" r="3.5"/>
      <circle cx="31.5" cy="31.5" r="3.5"/>
      <circle cx="31.5" cy="45.5" r="3.5"/>
      <circle cx="31.5" cy="59.5" r="3.5"/>
      <circle cx="31.5" cy="73.5" r="3.5"/>
      <circle cx="31.5" cy="87.5" r="3.5"/>
      <circle cx="17.5" cy="3.5" r="3.5"/>
      <circle cx="17.5" cy="17.5" r="3.5"/>
      <circle cx="17.5" cy="31.5" r="3.5"/>
      <circle cx="17.5" cy="45.5" r="3.5"/>
      <circle cx="17.5" cy="59.5" r="3.5"/>
      <circle cx="17.5" cy="73.5" r="3.5"/>
      <circle cx="17.5" cy="87.5" r="3.5"/>
      <circle cx="3.5" cy="3.5" r="3.5"/>
      <circle cx="3.5" cy="17.5" r="3.5"/>
      <circle cx="3.5" cy="31.5" r="3.5"/>
      <circle cx="3.5" cy="45.5" r="3.5"/>
      <circle cx="3.5" cy="59.5" r="3.5"/>
      <circle cx="3.5" cy="73.5" r="3.5"/>
      <circle cx="3.5" cy="87.5" r="3.5"/>
    </g>
  </g>
</svg>