<?xml version="1.0" encoding="UTF-8"?>
<svg id="Layer_2" data-name="Layer 2" xmlns="http://www.w3.org/2000/svg" viewBox="0 0 112.43 105.03">
  <defs>
    <style>
      .cls-1 {
        fill: #6c47dc;
      }

      .cls-1, .cls-2 {
        stroke: #000;
        stroke-miterlimit: 10;
      }

      .cls-2 {
        fill: #ffe100;
      }
    </style>
  </defs>
  <g id="Design">
    <g>
      <path class="cls-1" d="M58.58,102.99c-3.09,1.65-6.78,1.99-10.12.94-3.37-1.06-6.12-3.38-7.73-6.55-5.17-10.15-14.1-15.38-28.1-16.45-5.52-.42-10.2-4.29-11.66-9.62-1.46-5.31.6-11.01,5.11-14.17,9.09-6.37,9.42-12.63,1.47-27.93-3.29-6.34-.84-14.24,5.46-17.61,3.11-1.66,6.69-2,10.08-.94,16.17,5.04,38.25-5.38,44.63-8.69,3.83-1.99,8.4-1.96,12.21.07,3.81,2.04,6.37,5.81,6.85,10.11,2.04,18.38,11.7,28.55,19.44,33.85,3.82,2.61,5.94,6.92,5.69,11.52-.25,4.55-2.89,8.71-6.9,10.85-1.22.65-2.54,1.11-3.92,1.35-4.11.73-8.8,2.46-13.57,5.01-10.46,5.59-19.39,14.15-23.31,22.34-1.22,2.54-3.16,4.58-5.64,5.9h0Z"/>
      <path class="cls-2" d="M54.59,92.48c7.97-16.65,28.76-30.43,44.64-33.25,2.17-.38,2.78-3.17.97-4.41-8.37-5.73-21.44-18.23-24.02-41.48-.19-1.69-2.02-2.67-3.53-1.89-8.64,4.48-33,15.55-52.72,9.41-2.07-.65-3.89,1.51-2.89,3.44,6.88,13.24,12.97,29.12-4.82,41.59-1.88,1.31-1.04,4.23,1.24,4.41,17.01,1.3,29.65,8.24,36.79,22.25.91,1.79,3.48,1.76,4.35-.06Z"/>
    </g>
  </g>
</svg>