<?xml version="1.0" encoding="UTF-8"?>
<svg id="Layer_2" data-name="Layer 2" xmlns="http://www.w3.org/2000/svg" viewBox="0 0 112.76 66.99">
  <defs>
    <style>
      .cls-1 {
        fill: lime;
      }
    </style>
  </defs>
  <g id="Design">
    <g>
      <path class="cls-1" d="M34.34,66.49c-.23,0-.47-.07-.73-.2L2.51,50.06c-1.16-.61-2.08-2.34-2-3.79l.31-5.84c.05-.93.48-1.51,1.13-1.51.23,0,.47.07.73.2l23.37,12.2c.4.21.8.31,1.19.31.98,0,1.75-.67,2.03-1.75l7.69-30.3c.09-.37.36-1,1.06-1,.23,0,.47.07.73.2l27.71,14.47c.4.21.8.31,1.19.31.98,0,1.75-.67,2.03-1.75l7.69-30.3c.09-.37.36-1,1.06-1,.23,0,.47.07.73.2l31.11,16.24c1.16.61,2.08,2.34,2,3.79l-.31,5.84c-.05.93-.48,1.51-1.13,1.51-.23,0-.47-.07-.73-.2l-23.37-12.2c-.4-.21-.8-.31-1.19-.31-.98,0-1.75.67-2.03,1.75l-7.69,30.3c-.09.37-.36,1-1.06,1-.23,0-.47-.07-.73-.2l-27.71-14.47c-.4-.21-.8-.31-1.19-.31-.98,0-1.75.67-2.03,1.75l-7.69,30.3c-.09.37-.36,1-1.06,1Z"/>
      <path d="M78.42,1h0c.14,0,.32.05.5.14l31.11,16.24c.99.52,1.8,2.07,1.73,3.32l-.31,5.84c0,.17-.08,1.04-.63,1.04-.14,0-.32-.05-.5-.14l-23.37-12.2c-.47-.25-.95-.37-1.42-.37-1.22,0-2.18.82-2.51,2.13l-7.69,30.3c-.1.41-.3.62-.57.62-.14,0-.32-.05-.5-.14l-27.71-14.47c-.47-.25-.95-.37-1.42-.37-1.22,0-2.18.82-2.51,2.13l-7.69,30.3c-.1.41-.3.62-.57.62-.14,0-.32-.05-.5-.14L2.74,49.61c-.99-.52-1.8-2.07-1.73-3.32l.31-5.84c0-.17.08-1.04.63-1.04.14,0,.32.05.5.14l23.37,12.2c.47.25.95.37,1.42.37,1.22,0,2.18-.82,2.51-2.13l7.69-30.3c.1-.41.3-.62.57-.62.14,0,.32.05.5.14l27.71,14.47c.47.25.95.37,1.42.37,1.22,0,2.18-.82,2.51-2.13l7.69-30.3c.1-.41.3-.62.57-.62M78.42,0c-.73,0-1.32.49-1.54,1.38l-7.69,30.3c-.22.88-.81,1.38-1.54,1.38-.3,0-.63-.08-.96-.26l-27.71-14.47c-.33-.17-.66-.26-.96-.26-.73,0-1.32.49-1.54,1.38l-7.69,30.3c-.22.88-.81,1.38-1.54,1.38-.3,0-.63-.08-.96-.26L2.91,38.66c-.34-.18-.66-.26-.96-.26-.9,0-1.56.75-1.63,1.99L0,46.24c-.09,1.65.93,3.56,2.27,4.26l31.11,16.24c.33.17.66.26.96.26.73,0,1.32-.49,1.54-1.38l7.69-30.3c.22-.88.81-1.38,1.54-1.38.3,0,.63.08.96.26l27.71,14.47c.33.17.66.26.96.26.73,0,1.32-.49,1.54-1.38l7.69-30.3c.22-.88.81-1.38,1.54-1.38.3,0,.63.08.96.26l23.37,12.2c.34.18.66.26.96.26.9,0,1.56-.75,1.63-1.99l.31-5.84c.09-1.65-.93-3.56-2.27-4.26L79.38.26c-.33-.17-.66-.26-.96-.26h0Z"/>
    </g>
  </g>
</svg>