<?xml version="1.0" encoding="UTF-8"?>
<svg id="Layer_2" data-name="Layer 2" xmlns="http://www.w3.org/2000/svg" viewBox="0 0 42.37 42.37">
  <defs>
    <style>
      .cls-1 {
        fill: #ff37ce;
        stroke: #000;
        stroke-linecap: round;
        stroke-linejoin: round;
      }
    </style>
  </defs>
  <g id="Design">
    <path class="cls-1" d="M36.5,24.82l4.4,2.56c1.96,1.14.7,4.13-1.48,3.53l-4.91-1.35c-6.57-1.81-13.54,1.04-16.96,6.94l-2.56,4.4c-1.14,1.96-4.13.7-3.53-1.48l1.35-4.91c1.81-6.57-1.04-13.54-6.94-16.96l-4.4-2.56c-1.96-1.14-.7-4.13,1.48-3.53l4.91,1.35c6.57,1.81,13.54-1.04,16.96-6.94l2.56-4.4c1.14-1.96,4.13-.7,3.53,1.48l-1.35,4.91c-1.81,6.57,1.04,13.54,6.94,16.96Z"/>
  </g>
</svg>