<?xml version="1.0" encoding="UTF-8"?>
<svg id="Layer_2" data-name="Layer 2" xmlns="http://www.w3.org/2000/svg" viewBox="0 0 44.45 44.44">
  <defs>
    <style>
      .cls-1 {
        fill: #ffe100;
        stroke: #000;
        stroke-miterlimit: 10;
      }
    </style>
  </defs>
  <g id="Design">
    <path class="cls-1" d="M15.27,43.83c-2.88.87-2.9-3.51-2.83-5.5.7-7.71-2.87-15.23-9.11-19.75-.61-.51-1.17-1.04-1.64-1.58C-.18,14.86.09,13.09,2.98,12.59c.69-.13,1.46-.18,2.27-.18,8.38.8,15.89-2.55,20.85-9.36,1.05-1.21,2.79-2.9,4.26-2.49,1.42.45,1.71,3.12,1.67,4.68-.8,8.32,2.56,15.89,9.33,20.81.7.6,1.33,1.24,1.79,1.88,2.4,3.24-1.06,4.13-3.85,4.08-7.37-.72-14.88,1.89-19.6,7.73-1.19,1.46-2.71,3.46-4.39,4.07h-.03Z"/>
  </g>
</svg>