<?xml version="1.0" encoding="UTF-8"?>
<svg id="Layer_2" data-name="Layer 2" xmlns="http://www.w3.org/2000/svg" viewBox="0 0 74.08 27.75">
  <defs>
    <style>
      .cls-1 {
        fill: none;
        stroke: #000;
        stroke-miterlimit: 10;
      }

      .cls-2 {
        fill: lime;
      }

      .cls-3 {
        fill: #6c47dc;
      }
    </style>
  </defs>
  <g id="Design">
    <g>
      <g>
        <path class="cls-3" d="M73.11,11.3c.63.22.64,1.1,0,1.33l-40.47,14.58c-.07.03-.15.04-.22.04.44-1.51,8.82-25.59,9.22-26.75.08,0,.17.01.25.04l31.21,10.76Z"/>
        <path class="cls-2" d="M41.65.5c-.4,1.16-8.79,25.24-9.22,26.75-.08,0-.17-.01-.25-.04L.97,16.45c-.63-.22-.63-1.1,0-1.32L41.43.54c.07-.03.14-.04.22-.04Z"/>
      </g>
      <g>
        <path class="cls-1" d="M32.43,27.25c-.08,0-.17-.01-.25-.04L.97,16.45c-.63-.22-.63-1.1,0-1.32L41.43.54c.07-.03.14-.04.22-.04.08,0,.17.01.25.04l31.21,10.76c.63.22.64,1.1,0,1.33l-40.47,14.58c-.07.03-.15.04-.22.04Z"/>
        <path class="cls-1" d="M32.41,27.29s0-.03.01-.04c.44-1.51,8.82-25.59,9.22-26.75v-.04"/>
      </g>
    </g>
  </g>
</svg>