<?xml version="1.0" encoding="UTF-8"?>
<svg id="Layer_2" data-name="Layer 2" xmlns="http://www.w3.org/2000/svg" viewBox="0 0 100 100">
  <defs>
    <style>
      .cls-1 {
        fill: #ff5e16;
      }

      .cls-2 {
        fill: #fffb6c;
      }

      .cls-3 {
        fill: #8b7ff6;
      }

      .cls-4 {
        fill: #333;
      }
    </style>
  </defs>
  <g id="Background">
    <rect class="cls-2" width="100" height="100"/>
    <path class="cls-3" d="M100,0v75.44c-7.03003-.04004-13.87-1.41003-16.34003-2.73004-6.00995-3.20996-7.48999-38.69-27.40997-21.97998-22.09003,18.53003-20.33002-18.84998-37.34003-36.71002C13.33002,8.15997,5.69,25.28998,0,38.19V0h100Z"/>
  </g>
  <g id="Icon">
    <path class="cls-4" d="M87.88281,27.52881h-9.99884c-.22235-5.29034-4.58331-9.52881-9.92694-9.52881h-17.10303c-5.34412,0-9.70508,4.23846-9.92743,9.52881h-9.99884c-2.5459,0-4.61719,2.07129-4.61719,4.61719v5.73682c0,2.5459,2.07129,4.61719,4.61719,4.61719h3.31989l5.07513,40.27148c.33936,2.69531,2.64453,4.72852,5.36133,4.72852h29.44189c2.71777,0,5.02246-2.0332,5.3623-4.72852l5.07416-40.27148h3.32037c2.5459,0,4.61719-2.07129,4.61719-4.61719v-5.73682c0-2.5459-2.07129-4.61719-4.61719-4.61719ZM47.94769,27.52881c.20599-1.42596,1.42413-2.52881,2.90631-2.52881h17.10303c1.48218,0,2.69983,1.10284,2.90582,2.52881h-22.91516Z"/>
    <g>
      <g>
        <g>
          <path class="cls-1" d="M64.72112,84h-29.44223c-2.21934,0-4.09193-1.65142-4.36941-3.85335l-5.18519-41.14665h48.55144l-5.18519,41.14665c-.27748,2.20193-2.15007,3.85335-4.36941,3.85335Z"/>
          <path d="M64.7207,85h-29.44189c-2.7168,0-5.02197-2.0332-5.36133-4.72852l-5.32715-42.27148h50.81885l-5.32617,42.27148c-.33984,2.69531-2.64453,4.72852-5.3623,4.72852ZM26.85791,40l5.04395,40.02148c.21387,1.69824,1.66553,2.97852,3.37695,2.97852h29.44189c1.71191,0,3.16406-1.28027,3.37793-2.97852l5.04297-40.02148H26.85791Z"/>
        </g>
        <g>
          <path class="cls-1" d="M78.47736,26.02881H21.52264c-1.9978,0-3.61731,1.61951-3.61731,3.61725v5.73663c0,1.9978,1.61951,3.61731,3.61731,3.61731h56.95471c1.9978,0,3.61731-1.61951,3.61731-3.61731v-5.73663c0-1.99774-1.61951-3.61725-3.61731-3.61725Z"/>
          <path d="M78.47754,40H21.52246c-2.5459,0-4.61719-2.07129-4.61719-4.61719v-5.73682c0-2.5459,2.07129-4.61719,4.61719-4.61719h56.95508c2.5459,0,4.61719,2.07129,4.61719,4.61719v5.73682c0,2.5459-2.07129,4.61719-4.61719,4.61719ZM21.52246,27.02881c-1.44336,0-2.61719,1.17383-2.61719,2.61719v5.73682c0,1.44336,1.17383,2.61719,2.61719,2.61719h56.95508c1.44336,0,2.61719-1.17383,2.61719-2.61719v-5.73682c0-1.44336-1.17383-2.61719-2.61719-2.61719H21.52246Z"/>
        </g>
        <g>
          <path class="cls-1" d="M37.5,25.44873c0-2.17725,1.77148-3.94873,3.94873-3.94873h17.10303c2.17676,0,3.94824,1.77148,3.94824,3.94873v.58008h5v-.58008c0-4.93457-4.01367-8.94873-8.94824-8.94873h-17.10303c-4.93457,0-8.94873,4.01416-8.94873,8.94873v.58008h5v-.58008Z"/>
          <path d="M68.5,27.02881h-7v-1.58008c0-1.62598-1.32227-2.94873-2.94824-2.94873h-17.10303c-1.62598,0-2.94873,1.32275-2.94873,2.94873v1.58008h-7v-1.58008c0-5.48584,4.46289-9.94873,9.94873-9.94873h17.10303c5.48535,0,9.94824,4.46289,9.94824,9.94873v1.58008ZM63.48242,25.02881h3.00684c-.21973-4.18848-3.69531-7.52881-7.9375-7.52881h-17.10303c-4.24219,0-7.71875,3.34033-7.93799,7.52881h3.00684c.21387-2.5332,2.34375-4.52881,4.93115-4.52881h17.10303c2.58691,0,4.7168,1.99561,4.93066,4.52881Z"/>
        </g>
      </g>
      <g>
        <path d="M40.95557,81.05469c-.49365,0-.92334-.36621-.98975-.86914l-4.91406-37.11133c-.07275-.54736.3125-1.05029.85986-1.12256.54639-.06641,1.05078.3125,1.12256.85986l4.91406,37.1123c.07275.54688-.3125,1.0498-.85986,1.12207-.04443.00586-.08887.00879-.13281.00879Z"/>
        <path d="M59.04395,81.05469c-.04297,0-.08789-.00293-.13184-.00879-.54785-.07227-.93262-.5752-.86035-1.12207l4.91406-37.1123c.07227-.54785.58398-.93066,1.12207-.85986.54785.07227.93262.5752.86035,1.12256l-4.91406,37.11133c-.06641.50293-.49609.86914-.99023.86914Z"/>
        <path d="M50,81.05469c-.55225,0-1-.44727-1-1v-37.11182c0-.55225.44775-1,1-1s1,.44775,1,1v37.11182c0,.55273-.44775,1-1,1Z"/>
      </g>
    </g>
  </g>
</svg>