<?xml version="1.0" encoding="UTF-8"?>
<svg id="Layer_2" data-name="Layer 2" xmlns="http://www.w3.org/2000/svg" viewBox="0 0 100 100">
  <defs>
    <style>
      .cls-1 {
        fill: #ff5e16;
      }

      .cls-2 {
        fill: #5bf672;
      }

      .cls-3 {
        fill: #95ebf2;
      }

      .cls-4 {
        fill: #333;
      }
    </style>
  </defs>
  <g id="Background">
    <rect class="cls-3" width="100" height="100"/>
    <path class="cls-2" d="M11.42551,40.55059c-2.06804-.77701-3.72129-2.39924-4.47951-4.47424-1.21001-3.31139-1.7222-7.42072,2.14454-8.57635,5.4321-1.62346,3.85597-6.0679,3.40947-8.45473s-2.58642-9.71193,6.96091-8.14815,15.47325,5.02058,13.66255,7.3251-7.81893,10.45267-4.44444,12.42798c2.29931,1.34594-1.13323,6.21206-5.01207,9.49763-2.53707,2.14903-6.05062,2.72878-9.1631,1.55936l-3.07834-1.1566Z"/>
    <path class="cls-2" d="M100,32.45001v67.54999h-56.84003c1.62006-10.89001,20.27002-42.84003,35.15002-42.5,10,.22998,17.34003-13.59003,21.69-25.04999Z"/>
  </g>
  <g id="Icon">
    <path class="cls-4" d="M89.879,23.5168l-2.75018-2.74957c-1.27991-1.28107-2.98291-1.98627-4.79523-1.98627-1.8111,0-3.5141.7052-4.79401,1.98627l-7.11957,7.11908-2.18646-2.1864c-1.72766-1.72766-4.53662-1.72766-6.26434,0l-3.94781,3.94727c-1.72766,1.72711-1.72766,4.53784,0,6.26489l2.18671,2.18658-27.41449,27.41449c-1.43268,1.43152-2.33295,3.32141-2.53455,5.31824-.11395,1.13416-.56061,2.20721-1.29102,3.10278l-5.10907,6.2608c-1.01483,1.24347-.93787,3.02405.17865,4.14056l2.27185,2.27185c.59235.59235,1.37103.89209,2.15729.89209.69696,0,1.39978-.23511,1.9845-.71344l6.26141-5.10901c.89496-.72986,1.96741-1.17645,3.10217-1.29047,1.99622-.20099,3.88495-1.10126,5.31824-2.53394l27.41492-27.41492,2.1861,2.18597c.83685.83679,1.94867,1.2981,3.1322,1.2981s2.29535-.4613,3.13214-1.2981l3.94788-3.94666c1.72766-1.72711,1.72766-4.53784,0-6.26495l-2.18665-2.18652,7.11932-7.1189c2.64325-2.6438,2.64325-6.94598,0-9.58984Z"/>
    <g>
      <g>
        <g>
          <rect class="cls-1" x="48.93616" y="30.00429" width="30.08763" height="12.03505" rx="3.22668" ry="3.22668" transform="translate(44.21058 -34.69013) rotate(45.00001)"/>
          <path d="M70.36248,50.78158c-1.18352,0-2.29536-.4613-3.13217-1.29812l-16.71273-16.71156c-1.72769-1.7271-1.72769-4.53783,0-6.26493l3.94783-3.94724c1.72769-1.72769,4.53665-1.72769,6.26434,0l16.71273,16.71215c1.72769,1.7271,1.72769,4.53783,0,6.26493l-3.94783,3.94665c-.83681.83681-1.94864,1.29812-3.13217,1.29812ZM57.59758,23.67039c-.51831,0-1.03544.19686-1.43034.59117l-3.94783,3.94724c-.78863.78862-.78863,2.07264,0,2.86126l16.71273,16.71156c.76394.76512,2.09673.76512,2.86068,0l3.94783-3.94665c.38197-.38197.59235-.89029.59235-1.43034,0-.54064-.21038-1.04895-.59235-1.43093l-16.71273-16.71215c-.3949-.39431-.91203-.59117-1.43034-.59118Z"/>
        </g>
        <g>
          <path class="cls-1" d="M72.2475,17.38521h3.8891c3.07823,0,5.57735,2.49913,5.57735,5.57735v11.27172h-15.04381v-11.27172c0-3.07823,2.49913-5.57735,5.57735-5.57735Z" transform="translate(39.9806 -44.90221) rotate(45.00001)"/>
          <path d="M73.55342,38.78766l-12.33945-12.33945,8.82179-8.8212c1.2799-1.28107,2.98291-1.98625,4.79404-1.98625,1.81231,0,3.51532.70518,4.79522,1.98625l2.7502,2.74961c2.64324,2.64383,2.64324,6.94601,0,9.58984l-8.82179,8.8212ZM64.61763,26.44821l8.93579,8.93579,7.11996-7.11937c1.70536-1.70536,1.70536-4.48082,0-6.18618l-2.7502-2.74961c-1.65129-1.65071-4.53195-1.65306-6.18559,0l-7.11996,7.11937Z"/>
        </g>
        <g>
          <path class="cls-1" d="M65.04373,45.59565l-10.63759-10.63759-28.2656,28.2656c-1.23909,1.23909-2.01365,2.86352-2.1877,4.58811h0c-.13774,1.36474-.67968,2.66798-1.55611,3.74207l-5.10919,6.26148c-.62092.76096-.57884,1.85283.09747,2.52914l2.27231,2.27231c.67631.67631,1.76818.71839,2.52914.09747l6.26148-5.10919c1.0741-.87643,2.37734-1.41837,3.74207-1.55611h0c1.7246-.17405,3.34903-.94861,4.58812-2.1877l28.2656-28.26559Z"/>
          <path d="M20.96294,84.35924c-.78627,0-1.56491-.2997-2.15726-.89205l-2.27185-2.27185c-1.11653-1.11653-1.19351-2.89711-.17864-4.14057l5.10902-6.26081c.73045-.89558,1.17706-1.96862,1.29107-3.10279.20156-1.99683,1.10184-3.88671,2.53453-5.31822l29.11683-29.11683,12.33945,12.33945-29.11683,29.11683c-1.43328,1.43269-3.32198,2.33297-5.31822,2.53394-1.13475.114-2.20721.56062-3.1022,1.29048l-6.2614,5.10902c-.58471.47835-1.28754.71341-1.98449.71341ZM54.40664,36.65978l-27.415,27.41499c-1.04131,1.04131-1.69537,2.41171-1.8411,3.8585-.1616,1.60428-.79156,3.11924-1.82112,4.38151l-5.10902,6.26081c-.23095.28325-.22448.67815.01528.91791l2.27244,2.27185c.23976.23976.63466.24681.91673.01645l6.26199-5.10902c1.26168-1.02956,2.77723-1.65952,4.38269-1.82171,1.4462-.14574,2.81601-.7992,3.85792-1.84052l27.415-27.41499-8.93579-8.93579Z"/>
        </g>
      </g>
      <g>
        <g>
          <line class="cls-4" x1="53.13059" y1="46.08035" x2="58.52144" y2="51.4712"/>
          <path d="M58.52148,52.47168c-.25586,0-.51172-.09766-.70703-.29297l-5.39062-5.39111c-.39062-.39062-.39062-1.02344,0-1.41406s1.02344-.39062,1.41406,0l5.39062,5.39111c.39062.39062.39062,1.02344,0,1.41406-.19531.19531-.45117.29297-.70703.29297Z"/>
        </g>
        <g>
          <line class="cls-4" x1="49.80833" y1="49.40262" x2="55.19917" y2="54.79346"/>
          <path d="M55.19922,55.79395c-.25586,0-.51172-.09766-.70703-.29297l-5.39111-5.39111c-.39062-.39062-.39062-1.02344,0-1.41406s1.02344-.39062,1.41406,0l5.39111,5.39111c.39062.39062.39062,1.02344,0,1.41406-.19531.19531-.45117.29297-.70703.29297Z"/>
        </g>
        <g>
          <line class="cls-4" x1="46.48606" y1="52.72488" x2="51.8769" y2="58.11573"/>
          <path d="M51.87695,59.11621c-.25586,0-.51172-.09766-.70703-.29297l-5.39111-5.3916c-.39062-.39062-.39062-1.02344,0-1.41406s1.02344-.39062,1.41406,0l5.39111,5.3916c.39062.39062.39062,1.02344,0,1.41406-.19531.19531-.45117.29297-.70703.29297Z"/>
        </g>
        <g>
          <line class="cls-4" x1="43.16379" y1="56.04715" x2="48.55464" y2="61.43799"/>
          <path d="M48.55469,62.43848c-.25586,0-.51172-.09766-.70703-.29297l-5.39111-5.3916c-.39062-.39062-.39062-1.02344,0-1.41406s1.02344-.39062,1.41406,0l5.39111,5.3916c.39062.39062.39062,1.02344,0,1.41406-.19531.19531-.45117.29297-.70703.29297Z"/>
        </g>
        <g>
          <line class="cls-4" x1="39.84153" y1="59.36941" x2="45.23237" y2="64.76026"/>
          <path d="M45.23242,65.76074c-.25586,0-.51172-.09766-.70703-.29297l-5.39111-5.3916c-.39062-.39062-.39062-1.02344,0-1.41406s1.02344-.39062,1.41406,0l5.39111,5.3916c.39062.39062.39062,1.02344,0,1.41406-.19531.19531-.45117.29297-.70703.29297Z"/>
        </g>
        <g>
          <line class="cls-4" x1="36.51926" y1="62.69168" x2="41.91011" y2="68.08252"/>
          <path d="M41.91016,69.08301c-.25586,0-.51172-.09766-.70703-.29297l-5.39111-5.3916c-.39062-.39062-.39062-1.02344,0-1.41406s1.02344-.39062,1.41406,0l5.39111,5.3916c.39062.39062.39062,1.02344,0,1.41406-.19531.19531-.45117.29297-.70703.29297Z"/>
        </g>
      </g>
    </g>
  </g>
</svg>