<?xml version="1.0" encoding="UTF-8"?>
<svg id="Layer_2" data-name="Layer 2" xmlns="http://www.w3.org/2000/svg" viewBox="0 0 100 100">
  <defs>
    <style>
      .cls-1, .cls-2 {
        fill: #ff5e16;
      }

      .cls-2 {
        stroke: #000;
        stroke-miterlimit: 10;
        stroke-width: 2px;
      }

      .cls-3 {
        fill: #8b7ff6;
      }

      .cls-4 {
        fill: #95ebf2;
      }

      .cls-5 {
        fill: #333;
      }
    </style>
  </defs>
  <g id="Background">
    <rect class="cls-3" width="100" height="100"/>
    <path class="cls-4" d="M28.27002,58.39001c-3.94,15.37,9.09998,32.98999,17.03998,41.60999H0V0h63.63c1.13,3.53998,2.19,7.58997,3.15997,12.20996,11.77002,55.81-33.57996,26.92004-38.51996,46.18005Z"/>
  </g>
  <g id="Icon">
    <g>
      <g>
        <path class="cls-5" d="M69.12445,21.52928H24.07248c-.92651,0-1.67759.75108-1.67759,1.67759v8.76547c0,.92651.75108,1.67759,1.67759,1.67759h13.24369c.92651,0,1.67759.75108,1.67759,1.67759v47.91584c0,.92651.75108,1.67759,1.67759,1.67759h11.93148c.92651,0,1.67759-.75108,1.67759-1.67759v-47.91584c0-.92651.75108-1.67759,1.67759-1.67759h13.16646c.92651,0,1.67759-.75108,1.67759-1.67759v-8.76547c0-.92651-.75108-1.67759-1.67759-1.67759Z"/>
        <path class="cls-5" d="M52.60301,85.9209h-11.93186c-1.47881,0-2.67762-1.19881-2.67762-2.67762v-47.74387c0-.46917-.38033-.8495-.8495-.8495h-13.07151c-1.47881,0-2.67762-1.19881-2.67762-2.67762v-8.76536c0-1.47881,1.19881-2.67762,2.67762-2.67762h45.05198c1.47881,0,2.67762,1.19881,2.67762,2.67762v8.76536c0,1.47881-1.19881,2.67762-2.67762,2.67762h-12.99436c-.46917,0-.8495.38033-.8495.8495v47.74387c0,1.47881-1.19881,2.67762-2.67762,2.67762ZM40.84302,83.9209h11.58811c.46917,0,.8495-.38033.8495-.8495v-47.74387c0-1.47881,1.19881-2.67762,2.67762-2.67762h12.99436c.46917,0,.8495-.38033.8495-.8495v-8.42161c0-.46917-.38033-.8495-.8495-.8495H24.24439c-.46917,0-.8495.38033-.8495.8495v8.42161c0,.46917.38033.8495.8495.8495h13.072c1.47854,0,2.67714,1.19859,2.67714,2.67714v47.74436c0,.46917.38033.8495.8495.8495Z"/>
      </g>
      <g>
        <path class="cls-5" d="M85.4167,79.21338c-.48033-1.32091-1.41603-1.73005-2.29471-1.46265-.57466.17488-1.19048.26198-1.84727.26198-1.00164,0-1.79987-.3076-2.3959-.92275-.59713-.6163-.89514-1.52103-.89514-2.71419v-9.8698c0-.92651.75108-1.67759,1.67759-1.67759h3.80377c.92651,0,1.67759-.75108,1.67759-1.67759v-4.84377c0-.92651-.75108-1.67759-1.67759-1.67759h-3.80377c-.92651,0-1.67759-.75108-1.67759-1.67759v-3.63021c0-.92651-.75108-1.67759-1.67759-1.67759h-7.61543c-.92651,0-1.67759.75108-1.67759,1.67759v3.63021c0,.92651-.75108,1.67759-1.67759,1.67759h-3.20561c-.92651,0-1.67759.75108-1.67759,1.67759v4.84377c0,.92651.75108,1.67759,1.67759,1.67759h3.20561c.92651,0,1.67759.75108,1.67759,1.67759v10.0433c0,4.00317,1.11658,6.9962,3.34973,8.97799,2.23193,1.98302,5.34942,2.97276,9.35252,2.97276,1.46247,0,2.85789-.14363,4.18625-.43206.73482-.16019,1.4191-.3757,2.05346-.64711.83026-.35524,1.25441-1.27736.9458-2.12606l-1.48414-4.0814Z"/>
        <path class="cls-5" d="M79.7152,87.5c-4.23828,0-7.6084-1.08496-10.0166-3.22461-2.44531-2.16992-3.68555-5.44238-3.68555-9.72656v-10.04297c0-.37402-.30371-.67773-.67773-.67773h-3.20508c-1.47656,0-2.67773-1.20117-2.67773-2.67773v-4.84375c0-1.47607,1.20117-2.67725,2.67773-2.67725h3.20508c.37402,0,.67773-.3042.67773-.67773v-3.62988c0-1.47656,1.20117-2.67773,2.67773-2.67773h7.61523c1.47656,0,2.67773,1.20117,2.67773,2.67773v3.62988c0,.37354.30371.67773.67773.67773h3.80371c1.47656,0,2.67773,1.20117,2.67773,2.67725v4.84375c0,1.47656-1.20117,2.67773-2.67773,2.67773h-3.80371c-.37402,0-.67773.30371-.67773.67773v9.87012c0,.91895.20605,1.59766.61328,2.01758.40332.41699.95215.61914,1.67773.61914.55566,0,1.08008-.07324,1.55664-.21875,1.24316-.37891,2.8125.11914,3.52441,2.07715l1.48438,4.08203c.48535,1.33398-.16992,2.82129-1.49121,3.38672-.69043.2959-1.44141.53223-2.23438.70508-1.39062.30176-2.87109.45508-4.39941.45508ZM62.13024,55.62988c-.37402,0-.67773.30371-.67773.67676v4.84375c0,.37402.30371.67773.67773.67773h3.20508c1.47656,0,2.67773,1.20117,2.67773,2.67773v10.04297c0,3.6875,1.01367,6.45703,3.01367,8.23047,2.03223,1.80566,4.95508,2.7207,8.68848,2.7207,1.38672,0,2.72363-.1377,3.97461-.40918.66797-.14551,1.29883-.34375,1.87207-.58887.35156-.15137.52344-.52246.39941-.86523l-1.48438-4.08203c-.1748-.48047-.5-1.02051-1.0625-.84668-.66699.20215-1.38672.30469-2.13965.30469-1.27734,0-2.3252-.41309-3.11426-1.22754-.78027-.80469-1.17676-1.95215-1.17676-3.40918v-9.87012c0-1.47656,1.20117-2.67773,2.67773-2.67773h3.80371c.37402,0,.67773-.30371.67773-.67773v-4.84375c0-.37305-.30371-.67676-.67773-.67676h-3.80371c-1.47656,0-2.67773-1.20166-2.67773-2.67822v-3.62988c0-.37354-.30371-.67773-.67773-.67773h-7.61523c-.37402,0-.67773.3042-.67773.67773v3.62988c0,1.47656-1.20117,2.67822-2.67773,2.67822h-3.20508Z"/>
      </g>
    </g>
    <g>
      <g>
        <path class="cls-1" d="M62.72955,17.51463H17.67759c-.92651,0-1.67759.75108-1.67759,1.67759v8.76547c0,.92651.75108,1.67759,1.67759,1.67759h13.24369c.92651,0,1.67759.75108,1.67759,1.67759v47.91584c0,.92651.75108,1.67759,1.67759,1.67759h11.93148c.92651,0,1.67759-.75108,1.67759-1.67759V31.31286c0-.92651.75108-1.67759,1.67759-1.67759h13.16646c.92651,0,1.67759-.75108,1.67759-1.67759v-8.76547c0-.92651-.75108-1.67759-1.67759-1.67759Z"/>
        <path d="M46.20812,81.90625h-11.93186c-1.47881,0-2.67762-1.19881-2.67762-2.67762V31.48475c0-.46917-.38033-.8495-.8495-.8495h-13.07151c-1.47881,0-2.67762-1.19881-2.67762-2.67762v-8.76536c0-1.47881,1.19881-2.67762,2.67762-2.67762h45.05198c1.47881,0,2.67762,1.19881,2.67762,2.67762v8.76536c0,1.47881-1.19881,2.67762-2.67762,2.67762h-12.99436c-.46917,0-.8495.38033-.8495.8495v47.74387c0,1.47881-1.19881,2.67762-2.67762,2.67762ZM34.44813,79.90625h11.58811c.46917,0,.8495-.38033.8495-.8495V31.31288c0-1.47881,1.19881-2.67762,2.67762-2.67762h12.99436c.46917,0,.8495-.38033.8495-.8495v-8.42161c0-.46917-.38033-.8495-.8495-.8495H17.8495c-.46917,0-.8495.38033-.8495.8495v8.42161c0,.46917.38033.8495.8495.8495h13.072c1.47854,0,2.67714,1.19859,2.67714,2.67714v47.74436c0,.46917.38033.8495.8495.8495Z"/>
      </g>
      <path class="cls-2" d="M79.02181,75.19873c-.48033-1.32091-1.41603-1.73005-2.29471-1.46265-.57466.17488-1.19048.26198-1.84727.26198-1.00164,0-1.79987-.3076-2.3959-.92275-.59713-.6163-.89514-1.52103-.89514-2.71419v-9.8698c0-.92651.75108-1.67759,1.67759-1.67759h3.80377c.92651,0,1.67759-.75108,1.67759-1.67759v-4.84377c0-.92651-.75108-1.67759-1.67759-1.67759h-3.80377c-.92651,0-1.67759-.75108-1.67759-1.67759v-3.63021c0-.92651-.75108-1.67759-1.67759-1.67759h-7.61543c-.92651,0-1.67759.75108-1.67759,1.67759v3.63021c0,.92651-.75108,1.67759-1.67759,1.67759h-3.20561c-.92651,0-1.67759.75108-1.67759,1.67759v4.84377c0,.92651.75108,1.67759,1.67759,1.67759h3.20561c.92651,0,1.67759.75108,1.67759,1.67759v10.0433c0,4.00317,1.11658,6.9962,3.34973,8.97799,2.23193,1.98302,5.34942,2.97276,9.35252,2.97276,1.46247,0,2.85789-.14363,4.18625-.43206.73482-.16019,1.4191-.3757,2.05346-.64711.83026-.35524,1.25441-1.27736.9458-2.12606l-1.48414-4.0814Z"/>
    </g>
  </g>
</svg>