<?xml version="1.0" encoding="UTF-8"?>
<svg id="Layer_2" data-name="Layer 2" xmlns="http://www.w3.org/2000/svg" viewBox="0 0 100 100">
  <defs>
    <style>
      .cls-1 {
        fill: #ff5e16;
        stroke: #000;
        stroke-miterlimit: 10;
        stroke-width: 2px;
      }

      .cls-2 {
        fill: #f7b0da;
      }

      .cls-3 {
        fill: #8b7ff6;
      }

      .cls-4 {
        fill: #333;
      }
    </style>
  </defs>
  <g id="Background">
    <rect class="cls-2" width="100" height="100"/>
    <path class="cls-3" d="M100,0v81.37c-3.15997-9.23999-5.03998-17.56-19.09003-16.72003-20.58997,1.24005-70.26996-21.38995-48.63995-32.58997C51.73999,21.97998,18.53003,6.70996,0,10.19V0h100Z"/>
  </g>
  <g id="Icon">
    <g>
      <g>
        <path class="cls-4" d="M24.84654,85.68948h0c-.58146-.58146-.85087-1.27254-.61004-1.56874l23.36295-28.73401c.39121-.48115,1.36151-.24285,2.1311.52675l4.89197,4.89197c.7696.7696,1.0079,1.7399.52675,2.13111l-28.734,23.36297c-.2962.24083-.98728-.02858-1.56874-.61004Z"/>
        <path class="cls-4" d="M25.5948,87.42569c-.50751-.13599-1.04089-.45648-1.53319-.94915l-.00157-.00042c-1.04518-1.04653-1.32129-2.27473-.68643-3.05653l23.36358-28.73358c.32134-.39604.79727-.62871,1.34085-.6567.79898-.04159,1.71055.36899,2.43875,1.09907l4.8921,4.89091c.72771.7277,1.1387,1.63914,1.09789,2.43739-.02757.54331-.25995,1.0205-.65508,1.34169l-28.73516,23.36298c-.41277.3367-.95131.41717-1.52174.26432ZM25.63275,84.90379c.13934.13848.27149.23458.37317.29554l28.25513-22.97238c-.0494-.14698-.1752-.38635-.42433-.63517l-4.89249-4.89157c-.24861-.24868-.48716-.37554-.63405-.42501l-22.97344,28.25483c.06044.10161.15695.23424.29601.37377Z"/>
      </g>
      <g>
        <g>
          <polygon class="cls-4" points="66.74275 58.47347 52.06253 43.79326 71.96545 28.14026 82.39574 38.57055 66.74275 58.47347"/>
          <path class="cls-4" d="M66.84202,60.14501l-16.45084-16.45134,21.66243-17.03703,11.82603,11.82535-17.03763,21.66301ZM53.73419,43.89263l12.9089,12.90952,14.2693-18.14308-9.03561-9.0356-18.14259,14.26916Z"/>
        </g>
        <g>
          <rect class="cls-4" x="59.76941" y="30.13538" width="34.31732" height="6.94208" rx="1.60018" ry="1.60018" transform="translate(46.29502 -44.55326) rotate(44.99999)"/>
          <path class="cls-4" d="M85.89984,48.55032c-.45404-.12166-.86975-.36117-1.21094-.70265l-22.00227-22.00217c-.51238-.5121-.79467-1.19294-.79485-1.91788.0002-.72428.28209-1.40511.79419-1.91749l2.64539-2.64591c.51262-.51224,1.19385-.79386,1.91774-.79432.72676.00143,1.40654.28304,1.91801.79433l22.00318,22.00298c.51224.51262.794,1.19333.79418,1.91827-.00059.72361-.283,1.4043-.79458,1.91682l-2.64539,2.64591c-.51262.51224-1.19399.79439-1.91774.79432-.2416-.00011-.47939-.03124-.70693-.09221ZM67.37705,20.81032c-.05033-.01349-.09543-.01714-.12809-.0169-.07531.00005-.22071.01841-.34513.14297l-2.64539,2.64591c-.12441.12457-.14319.27013-.14314.34545s.01841.22071.14245.34498l22.00304,22.0035c.12509.12455.26856.14276.34597.14328.07531-.00005.22085-.01893.34527-.1435l2.64539-2.64591c.12441-.12457.14319-.27013.14328-.34597-.00005-.07531-.01855-.22019-.14259-.34446l-22.00318-22.00298c-.07082-.07124-.14973-.10811-.21788-.12638Z"/>
        </g>
        <g>
          <path class="cls-4" d="M65.93565,54.69624l-.33811-.33811s-2.3316-2.3316-9.41967-9.41966l-.33811-.33811c-6.14826-6.14826-14.55266-1.11938-17.29904.84849-.49703.35614-.4385,1.16346.11963,1.72158l7.64279,7.64278,9.41967,9.41966,7.64279,7.64278c.55812.55812,1.36544.61666,1.72158.11963,1.96786-2.74638,6.99674-11.15079.84848-17.29904Z"/>
          <path class="cls-4" d="M63.77489,73.36588c-.43516-.1166-.84822-.35765-1.19499-.70344l-24.70566-24.70567c-.55121-.55173-.83453-1.27274-.7767-1.97933.0485-.58996.33092-1.0987.79498-1.43177,2.66034-1.9069,11.8742-7.5917,18.73315-.73186l10.06707,10.06834-.75759.8141.78609-.78624c6.86066,6.85974,1.17555,16.07272-.73093,18.73343-.33355.46469-.84178.74659-1.43244.79511-.26183.02087-.52606-.00385-.78297-.07268ZM39.34267,46.24299c.0196.04009.05181.08974.10374.14131l24.70566,24.70567c.05126.05195.10101.08438.14071.10401,1.74389-2.48175,6.35992-10.20885.85626-15.71149l-.03003-.03052-10.0663-10.06701c-5.50384-5.49987-13.22716-.8857-15.71004.85802Z"/>
        </g>
      </g>
    </g>
    <g>
      <path class="cls-1" d="M17.34599,82.88526h0c-.58146-.58146-.85087-1.27254-.61004-1.56874l23.36295-28.73401c.39121-.48115,1.36151-.24285,2.1311.52675l4.89197,4.89197c.7696.7696,1.0079,1.7399.52675,2.13111l-28.734,23.36297c-.2962.24083-.98728-.02858-1.56874-.61004Z"/>
      <g>
        <polygon class="cls-1" points="59.2422 55.66925 44.56198 40.98904 64.4649 25.33604 74.89519 35.76633 59.2422 55.66925"/>
        <rect class="cls-1" x="52.26886" y="27.33116" width="34.31732" height="6.94208" rx="1.60018" ry="1.60018" transform="translate(42.11528 -40.07091) rotate(44.99999)"/>
        <path class="cls-1" d="M58.4351,51.89202l-.33811-.33811s-2.3316-2.3316-9.41967-9.41966l-.33811-.33811c-6.14826-6.14826-14.55266-1.11938-17.29904.84849-.49703.35614-.4385,1.16346.11963,1.72158l7.64279,7.64278,9.41967,9.41966,7.64279,7.64278c.55812.55812,1.36544.61666,1.72158.11963,1.96786-2.74638,6.99674-11.15079.84848-17.29904Z"/>
      </g>
    </g>
  </g>
</svg>