<?xml version="1.0" encoding="UTF-8"?>
<svg id="Layer_2" data-name="Layer 2" xmlns="http://www.w3.org/2000/svg" viewBox="0 0 100 100">
  <defs>
    <style>
      .cls-1 {
        fill: #ff5e16;
      }

      .cls-2 {
        fill: #fffb6c;
      }

      .cls-3 {
        fill: #5bf672;
      }

      .cls-4 {
        fill: #333;
      }
    </style>
  </defs>
  <g id="Background">
    <rect class="cls-2" width="100" height="100"/>
    <path class="cls-3" d="M100,59.76996v40.23004H0V21.82001c14.5,1.48999,34.71002,7.46997,35.29999,16.76996,1.16003,17.97003-.38,17.77002,18.04004,22.31,9.78998,2.41003,31.12-2.45996,46.65997-1.13Z"/>
  </g>
  <g id="Icon">
    <path class="cls-4" d="M92.45555,51.60322c-.86908-17.56927-14.73047-31.88513-32.24524-33.29919-.96545-.07788-1.93036-.11682-2.89142-.11682-5.75842,0-11.3996,1.39075-16.46857,4.07776-1.05981.56152-1.83545,1.55322-2.12793,2.71912-.29291,1.16882-.07489,2.41162.59711,3.41016,1.21747,1.80719,3.56628,2.40869,5.46552,1.39752,4.48303-2.38538,9.55829-3.42963,14.69147-3.02472,13.36212,1.05884,23.89612,11.96942,24.50146,25.37921.33185,7.35889-2.28802,14.34314-7.37689,19.66705-5.09381,5.3288-11.94513,8.26349-19.29382,8.26349-7.354,0-14.50806-3.15222-19.53369-8.52283h5.60516c2.34155,0,4.24658-1.90509,4.24658-4.24658s-1.90503-4.24664-4.24658-4.24664h-15.32117c-2.34155,0-4.24658,1.90509-4.24658,4.24664v15.32117c0,2.34149,1.90503,4.24658,4.24658,4.24658s4.24658-1.90509,4.24658-4.24658v-4.5094c6.60663,6.67133,15.58197,10.45081,25.00311,10.45081,9.71649,0,18.76727-3.88745,25.48535-10.94617,6.71216-7.05133,10.14368-16.29242,9.66296-26.02057Z"/>
    <g>
      <path class="cls-1" d="M49.88863,84.38509c-10.07378,0-19.56437-4.48813-25.99998-12.00653v7.06171c0,1.79491-1.45509,3.25-3.25,3.25s-3.25-1.45509-3.25-3.25v-15.32142c0-1.79491,1.45509-3.25,3.25-3.25h15.32142c1.79491,0,3.25,1.45509,3.25,3.25s-1.45509,3.25-3.25,3.25h-7.78024c5.21171,6.56466,13.20357,10.51625,21.7088,10.51625,15.69412,0,28.38166-13.1223,27.66596-28.97154-.62371-13.81096-11.63587-25.23685-25.41764-26.32887-5.35674-.4245-10.60698.6737-15.23924,3.13937-1.45055.77209-3.25289.28791-4.17058-1.07525-1.07751-1.60046-.53349-3.78813,1.1712-4.69177,5.7236-3.03418,12.20523-4.3809,18.81359-3.84753,16.95838,1.36877,30.48902,15.36211,31.32884,32.35495.9704,19.63601-14.72474,35.92063-34.15213,35.92063Z"/>
      <path d="M52.79146,15.11569c17.51478,1.41407,31.37615,15.72992,32.24522,33.2992.48076,9.72816-2.95076,18.96924-9.66296,26.0206-6.71804,7.05866-15.76885,10.94613-25.48534,10.94613-9.42112,0-18.39651-3.77944-25.00311-10.45077v4.50935c0,2.34153-1.90505,4.24658-4.24658,4.24658s-4.24658-1.90505-4.24658-4.24658v-15.32118c0-2.34153,1.90505-4.24658,4.24658-4.24658h15.32118c2.34153,0,4.24658,1.90505,4.24658,4.24658s-1.90505,4.24658-4.24658,4.24658h-5.60518c5.02563,5.37064,12.17967,8.52285,19.5337,8.52285,7.34868,0,14.20004-2.9347,19.2938-8.26349,5.08889-5.32392,7.70876-12.30813,7.3769-19.66703-.60533-13.4098-11.13931-24.32041-24.50142-25.37926-5.13317-.40485-10.20844.6394-14.69151,3.02472-1.89921,1.01116-4.24804.40972-5.46552-1.39752-.672-.99851-.89-2.24129-.59706-3.41011.29245-1.1659,1.06809-2.1576,2.12791-2.71914,5.06894-2.68702,10.71013-4.07773,16.46859-4.07773.96104,0,1.92597.03893,2.89139.11678ZM36.42944,24.84385c4.82029-2.56537,10.28143-3.68748,15.78588-3.25245,14.36257,1.13768,25.68387,12.8648,26.33494,27.27701.35717,7.9073-2.45832,15.41266-7.92676,21.13365-5.47331,5.72586-12.83756,8.87953-20.73512,8.87953-8.6664,0-17.07343-4.07189-22.48884-10.89309l-1.28317-1.61601h9.84349c1.24278,0,2.25346-1.01067,2.25346-2.25346,0-1.24278-1.01067-2.25346-2.25346-2.25346h-15.32118c-1.24278,0-2.25346,1.01067-2.25346,2.25346v15.32118c0,1.24278,1.01067,2.25346,2.25346,2.25346s2.25346-1.01067,2.25346-2.25346v-9.75833s1.75372,2.0486,1.75372,2.0486c6.34141,7.40901,15.54209,11.65803,25.24252,11.65803,9.16468,0,17.70358-3.66753,24.04207-10.32717,6.33168-6.65235,9.56856-15.37032,9.11504-24.54717-.81847-16.57369-13.89446-30.07789-30.41365-31.41118-6.36866-.51775-12.68768.77662-18.26707,3.73516-.56981.30169-.97029.8136-1.12795,1.44132-.15766.63064-.04525,1.2749.31727,1.81308.436.64815,1.14206,1.00532,1.86077,1.00532.34451,0,.69244-.08272,1.01457-.25401Z"/>
    </g>
  </g>
</svg>