<?xml version="1.0" encoding="UTF-8"?>
<svg id="Layer_2" data-name="Layer 2" xmlns="http://www.w3.org/2000/svg" viewBox="0 0 100 100">
  <defs>
    <style>
      .cls-1 {
        fill: #ff5e16;
      }

      .cls-2 {
        fill: #8b7ff6;
      }

      .cls-3 {
        fill: #95ebf2;
      }

      .cls-4 {
        fill: #333;
      }
    </style>
  </defs>
  <g id="Background">
    <rect class="cls-2" width="100" height="100"/>
    <path class="cls-3" d="M100,0v100h-39c.32001-8.71002-.13-30.84003-12.72998-38.23999-15.77002-9.26001-13.58002-33.83002-3.71002-43.29004,6.34003-6.07996,11.70001-13.01001,12.03998-18.46997h43.40002Z"/>
  </g>
  <g id="Icon">
    <path class="cls-4" d="M88.125,57.84723c-2.41254,0-4.375,1.96246-4.375,4.375v10.34027l-2.96259-2.9624c.33948-.99805.53204-2.06335.53204-3.17474v-27.85077c0-5.45544-4.4386-9.89404-9.8941-9.89404h-27.53455c-1.19818,0-2.3421.22491-3.40588.61682l-3.04742-3.04736h10.34027c2.41254,0,4.375-1.96252,4.375-4.375s-1.96246-4.375-4.375-4.375h-20.90277c-2.41254,0-4.375,1.96246-4.375,4.375v20.90277c0,2.41254,1.96246,4.375,4.375,4.375s4.375-1.96246,4.375-4.375v-10.34033l3.19391,3.19379c-.29047.93018-.4472,1.91882-.4472,2.94336v27.85077c0,5.45544,4.4386,9.8941,9.8941,9.8941h27.53455c1.11133,0,2.17651-.19257,3.1745-.53198l2.96265,2.96252h-10.34027c-2.41254,0-4.375,1.96246-4.375,4.375s1.96246,4.375,4.375,4.375h20.90277c2.41254,0,4.375-1.96252,4.375-4.375v-20.90277c0-2.41254-1.96246-4.375-4.375-4.375ZM42.7467,43.93384l5.6767,5.67651c.85309.85309,1.9729,1.27942,3.09326,1.27942,1.1203,0,2.24115-.42682,3.09418-1.27985.82654-.82605,1.28131-1.92499,1.28131-3.09326,0-1.16876-.45477-2.26776-1.28131-3.09375l-5.99249-5.99237h22.80701c.63043,0,1.1441.51318,1.1441,1.14404v22.80798l-5.99286-5.99249c-1.70709-1.70612-4.48419-1.70422-6.18744,0-.82697.82599-1.28174,1.92548-1.28174,3.09418,0,1.16785.45477,2.26727,1.28174,3.09326l5.99225,5.99194h-22.4906c-.63092,0-1.1441-.51367-1.1441-1.1441v-22.49152Z"/>
    <g>
      <g>
        <path class="cls-1" d="M63.92537,72.84722h-27.53459c-4.9195,0-8.92185-4.00187-8.92185-8.92185v-27.85075c0-4.9195,4.00235-8.92185,8.92185-8.92185h27.53459c4.91998,0,8.92185,4.00235,8.92185,8.92185v27.85075c0,4.91998-4.00187,8.92185-8.92185,8.92185ZM36.39079,33.95833c-1.16686,0-2.11629.94944-2.11629,2.11629v27.85075c0,1.16686.94944,2.11629,2.11629,2.11629h27.53459c1.16686,0,2.11629-.94944,2.11629-2.11629v-27.85075c0-1.16686-.94944-2.11629-2.11629-2.11629h-27.53459Z"/>
        <path d="M63.92537,73.81944h-27.53459c-5.45546,0-9.89407-4.43861-9.89407-9.89407v-27.85075c0-5.45546,4.43861-9.89407,9.89407-9.89407h27.53459c5.45546,0,9.89407,4.43861,9.89407,9.89407v27.85075c0,5.45546-4.43861,9.89407-9.89407,9.89407ZM36.39079,28.125c-4.38354,0-7.94963,3.56608-7.94963,7.94963v27.85075c0,4.38354,3.56608,7.94963,7.94963,7.94963h27.53459c4.38354,0,7.94963-3.56608,7.94963-7.94963v-27.85075c0-4.38354-3.56608-7.94963-7.94963-7.94963h-27.53459ZM63.92537,67.01389h-27.53459c-1.70281,0-3.08851-1.38523-3.08851-3.08851v-27.85075c0-1.70281,1.3857-3.08851,3.08851-3.08851h27.53459c1.70329,0,3.08851,1.3857,3.08851,3.08851v27.85075c0,1.70329-1.38523,3.08851-3.08851,3.08851ZM36.39079,34.93056c-.6309,0-1.14407.51317-1.14407,1.14407v27.85075c0,.63043.51317,1.14407,1.14407,1.14407h27.53459c.63043,0,1.14407-.51364,1.14407-1.14407v-27.85075c0-.6309-.51364-1.14407-1.14407-1.14407h-27.53459Z"/>
      </g>
      <g>
        <path class="cls-1" d="M46.42341,41.61024l-18.83282-18.83246h12.68719c1.87929,0,3.40278-1.52349,3.40278-3.40278s-1.52349-3.40278-3.40278-3.40278h-20.90278c-1.87929,0-3.40278,1.52349-3.40278,3.40278v20.90278c0,1.87929,1.52349,3.40278,3.40278,3.40278s3.40278-1.52349,3.40278-3.40278v-12.68743l18.833,18.83264c1.32885,1.32885,3.48336,1.32885,4.81222,0l.00042-.00047c1.32891-1.32885,1.32891-3.48336,0-4.81227Z"/>
        <path d="M44.01666,48.38976c-1.12033,0-2.24019-.4263-3.09326-1.27936l-17.17339-17.17292v10.3403c0,2.41252-1.96248,4.375-4.375,4.375s-4.375-1.96248-4.375-4.375v-20.90278c0-2.41252,1.96248-4.375,4.375-4.375h20.90278c2.41252,0,4.375,1.96248,4.375,4.375s-1.96248,4.375-4.375,4.375h-10.3403l17.17339,17.17292c.82648.82601,1.28126,1.92498,1.28126,3.09374,0,1.16828-.45478,2.26725-1.28126,3.09326-.85307.85307-1.97388,1.27984-3.09421,1.27984ZM21.80556,25.24346l20.49262,20.49215c.91763.91763,2.51885.91858,3.43743,0,.45905-.45953.71208-1.07001.71208-1.71943,0-.64894-.25255-1.25943-.7116-1.71848l-20.49262-20.49215h15.03432c1.34013,0,2.43056-1.09043,2.43056-2.43056s-1.09043-2.43056-2.43056-2.43056h-20.90278c-1.34013,0-2.43056,1.09043-2.43056,2.43056v20.90278c0,1.34013,1.09043,2.43056,2.43056,2.43056s2.43056-1.09043,2.43056-2.43056v-15.03432Z"/>
      </g>
      <g>
        <path class="cls-1" d="M53.57659,58.38976l18.83282,18.83246h-12.68719c-1.87929,0-3.40278,1.52349-3.40278,3.40278,0,1.87929,1.52349,3.40278,3.40278,3.40278h20.90278c1.87929,0,3.40278-1.52349,3.40278-3.40278v-20.90278c0-1.87929-1.52349-3.40278-3.40278-3.40278s-3.40278,1.52349-3.40278,3.40278v12.68743s-18.833-18.83264-18.833-18.83264c-1.32885-1.32885-3.48336-1.32885-4.81222,0l-.00042.00047c-1.32891,1.32885-1.32891,3.48336,0,4.81227Z"/>
        <path d="M80.625,85h-20.90278c-2.41252,0-4.375-1.96248-4.375-4.375s1.96248-4.375,4.375-4.375h10.3403l-17.17339-17.17244c-.82696-.82601-1.28174-1.92546-1.28174-3.09326,0-1.16876.45478-2.2682,1.28174-3.09421,1.70329-1.70424,4.48039-1.70614,6.18747,0l17.17339,17.17244v-10.3403c0-2.41252,1.96248-4.375,4.375-4.375s4.375,1.96248,4.375,4.375v20.90278c0,2.41252-1.96248,4.375-4.375,4.375ZM59.72222,78.19444c-1.3406,0-2.43056,1.08995-2.43056,2.43056s1.08995,2.43056,2.43056,2.43056h20.90278c1.3406,0,2.43056-1.08995,2.43056-2.43056v-20.90278c0-1.3406-1.08995-2.43056-2.43056-2.43056s-2.43056,1.08995-2.43056,2.43056v15.03432l-20.49262-20.49167c-.91905-.92-2.5179-.9181-3.43696,0-.45953.45953-.71303,1.07001-.71303,1.71943,0,.64846.25255,1.25895.71208,1.71848l20.49262,20.49167h-15.03432Z"/>
      </g>
    </g>
  </g>
</svg>