<?xml version="1.0" encoding="UTF-8"?>
<svg id="Layer_2" data-name="Layer 2" xmlns="http://www.w3.org/2000/svg" viewBox="0 0 100 100">
  <defs>
    <style>
      .cls-1 {
        fill: #ff5e16;
      }

      .cls-2 {
        fill: #f7b0da;
      }

      .cls-3 {
        fill: #8b7ff6;
      }

      .cls-4 {
        fill: none;
        stroke: #000;
        stroke-linecap: round;
        stroke-linejoin: round;
        stroke-width: 2px;
      }

      .cls-5 {
        fill: #333;
      }
    </style>
  </defs>
  <g id="Background">
    <rect class="cls-2" width="100" height="100"/>
    <path class="cls-3" d="M100,0v78.88c-8.02002-11-20.22998-22.15002-38.32001-19.34003-28.46997,4.41998-45.42999-16.78998-43.95001-28.72998C18.79999,22.19,9.29999,9.64996,0,4.51001V0h100Z"/>
  </g>
  <g id="Icon">
    <path class="cls-5" d="M89.58643,46.37073l-8.81598-1.46289c-.15277-.02545-.28192-.14142-.33752-.30261-.31873-.92786-.70056-1.84906-1.13525-2.73724-.07544-.15607-.06696-.32574.02545-.45349l5.20001-7.26971c.99573-1.39124.84015-3.27887-.36963-4.48859l-3.80927-3.81024c-1.21063-1.20831-3.09735-1.36389-4.48907-.36957l-7.26965,5.2005c-.12915.09143-.29889.099-.45258.02496-.88348-.43182-1.80469-.81372-2.73816-1.13477-.16125-.0556-.27722-.1853-.30267-.33759l-1.46338-8.81647c-.27905-1.68774-1.72357-2.91302-3.43494-2.91302h-5.38763c-1.71039,0-3.1554,1.22479-3.43542,2.9126l-1.46289,8.81689c-.02545.15228-.14142.28198-.30267.3371-.93018.32013-1.85132.70197-2.73859,1.13525-.15698.07635-.32581.06555-.45215-.02496l-7.27014-5.2005c-1.39075-.99524-3.27887-.83917-4.4881.37006l-3.80975,3.80975c-1.20972,1.20923-1.3653,3.09735-.37012,4.48907l5.20099,7.26965c.09143.12781.1004.29657.02454.45215-.4328.8858-.8147,1.80701-1.13477,2.73767-.05566.16168-.1853.27765-.33759.3031l-8.81696,1.46289c-1.68774.2796-2.91254,1.72455-2.91254,3.43542v5.3877c0,1.7113,1.22528,3.15582,2.91254,3.43494l8.81696,1.46332c.15228.02551.28192.14148.33759.30267.32104.93347.70288,1.85468,1.13519,2.73914.07593.1546.06647.32434-.02496.4516l-5.20099,7.26971c-.99518,1.39166-.8396,3.27936.37012,4.48907l3.80927,3.80927c1.20831,1.20972,3.09644,1.36719,4.48956.37054l7.26965-5.20099c.12775-.09143.29749-.10089.45306-.02448.89099.43463,1.81177.81653,2.73669,1.13428.16174.0556.27771.18481.30316.33752l1.46289,8.81696c.28003,1.68781,1.72504,2.9126,3.43542,2.9126h5.38763c1.71136,0,3.15588-1.22577,3.43494-2.9126l1.46338-8.81696c.02545-.15271.14142-.28192.30267-.33752.93158-.31964,1.85278-.70154,2.73627-1.13428.15649-.07733.32623-.06793.45447.02448l7.26965,5.20099c1.39172.99475,3.28033.83917,4.48907-.37054l3.80927-3.80927c1.21069-1.2088,1.36627-3.09741.37061-4.48907l-5.20099-7.27063c-.09149-.12732-.10089-.297-.02545-.45166.43469-.88916.81653-1.81036,1.13525-2.73816.0556-.16119.18475-.27716.33752-.30267l8.81598-1.46332c1.68781-.27911,2.91357-1.72363,2.91357-3.43494v-5.3877c0-1.7113-1.22485-3.15582-2.91357-3.43542ZM64.76117,52.5c0,4.00348-3.25769,7.26117-7.26117,7.26117-4.00397,0-7.26123-3.25769-7.26123-7.26117,0-4.00397,3.25726-7.26117,7.26123-7.26117,4.00348,0,7.26117,3.2572,7.26117,7.26117Z"/>
    <g>
      <path class="cls-1" d="M81.92943,44.82313l-8.81689-1.46295c-.51175-.08492-.92344-.4507-1.09228-.94118-.31062-.90246-.67505-1.7797-1.08968-2.62812-.22794-.46643-.19512-1.01602.10696-1.43826l5.2005-7.26961c.7163-1.00135.60321-2.37384-.26731-3.24436l-3.8095-3.80956c-.87052-.87052-2.24307-.98367-3.24436-.26731l-7.26972,5.20056c-.42224.30208-.97176.3349-1.4382.10696-.84836-.41458-1.72554-.779-2.62801-1.08957-.49042-.16884-.8562-.58058-.94112-1.09228l-1.46295-8.81689c-.20154-1.2145-1.25198-2.10506-2.48315-2.10506h-5.38743c-1.23118,0-2.28161.89056-2.48315,2.10506l-1.46295,8.81689c-.08492.51169-.4507.92344-.94118,1.09222-.90246.31062-1.7797.67511-2.62812,1.08974-.46643.22794-1.01596.19512-1.43826-.10696l-7.26961-5.20056c-1.00129-.7163-2.37384-.60321-3.24436.26737l-3.80956,3.8095c-.87052.87052-.98361,2.24301-.26731,3.24436l5.20056,7.26967c.30208.42224.3349.97182.10696,1.43826-.41458.84836-.779,1.72554-1.08957,2.62795-.16884.49048-.58052.85626-1.09228.94118l-8.81689,1.46295c-1.2145.20148-2.10506,1.25198-2.10506,2.48315v5.38743c0,1.23112.89056,2.28161,2.10512,2.48315l8.81683,1.46289c.51175.08492.92344.45064,1.09228.94112.31062.90258.67511,1.78,1.0898,2.62848.22794.46649.19512,1.01602-.10696,1.43826l-5.20062,7.26984c-.7163,1.00129-.60321,2.37378.26731,3.24436l3.8095,3.8095c.87052.87052,2.24307.98361,3.24436.26731l7.27014-5.20085c.42224-.30208.97176-.3349,1.4382-.10696.84825.41446,1.72531.77883,2.62753,1.08939.49042.16884.8562.58052.94112,1.09222l1.46301,8.817c.20154,1.2145,1.25198,2.10506,2.48315,2.10506h5.38743c1.23118,0,2.28161-.89056,2.48315-2.10506l1.46301-8.817c.08492-.51169.4507-.92338.94112-1.09222.9024-.31062,1.77964-.67505,2.62801-1.08962.46643-.22788,1.01596-.19506,1.4382.10696l7.27026,5.20097c1.00129.7163,2.37384.60321,3.24436-.26731l3.80956-3.80956c.87052-.87058.98361-2.24307.26731-3.24436l-5.20103-7.27031c-.30202-.42224-.33484-.97176-.10696-1.4382.41458-.84836.779-1.72554,1.08957-2.62789.16884-.49048.58052-.8562,1.09222-.94112l8.81689-1.46289c1.21456-.20154,2.10512-1.25204,2.10512-2.48315v-5.38743c0-1.23118-.89056-2.28167-2.10506-2.48315ZM50,58.22676c-4.54354,0-8.22676-3.68327-8.22676-8.22676s3.68321-8.22676,8.22676-8.22676,8.22676,3.68321,8.22676,8.22676-3.68321,8.22676-8.22676,8.22676Z"/>
      <path d="M52.69383,85h-5.38766c-1.7104,0-3.15537-1.22481-3.43541-2.91258l-1.46289-8.81695c-.02546-.15275-.14143-.28192-.30314-.33755-.92497-.31775-1.8457-.69962-2.73673-1.13429-.15558-.07637-.3253-.06695-.45306.02452l-7.26967,5.20097c-1.39312.99663-3.28125.83917-4.48956-.37055l-3.80927-3.80927c-1.20973-1.20973-1.3653-3.09739-.37008-4.48909l5.20097-7.26967c.09146-.12729.10089-.29701.02499-.45164-.43231-.88443-.81418-1.80563-1.13524-2.73909-.05563-.16123-.18528-.27721-.33755-.30267l-8.81695-1.46336c-1.6873-.27909-2.91258-1.7236-2.91258-3.43494v-5.38766c0-1.71087,1.22481-3.15585,2.91258-3.43541l8.81695-1.46289c.15228-.02546.28192-.14143.33755-.30314.32011-.93063.70198-1.85183,1.13477-2.73768.0759-.15558.06695-.32435-.02452-.45211l-5.20097-7.26967c-.99522-1.3917-.83964-3.27984.37008-4.48909l3.80974-3.80974c1.20925-1.20925,3.09739-1.3653,4.48815-.37008l7.27014,5.2005c.12635.09052.29512.10136.45211.02499.88726-.43326,1.80846-.81513,2.73862-1.13524.16123-.05516.27721-.18481.30267-.33708l1.46289-8.81695c.28004-1.68777,1.72501-2.91258,3.43541-2.91258h5.38766c1.71134,0,3.15585,1.22528,3.43494,2.91305l1.46336,8.81647c.02546.15228.14143.28192.30267.33755.93346.32105,1.85466.70292,2.73815,1.13477.15369.07402.32341.06647.45259-.02499l7.26967-5.2005c1.3917-.99428,3.27842-.8387,4.48909.36961l3.80927,3.81021c1.20973,1.20973,1.3653,3.09739.36961,4.48862l-5.20003,7.26967c-.0924.12776-.10089.29748-.02546.45353.43467.8882.81654,1.8094,1.13524,2.7372.05563.16123.18481.27721.33755.30267l8.816,1.46289c1.68871.27957,2.91352,1.72407,2.91352,3.43541v5.38766c0,1.71134-1.22575,3.15585-2.91352,3.43494l-8.816,1.46336c-.15275.02546-.28192.14143-.33755.30267-.3187.9278-.70057,1.849-1.13524,2.73815-.07543.15463-.066.32435.02546.45164l5.20097,7.27061c.99569,1.3917.84011,3.28031-.37055,4.48909l-3.80927,3.80927c-1.20878,1.20973-3.09739,1.3653-4.48909.37055l-7.26967-5.20097c-.12823-.0924-.29795-.10183-.45447-.02452-.88349.43279-1.80469.81466-2.73626,1.13429-.16123.05563-.27721.18481-.30267.33755l-1.46336,8.81695c-.27909,1.68683-1.7236,2.91258-3.43494,2.91258ZM39.15537,69.81668c.35971,0,.72272.08203,1.06028.24704.8189.39978,1.66655.75054,2.51751,1.04378.83304.28664,1.4379.9938,1.57934,1.84617l1.46289,8.81695c.12493.75242.76893,1.29836,1.53078,1.29836h5.38766c.7628,0,1.40585-.54593,1.53031-1.29741l1.46336-8.81789c.14143-.85237.74677-1.55954,1.57934-1.84617.85614-.29512,1.70286-.64588,2.51751-1.04472.79014-.38376,1.71983-.31398,2.42416.18952l7.27061,5.20097c.62042.44504,1.46053.37433,1.99987-.16501l3.80927-3.80927c.53933-.53933.60911-1.38039.16501-1.99987l-5.20097-7.27061c-.50256-.70245-.57516-1.6312-.19046-2.42228.40073-.81937.75242-1.66608,1.04566-2.5194.28664-.83257.9938-1.4379,1.84617-1.57934l8.81695-1.46336c.75242-.12446,1.29836-.76751,1.29836-1.53031v-5.38766c0-.76232-.54593-1.40585-1.29741-1.53078h-.00094l-8.81695-1.46289c-.85237-.14143-1.55954-.7463-1.84617-1.57887-.29324-.85379-.64494-1.70097-1.04472-2.51893-.38658-.79297-.31398-1.72171.19046-2.42464l5.19908-7.26872c.4441-.61995.37433-1.461-.16406-1.99987l-3.80927-3.80974c-.54027-.53933-1.38133-.60628-1.99987-.16453l-7.26967,5.2005c-.70339.5035-1.6312.5761-2.42416.18952-.81277-.3979-1.66043-.74912-2.51845-1.04472-.83257-.28617-1.4379-.99428-1.57934-1.84712l-1.46336-8.81695c-.12446-.75195-.76845-1.29741-1.53031-1.29741h-5.38766c-.76185,0-1.40585.54593-1.53078,1.29789l-1.46289,8.81647c-.14143.85284-.7463,1.56095-1.57887,1.84712-.85567.29465-1.70286.64588-2.51893,1.04425-.79155.38706-1.7203.31398-2.42416-.18905l-7.26967-5.2005c-.61995-.44504-1.461-.37338-1.99939.16453l-3.80974,3.80974c-.53886.53886-.60816,1.37992-.16453,2.00034l5.2005,7.26919c.50303.70292.5761,1.63167.18905,2.42369-.3979.81466-.74912,1.66231-1.04425,2.51893-.28617.83257-.99428,1.43743-1.84712,1.57887l-8.81695,1.46289c-.75195.12493-1.29741.76845-1.29741,1.53078v5.38766c0,.76185.54546,1.40585,1.29694,1.53031l8.81742,1.46336c.85284.14143,1.56095.74677,1.84712,1.57934.2956.85803.64729,1.70568,1.04472,2.51845.38658.79108.31398,1.71888-.18858,2.42322l-5.20144,7.27061c-.44363.61948-.37433,1.46053.16453,1.99987l3.80974,3.80927c.54027.54027,1.38133.61005,1.99987.16501l7.27014-5.20097c.40356-.28852.88113-.43561,1.36389-.43561ZM50,59.19221c-5.06849,0-9.19221-4.12325-9.19221-9.19221,0-5.06849,4.12372-9.19221,9.19221-9.19221,5.06897,0,9.19221,4.12372,9.19221,9.19221,0,5.06897-4.12325,9.19221-9.19221,9.19221ZM50,42.73882c-4.00397,0-7.26118,3.25721-7.26118,7.26118,0,4.0035,3.25721,7.26118,7.26118,7.26118,4.0035,0,7.26118-3.25768,7.26118-7.26118,0-4.00397-3.25768-7.26118-7.26118-7.26118Z"/>
    </g>
    <path class="cls-4" d="M50.09402,63.39981c-5.99869,0-11.07673-3.94175-12.78528-9.37642"/>
    <path class="cls-4" d="M37.57434,45.21363c1.92674-5.03674,6.80552-8.61344,12.51968-8.61344,7.40051,0,13.39981,5.9993,13.39981,13.39981,0,4.32863-2.05248,8.17788-5.23731,10.62763"/>
  </g>
</svg>