<?xml version="1.0" encoding="UTF-8"?>
<svg id="Layer_2" data-name="Layer 2" xmlns="http://www.w3.org/2000/svg" viewBox="0 0 100 100">
  <defs>
    <style>
      .cls-1 {
        fill: #ff5e16;
      }

      .cls-2 {
        fill: #fffb6c;
      }

      .cls-3 {
        fill: #f98258;
      }

      .cls-4 {
        fill: #333;
      }
    </style>
  </defs>
  <g id="Background">
    <rect class="cls-3" width="100" height="100"/>
    <path class="cls-2" d="M53.78003,10.72998c-31.28003,6.17999,9.12,57.47003-29.87006,67.33002-9.65997,2.44-17.56995,4.73999-23.90997,6.88V0h100v17.76001c-11.56,1.94-39.82001-8.29004-46.21997-7.03003Z"/>
    <path class="cls-2" d="M100,78.95001v21.04999h-33.14001c18.09003-4.37,32.04999-11.29999,33.14001-21.04999Z"/>
  </g>
  <g id="Icon">
    <path class="cls-4" d="M87.99945,47.26257l-50.13513-.00085,11.05664-11.05664c1.75439-1.75391,1.75439-4.60889,0-6.36377-1.75391-1.75488-4.60986-1.75488-6.36377,0l-18.73828,18.73828c-.8501.8501-1.31836,1.97998-1.31836,3.18213s.46826,2.33203,1.31836,3.18164l18.73828,18.73828c.84961.85059,1.97998,1.31836,3.18213,1.31836,1.20166,0,2.33203-.46777,3.18164-1.31836.8501-.84961,1.31787-1.97949,1.31787-3.18164s-.46777-2.33203-1.31787-3.18164l-11.05664-11.05664,50.13513.00085c2.48145,0,4.5-2.01855,4.5-4.5s-2.01855-4.5-4.5-4.5Z"/>
    <g>
      <path class="cls-1" d="M80.49885,46.50006l-52.54901-.00089,12.76349-12.76349c1.36682-1.36682,1.36682-3.58289,0-4.94971s-3.58295-1.36688-4.94977,0l-18.73834,18.73828c-1.36682,1.36688-1.36682,3.58295,0,4.94977l18.73834,18.73834c1.36682,1.36682,3.58289,1.36682,4.94977,0,1.36682-1.36682,1.36682-3.58295,0-4.94977l-12.76343-12.76343,52.54895.00089c1.93292,0,3.49994-1.56702,3.49994-3.5v-.00006c0-1.93298-1.56702-3.49994-3.49994-3.49994Z"/>
      <path d="M38.23877,73.23743c-1.20215,0-2.33252-.46777-3.18213-1.31836l-18.73828-18.73828c-.8501-.84961-1.31836-1.97949-1.31836-3.18164s.46826-2.33203,1.31836-3.18213l18.73828-18.73828c1.75391-1.75488,4.60986-1.75488,6.36377,0,1.75439,1.75488,1.75439,4.60986,0,6.36377l-11.05664,11.05664,50.13513.00089c2.48145,0,4.5,2.01855,4.5,4.5s-2.01855,4.5-4.5,4.5l-50.13513-.00089,11.05664,11.05664c.8501.84961,1.31787,1.97949,1.31787,3.18164s-.46777,2.33203-1.31787,3.18164c-.84961.85059-1.97998,1.31836-3.18164,1.31836ZM38.23877,28.76184c-.64062,0-1.28076.24365-1.76807.73096l-18.73828,18.73828c-.47217.47266-.73242,1.10059-.73242,1.76807,0,.66797.26025,1.29492.73242,1.76758l18.73828,18.73828c.94385.94434,2.59082.94629,3.53564,0,.47217-.47168.73193-1.09961.73193-1.76758s-.25977-1.2959-.73193-1.76758l-14.4707-14.4707,54.96326.00089c1.37891,0,2.5-1.12109,2.5-2.5,0-1.37842-1.12109-2.5-2.5-2.5l-54.96326-.00089,14.4707-14.4707c.97461-.97461.97461-2.56055,0-3.53564-.4873-.4873-1.12744-.73096-1.76758-.73096Z"/>
    </g>
  </g>
</svg>