<?xml version="1.0" encoding="UTF-8"?>
<svg id="Layer_2" data-name="Layer 2" xmlns="http://www.w3.org/2000/svg" viewBox="0 0 100 100">
  <defs>
    <style>
      .cls-1, .cls-2 {
        fill: #ff5e16;
      }

      .cls-2 {
        stroke: #000;
        stroke-miterlimit: 10;
        stroke-width: 2px;
      }

      .cls-3 {
        fill: #f7b0da;
      }

      .cls-4 {
        fill: #95ebf2;
      }

      .cls-5 {
        fill: #333;
      }
    </style>
  </defs>
  <g id="Background">
    <rect class="cls-4" width="100" height="100"/>
    <path class="cls-3" d="M85.65997,100H0v-21.77002c19.88,1.41998,50.94,20.07001,55.83002,16.38,3.65997-2.75,18.81.92999,29.82996,5.39001Z"/>
    <path class="cls-3" d="M100,0v31.01001c-9.72998-10.49005-21.96136,4.31968-40.27778,21.48999-5.32716,4.99383-29.11224,10.01001-32.5722-20.19C25,13.48999,10.96002,15.01996,0,22.19V0h100Z"/>
  </g>
  <g id="Icon">
    <g>
      <path class="cls-5" d="M58.86005,61.79999v15.28998c0,1.83002-1.48999,3.32001-3.32001,3.32001h-22.60004c-1.82996,0-3.31995-1.48999-3.31995-3.32001v-22.59998c0-1.83002,1.48999-3.32001,3.31995-3.32001h15.29004v-6.20001h-15.15002c-5.33997,0-9.65997,4.32001-9.65997,9.66003v22.32001c0,5.33997,4.32001,9.65997,9.65997,9.65997h22.32001c5.34003,0,9.66003-4.32001,9.66003-9.65997v-15.15002h-6.20001Z"/>
      <path class="cls-5" d="M57.97003,61.79999v15.28998c0,1.34003-1.09003,2.44-2.42999,2.44h-22.60004c-1.33997,0-2.44-1.09998-2.44-2.44v-22.59998c0-1.34003,1.10004-2.42999,2.44-2.42999h15.29004v-1.78003h-15.29004c-2.31995,0-4.20996,1.89001-4.20996,4.21002v22.59998c0,2.32001,1.89001,4.21002,4.20996,4.21002h22.60004c2.32001,0,4.20996-1.89001,4.20996-4.21002v-15.28998h-1.77997ZM57.97003,61.79999v15.28998c0,1.34003-1.09003,2.44-2.42999,2.44h-22.60004c-1.33997,0-2.44-1.09998-2.44-2.44v-22.59998c0-1.34003,1.10004-2.42999,2.44-2.42999h15.29004v-1.78003h-15.29004c-2.31995,0-4.20996,1.89001-4.20996,4.21002v22.59998c0,2.32001,1.89001,4.21002,4.20996,4.21002h22.60004c2.32001,0,4.20996-1.89001,4.20996-4.21002v-15.28998h-1.77997ZM57.97003,61.79999v15.28998c0,1.34003-1.09003,2.44-2.42999,2.44h-22.60004c-1.33997,0-2.44-1.09998-2.44-2.44v-22.59998c0-1.34003,1.10004-2.42999,2.44-2.42999h15.29004v-1.78003h-15.29004c-2.31995,0-4.20996,1.89001-4.20996,4.21002v22.59998c0,2.32001,1.89001,4.21002,4.20996,4.21002h22.60004c2.32001,0,4.20996-1.89001,4.20996-4.21002v-15.28998h-1.77997ZM57.97003,61.79999v15.28998c0,1.34003-1.09003,2.44-2.42999,2.44h-22.60004c-1.33997,0-2.44-1.09998-2.44-2.44v-22.59998c0-1.34003,1.10004-2.42999,2.44-2.42999h15.29004v-1.78003h-15.29004c-2.31995,0-4.20996,1.89001-4.20996,4.21002v22.59998c0,2.32001,1.89001,4.21002,4.20996,4.21002h22.60004c2.32001,0,4.20996-1.89001,4.20996-4.21002v-15.28998h-1.77997ZM57.97003,61.79999v15.28998c0,1.34003-1.09003,2.44-2.42999,2.44h-22.60004c-1.33997,0-2.44-1.09998-2.44-2.44v-22.59998c0-1.34003,1.10004-2.42999,2.44-2.42999h15.29004v-1.78003h-15.29004c-2.31995,0-4.20996,1.89001-4.20996,4.21002v22.59998c0,2.32001,1.89001,4.21002,4.20996,4.21002h22.60004c2.32001,0,4.20996-1.89001,4.20996-4.21002v-15.28998h-1.77997ZM57.97003,61.79999v15.28998c0,1.34003-1.09003,2.44-2.42999,2.44h-22.60004c-1.33997,0-2.44-1.09998-2.44-2.44v-22.59998c0-1.34003,1.10004-2.42999,2.44-2.42999h15.29004v-1.78003h-15.29004c-2.31995,0-4.20996,1.89001-4.20996,4.21002v22.59998c0,2.32001,1.89001,4.21002,4.20996,4.21002h22.60004c2.32001,0,4.20996-1.89001,4.20996-4.21002v-15.28998h-1.77997ZM64.18005,61.79999v15.15002c0,4.83997-3.94,8.77997-8.78003,8.77997h-22.32001c-4.83997,0-8.77997-3.94-8.77997-8.77997v-22.32001c0-4.84003,3.94-8.78003,8.77997-8.78003h15.15002v-1.77002h-15.15002c-5.82001,0-10.54999,4.73004-10.54999,10.55005v22.32001c0,5.81995,4.72998,10.54999,10.54999,10.54999h22.32001c5.82001,0,10.54999-4.73004,10.54999-10.54999v-15.15002h-1.76996ZM30.5,77.08997v-22.59998c0-1.34003,1.10004-2.42999,2.44-2.42999h15.29004v-1.78003h-15.29004c-2.31995,0-4.20996,1.89001-4.20996,4.21002v22.59998c0,2.32001,1.89001,4.21002,4.20996,4.21002h22.60004c2.32001,0,4.20996-1.89001,4.20996-4.21002v-15.28998h-1.77997v15.28998c0,1.34003-1.09003,2.44-2.42999,2.44h-22.60004c-1.33997,0-2.44-1.09998-2.44-2.44ZM57.97003,61.79999v15.28998c0,1.34003-1.09003,2.44-2.42999,2.44h-22.60004c-1.33997,0-2.44-1.09998-2.44-2.44v-22.59998c0-1.34003,1.10004-2.42999,2.44-2.42999h15.29004v-1.78003h-15.29004c-2.31995,0-4.20996,1.89001-4.20996,4.21002v22.59998c0,2.32001,1.89001,4.21002,4.20996,4.21002h22.60004c2.32001,0,4.20996-1.89001,4.20996-4.21002v-15.28998h-1.77997ZM57.97003,61.79999v15.28998c0,1.34003-1.09003,2.44-2.42999,2.44h-22.60004c-1.33997,0-2.44-1.09998-2.44-2.44v-22.59998c0-1.34003,1.10004-2.42999,2.44-2.42999h15.29004v-1.78003h-15.29004c-2.31995,0-4.20996,1.89001-4.20996,4.21002v22.59998c0,2.32001,1.89001,4.21002,4.20996,4.21002h22.60004c2.32001,0,4.20996-1.89001,4.20996-4.21002v-15.28998h-1.77997ZM57.97003,61.79999v15.28998c0,1.34003-1.09003,2.44-2.42999,2.44h-22.60004c-1.33997,0-2.44-1.09998-2.44-2.44v-22.59998c0-1.34003,1.10004-2.42999,2.44-2.42999h15.29004v-1.78003h-15.29004c-2.31995,0-4.20996,1.89001-4.20996,4.21002v22.59998c0,2.32001,1.89001,4.21002,4.20996,4.21002h22.60004c2.32001,0,4.20996-1.89001,4.20996-4.21002v-15.28998h-1.77997ZM57.97003,61.79999v15.28998c0,1.34003-1.09003,2.44-2.42999,2.44h-22.60004c-1.33997,0-2.44-1.09998-2.44-2.44v-22.59998c0-1.34003,1.10004-2.42999,2.44-2.42999h15.29004v-1.78003h-15.29004c-2.31995,0-4.20996,1.89001-4.20996,4.21002v22.59998c0,2.32001,1.89001,4.21002,4.20996,4.21002h22.60004c2.32001,0,4.20996-1.89001,4.20996-4.21002v-15.28998h-1.77997Z"/>
      <path class="cls-5" d="M81.98004,18.39001h-31.17999c-5.34003,0-9.66003,4.31995-9.66003,9.65997v31.17999c0,5.34003,4.32001,9.66003,9.66003,9.66003h31.17999c5.33997,0,9.65997-4.32001,9.65997-9.66003v-31.17999c0-5.34003-4.32001-9.65997-9.65997-9.65997ZM47.34003,59.37v-31.46002c0-1.83002,1.48999-3.32001,3.32001-3.32001h31.46002c1.82996,0,3.31995,1.48999,3.31995,3.32001v31.46002c0,1.83002-1.48999,3.32001-3.31995,3.32001h-31.46002c-1.83002,0-3.32001-1.48999-3.32001-3.32001Z"/>
      <path class="cls-5" d="M50.66003,61.79999c-1.34003,0-2.42999-1.09003-2.42999-2.42999v-7.31h-.89001v7.31c0,1.83002,1.48999,3.32001,3.32001,3.32001h7.31v-.89001h-7.31ZM82.12006,23.70001h-31.46002c-2.32001,0-4.21002,1.88995-4.21002,4.20996v31.46002c0,2.32001,1.89001,4.20996,4.21002,4.20996h31.46002c2.31995,0,4.20996-1.88995,4.20996-4.20996v-31.46002c0-2.32001-1.89001-4.20996-4.20996-4.20996ZM84.56006,59.37c0,1.33997-1.10004,2.42999-2.44,2.42999h-31.46002c-1.34003,0-2.42999-1.09003-2.42999-2.42999v-31.46002c0-1.33997,1.08997-2.44,2.42999-2.44h31.46002c1.33997,0,2.44,1.10004,2.44,2.44v31.46002ZM50.66003,61.79999c-1.34003,0-2.42999-1.09003-2.42999-2.42999v-7.31h-.89001v7.31c0,1.83002,1.48999,3.32001,3.32001,3.32001h7.31v-.89001h-7.31ZM82.12006,23.70001h-31.46002c-2.32001,0-4.21002,1.88995-4.21002,4.20996v31.46002c0,2.32001,1.89001,4.20996,4.21002,4.20996h31.46002c2.31995,0,4.20996-1.88995,4.20996-4.20996v-31.46002c0-2.32001-1.89001-4.20996-4.20996-4.20996ZM84.56006,59.37c0,1.33997-1.10004,2.42999-2.44,2.42999h-31.46002c-1.34003,0-2.42999-1.09003-2.42999-2.42999v-31.46002c0-1.33997,1.08997-2.44,2.42999-2.44h31.46002c1.33997,0,2.44,1.10004,2.44,2.44v31.46002ZM50.66003,61.79999c-1.34003,0-2.42999-1.09003-2.42999-2.42999v-7.31h-.89001v7.31c0,1.83002,1.48999,3.32001,3.32001,3.32001h7.31v-.89001h-7.31ZM82.12006,23.70001h-31.46002c-2.32001,0-4.21002,1.88995-4.21002,4.20996v31.46002c0,2.32001,1.89001,4.20996,4.21002,4.20996h31.46002c2.31995,0,4.20996-1.88995,4.20996-4.20996v-31.46002c0-2.32001-1.89001-4.20996-4.20996-4.20996ZM84.56006,59.37c0,1.33997-1.10004,2.42999-2.44,2.42999h-31.46002c-1.34003,0-2.42999-1.09003-2.42999-2.42999v-31.46002c0-1.33997,1.08997-2.44,2.42999-2.44h31.46002c1.33997,0,2.44,1.10004,2.44,2.44v31.46002ZM50.66003,61.79999c-1.34003,0-2.42999-1.09003-2.42999-2.42999v-7.31h-.89001v7.31c0,1.83002,1.48999,3.32001,3.32001,3.32001h7.31v-.89001h-7.31ZM82.12006,23.70001h-31.46002c-2.32001,0-4.21002,1.88995-4.21002,4.20996v31.46002c0,2.32001,1.89001,4.20996,4.21002,4.20996h31.46002c2.31995,0,4.20996-1.88995,4.20996-4.20996v-31.46002c0-2.32001-1.89001-4.20996-4.20996-4.20996ZM84.56006,59.37c0,1.33997-1.10004,2.42999-2.44,2.42999h-31.46002c-1.34003,0-2.42999-1.09003-2.42999-2.42999v-31.46002c0-1.33997,1.08997-2.44,2.42999-2.44h31.46002c1.33997,0,2.44,1.10004,2.44,2.44v31.46002ZM50.66003,61.79999c-1.34003,0-2.42999-1.09003-2.42999-2.42999v-7.31h-.89001v7.31c0,1.83002,1.48999,3.32001,3.32001,3.32001h7.31v-.89001h-7.31ZM82.12006,23.70001h-31.46002c-2.32001,0-4.21002,1.88995-4.21002,4.20996v31.46002c0,2.32001,1.89001,4.20996,4.21002,4.20996h31.46002c2.31995,0,4.20996-1.88995,4.20996-4.20996v-31.46002c0-2.32001-1.89001-4.20996-4.20996-4.20996ZM84.56006,59.37c0,1.33997-1.10004,2.42999-2.44,2.42999h-31.46002c-1.34003,0-2.42999-1.09003-2.42999-2.42999v-31.46002c0-1.33997,1.08997-2.44,2.42999-2.44h31.46002c1.33997,0,2.44,1.10004,2.44,2.44v31.46002ZM82.12006,23.70001h-31.46002c-2.32001,0-4.21002,1.88995-4.21002,4.20996v31.46002c0,2.32001,1.89001,4.20996,4.21002,4.20996h31.46002c2.31995,0,4.20996-1.88995,4.20996-4.20996v-31.46002c0-2.32001-1.89001-4.20996-4.20996-4.20996ZM84.56006,59.37c0,1.33997-1.10004,2.42999-2.44,2.42999h-31.46002c-1.34003,0-2.42999-1.09003-2.42999-2.42999v-31.46002c0-1.33997,1.08997-2.44,2.42999-2.44h31.46002c1.33997,0,2.44,1.10004,2.44,2.44v31.46002ZM81.98004,17.5h-31.17999c-5.82001,0-10.55005,4.72998-10.55005,10.54999v31.17999c0,5.82001,4.73004,10.54999,10.55005,10.54999h31.17999c5.82001,0,10.54999-4.72998,10.54999-10.54999v-31.17999c0-5.82001-4.72998-10.54999-10.54999-10.54999ZM90.76001,59.22998c0,4.84003-3.94,8.78003-8.77997,8.78003h-31.17999c-4.84003,0-8.78003-3.94-8.78003-8.78003v-31.17999c0-4.84003,3.94-8.78003,8.78003-8.78003h31.17999c4.83997,0,8.77997,3.94,8.77997,8.78003v31.17999ZM82.12006,23.70001h-31.46002c-2.32001,0-4.21002,1.88995-4.21002,4.20996v31.46002c0,2.32001,1.89001,4.20996,4.21002,4.20996h31.46002c2.31995,0,4.20996-1.88995,4.20996-4.20996v-31.46002c0-2.32001-1.89001-4.20996-4.20996-4.20996ZM84.56006,59.37c0,1.33997-1.10004,2.42999-2.44,2.42999h-31.46002c-1.34003,0-2.42999-1.09003-2.42999-2.42999v-31.46002c0-1.33997,1.08997-2.44,2.42999-2.44h31.46002c1.33997,0,2.44,1.10004,2.44,2.44v31.46002ZM50.66003,61.79999c-1.34003,0-2.42999-1.09003-2.42999-2.42999v-7.31h-.89001v7.31c0,1.83002,1.48999,3.32001,3.32001,3.32001h7.31v-.89001h-7.31ZM82.12006,23.70001h-31.46002c-2.32001,0-4.21002,1.88995-4.21002,4.20996v31.46002c0,2.32001,1.89001,4.20996,4.21002,4.20996h31.46002c2.31995,0,4.20996-1.88995,4.20996-4.20996v-31.46002c0-2.32001-1.89001-4.20996-4.20996-4.20996ZM84.56006,59.37c0,1.33997-1.10004,2.42999-2.44,2.42999h-31.46002c-1.34003,0-2.42999-1.09003-2.42999-2.42999v-31.46002c0-1.33997,1.08997-2.44,2.42999-2.44h31.46002c1.33997,0,2.44,1.10004,2.44,2.44v31.46002ZM50.66003,61.79999c-1.34003,0-2.42999-1.09003-2.42999-2.42999v-7.31h-.89001v7.31c0,1.83002,1.48999,3.32001,3.32001,3.32001h7.31v-.89001h-7.31ZM82.12006,23.70001h-31.46002c-2.32001,0-4.21002,1.88995-4.21002,4.20996v31.46002c0,2.32001,1.89001,4.20996,4.21002,4.20996h31.46002c2.31995,0,4.20996-1.88995,4.20996-4.20996v-31.46002c0-2.32001-1.89001-4.20996-4.20996-4.20996ZM84.56006,59.37c0,1.33997-1.10004,2.42999-2.44,2.42999h-31.46002c-1.34003,0-2.42999-1.09003-2.42999-2.42999v-31.46002c0-1.33997,1.08997-2.44,2.42999-2.44h31.46002c1.33997,0,2.44,1.10004,2.44,2.44v31.46002ZM50.66003,61.79999c-1.34003,0-2.42999-1.09003-2.42999-2.42999v-7.31h-.89001v7.31c0,1.83002,1.48999,3.32001,3.32001,3.32001h7.31v-.89001h-7.31ZM82.12006,23.70001h-31.46002c-2.32001,0-4.21002,1.88995-4.21002,4.20996v31.46002c0,2.32001,1.89001,4.20996,4.21002,4.20996h31.46002c2.31995,0,4.20996-1.88995,4.20996-4.20996v-31.46002c0-2.32001-1.89001-4.20996-4.20996-4.20996ZM84.56006,59.37c0,1.33997-1.10004,2.42999-2.44,2.42999h-31.46002c-1.34003,0-2.42999-1.09003-2.42999-2.42999v-31.46002c0-1.33997,1.08997-2.44,2.42999-2.44h31.46002c1.33997,0,2.44,1.10004,2.44,2.44v31.46002ZM50.66003,61.79999c-1.34003,0-2.42999-1.09003-2.42999-2.42999v-7.31h-.89001v7.31c0,1.83002,1.48999,3.32001,3.32001,3.32001h7.31v-.89001h-7.31ZM82.12006,23.70001h-31.46002c-2.32001,0-4.21002,1.88995-4.21002,4.20996v31.46002c0,2.32001,1.89001,4.20996,4.21002,4.20996h31.46002c2.31995,0,4.20996-1.88995,4.20996-4.20996v-31.46002c0-2.32001-1.89001-4.20996-4.20996-4.20996ZM84.56006,59.37c0,1.33997-1.10004,2.42999-2.44,2.42999h-31.46002c-1.34003,0-2.42999-1.09003-2.42999-2.42999v-31.46002c0-1.33997,1.08997-2.44,2.42999-2.44h31.46002c1.33997,0,2.44,1.10004,2.44,2.44v31.46002Z"/>
      <g>
        <path class="cls-5" d="M77.47122,34.89538c-.01745-.08784-.05023-.16908-.07527-.25396-.02971-.10129-.05314-.20383-.09381-.30211-.04098-.0988-.09719-.1884-.14815-.28149-.04218-.07724-.07615-.15744-.12565-.23147-.10841-.16212-.23136-.31354-.36855-.45109-.00094-.00094-.00151-.00208-.00244-.00301-.00255-.00255-.00556-.00416-.0081-.00665-.13636-.13542-.2859-.25718-.44631-.36434-.07174-.04795-.14955-.08072-.2243-.12176-.09537-.05252-.18747-.10986-.28887-.15189-.09454-.03911-.19318-.06129-.29053-.09023-.08862-.02644-.1737-.06046-.26559-.0787-.17853-.03543-.35967-.05205-.54101-.05454-.01413-.00021-.02717-.00416-.04135-.00416h-17.02128c-1.6452,0-2.97872,1.33353-2.97872,2.97872s1.33353,2.97872,2.97872,2.97872h9.83004l-28.95778,28.95778c-1.16315,1.16273-1.16315,3.04937,0,4.2121.58178.58178,1.34433.87267,2.10647.87267s1.52468-.29089,2.10647-.87267l28.95736-28.95736v9.83004c0,1.64478,1.33394,2.97872,2.97872,2.97872s2.97872-1.33394,2.97872-2.97872v-17.02128c0-.19557-.02052-.39083-.0588-.58334Z"/>
        <path class="cls-5" d="M40.50854,73.5c-1.0625,0-2.06152-.41406-2.81348-1.16602-.75146-.75098-1.16553-1.75-1.16553-2.8125,0-1.06348.41406-2.0625,1.16553-2.81348l27.25098-27.25049h-7.41602c-2.19385,0-3.97852-1.78516-3.97852-3.979s1.78467-3.97852,3.97852-3.97852l17.1377.00586c.22168.00586.44141.02881.65918.07178.10547.021.20117.05029.29688.08203l.12891.03857c.10742.02979.21484.06201.31836.10498.11816.04883.22559.10742.33203.16797l.10059.0542c.08887.04443.17676.0918.26074.14844.18457.12305.3623.26562.52637.42139l.11719.11523c.16602.17139.31738.35889.45117.56006.05566.08301.10254.17041.14746.25928l.05957.11035c.05859.10254.11426.20605.16016.31543.04492.1123.07812.22119.1084.33105l.03906.13086c.03027.09229.05859.18506.07812.28174l.00098.00195c.05078.26025.07715.52197.07715.77734v17.02148c0,2.19336-1.78516,3.97852-3.97852,3.97852s-3.97852-1.78516-3.97852-3.97852v-7.41602l-27.25098,27.25c-.75098.75195-1.75049,1.16602-2.81348,1.16602ZM57.53003,33.5c-1.09082,0-1.97852.8877-1.97852,1.97852,0,1.09131.8877,1.979,1.97852,1.979h12.24414l-30.66504,30.66455c-.37354.37402-.57959.87109-.57959,1.39941s.20605,1.02539.57959,1.39844c.74756.74805,2.05078.74707,2.79834,0l30.66553-30.66406v12.24414c0,1.09082.8877,1.97852,1.97852,1.97852s1.97852-.8877,1.97852-1.97852v-17.02148c0-.12695-.01367-.25439-.03809-.37939l-.08398-.27637c-.00977-.03564-.01758-.07129-.03125-.10547-.01172-.02734-.03125-.05811-.0498-.08984l-.10645-.19727c-.08887-.14453-.16504-.2417-.24805-.32764l-.02734-.02734c-.0918-.09033-.19043-.1709-.29785-.24219l-.14746-.07568c-.12109-.06787-.15625-.09082-.19531-.10693l-.30469-.09082c-.17871-.04346-.2998-.05371-.4209-.05518l-.0918-.00439h-16.95703Z"/>
      </g>
    </g>
    <g>
      <path class="cls-1" d="M51.33002,61.07996v13.51001c0,1.83002-1.48999,3.32001-3.32001,3.32001h-22.60004c-1.82996,0-3.31995-1.48999-3.31995-3.32001v-22.59998c0-1.83002,1.48999-3.32001,3.31995-3.32001h13.51001v-6.20001h-13.37c-5.33997,0-9.65997,4.32001-9.65997,9.66003v22.32001c0,5.33997,4.32001,9.65997,9.65997,9.65997h22.32001c5.34003,0,9.66003-4.32001,9.66003-9.65997v-13.37006h-6.20001Z"/>
      <path d="M50.44,61.07996v13.51001c0,1.34003-1.09003,2.44-2.42999,2.44h-22.60004c-1.33997,0-2.44-1.09998-2.44-2.44v-22.59998c0-1.34003,1.10004-2.42999,2.44-2.42999h13.51001v-1.78003h-13.51001c-2.31995,0-4.20996,1.89001-4.20996,4.21002v22.59998c0,2.32001,1.89001,4.21002,4.20996,4.21002h22.60004c2.32001,0,4.20996-1.89001,4.20996-4.21002v-13.51001h-1.77997ZM50.44,61.07996v13.51001c0,1.34003-1.09003,2.44-2.42999,2.44h-22.60004c-1.33997,0-2.44-1.09998-2.44-2.44v-22.59998c0-1.34003,1.10004-2.42999,2.44-2.42999h13.51001v-1.78003h-13.51001c-2.31995,0-4.20996,1.89001-4.20996,4.21002v22.59998c0,2.32001,1.89001,4.21002,4.20996,4.21002h22.60004c2.32001,0,4.20996-1.89001,4.20996-4.21002v-13.51001h-1.77997ZM50.44,61.07996v13.51001c0,1.34003-1.09003,2.44-2.42999,2.44h-22.60004c-1.33997,0-2.44-1.09998-2.44-2.44v-22.59998c0-1.34003,1.10004-2.42999,2.44-2.42999h13.51001v-1.78003h-13.51001c-2.31995,0-4.20996,1.89001-4.20996,4.21002v22.59998c0,2.32001,1.89001,4.21002,4.20996,4.21002h22.60004c2.32001,0,4.20996-1.89001,4.20996-4.21002v-13.51001h-1.77997ZM50.44,61.07996v13.51001c0,1.34003-1.09003,2.44-2.42999,2.44h-22.60004c-1.33997,0-2.44-1.09998-2.44-2.44v-22.59998c0-1.34003,1.10004-2.42999,2.44-2.42999h13.51001v-1.78003h-13.51001c-2.31995,0-4.20996,1.89001-4.20996,4.21002v22.59998c0,2.32001,1.89001,4.21002,4.20996,4.21002h22.60004c2.32001,0,4.20996-1.89001,4.20996-4.21002v-13.51001h-1.77997ZM50.44,61.07996v13.51001c0,1.34003-1.09003,2.44-2.42999,2.44h-22.60004c-1.33997,0-2.44-1.09998-2.44-2.44v-22.59998c0-1.34003,1.10004-2.42999,2.44-2.42999h13.51001v-1.78003h-13.51001c-2.31995,0-4.20996,1.89001-4.20996,4.21002v22.59998c0,2.32001,1.89001,4.21002,4.20996,4.21002h22.60004c2.32001,0,4.20996-1.89001,4.20996-4.21002v-13.51001h-1.77997ZM50.44,61.07996v13.51001c0,1.34003-1.09003,2.44-2.42999,2.44h-22.60004c-1.33997,0-2.44-1.09998-2.44-2.44v-22.59998c0-1.34003,1.10004-2.42999,2.44-2.42999h13.51001v-1.78003h-13.51001c-2.31995,0-4.20996,1.89001-4.20996,4.21002v22.59998c0,2.32001,1.89001,4.21002,4.20996,4.21002h22.60004c2.32001,0,4.20996-1.89001,4.20996-4.21002v-13.51001h-1.77997ZM50.44,61.07996v13.51001c0,1.34003-1.09003,2.44-2.42999,2.44h-22.60004c-1.33997,0-2.44-1.09998-2.44-2.44v-22.59998c0-1.34003,1.10004-2.42999,2.44-2.42999h13.51001v-1.78003h-13.51001c-2.31995,0-4.20996,1.89001-4.20996,4.21002v22.59998c0,2.32001,1.89001,4.21002,4.20996,4.21002h22.60004c2.32001,0,4.20996-1.89001,4.20996-4.21002v-13.51001h-1.77997ZM50.44,61.07996v13.51001c0,1.34003-1.09003,2.44-2.42999,2.44h-22.60004c-1.33997,0-2.44-1.09998-2.44-2.44v-22.59998c0-1.34003,1.10004-2.42999,2.44-2.42999h13.51001v-1.78003h-13.51001c-2.31995,0-4.20996,1.89001-4.20996,4.21002v22.59998c0,2.32001,1.89001,4.21002,4.20996,4.21002h22.60004c2.32001,0,4.20996-1.89001,4.20996-4.21002v-13.51001h-1.77997ZM50.44,61.07996v13.51001c0,1.34003-1.09003,2.44-2.42999,2.44h-22.60004c-1.33997,0-2.44-1.09998-2.44-2.44v-22.59998c0-1.34003,1.10004-2.42999,2.44-2.42999h13.51001v-1.78003h-13.51001c-2.31995,0-4.20996,1.89001-4.20996,4.21002v22.59998c0,2.32001,1.89001,4.21002,4.20996,4.21002h22.60004c2.32001,0,4.20996-1.89001,4.20996-4.21002v-13.51001h-1.77997ZM50.44,61.07996v13.51001c0,1.34003-1.09003,2.44-2.42999,2.44h-22.60004c-1.33997,0-2.44-1.09998-2.44-2.44v-22.59998c0-1.34003,1.10004-2.42999,2.44-2.42999h13.51001v-1.78003h-13.51001c-2.31995,0-4.20996,1.89001-4.20996,4.21002v22.59998c0,2.32001,1.89001,4.21002,4.20996,4.21002h22.60004c2.32001,0,4.20996-1.89001,4.20996-4.21002v-13.51001h-1.77997ZM50.44,61.07996v13.51001c0,1.34003-1.09003,2.44-2.42999,2.44h-22.60004c-1.33997,0-2.44-1.09998-2.44-2.44v-22.59998c0-1.34003,1.10004-2.42999,2.44-2.42999h13.51001v-1.78003h-13.51001c-2.31995,0-4.20996,1.89001-4.20996,4.21002v22.59998c0,2.32001,1.89001,4.21002,4.20996,4.21002h22.60004c2.32001,0,4.20996-1.89001,4.20996-4.21002v-13.51001h-1.77997ZM50.44,61.07996v13.51001c0,1.34003-1.09003,2.44-2.42999,2.44h-22.60004c-1.33997,0-2.44-1.09998-2.44-2.44v-22.59998c0-1.34003,1.10004-2.42999,2.44-2.42999h13.51001v-1.78003h-13.51001c-2.31995,0-4.20996,1.89001-4.20996,4.21002v22.59998c0,2.32001,1.89001,4.21002,4.20996,4.21002h22.60004c2.32001,0,4.20996-1.89001,4.20996-4.21002v-13.51001h-1.77997ZM50.44,61.07996v13.51001c0,1.34003-1.09003,2.44-2.42999,2.44h-22.60004c-1.33997,0-2.44-1.09998-2.44-2.44v-22.59998c0-1.34003,1.10004-2.42999,2.44-2.42999h13.51001v-1.78003h-13.51001c-2.31995,0-4.20996,1.89001-4.20996,4.21002v22.59998c0,2.32001,1.89001,4.21002,4.20996,4.21002h22.60004c2.32001,0,4.20996-1.89001,4.20996-4.21002v-13.51001h-1.77997ZM50.44,61.07996v13.51001c0,1.34003-1.09003,2.44-2.42999,2.44h-22.60004c-1.33997,0-2.44-1.09998-2.44-2.44v-22.59998c0-1.34003,1.10004-2.42999,2.44-2.42999h13.51001v-1.78003h-13.51001c-2.31995,0-4.20996,1.89001-4.20996,4.21002v22.59998c0,2.32001,1.89001,4.21002,4.20996,4.21002h22.60004c2.32001,0,4.20996-1.89001,4.20996-4.21002v-13.51001h-1.77997ZM50.44,61.07996v13.51001c0,1.34003-1.09003,2.44-2.42999,2.44h-22.60004c-1.33997,0-2.44-1.09998-2.44-2.44v-22.59998c0-1.34003,1.10004-2.42999,2.44-2.42999h13.51001v-1.78003h-13.51001c-2.31995,0-4.20996,1.89001-4.20996,4.21002v22.59998c0,2.32001,1.89001,4.21002,4.20996,4.21002h22.60004c2.32001,0,4.20996-1.89001,4.20996-4.21002v-13.51001h-1.77997ZM50.44,61.07996v13.51001c0,1.34003-1.09003,2.44-2.42999,2.44h-22.60004c-1.33997,0-2.44-1.09998-2.44-2.44v-22.59998c0-1.34003,1.10004-2.42999,2.44-2.42999h13.51001v-1.78003h-13.51001c-2.31995,0-4.20996,1.89001-4.20996,4.21002v22.59998c0,2.32001,1.89001,4.21002,4.20996,4.21002h22.60004c2.32001,0,4.20996-1.89001,4.20996-4.21002v-13.51001h-1.77997ZM56.65002,61.07996v13.37006c0,4.83997-3.94,8.77997-8.78003,8.77997h-22.32001c-4.83997,0-8.77997-3.94-8.77997-8.77997v-22.32001c0-4.84003,3.94-8.78003,8.77997-8.78003h13.37v-1.77002h-13.37c-5.82001,0-10.54999,4.73004-10.54999,10.55005v22.32001c0,5.81995,4.72998,10.54999,10.54999,10.54999h22.32001c5.82001,0,10.54999-4.73004,10.54999-10.54999v-13.37006h-1.76996ZM22.96997,74.58997v-22.59998c0-1.34003,1.10004-2.42999,2.44-2.42999h13.51001v-1.78003h-13.51001c-2.31995,0-4.20996,1.89001-4.20996,4.21002v22.59998c0,2.32001,1.89001,4.21002,4.20996,4.21002h22.60004c2.32001,0,4.20996-1.89001,4.20996-4.21002v-13.51001h-1.77997v13.51001c0,1.34003-1.09003,2.44-2.42999,2.44h-22.60004c-1.33997,0-2.44-1.09998-2.44-2.44ZM50.44,61.07996v13.51001c0,1.34003-1.09003,2.44-2.42999,2.44h-22.60004c-1.33997,0-2.44-1.09998-2.44-2.44v-22.59998c0-1.34003,1.10004-2.42999,2.44-2.42999h13.51001v-1.78003h-13.51001c-2.31995,0-4.20996,1.89001-4.20996,4.21002v22.59998c0,2.32001,1.89001,4.21002,4.20996,4.21002h22.60004c2.32001,0,4.20996-1.89001,4.20996-4.21002v-13.51001h-1.77997ZM50.44,61.07996v13.51001c0,1.34003-1.09003,2.44-2.42999,2.44h-22.60004c-1.33997,0-2.44-1.09998-2.44-2.44v-22.59998c0-1.34003,1.10004-2.42999,2.44-2.42999h13.51001v-1.78003h-13.51001c-2.31995,0-4.20996,1.89001-4.20996,4.21002v22.59998c0,2.32001,1.89001,4.21002,4.20996,4.21002h22.60004c2.32001,0,4.20996-1.89001,4.20996-4.21002v-13.51001h-1.77997ZM50.44,61.07996v13.51001c0,1.34003-1.09003,2.44-2.42999,2.44h-22.60004c-1.33997,0-2.44-1.09998-2.44-2.44v-22.59998c0-1.34003,1.10004-2.42999,2.44-2.42999h13.51001v-1.78003h-13.51001c-2.31995,0-4.20996,1.89001-4.20996,4.21002v22.59998c0,2.32001,1.89001,4.21002,4.20996,4.21002h22.60004c2.32001,0,4.20996-1.89001,4.20996-4.21002v-13.51001h-1.77997ZM50.44,61.07996v13.51001c0,1.34003-1.09003,2.44-2.42999,2.44h-22.60004c-1.33997,0-2.44-1.09998-2.44-2.44v-22.59998c0-1.34003,1.10004-2.42999,2.44-2.42999h13.51001v-1.78003h-13.51001c-2.31995,0-4.20996,1.89001-4.20996,4.21002v22.59998c0,2.32001,1.89001,4.21002,4.20996,4.21002h22.60004c2.32001,0,4.20996-1.89001,4.20996-4.21002v-13.51001h-1.77997ZM50.44,61.07996v13.51001c0,1.34003-1.09003,2.44-2.42999,2.44h-22.60004c-1.33997,0-2.44-1.09998-2.44-2.44v-22.59998c0-1.34003,1.10004-2.42999,2.44-2.42999h13.51001v-1.78003h-13.51001c-2.31995,0-4.20996,1.89001-4.20996,4.21002v22.59998c0,2.32001,1.89001,4.21002,4.20996,4.21002h22.60004c2.32001,0,4.20996-1.89001,4.20996-4.21002v-13.51001h-1.77997ZM50.44,61.07996v13.51001c0,1.34003-1.09003,2.44-2.42999,2.44h-22.60004c-1.33997,0-2.44-1.09998-2.44-2.44v-22.59998c0-1.34003,1.10004-2.42999,2.44-2.42999h13.51001v-1.78003h-13.51001c-2.31995,0-4.20996,1.89001-4.20996,4.21002v22.59998c0,2.32001,1.89001,4.21002,4.20996,4.21002h22.60004c2.32001,0,4.20996-1.89001,4.20996-4.21002v-13.51001h-1.77997ZM50.44,61.07996v13.51001c0,1.34003-1.09003,2.44-2.42999,2.44h-22.60004c-1.33997,0-2.44-1.09998-2.44-2.44v-22.59998c0-1.34003,1.10004-2.42999,2.44-2.42999h13.51001v-1.78003h-13.51001c-2.31995,0-4.20996,1.89001-4.20996,4.21002v22.59998c0,2.32001,1.89001,4.21002,4.20996,4.21002h22.60004c2.32001,0,4.20996-1.89001,4.20996-4.21002v-13.51001h-1.77997ZM50.44,61.07996v13.51001c0,1.34003-1.09003,2.44-2.42999,2.44h-22.60004c-1.33997,0-2.44-1.09998-2.44-2.44v-22.59998c0-1.34003,1.10004-2.42999,2.44-2.42999h13.51001v-1.78003h-13.51001c-2.31995,0-4.20996,1.89001-4.20996,4.21002v22.59998c0,2.32001,1.89001,4.21002,4.20996,4.21002h22.60004c2.32001,0,4.20996-1.89001,4.20996-4.21002v-13.51001h-1.77997ZM50.44,61.07996v13.51001c0,1.34003-1.09003,2.44-2.42999,2.44h-22.60004c-1.33997,0-2.44-1.09998-2.44-2.44v-22.59998c0-1.34003,1.10004-2.42999,2.44-2.42999h13.51001v-1.78003h-13.51001c-2.31995,0-4.20996,1.89001-4.20996,4.21002v22.59998c0,2.32001,1.89001,4.21002,4.20996,4.21002h22.60004c2.32001,0,4.20996-1.89001,4.20996-4.21002v-13.51001h-1.77997ZM50.44,61.07996v13.51001c0,1.34003-1.09003,2.44-2.42999,2.44h-22.60004c-1.33997,0-2.44-1.09998-2.44-2.44v-22.59998c0-1.34003,1.10004-2.42999,2.44-2.42999h13.51001v-1.78003h-13.51001c-2.31995,0-4.20996,1.89001-4.20996,4.21002v22.59998c0,2.32001,1.89001,4.21002,4.20996,4.21002h22.60004c2.32001,0,4.20996-1.89001,4.20996-4.21002v-13.51001h-1.77997ZM50.44,61.07996v13.51001c0,1.34003-1.09003,2.44-2.42999,2.44h-22.60004c-1.33997,0-2.44-1.09998-2.44-2.44v-22.59998c0-1.34003,1.10004-2.42999,2.44-2.42999h13.51001v-1.78003h-13.51001c-2.31995,0-4.20996,1.89001-4.20996,4.21002v22.59998c0,2.32001,1.89001,4.21002,4.20996,4.21002h22.60004c2.32001,0,4.20996-1.89001,4.20996-4.21002v-13.51001h-1.77997ZM50.44,61.07996v13.51001c0,1.34003-1.09003,2.44-2.42999,2.44h-22.60004c-1.33997,0-2.44-1.09998-2.44-2.44v-22.59998c0-1.34003,1.10004-2.42999,2.44-2.42999h13.51001v-1.78003h-13.51001c-2.31995,0-4.20996,1.89001-4.20996,4.21002v22.59998c0,2.32001,1.89001,4.21002,4.20996,4.21002h22.60004c2.32001,0,4.20996-1.89001,4.20996-4.21002v-13.51001h-1.77997ZM50.44,61.07996v13.51001c0,1.34003-1.09003,2.44-2.42999,2.44h-22.60004c-1.33997,0-2.44-1.09998-2.44-2.44v-22.59998c0-1.34003,1.10004-2.42999,2.44-2.42999h13.51001v-1.78003h-13.51001c-2.31995,0-4.20996,1.89001-4.20996,4.21002v22.59998c0,2.32001,1.89001,4.21002,4.20996,4.21002h22.60004c2.32001,0,4.20996-1.89001,4.20996-4.21002v-13.51001h-1.77997ZM50.44,61.07996v13.51001c0,1.34003-1.09003,2.44-2.42999,2.44h-22.60004c-1.33997,0-2.44-1.09998-2.44-2.44v-22.59998c0-1.34003,1.10004-2.42999,2.44-2.42999h13.51001v-1.78003h-13.51001c-2.31995,0-4.20996,1.89001-4.20996,4.21002v22.59998c0,2.32001,1.89001,4.21002,4.20996,4.21002h22.60004c2.32001,0,4.20996-1.89001,4.20996-4.21002v-13.51001h-1.77997Z"/>
    </g>
    <g>
      <path class="cls-1" d="M74.45001,15.89001h-31.17999c-5.34003,0-9.66003,4.31995-9.66003,9.65997v31.17999c0,5.34003,4.32001,9.66003,9.66003,9.66003h31.17999c5.33997,0,9.65997-4.32001,9.65997-9.66003v-31.17999c0-5.34003-4.32001-9.65997-9.65997-9.65997ZM39.81,56.87v-31.46002c0-1.83002,1.48999-3.32001,3.32001-3.32001h31.46002c1.82996,0,3.31995,1.48999,3.31995,3.32001v31.46002c0,1.83002-1.48999,3.32001-3.31995,3.32001h-31.46002c-1.83002,0-3.32001-1.48999-3.32001-3.32001Z"/>
      <g>
        <path d="M74.59003,21.20001h-31.46002c-2.32001,0-4.21002,1.88995-4.21002,4.20996v31.46002c0,2.32001,1.89001,4.20996,4.21002,4.20996h31.46002c2.31995,0,4.20996-1.88995,4.20996-4.20996v-31.46002c0-2.32001-1.89001-4.20996-4.20996-4.20996ZM77.03003,56.87c0,1.33997-1.10004,2.42999-2.44,2.42999h-31.46002c-1.34003,0-2.42999-1.09003-2.42999-2.42999v-31.46002c0-1.33997,1.08997-2.44,2.42999-2.44h31.46002c1.33997,0,2.44,1.10004,2.44,2.44v31.46002Z"/>
        <path d="M74.45001,15h-31.17999c-5.82001,0-10.55005,4.72998-10.55005,10.54999v31.17999c0,5.82001,4.73004,10.54999,10.55005,10.54999h31.17999c5.82001,0,10.54999-4.72998,10.54999-10.54999v-31.17999c0-5.82001-4.72998-10.54999-10.54999-10.54999ZM83.22998,56.72998c0,4.84003-3.94,8.78003-8.77997,8.78003h-31.17999c-4.84003,0-8.78003-3.94-8.78003-8.78003v-31.17999c0-4.84003,3.94-8.78003,8.78003-8.78003h31.17999c4.83997,0,8.77997,3.94,8.77997,8.78003v31.17999Z"/>
      </g>
    </g>
    <path class="cls-2" d="M69.94119,32.39538c-.01745-.08784-.05023-.16908-.07527-.25396-.02971-.10129-.05314-.20383-.09381-.30211-.04098-.0988-.09719-.1884-.14815-.28149-.04218-.07724-.07615-.15744-.12565-.23147-.10841-.16212-.23136-.31354-.36855-.45109-.00094-.00094-.00151-.00208-.00244-.00301-.00255-.00255-.00556-.00416-.0081-.00665-.13636-.13542-.2859-.25718-.44631-.36434-.07174-.04795-.14955-.08072-.2243-.12176-.09537-.05252-.18747-.10986-.28887-.15189-.09454-.03911-.19318-.06129-.29053-.09023-.08862-.02644-.1737-.06046-.26559-.0787-.17853-.03543-.35967-.05205-.54101-.05454-.01413-.00021-.02717-.00416-.04135-.00416h-17.02128c-1.6452,0-2.97872,1.33353-2.97872,2.97872s1.33353,2.97872,2.97872,2.97872h9.83004l-28.95778,28.95778c-1.16315,1.16273-1.16315,3.04937,0,4.2121.58178.58178,1.34433.87267,2.10647.87267s1.52468-.29089,2.10647-.87267l28.95736-28.95736v9.83004c0,1.64478,1.33394,2.97872,2.97872,2.97872s2.97872-1.33394,2.97872-2.97872v-17.02128c0-.19557-.02052-.39083-.0588-.58334Z"/>
  </g>
</svg>