<?xml version="1.0" encoding="UTF-8"?>
<svg id="Layer_2" data-name="Layer 2" xmlns="http://www.w3.org/2000/svg" viewBox="0 0 241.48 191">
  <defs>
    <style>
      .cls-1 {
        fill: #ff37ce;
      }

      .cls-2 {
        fill: #95ebf2;
      }

      .cls-3 {
        fill: #fff;
      }

      .cls-4 {
        fill: #575b72;
      }

      .cls-5 {
        fill: #ffe100;
      }
    </style>
  </defs>
  <g id="Design">
    <g id="character">
      <g>
        <path class="cls-3" d="M53.15,126.89c1.27,3.19,1.38,6.22,1.1,8.59-.3,2.56-1.44,4.94-3.22,6.78l-11.65,12.19-1.86,1.96-9.57,10.01c-1.8,1.88-2.35,4.65-1.38,7.06.81,2.04,8.48,12,11.48,15.71.1.12.16.25.18.39.07.49-.29.99-.85.99H12.65c-.78,0-1.54-.31-2.1-.88-2.02-2.07-4.61-5.21-6.72-9.49,0,0-2.41-4.91-3.3-10.33-.57-3.51,1.57-8.84,6.12-15.19.28-.39.56-.76.86-1.16,6.76-9.02,18.18-19.86,33.49-30.35,1.05-.72,2.12-1.44,3.2-2.15,1.82-1.21,4.29-.95,5.76.7,1.13,1.28,2.33,2.98,3.2,5.16Z"/>
        <path class="cls-3" d="M113.37,31.67c.07.4-.16.77-.54.9-1.5.48-3.04.95-4.59,1.43h-.01c-.28.08-.56.16-.85.25h-.01c-6.85,2.04-14.24,3.97-22.16,5.67-.02.01-.05.01-.07.01h-.01c-5.01,1.08-9.87,2-14.56,2.76-2.32-3.5-2.63-5.02-4.63-14.22l.57-11.12.02-.49c.03-.63.74-.98,1.25-.61l.16.11,8.29,5.8c.46.33,1.1.08,1.22-.46l1.59-6.65,3.34-14.01c.16-.65,1.01-.83,1.42-.29l7.22,9.68,7.81,10.46c.38.51,1.17.39,1.39-.2l2.9-8.06,3.6-9.98c.28-.76,1.4-.67,1.54.13l5.1,28.89Z"/>
        <path class="cls-3" d="M108.84,34.1c8.2,1.58,14.29,5.18,19.02,10.29-9.29,1.79-16.45,9.57-17.33,19.15-.07.81-.75,1.46-1.57,1.51l-1.68.1c-.75.04-1.46-.41-1.7-1.12-2.86-8.53-10.92-14.68-20.4-14.68-8.17,0-15.27,4.54-18.92,11.25,3.45-8.92,10.13-16.37,18.88-20.65h.01s.05-.01.07-.02c7.91-1.7,15.31-3.64,22.16-5.67h.01c.48-.06.96-.11,1.43-.15h.03Z"/>
        <path class="cls-3" d="M85.18,55.44c8.51,0,15.43,6.93,15.43,15.43s-6.93,15.44-15.43,15.44-15.43-6.93-15.43-15.44,6.92-15.43,15.43-15.43Z"/>
        <path class="cls-3" d="M131.95,50.09c8.52,0,15.44,6.92,15.44,15.43s-6.93,15.43-15.44,15.43-15.43-6.93-15.43-15.43,6.93-15.43,15.43-15.43Z"/>
        <path class="cls-3" d="M113.74,93.89c-9.69.92-18.91,1.36-27.58,1.48-.93.01-1.63.81-1.56,1.73.33,4.04,1.64,7.75,3.64,10.92,4.49,7.14,12.47,11.58,20.6,11.11.53-.02,1.06-.07,1.58-.14,2.25-.31,4.42-.99,6.43-1.99,8.14-4,13.8-13.15,13.04-23.31-.07-.92-.89-1.59-1.8-1.47-4.62.64-9.4,1.19-14.34,1.66ZM85.18,92.4c10.99,0,20.06-8.24,21.36-18.88.09-.79.76-1.41,1.57-1.46l2-.11c.72-.05,1.42.38,1.67,1.06,3.1,8.33,11.21,14.23,20.65,14.03,4.36-.09,8.44-1.53,11.83-3.91,1.04,4.26,2.06,8.65,3.15,13.1,1.83,7.49,3.68,15.09,5.49,22.55h.01c2.63,10.86,5.18,21.42,7.49,30.97,4.81,19.95,8.52,35.43,9.53,39.67.14.59-.31,1.15-.92,1.15h-104.39s-2.86-56.82-1.06-113.71c.57.06,1.07.44,1.26,1,2.89,8.47,10.92,14.55,20.36,14.55Z"/>
        <path class="cls-3" d="M204.66,77.77l3.51-11.83c1.7,1.77,3.3,1.69,4.8-.24l4.71,11.41-2.55.13-3.96.19-3.96.2-2.55.13Z"/>
        <path class="cls-3" d="M207.69,136.78l.09,1.88c.04.8.31,1.55.73,2.17-5.79,9.32-11.48,17.51-22.16,19.18-5.92.93-19.33-6.37-25.98-10.27-2.3-9.54-4.86-20.11-7.49-30.96,3.43,2.21,25.81,16.43,29.92,15.79s12.62-12.21,15.6-16.42c.59-.84.54-1.96-.13-2.72-1.93-2.18-5.13-7.07-1.36-12.31,2.41-3.36,5.75-3.63,8.91-2.69.9.26,1.77.62,2.61,1.04,1.54.75,2.94,1.68,4.09,2.53.63.47,1.18.92,1.63,1.29.78.66.99,1.42.73,2.12-.26.71-1.01,1.36-2.1,1.81-1.03.44-2.37.69-3.93.64-.79-.02-1.66-.11-2.57-.32l1.23,24.04.16,3.18Z"/>
        <path class="cls-3" d="M220.24,127.23c-.28.01-.56.02-.85.03h-.01c-.69-.25-1.26-.54-1.73-.86h0c-2.23-1.52-2.02-3.74-.32-6.08l-.08-1.57c3.49,1.53,10.9-.7,10.9-.7-.4.17-.51.69-.21,1,1.85,1.95,5.98,7.58-7.7,8.18Z"/>
        <path class="cls-3" d="M217.39,111.61c1.95.32,5.47.53,12.02-3.08-.24.41-.25.92.06,1.31,1.55,1.97,4.16,5.77-1.31,8.21,0,0-7.41,2.23-10.9.7-1.93-.84-2.67-2.81-.35-6.93h0s-.02-.36-.02-.36c.15.06.33.1.5.13Z"/>
        <path class="cls-3" d="M228.19,99.87c-.47.2-.05.88.42,1.34,1.49,1.51,3.35,5.4,1.19,6.9-.17.11-.31.25-.4.42-6.55,3.61-10.07,3.39-12.02,3.08-.17-.03-.35-.07-.5-.13-.86-.31-1.53-1.02-1.74-1.93-.16-.7-.12-1.36.09-2.01.24-.74.71-1.44,1.34-2.09.67-.68,1.52-1.32,2.45-1.89,3.5-2.16,8.2-3.44,9.16-3.69Z"/>
        <path class="cls-3" d="M241.04,92.57c.09,4.15-6.88,6.35-12.67,7.25,0,0-.06.01-.17.05-.96.24-5.65,1.53-9.16,3.69l-.5-9.78c5.72-2.69,12.63-5.08,18.67-4.83,2.01.09,3.78,1.6,3.83,3.62Z"/>
        <polygon points="210.06 133.47 213.19 133.32 213.2 133.32 214.03 133.28 217.99 133.07 220.53 132.94 220.7 136.12 207.69 136.78 207.53 133.6 210.06 133.47"/>
        <path d="M129.88,93.7c.76,10.16-4.9,19.3-13.04,23.31-3.04-6.34-8.22-11.37-14.95-10.19,0,0-2.14-2.05-10.89-.17-1.07.23-1.98.7-2.75,1.36h-.01c-2-3.16-3.31-6.87-3.64-10.91-.07-.92.63-1.72,1.56-1.73,8.67-.11,17.89-.56,27.58-1.48,4.94-.47,9.72-1.02,14.34-1.66.92-.12,1.73.55,1.8,1.47Z"/>
        <path d="M210.24,59.05l2.74,6.65c-1.5,1.94-3.1,2.02-4.8.24l2.06-6.9Z"/>
        <path class="cls-5" d="M208.86,109.88l1.2,23.59-2.54.13-1.23-24.04c.91.2,1.77.3,2.57.32Z"/>
        <path class="cls-5" d="M212.79,109.23l1.17,22.91.06,1.12h0s-.83.05-.83.05h-.01l-3.13.15-1.2-23.59c1.56.05,2.9-.2,3.93-.64Z"/>
        <path class="cls-5" d="M213.96,132.14l-1.17-22.91c1.09-.45,1.83-1.1,2.1-1.81l.35.12c-.21.64-.25,1.3-.09,2.01.21.91.89,1.62,1.74,1.93l.02.35h0c-2.32,4.13-1.58,6.1.35,6.94l.08,1.57c-1.7,2.34-1.92,4.56.32,6.07h0s.04.92.04.92l.3,5.75h0s-3.96.21-3.96.21h0s-.06-1.13-.06-1.13Z"/>
        <path class="cls-5" d="M219.38,127.27h.01c.29-.01.57-.02.85-.03l.3,5.7-2.55.13h0s-.3-5.76-.3-5.76l-.04-.91c.47.32,1.04.6,1.73.86Z"/>
        <path class="cls-5" d="M218.54,93.78l.5,9.78c-.94.57-1.78,1.21-2.45,1.89l-.54-10.45-.91-17.77,2.55-.13.86,16.68Z"/>
        <path class="cls-5" d="M214.16,105.3c-.45-.38-1-.83-1.63-1.29l-.35-6.92-1.01-19.66,3.96-.19.91,17.77.54,10.45c-.63.65-1.1,1.34-1.34,2.09l-.35-.12c.25-.7.05-1.46-.73-2.12Z"/>
        <path class="cls-5" d="M212.18,97.09l.35,6.92c-1.15-.85-2.56-1.77-4.09-2.53l-.11-2.06-1.11-21.79,3.96-.2,1.01,19.66Z"/>
        <path class="cls-5" d="M208.32,99.43l.11,2.06c-.84-.42-1.71-.77-2.61-1.04l-1.16-22.68,2.55-.13,1.11,21.79Z"/>
        <path class="cls-4" d="M65.94,28.48c-.04.65-.81.99-1.31.56l-5.52-4.76h0s.73-12.02.73-12.02c.05-.69.9-1,1.38-.5l5.3,5.59-.57,11.12Z"/>
        <path class="cls-4" d="M95.01,3.27l8.13,9.36-2.9,8.06c-.21.59-1.01.71-1.39.2l-7.81-10.46,2.63-6.93c.21-.56.95-.69,1.34-.23Z"/>
        <path class="cls-4" d="M79.05,15.05l-1.59,6.65c-.12.54-.76.78-1.22.46l-8.29-5.8,1.02-8.6c.07-.64.84-.93,1.31-.5l8.77,7.78Z"/>
        <path class="cls-2" d="M65.94,28.48c2.01,9.2,2.31,10.72,4.63,14.22-3.52.58-6.96,1.08-10.28,1.5h-.01s-.01,0-.01.01c-.91.12-1.8.23-2.7.34-.38.04-.73-.19-.85-.55l-8.77-27.39c-.24-.76.67-1.36,1.27-.85l9.87,8.52h0s5.52,4.77,5.52,4.77c.5.43,1.27.09,1.31-.56Z"/>
        <path class="cls-2" d="M85.13,39.95c-8.75,4.28-15.42,11.72-18.88,20.65h0s-.01.02-.01.03c-1.24,2.28-2.07,4.82-2.41,7.51-.08.6-.48,1.1-1.06,1.28-4.59,1.44-9.19,2.87-13.78,4.31-1.18.38-2.56.75-3.91,1.23.32-2.86.65-5.69,1-8.5,1.25-10.06,6.57-17.12,14.2-22.26,0-.01.01-.01.01-.01h.01c3.32-.42,6.75-.92,10.28-1.5,4.69-.76,9.54-1.68,14.56-2.75Z"/>
        <path class="cls-2" d="M63.55,76.85c-1.8,56.89,1.06,113.71,1.06,113.71h-25.36c-.52,0-.95-.43-.94-.96v-.03c.05-3.62.31-16.98,1.07-35.12l11.65-12.19c1.78-1.84,2.92-4.23,3.22-6.78.28-2.36.17-5.4-1.1-8.59-.87-2.18-2.07-3.88-3.2-5.16-1.47-1.65-3.93-1.92-5.76-.7-1.08.71-2.15,1.43-3.2,2.15.68-10.69,1.52-21.91,2.55-33.08.72-.2,1.35-.59,1.87-1.1.78-.8,1.28-1.9,1.28-3.11v-1.96c0-1.16.75-2.18,1.85-2.53l14.38-4.49c.2-.06.41-.08.61-.06Z"/>
        <path class="cls-1" d="M41.99,90.26c-2.33-.16-4.08-2.23-4.08-4.56v-3.31c0-4.2,3.57-6.15,7.17-7.43,1.35-.48,2.73-.86,3.91-1.23,4.59-1.44,9.19-2.87,13.78-4.31.58-.18.98-.68,1.06-1.28.35-2.69,1.17-5.23,2.41-7.51,0-.01.01-.01.01-.02h0c3.65-6.71,10.75-11.26,18.92-11.26,9.48,0,17.54,6.15,20.4,14.68.24.71.95,1.16,1.7,1.12l1.68-.1c.81-.05,1.5-.69,1.57-1.51.88-9.59,8.04-17.36,17.33-19.15h.01c1.32-.25,2.69-.39,4.08-.39,12.25,0,22.12,10.24,21.5,22.63-.34,6.78-3.93,12.78-9.21,16.48h0c-3.38,2.39-7.47,3.83-11.83,3.92-9.44.2-17.55-5.69-20.65-14.03-.25-.68-.95-1.11-1.67-1.06l-2,.11c-.8.05-1.48.66-1.57,1.46-1.3,10.63-10.37,18.88-21.36,18.88-9.44,0-17.47-6.08-20.36-14.55-.19-.56-.69-.94-1.26-1-.2-.02-.41,0-.61.06l-14.38,4.49c-1.1.35-1.85,1.36-1.85,2.53v1.96c0,1.2-.5,2.3-1.28,3.11-.52.51-1.15.9-1.87,1.1-.49.14-1.01.2-1.55.16ZM147.39,65.52c0-8.52-6.93-15.43-15.44-15.43s-15.43,6.92-15.43,15.43,6.93,15.43,15.43,15.43,15.44-6.93,15.44-15.43ZM100.61,70.87c0-8.51-6.93-15.43-15.43-15.43s-15.43,6.93-15.43,15.43,6.92,15.44,15.43,15.44,15.43-6.93,15.43-15.44Z"/>
        <path class="cls-1" d="M108.84,119.13h0c-8.13.48-16.1-3.96-20.6-11.1h.01c.77-.67,1.68-1.14,2.75-1.38,8.75-1.87,10.89.17,10.89.17,0,0,5.1,5.78,6.95,12.31Z"/>
        <path class="cls-1" d="M110.42,118.99c-.52.07-1.05.12-1.58.14h0c-1.84-6.54-6.95-12.32-6.95-12.32,6.73-1.18,11.92,3.85,14.95,10.19-2.01,1-4.18,1.68-6.43,1.99Z"/>
        <path class="cls-1" d="M220.7,136.12l.1,1.88c.11,2.34-1.69,4.36-4.03,4.48l-4.5.22c-1.56.08-2.95-.67-3.75-1.87-.43-.62-.69-1.36-.73-2.17l-.09-1.88,13.01-.66Z"/>
      </g>
      <path d="M185.25,160.53c-6.37,0-18.28-6.41-25.09-10.41-.03-.02-.07-.04-.09-.07-.08-.08-.13-.19-.13-.31,0-.24.2-.44.44-.44.1,0,.19.03.26.09,5.77,3.39,19.75,11.11,25.66,10.2,10.32-1.61,16-9.55,21.85-18.98.13-.2.4-.27.6-.14.2.13.27.4.14.6-5.97,9.62-11.78,17.71-22.46,19.38-.37.06-.76.08-1.18.08Z"/>
      <path d="M219.41,127.7l-.03-.44v-.44l.84-.03c6.71-.29,8.7-1.8,9.19-3.01.65-1.63-1.03-3.64-1.79-4.44-.23-.24-.33-.59-.27-.92.07-.34.3-.63.62-.77,1.69-.76,2.69-1.71,2.97-2.81.4-1.63-.76-3.38-1.82-4.73-.41-.51-.44-1.22-.09-1.81.12-.22.3-.41.53-.56.45-.32.71-.78.77-1.42.15-1.64-1.08-3.84-2.04-4.81-.32-.32-.84-.94-.73-1.5.05-.25.21-.44.45-.55.16-.06.25-.08.27-.08,2.92-.46,12.41-2.29,12.31-6.81-.04-1.7-1.54-3.11-3.41-3.19-5.04-.21-11.25,1.4-18.47,4.79-.22.1-.48,0-.58-.21-.1-.22,0-.48.21-.58,7.34-3.45,13.69-5.09,18.88-4.87,2.33.11,4.19,1.88,4.25,4.04.11,5.08-9.07,7.07-13.03,7.69.05.13.2.38.48.66,1.06,1.08,2.47,3.49,2.28,5.5-.08.88-.48,1.6-1.15,2.06-.12.08-.21.17-.27.27-.17.29-.16.6.02.83,1.18,1.5,2.48,3.48,1.99,5.48-.34,1.38-1.51,2.53-3.46,3.4-.09.04-.11.12-.12.15,0,.03-.01.1.04.15,1.08,1.14,2.78,3.34,1.97,5.36-.85,2.1-4.2,3.3-9.96,3.55l-.85.03Z"/>
      <path d="M219.26,112.2c-.75,0-1.39-.07-1.94-.16-1.28-.21-2.3-1.14-2.6-2.39-1.53-6.48,12.93-10.1,13.55-10.25.23-.06.47.09.53.32.06.23-.09.47-.32.53-.14.03-14.24,3.56-12.91,9.21.21.9.95,1.58,1.89,1.73,1.32.21,4.83.77,11.74-3.03.21-.12.48-.04.59.17.12.21.04.48-.17.59-4.83,2.65-8.1,3.28-10.36,3.28Z"/>
      <path d="M220.54,119.73c-2.02,0-3.89-.39-4.85-1.58-1.11-1.39-.82-3.61.86-6.57.12-.21.39-.28.59-.16.21.12.28.38.16.59-1.49,2.63-1.81,4.51-.94,5.6,1.88,2.35,9.05.83,11.66.04.23-.07.47.06.54.29.07.23-.06.47-.29.54-.26.08-4.21,1.25-7.74,1.25Z"/>
      <path d="M219.39,127.7s-.1,0-.15-.03c-2-.72-3.2-1.79-3.55-3.17-.4-1.55.32-3.41,2.07-5.4.16-.18.43-.2.61-.04.18.16.2.43.04.61-1.55,1.76-2.2,3.35-1.88,4.61.28,1.08,1.29,1.94,3,2.56.23.08.34.33.26.56-.06.18-.23.29-.41.29Z"/>
      <g id="_Левая_рука" data-name="Левая рука">
        <path d="M37.39,191H12.65c-.92,0-1.78-.36-2.41-1.01-2.78-2.84-5.07-6.07-6.8-9.61-.02-.05-2.45-5.03-3.34-10.45-.59-3.67,1.55-9.04,6.2-15.51.27-.39.56-.77.86-1.17,8.02-10.68,21.09-22.25,36.81-32.6,2.02-1.34,4.74-1,6.32.77,1.42,1.61,2.52,3.39,3.28,5.29,1.11,2.77,1.49,5.73,1.13,8.81h0c-.3,2.61-1.48,5.11-3.34,7.03l-23.09,24.16c-1.69,1.77-2.2,4.36-1.29,6.6.79,1.95,8.45,11.94,11.42,15.59.31.39.38.91.16,1.36-.22.45-.66.73-1.16.73ZM46.68,120.71c-.77,0-1.56.22-2.25.67-15.64,10.29-28.63,21.8-36.59,32.39-.29.39-.57.77-.85,1.16-4.45,6.19-6.59,11.47-6.04,14.86.86,5.29,3.24,10.16,3.26,10.21,1.7,3.45,3.93,6.61,6.65,9.38.47.48,1.11.75,1.79.75h24.73c.24,0,.35-.18.38-.24.03-.07.09-.25-.05-.43-2.83-3.5-10.67-13.65-11.55-15.81-1.03-2.56-.46-5.51,1.47-7.53l23.09-24.16c1.72-1.79,2.82-4.11,3.1-6.53h0c.34-2.93-.02-5.75-1.08-8.38-.72-1.81-1.77-3.51-3.12-5.04-.76-.85-1.84-1.3-2.94-1.3Z"/>
      </g>
      <path d="M108.84,119.57c-.19,0-.36-.13-.42-.32-1.8-6.36-6.81-12.08-6.86-12.14-.16-.18-.14-.46.04-.61.18-.16.46-.14.61.04.21.24,5.19,5.92,7.04,12.48.07.23-.07.47-.3.54-.04.01-.08.02-.12.02Z"/>
      <path d="M116.85,117.45c-.16,0-.32-.09-.39-.25-1.66-3.46-6.38-11.36-14.49-9.95-.14.02-.28-.02-.38-.12-.01-.01-2.19-1.84-10.5-.06-.96.21-1.8.63-2.56,1.27-.18.16-.46.13-.61-.05-.16-.18-.13-.46.05-.61.86-.72,1.85-1.21,2.94-1.45,7.6-1.63,10.39-.33,11.09.14,6.05-.96,11.6,2.84,15.24,10.46.1.22.01.48-.2.58-.06.03-.12.04-.19.04Z"/>
      <path d="M107.73,119.61c-5.07,0-10.19-1.84-14.4-5.23-5.27-4.25-8.61-10.53-9.15-17.24-.05-.57.15-1.13.52-1.55.38-.42.9-.65,1.46-.66,9.16-.12,18.43-.62,27.54-1.48,4.76-.45,9.58-1.01,14.32-1.66.56-.08,1.11.08,1.54.43.43.35.71.87.75,1.43.95,12.6-7.95,24.15-19.84,25.76-.91.12-1.83.18-2.75.18ZM128.3,92.66c-.05,0-.11,0-.16.01h0c-4.76.65-9.59,1.21-14.36,1.66-9.14.86-18.43,1.36-27.61,1.48-.32,0-.61.14-.83.37-.22.24-.33.56-.3.89.52,6.47,3.74,12.53,8.83,16.63,4.79,3.86,10.8,5.63,16.49,4.86,11.44-1.55,20.01-12.68,19.09-24.83-.02-.32-.18-.62-.43-.82-.21-.17-.46-.25-.72-.25ZM128.08,92.24h0,0Z"/>
      <path d="M131.96,81.39c-8.75,0-15.87-7.12-15.87-15.87s7.12-15.87,15.87-15.87,15.87,7.12,15.87,15.87-7.12,15.87-15.87,15.87ZM131.96,50.52c-8.27,0-15,6.73-15,15s6.73,15,15,15,15-6.73,15-15-6.73-15-15-15Z"/>
      <path d="M85.17,86.75c-8.75,0-15.87-7.12-15.87-15.87s7.12-15.87,15.87-15.87,15.87,7.12,15.87,15.87-7.12,15.87-15.87,15.87ZM85.17,55.88c-8.27,0-15,6.73-15,15s6.73,15,15,15,15-6.73,15-15-6.73-15-15-15Z"/>
      <path d="M85.17,92.84c-9.4,0-17.74-5.96-20.77-14.84-.18-.54-.78-.84-1.34-.67l-14.37,4.5c-.93.29-1.55,1.13-1.55,2.1v1.96c0,1.28-.5,2.49-1.41,3.41-.98.98-2.35,1.49-3.76,1.4-2.51-.17-4.48-2.37-4.48-5v-3.31c0-5.64,5.97-7.44,10.32-8.75.37-.11.72-.22,1.07-.32,4.59-1.44,9.19-2.88,13.78-4.31.41-.13.7-.48.75-.93,1.38-10.92,10.74-19.16,21.77-19.16,9.45,0,17.82,6.02,20.82,14.97.17.52.69.85,1.26.82l1.68-.1c.61-.04,1.12-.51,1.17-1.11.49-5.43,2.99-10.46,7.02-14.16,4.06-3.72,9.33-5.77,14.84-5.77,6.07,0,11.73,2.42,15.91,6.83,4.18,4.4,6.32,10.17,6.02,16.26-.27,5.5-2.64,10.68-6.67,14.59-4.03,3.9-9.28,6.12-14.79,6.24-9.35.2-17.82-5.55-21.07-14.31-.18-.49-.69-.81-1.24-.78l-1.99.12c-.6.04-1.09.49-1.17,1.07-1.34,10.98-10.71,19.26-21.79,19.26ZM63.38,76.41c.81,0,1.57.51,1.85,1.31,2.91,8.52,10.92,14.25,19.95,14.25,10.64,0,19.64-7.95,20.93-18.5.12-1,.96-1.77,1.98-1.84l1.99-.12c.93-.06,1.79.5,2.11,1.35,3.07,8.27,10.98,13.75,19.78,13.75.15,0,.3,0,.45,0,11.01-.23,20.06-9.02,20.61-19.99l.44.02-.44-.02c.29-5.85-1.76-11.39-5.78-15.61-4.02-4.23-9.45-6.55-15.28-6.55-10.98,0-20,8.23-20.99,19.13-.09,1.02-.95,1.84-1.98,1.9l-1.68.1c-.96.06-1.84-.52-2.13-1.41-2.89-8.6-10.92-14.38-20-14.38-10.59,0-19.58,7.91-20.91,18.4-.1.78-.63,1.42-1.36,1.65-4.59,1.43-9.19,2.87-13.78,4.31-.35.11-.7.22-1.07.33-4.32,1.3-9.7,2.92-9.7,7.91v3.31c0,2.18,1.61,3.99,3.67,4.13,1.16.08,2.28-.34,3.08-1.14.75-.76,1.16-1.75,1.16-2.8v-1.96c0-1.35.87-2.53,2.16-2.93l14.37-4.5c.19-.06.39-.09.58-.09Z"/>
      <path d="M93.99,69.85c-.15,0-.29-.04-.42-.14l-11.04-7.89c-.33-.23-.4-.69-.17-1.01.23-.33.69-.4,1.01-.17l11.04,7.89c.33.23.4.69.17,1.01-.14.2-.36.3-.59.3Z"/>
      <path d="M93.99,75.57c-.14,0-.29-.04-.42-.13l-13.34-9.32c-.33-.23-.41-.68-.18-1.01.23-.33.68-.41,1.01-.18l13.34,9.32c.33.23.41.68.18,1.01-.14.2-.37.31-.6.31Z"/>
      <path d="M93.1,79.51c-.14,0-.28-.04-.41-.13l-8.5-5.82c-.33-.23-.42-.68-.19-1.01.23-.33.68-.42,1.01-.19l8.5,5.82c.33.23.42.68.19,1.01-.14.21-.37.32-.6.32Z"/>
      <path d="M138.84,74.97c-.13,0-.27-.04-.39-.11l-9.56-6.04c-.34-.21-.44-.66-.23-1,.21-.34.66-.44,1-.23l9.56,6.04c.34.21.44.66.23,1-.14.22-.37.34-.61.34Z"/>
      <path d="M139.53,70.91c-.14,0-.27-.04-.4-.12l-12.22-7.96c-.34-.22-.43-.67-.21-1,.22-.34.67-.43,1-.21l12.22,7.96c.34.22.43.67.21,1-.14.21-.37.33-.61.33Z"/>
      <path d="M138.15,64.82c-.14,0-.28-.04-.4-.12l-9.59-6.31c-.33-.22-.43-.67-.21-1.01.22-.34.67-.43,1.01-.21l9.59,6.31c.33.22.43.67.21,1.01-.14.21-.37.33-.61.33Z"/>
      <g>
        <path class="cls-4" d="M91.04,10.43l2.63-6.92c.21-.56.95-.69,1.34-.24l8.13,9.36"/>
        <path d="M103.14,13.07c-.12,0-.24-.05-.33-.15l-8.13-9.36c-.12-.14-.27-.13-.33-.12-.06.01-.21.05-.27.23l-2.63,6.92c-.09.22-.34.34-.56.25-.22-.09-.34-.34-.25-.56l2.63-6.92c.16-.41.5-.7.94-.78.43-.08.86.07,1.14.4l8.13,9.36c.16.18.14.46-.04.61-.08.07-.18.11-.29.11Z"/>
      </g>
      <path d="M67.95,16.8s-.03,0-.05,0c-.24-.03-.41-.24-.38-.48l1.02-8.6c.05-.46.35-.84.79-1.01.43-.16.91-.08,1.25.23l8.77,7.79c.18.16.2.44.04.61-.16.18-.44.2-.61.04l-8.77-7.79c-.15-.13-.31-.09-.37-.07-.06.02-.21.1-.23.29l-1.02,8.6c-.03.22-.21.38-.43.38Z"/>
      <path d="M59.11,24.71s-.02,0-.03,0c-.24-.01-.42-.22-.41-.46l.73-12.01c.03-.5.34-.91.81-1.08.47-.17.97-.05,1.31.31l5.29,5.59c.17.17.16.45-.02.62s-.45.16-.62-.02l-5.3-5.59c-.15-.16-.33-.11-.38-.09-.05.02-.22.1-.24.32l-.73,12.01c-.01.23-.21.41-.43.41Z"/>
      <path d="M57.49,44.98c-.53,0-1.01-.34-1.17-.86l-8.77-27.38c-.17-.53.03-1.09.49-1.4.47-.31,1.06-.27,1.48.09l15.38,13.28c.15.13.31.08.38.06s.21-.11.22-.31l.6-11.61c.02-.45.28-.84.69-1.04.41-.2.87-.16,1.25.1l8.45,5.92c.1.07.22.08.33.04.11-.04.19-.14.22-.25L81.97.95c.11-.47.48-.82.95-.92.47-.1.95.08,1.24.47l15.04,20.14c.12.16.28.15.34.14.06,0,.22-.05.29-.23l6.5-18.03c.19-.53.7-.86,1.26-.81.56.05,1.01.46,1.11,1.01l5.11,28.89c.11.61-.25,1.2-.83,1.39-9.06,2.88-18.36,5.36-27.66,7.36-9.11,1.96-18.42,3.52-27.67,4.62-.05,0-.1,0-.14,0ZM57.15,43.85c.05.17.21.27.38.25,9.23-1.1,18.51-2.65,27.59-4.61,9.27-2,18.55-4.47,27.58-7.34.17-.05.27-.23.24-.41l-5.11-28.89c-.04-.25-.26-.29-.32-.3-.06,0-.28,0-.37.24l-6.5,18.03c-.15.43-.53.73-.98.8-.45.07-.9-.12-1.17-.48L83.46,1.02c-.12-.17-.29-.15-.36-.14-.07.01-.23.07-.28.27l-4.93,20.65c-.09.4-.38.72-.76.86-.38.14-.81.09-1.14-.14l-8.45-5.92c-.16-.11-.31-.06-.36-.03-.06.03-.19.11-.2.3l-.6,11.61c-.02.47-.31.88-.75,1.07-.44.19-.93.11-1.29-.2l-15.38-13.28c-.19-.17-.38-.06-.43-.03-.05.04-.22.17-.14.41l8.77,27.38Z"/>
      <path d="M45.08,75.39s-.03,0-.05,0c-.24-.03-.41-.24-.39-.48.29-2.64.62-5.42,1-8.5,1.18-9.45,5.88-16.83,14.36-22.55.08-.06.17-.1.28-.1.24,0,.44.2.44.44,0,.17-.09.31-.23.38-8.27,5.57-12.85,12.75-13.99,21.94-.38,3.08-.71,5.85-1,8.49-.02.22-.21.39-.43.39Z"/>
      <path d="M127.87,44.82c-.12,0-.25-.05-.33-.14-4.95-5.35-11.09-8.67-18.75-10.15-.03,0-.06,0-.07,0-.17-.04-.35-.07-.54-.1-.21-.03-.38-.21-.38-.43,0-.24.19-.44.43-.44h.01s.05,0,.07,0c.19.03.38.06.56.1.02,0,.04,0,.06,0,7.85,1.51,14.14,4.91,19.23,10.39.09.08.15.19.15.32,0,.24-.19.44-.43.44Z"/>
      <path d="M169,191H39.24c-.37,0-.72-.15-.98-.41-.26-.27-.4-.62-.39-.99.02-1.5.23-15.23,1.07-35.16.01-.24.21-.43.45-.42.24.01.43.21.42.45-.84,19.93-1.05,33.64-1.07,35.14,0,.14.05.27.14.36.1.1.22.15.36.15h129.76c.16,0,.31-.07.4-.19.06-.07.14-.22.09-.42l-1.11-4.63c-1.65-6.88-4.72-19.68-8.42-35.04-2.3-9.53-4.85-20.07-7.47-30.89-.01-.02-.02-.05-.03-.07l-.36-1.47c-1.68-6.92-3.42-14.08-5.13-21.08-.57-2.32-1.12-4.65-1.66-6.9-.5-2.09-.99-4.16-1.49-6.2,0-.03-.01-.07-.01-.1,0-.24.2-.44.44-.44.22,0,.4.16.43.37.49,2.03.98,4.09,1.48,6.17.54,2.25,1.09,4.58,1.66,6.9,1.71,6.99,3.45,14.16,5.13,21.08l.34,1.39s.03.08.04.12c2.63,10.84,5.18,21.39,7.48,30.92,3.7,15.36,6.77,28.16,8.42,35.04l1.11,4.63c.1.41,0,.83-.25,1.16-.26.33-.66.52-1.09.52ZM152.9,118.79h0,0Z"/>
      <path d="M41,123.61s-.02,0-.03,0c-.24-.02-.42-.22-.41-.46.75-11.77,1.61-22.9,2.55-33.09.02-.24.24-.41.47-.39.24.02.42.23.39.47-.94,10.18-1.79,21.31-2.55,33.06-.01.23-.21.41-.43.41Z"/>
      <path d="M66.25,61.06c-.24,0-.44-.2-.44-.44,0-.07.02-.14.05-.2,3.54-9.17,10.32-16.58,19.07-20.87.17-.09.38-.07.52.07.17.17.18.44,0,.61-.03.03-.08.07-.13.09-8.57,4.19-15.2,11.44-18.66,20.42h0s-.01.03-.02.05c-.07.15-.22.25-.39.25Z"/>
      <path d="M107.38,34.69c-.24,0-.44-.2-.44-.44s.18-.42.41-.44c.47-.06.95-.11,1.42-.15.25-.02.49.18.49.43s-.18.44-.42.44c-.46.04-.94.09-1.4.15-.02,0-.04,0-.06,0Z"/>
      <path d="M64.61,191c-.23,0-.42-.18-.43-.41-.03-.57-2.84-57.49-1.06-113.75,0-.24.21-.44.45-.42.24,0,.43.21.42.45-1.78,56.22,1.03,113.11,1.06,113.68.01.24-.17.44-.41.46,0,0-.02,0-.02,0Z"/>
      <path d="M207.53,134.04c-.11,0-.21-.04-.29-.11-.09-.08-.14-.19-.14-.3l-1.23-24.04c-.01-.24.17-.45.41-.46.25,0,.45.17.46.41l1.21,23.61,5.23-.26s.02,0,.03,0l6.88-.35-.27-5.27c-.01-.24.17-.44.41-.46.25-.01.44.17.46.41l.3,5.7c0,.12-.03.23-.11.31-.08.09-.19.14-.3.14l-7.33.38s-.03,0-.03,0l-5.64.28s-.02,0-.02,0Z"/>
      <path d="M219.04,104c-.23,0-.42-.18-.43-.41l-1.35-26.38-6.95-16.85-5.2,17.47,1.16,22.6c.01.24-.17.45-.41.46-.24.01-.44-.17-.46-.41l-1.16-22.68s0-.1.02-.15l3.51-11.83,2.06-6.9c.05-.18.21-.3.4-.31.19,0,.35.1.42.27l7.45,18.06s.03.09.03.14l1.35,26.45c.01.24-.17.44-.41.46,0,0-.02,0-.02,0Z"/>
      <path d="M212.04,143.15c-1.17,0-2.28-.43-3.15-1.21-.93-.84-1.48-2-1.54-3.25l-.26-5.06c-.01-.24.17-.44.41-.46.24,0,.44.17.46.41l.26,5.06c.05,1.02.5,1.96,1.26,2.65.76.69,1.74,1.04,2.76.98l4.5-.23c2.1-.11,3.73-1.91,3.62-4.02l-.26-5.06c-.01-.24.17-.44.41-.46.24-.01.44.17.46.41l.26,5.06c.13,2.59-1.86,4.8-4.45,4.94l-4.5.23c-.08,0-.16,0-.25,0Z"/>
      <path d="M204.67,78.2c-.23,0-.42-.18-.43-.41-.01-.24.17-.44.41-.46l13.01-.67c.24,0,.44.17.46.41.01.24-.17.44-.41.46l-13.01.67s-.02,0-.02,0Z"/>
      <path d="M207.68,137.22c-.23,0-.42-.18-.43-.41-.01-.24.17-.44.41-.46l13.01-.67c.24,0,.44.17.46.41s-.17.44-.41.46l-13.01.67s-.02,0-.02,0Z"/>
      <g>
        <path d="M208.43,101.92c-.23,0-.42-.18-.43-.41l-.11-2.06-1.11-21.79c-.01-.24.17-.44.41-.46.24,0,.44.17.46.41l1.11,21.79.11,2.06c.01.24-.17.45-.41.46,0,0-.02,0-.02,0Z"/>
        <path d="M210.06,133.9c-.23,0-.42-.18-.43-.41l-1.2-23.59c-.01-.24.17-.44.41-.46.24,0,.44.17.46.41l1.2,23.59c.01.24-.17.44-.41.46,0,0-.02,0-.02,0Z"/>
        <path d="M216.58,105.89c-.23,0-.42-.18-.43-.41l-.54-10.45-.91-17.77c-.01-.24.17-.44.41-.46.24-.01.44.17.46.41l.91,17.77.54,10.45c.01.24-.17.44-.41.46,0,0-.02,0-.02,0Z"/>
        <path d="M217.34,120.76c-.23,0-.42-.18-.43-.41l-.08-1.57c-.01-.24.17-.45.41-.46.24-.01.45.17.46.41l.08,1.57c.01.24-.17.45-.41.46,0,0-.02,0-.02,0Z"/>
        <path d="M217.99,133.5c-.23,0-.42-.18-.43-.41l-.34-6.65s0-.02,0-.03c0-.24.2-.44.44-.44s.44.2.44.44h0s.04.9.04.9l.3,5.74c.01.24-.17.44-.41.46,0,0-.02,0-.02,0Z"/>
        <path d="M216.91,112.27c-.24,0-.44-.2-.44-.44h0s-.02-.33-.02-.33c-.01-.24.17-.45.41-.46.24-.02.45.17.46.41l.02.35s0,.03,0,.04c0,.24-.2.44-.44.44Z"/>
        <path d="M212.53,104.44c-.23,0-.42-.18-.43-.41l-.35-6.92-1.01-19.66c-.01-.24.17-.45.41-.46.25-.01.45.17.46.41l1.01,19.66.35,6.92c.01.24-.17.44-.41.46,0,0-.01,0-.02,0Z"/>
        <path d="M214.03,133.7c-.23,0-.42-.18-.43-.41l-.06-1.12-1.17-22.91c-.01-.24.17-.44.41-.46.24,0,.44.17.46.41l1.17,22.91.06,1.12c.01.24-.17.45-.41.46,0,0-.02,0-.02,0Z"/>
      </g>
      <path d="M210.55,67.65c-.89,0-1.79-.47-2.68-1.4-.17-.17-.16-.45.01-.62.17-.17.45-.16.62.01.75.79,1.46,1.17,2.13,1.13.66-.03,1.34-.49,2-1.34.15-.19.42-.22.61-.08.19.15.22.42.08.61-.83,1.07-1.72,1.63-2.65,1.68-.04,0-.08,0-.13,0Z"/>
      <path d="M153.12,118.41c7.66,4.85,15.41,9.69,23.54,13.69,1.02.48,2.05.95,3.1,1.35.94.34,2.11.81,3.07.68,3.2-.85,7.53-6.31,9.72-8.91,1.93-2.4,3.83-4.91,5.6-7.45.35-.59.31-1.38-.1-1.93-.17-.21-.37-.43-.54-.64-.92-1.15-1.69-2.41-2.2-3.8-1.34-3.43-.22-7.34,2.41-9.84,2.74-2.69,6.8-2.33,10.05-.86,2.13.93,4.08,2.2,5.89,3.64.48.39.95.72,1.34,1.24,1.39,1.99-.83,3.79-2.61,4.29-3.12.98-7.46.31-10.1-1.61-.09-.06-.01-.21.09-.18,1.11.3,2.16.67,3.24.95,1.61.4,3.28.56,4.92.36,1.05-.15,2.13-.43,3.01-1.03.79-.52,1.38-1.43.75-2.28-.3-.4-.77-.74-1.17-1.06-3.95-3.07-10.34-6.92-14.8-2.83-1.53,1.48-2.61,3.58-2.71,5.73-.1,2.19.81,4.31,2.07,6.07.32.46.7.89,1.06,1.33.41.55.59,1.26.49,1.93-.07.64-.47,1.19-.84,1.69-1.65,2.31-3.38,4.62-5.17,6.82-2.31,2.75-6.78,8.39-10.23,9.22-1.21.19-2.42-.34-3.54-.72-1.08-.41-2.13-.89-3.16-1.38-8.2-4.03-15.93-8.87-23.64-13.74-.44-.31-.07-1.03.47-.73h0Z"/>
    </g>
  </g>
</svg>