<?xml version="1.0" encoding="UTF-8"?>
<svg id="Layer_2" data-name="Layer 2" xmlns="http://www.w3.org/2000/svg" viewBox="0 0 50.76 51.13">
  <defs>
    <style>
      .cls-1 {
        fill: #ff37ce;
      }

      .cls-2 {
        fill: #ffe100;
      }

      .cls-3 {
        fill: #6c47dc;
      }
    </style>
  </defs>
  <g id="Design">
    <g>
      <g>
        <path class="cls-3" d="M15.69,50.63c-.53,0-1.16-.33-1.31-1.07L6.9,11.66c-.05-.23-.03-.46.05-.68L10.21,1.4c.18-.54.69-.9,1.25-.9.14,0,.29.02.43.07l36.57,12.47c.33.11.6.35.76.67.16.32.18.68.06,1.01l-3.26,9.57c-.07.22-.21.42-.38.57l-29.09,25.44c-.25.21-.54.33-.86.33Z"/>
        <path d="M11.46,1h0c.09,0,.18.02.27.04l36.57,12.47c.43.15.66.62.51,1.05l-3.26,9.57c-.05.14-.13.26-.24.35l-29.09,25.44c-.19.17-.4.21-.54.21-.33,0-.73-.21-.82-.67L7.39,11.56c-.03-.14-.02-.29.03-.43L10.68,1.56c.11-.33.43-.56.78-.56M11.46,0c-.76,0-1.47.48-1.73,1.24l-3.27,9.58c-.1.3-.13.63-.06.94l7.49,37.9c.18.92.97,1.47,1.8,1.47.42,0,.84-.14,1.19-.45l29.09-25.44c.24-.21.42-.48.53-.78l3.26-9.57c.33-.95-.18-1.99-1.14-2.32L12.05.1c-.2-.07-.39-.1-.59-.1h0Z"/>
      </g>
      <g>
        <path class="cls-1" d="M9.31,49.09c-.63,0-1.17-.45-1.3-1.07L.53,10.11c-.07-.35,0-.7.2-.99.2-.29.5-.49.84-.56l10.59-2.09c.08-.02.17-.03.26-.03.15,0,.29.02.43.07l36.52,12.45c.45.15.78.53.87,1s-.07.94-.43,1.25l-29.12,25.47c-.17.15-.39.26-.62.3l-10.5,2.07c-.09.02-.17.03-.26.03Z"/>
        <path d="M12.42,6.94c.09,0,.18.01.27.04l36.52,12.45c.41.14.51.48.54.62s.06.5-.27.78l-3.8,3.32-25.32,22.15c-.11.1-.24.16-.38.19l-6.46,1.27-4.04.8c-.05.01-.11.02-.16.02-.39,0-.73-.28-.81-.66L1.02,10.02c-.09-.45.2-.88.65-.97l4.04-.8,6.55-1.29c.05-.01.11-.02.16-.02M12.42,5.94c-.12,0-.24.01-.35.03l-6.55,1.29-4.04.8c-.99.2-1.63,1.15-1.44,2.14l7.49,37.91c.17.87.93,1.47,1.79,1.47.12,0,.24-.01.36-.03l4.04-.8,6.46-1.27c.31-.06.61-.21.85-.42l25.32-22.15,3.8-3.32c1.06-.92.72-2.65-.61-3.1L13.01,6.04c-.19-.06-.39-.1-.59-.1h0Z"/>
      </g>
      <g>
        <path class="cls-2" d="M15.69,50.63c-.53,0-1.16-.33-1.31-1.07L6.8,11.18l-.98-4.97c-.08-.4.02-.78.27-1.09.26-.31.63-.49,1.02-.49.15,0,.29.02.43.07l41.82,14.26c.45.15.78.53.87,1s-.07.94-.43,1.25l-33.26,29.09c-.25.21-.55.33-.86.33Z"/>
        <path d="M7.11,5.13c.09,0,.18.02.27.05l41.82,14.26c.41.14.51.48.54.62.03.14.06.5-.27.78l-3.8,3.32-25.69,22.47-3.77,3.29c-.19.17-.4.21-.54.21-.33,0-.73-.21-.82-.67l-.18-.9L7.29,11.08l-.79-4.01-.19-.96c-.07-.33.08-.57.17-.68.16-.19.4-.31.63-.31M7.11,4.13c-1.1,0-2.01,1.01-1.78,2.18l.19.96.8,4.01,7.4,37.48.18.9c.18.92.97,1.47,1.8,1.47.42,0,.84-.14,1.19-.45l3.77-3.29,25.69-22.47,3.8-3.32c1.06-.92.72-2.65-.61-3.1L7.71,4.23c-.2-.07-.4-.1-.59-.1h0Z"/>
      </g>
    </g>
  </g>
</svg>