<?xml version="1.0" encoding="UTF-8"?>
<svg id="Layer_2" data-name="Layer 2" xmlns="http://www.w3.org/2000/svg" viewBox="0 0 58.56 50.65">
  <defs>
    <style>
      .cls-1 {
        fill: #ff37ce;
      }

      .cls-2 {
        fill: #20d5f2;
      }

      .cls-3 {
        fill: #ffe100;
      }
    </style>
  </defs>
  <g id="Design">
    <g>
      <g>
        <path class="cls-3" d="M16.48,47.54c-.62,0-1.17-.39-1.39-.97L.59,7.3c-.14-.37-.12-.77.04-1.13s.46-.63.83-.77L11.74,1.61c.16-.06.34-.09.51-.09.08,0,.17,0,.25.02l41.27,7.08c.53.09.95.44,1.14.94.19.5.09,1.05-.25,1.46l-26.76,32.19c-.17.2-.38.35-.62.44l-10.29,3.8c-.17.06-.34.09-.51.09Z"/>
        <path d="M12.25,2.02c.06,0,.11,0,.17.01l41.27,7.08c.5.09.69.47.75.62.06.16.16.57-.17.96l-26.76,32.19c-.11.13-.25.23-.41.29l-10.29,3.8c-.11.04-.22.06-.34.06-.41,0-.78-.26-.92-.64L1.06,7.13c-.19-.51.07-1.07.58-1.25l10.28-3.79c.11-.04.22-.06.34-.06M12.25,1.02c-.23,0-.46.04-.68.12L1.29,4.93C.27,5.31-.26,6.45.12,7.47l14.5,39.27c.29.8,1.05,1.29,1.85,1.29.23,0,.46-.04.68-.12l10.29-3.8c.33-.12.61-.32.84-.59L55.04,11.34c.97-1.17.31-2.95-1.19-3.21L12.59,1.04c-.11-.02-.22-.03-.33-.03h0Z"/>
      </g>
      <g>
        <path class="cls-1" d="M29.81,50.15c-.34,0-.68-.12-.94-.34l-9-7.48c-.2-.17-.35-.38-.44-.62L4.95,2.49c-.17-.46-.11-.95.17-1.35.28-.4.73-.64,1.2-.64.09,0,.17,0,.26.02l41.32,7.09c.26.04.5.15.69.32l8.92,7.41c.63.52.71,1.45.19,2.08l-26.76,32.2c-.28.34-.7.53-1.14.53Z"/>
        <path d="M6.33,1h0c.06,0,.12,0,.18.02l5.39.93,35.93,6.16c.17.03.33.1.46.21l5.48,4.56,3.44,2.85c.2.17.32.4.35.66.02.26-.05.51-.22.71l-26.76,32.2c-.19.22-.46.35-.75.35-.16,0-.4-.04-.62-.23l-3.44-2.85-5.56-4.62c-.13-.11-.23-.25-.29-.41L5.42,2.32c-.15-.42,0-.74.11-.89.18-.26.48-.42.79-.42M6.33,0c-1.33,0-2.33,1.35-1.84,2.66l14.48,39.22c.12.33.32.61.59.84l5.56,4.62,3.44,2.85c.37.31.82.46,1.26.46.57,0,1.13-.24,1.52-.71l26.76-32.2c.7-.84.58-2.09-.26-2.78l-3.44-2.85-5.48-4.56c-.27-.22-.59-.37-.93-.43L12.06.96,6.67.03c-.12-.02-.23-.03-.34-.03h0Z"/>
      </g>
      <g>
        <path class="cls-2" d="M22.93,48.37c-.63,0-1.18-.38-1.39-.97L4.95,2.49c-.17-.46-.11-.95.17-1.35.28-.4.73-.64,1.2-.64.09,0,.17,0,.26.02l47.19,8.09c.53.09.95.44,1.14.94.19.5.09,1.04-.25,1.46l-30.6,36.82c-.29.34-.69.53-1.13.53Z"/>
        <path d="M6.33,1h0c.06,0,.12,0,.18.02l5.39.93,36.45,6.25,5.34.92c.5.09.69.47.75.62.06.16.16.57-.17.96l-.64.77-26.46,31.83-2.83,3.41-.68.81c-.26.31-.58.35-.74.35-.32,0-.75-.17-.92-.64L5.42,2.32c-.15-.42,0-.74.11-.89.18-.26.48-.42.79-.42M6.33,0c-1.33,0-2.33,1.35-1.84,2.66l16.58,44.91c.31.84,1.08,1.29,1.86,1.29.55,0,1.11-.23,1.51-.71l.68-.81,2.83-3.41,26.46-31.83.64-.77c.97-1.17.31-2.95-1.19-3.21l-5.34-.92L12.06.96,6.67.03c-.12-.02-.23-.03-.34-.03h0Z"/>
      </g>
    </g>
  </g>
</svg>