<?xml version="1.0" encoding="UTF-8"?>
<svg id="Layer_2" data-name="Layer 2" xmlns="http://www.w3.org/2000/svg" viewBox="0 0 64.75 62.06">
  <defs>
    <style>
      .cls-1 {
        fill: #20d5f2;
      }

      .cls-1, .cls-2 {
        stroke: #000;
        stroke-miterlimit: 10;
      }

      .cls-2 {
        fill: #ff37ce;
      }
    </style>
  </defs>
  <g id="Design">
    <g>
      <path class="cls-1" d="M22.16,61.56c-2.09,0-4.14-.86-5.61-2.36-1.48-1.51-2.27-3.51-2.23-5.63.13-6.81-3.1-12.09-10.19-16.6C1.34,35.19-.04,31.83.69,28.6c.73-3.21,3.42-5.64,6.69-6.03,6.59-.8,8.53-4.01,8.65-14.32.05-4.27,3.57-7.75,7.84-7.75,2.11,0,4.09.83,5.58,2.34,7.11,7.22,21.7,7.95,26,8,2.58.03,4.98,1.33,6.42,3.48s1.72,4.86.76,7.26c-4.1,10.27-1.88,18.36.71,23.34,1.28,2.45,1.19,5.33-.25,7.68-1.42,2.33-3.98,3.78-6.7,3.78-.83,0-1.65-.13-2.45-.39-2.37-.77-5.34-1.18-8.57-1.18-7.09,0-14.22,2-18.6,5.21-1.36,1-2.96,1.53-4.64,1.53h0Z"/>
      <path class="cls-2" d="M23.01,54.89c8.9-6.54,23.75-7.94,32.92-4.95,1.25.41,2.36-.89,1.75-2.06-2.8-5.38-6.17-15.66-.98-28.66.38-.95-.31-1.98-1.33-1.99-5.82-.07-21.8-1.1-30.47-9.9-.91-.92-2.48-.3-2.49,1-.11,8.93-1.37,19.02-14.27,20.58-1.36.16-1.74,1.94-.59,2.68,8.61,5.49,13.32,12.71,13.14,22.11-.02,1.2,1.34,1.91,2.31,1.19Z"/>
    </g>
  </g>
</svg>