<?xml version="1.0" encoding="UTF-8"?>
<svg id="Layer_2" data-name="Layer 2" xmlns="http://www.w3.org/2000/svg" viewBox="0 0 171 169">
  <defs>
    <style>
      .cls-1 {
        opacity: .3;
      }

      .cls-1, .cls-2 {
        fill: #333;
      }

      .cls-3 {
        fill: #fff;
      }
    </style>
  </defs>
  <g id="Design">
    <g>
      <rect class="cls-2" width="165" height="165" rx="21.42383" ry="21.42383"/>
      <rect class="cls-1" x="6" y="4" width="165" height="165" rx="21.42383" ry="21.42383"/>
      <g>
        <path d="M164.98004,20.5636c-.14001-3.64001-1.20001-7.05994-2.96002-10.0199-1.53998-2.61011-3.63-4.87012-6.09998-6.62012-2.70001-1.90991-5.84998-3.20996-9.27002-3.69995-1-.15002-2.02997-.21997-3.07001-.21997H21.42004c-1.12,0-2.21002.08997-3.28003.25C8.95001,1.67358,1.67004,8.95361.25006,18.14355.09003,19.21362.00006,20.3136.00006,21.42358v122.15002c0,1.04004.07001,2.06995.22998,3.06995.47998,3.42004,1.77997,6.58008,3.69,9.28003,1.75,2.46997,4.01001,4.56006,6.62,6.1001,2.96002,1.76001,6.37,2.81995,10.02002,2.95996.27997.01001.57001.02002.85999.02002h122.15997c2.23004,0,4.39001-.34009,6.41003-.97998,6.65997-2.1001,11.92999-7.37012,14.02997-14.03003.64001-2.03003.98004-4.19006.98004-6.42004V21.42358c0-.29004-.01001-.57996-.02002-.85999ZM153.00006,143.57361c0,5.20007-4.23004,9.43005-9.42004,9.43005H21.42004c-.58002,0-1.15002-.05005-1.70001-.16003-3.19-.57996-5.82001-2.77002-7.02002-5.70007-.44995-1.09985-.69995-2.30994-.69995-3.56995V21.42358c0-.80994.09998-1.59998.29999-2.34998v-.01001c.85999-3.30994,3.45996-5.91003,6.76001-6.76001h.01001c.75-.19995,1.53998-.29993,2.34998-.29993h122.15997c1.26001,0,2.46002.25,3.56.69995,2.93005,1.19995,5.12,3.83008,5.70001,7.02002.10999.55005.16003,1.12.16003,1.69995v122.15002Z"/>
        <g>
          <path class="cls-3" d="M18.14001.25366L.25006,18.14355C1.67004,8.95361,8.95001,1.67358,18.14001.25366Z"/>
          <g>
            <path class="cls-3" d="M.00006,31.36365l12.29999-12.29004c-.20001.75-.29999,1.54004-.29999,2.34998v10.67004L.00006,44.09363v-12.72998Z"/>
            <path class="cls-3" d="M44.09003.00366l-12,12h-10.66998c-.81,0-1.59998.09998-2.34998.29993L31.36005.00366h12.72998Z"/>
          </g>
          <g>
            <polygon class="cls-3" points=".00006 57.05359 12.00006 45.05359 12.00006 57.7937 .00006 69.7937 .00006 57.05359"/>
            <polygon class="cls-3" points="69.78003 .00366 57.78003 12.00366 45.06006 12.00366 57.06006 .00366 69.78003 .00366"/>
          </g>
          <g>
            <polygon class="cls-3" points=".00006 82.75366 12.00006 70.75366 12.00006 83.48364 .00006 95.48364 .00006 82.75366"/>
            <polygon class="cls-3" points="95.48004 .00366 83.48004 12.00366 70.75006 12.00366 82.75006 .00366 95.48004 .00366"/>
          </g>
          <g>
            <polygon class="cls-3" points=".00006 108.4436 12.00006 96.4436 12.00006 109.17358 .00006 121.17358 .00006 108.4436"/>
            <polygon class="cls-3" points="121.18005 .00366 109.18005 12.00366 96.44006 12.00366 108.44006 .00366 121.18005 .00366"/>
          </g>
          <g>
            <path class="cls-3" d="M.00006,134.14355l12-12v12.72998L.23004,146.64355C.07007,145.64355.00006,144.61365.00006,143.57361v-9.43005Z"/>
            <path class="cls-3" d="M146.65002.22363l-11.77997,11.78003h-12.73004L134.14001.00366h9.44c1.04004,0,2.07001.06995,3.07001.21997Z"/>
          </g>
          <g>
            <path class="cls-3" d="M19.72003,152.84363l-9.17999,9.18005c-2.60999-1.54004-4.87-3.63013-6.62-6.1001l8.77997-8.78003c1.20001,2.93005,3.83002,5.12012,7.02002,5.70007Z"/>
            <path class="cls-3" d="M162.02002,10.5437l-9.17999,9.17993c-.58002-3.18994-2.76996-5.82007-5.70001-7.02002l8.78003-8.78003c2.46997,1.75,4.56,4.01001,6.09998,6.62012Z"/>
          </g>
          <g>
            <path class="cls-3" d="M32.54004,153.00366h12.71997l-12,12h-11.83997c-.28998,0-.58002-.01001-.85999-.02002l11.97998-11.97998Z"/>
            <path class="cls-3" d="M165.00006,21.42358v11.84009l-12,12v-12.71997l11.97998-11.9801c.01001.28003.02002.56995.02002.85999Z"/>
          </g>
          <g>
            <polygon class="cls-3" points="58.22003 153.00366 70.96002 153.00366 58.96002 165.00366 46.22003 165.00366 58.22003 153.00366"/>
            <polygon class="cls-3" points="165.00006 46.23364 165.00006 58.96362 153.00006 70.96362 153.00006 58.23364 165.00006 46.23364"/>
          </g>
          <g>
            <polygon class="cls-3" points="83.92004 153.00366 96.65002 153.00366 84.65002 165.00366 71.92004 165.00366 83.92004 153.00366"/>
            <polygon class="cls-3" points="165.00006 71.92358 165.00006 84.65356 153.00006 96.65356 153.00006 83.92358 165.00006 71.92358"/>
          </g>
          <g>
            <polygon class="cls-3" points="109.62006 153.00366 122.34003 153.00366 110.34003 165.00366 97.62006 165.00366 109.62006 153.00366"/>
            <polygon class="cls-3" points="165.00006 97.62354 165.00006 110.34363 153.00006 122.34363 153.00006 109.62354 165.00006 97.62354"/>
          </g>
          <path class="cls-3" d="M165.00006,123.3136v12.7301l-28.96002,28.95996h-12.72998l12-12h8.26996c5.19,0,9.42004-4.22998,9.42004-9.43005v-8.26001l12-12Z"/>
          <path class="cls-3" d="M164.02002,149.99365c-2.09998,6.65991-7.37,11.92993-14.02997,14.03003l14.02997-14.03003Z"/>
        </g>
      </g>
    </g>
  </g>
</svg>