<?xml version="1.0" encoding="UTF-8"?>
<svg id="Layer_2" data-name="Layer 2" xmlns="http://www.w3.org/2000/svg" viewBox="0 0 634.61 140.31">
  <defs>
    <style>
      .cls-1, .cls-2 {
        fill: #ff37ce;
      }

      .cls-3 {
        stroke: #ff5e16;
      }

      .cls-3, .cls-4, .cls-5, .cls-6, .cls-7, .cls-8, .cls-9, .cls-10, .cls-11, .cls-12 {
        fill: none;
      }

      .cls-3, .cls-4, .cls-5, .cls-6, .cls-7, .cls-9, .cls-10, .cls-12 {
        stroke-linecap: round;
      }

      .cls-3, .cls-5, .cls-8 {
        stroke-width: 3px;
      }

      .cls-3, .cls-10 {
        stroke-linejoin: round;
      }

      .cls-4, .cls-5, .cls-6, .cls-7, .cls-13, .cls-8, .cls-9, .cls-11, .cls-12, .cls-2 {
        stroke-miterlimit: 10;
      }

      .cls-4, .cls-7, .cls-9, .cls-11 {
        stroke-width: 6px;
      }

      .cls-4, .cls-8 {
        stroke: #ffe100;
      }

      .cls-5 {
        stroke: #20d5f2;
      }

      .cls-6, .cls-9 {
        stroke: #ff37ce;
      }

      .cls-6, .cls-10 {
        stroke-width: 5px;
      }

      .cls-14 {
        fill: #fff;
      }

      .cls-15, .cls-13 {
        fill: #20d5f2;
      }

      .cls-7, .cls-11, .cls-12 {
        stroke: #6c47dc;
      }

      .cls-13, .cls-2 {
        stroke: #000;
        stroke-width: 2px;
      }

      .cls-10 {
        stroke: #fff;
      }

      .cls-12 {
        stroke-width: 4px;
      }

      .cls-16 {
        fill: #ffe100;
      }

      .cls-17 {
        fill: #ff5e16;
      }
    </style>
  </defs>
  <g id="Design">
    <g>
      <g>
        <path class="cls-2" d="M31.13,107.12c-5.74-.19-9.71-.48-11.91-.86-6.6-.86-10.91-3.92-12.92-9.19-.67-2.01-.86-4.07-.57-6.17,1.05-5.55,4.54-9.14,10.48-10.76,1.24-.48,3.06-.81,5.45-1l.72-.14v-.72c0-2.3-.05-4.54-.14-6.75-.1-5.45-.14-12.68-.14-21.67s.09-14.11.29-15.36l.14-.43h-1.72c-3.35-.29-5.74-.76-7.18-1.44-3.16-1.44-5.26-4.11-6.31-8.04-.57-2.01-.67-3.92-.29-5.74.76-4.78,3.44-8.23,8.04-10.33,4.21-2.01,10.52-3.06,18.94-3.16,9.19-.19,16.36.62,21.53,2.44,4.4,1.53,7.41,3.78,9.04,6.75,1.34,2.3,1.87,4.74,1.58,7.32-.77,6.79-5.6,10.86-14.5,12.2l-1.58.14v3.44c0,1.82-.1,5.98-.29,12.49,0,5.55-.1,11.1-.29,16.65,0,1.72-.02,3.76-.07,6.1-.05,2.35-.07,3.57-.07,3.66v2.01l.43.14c4.31.96,7.56,2.25,9.76,3.88,4.4,3.06,6.36,7.13,5.88,12.2-.77,5.55-3.92,9.19-9.47,10.91-3.92,1.24-12.2,1.72-24.83,1.44Z"/>
        <path class="cls-2" d="M121.1,106.54c-3.16-.57-5.74-1.96-7.75-4.16-2.68-2.58-4.45-6.55-5.31-11.91-.38-2.96-.38-7.56,0-13.78.09-1.72.17-3.8.22-6.24.05-2.44.02-3.99-.07-4.66-.48-3.06-1.24-5.02-2.3-5.88-.29-.29-.62-.43-1-.43-1.05,0-1.58.86-1.58,2.58.38,4.69.09,11.53-.86,20.52-.1.29-.24,1.68-.43,4.16-.67,6.03-1.82,10.33-3.44,12.92-2.3,3.35-5.31,5.45-9.04,6.32-1.82.48-3.73.52-5.74.14-2.01-.57-3.92-1.67-5.74-3.3-3.25-2.96-5.26-8.61-6.03-16.94-.19-1.63-.29-4.93-.29-9.9s.05-8.71.14-11.2c.29-8.42.91-14.88,1.87-19.38.96-4.21,2.49-7.46,4.59-9.76,1.91-1.91,4.16-3.16,6.75-3.73.86-.09,2.1-.14,3.73-.14,3.06.1,5.45.72,7.18,1.87,1.82,1.24,2.73,2.11,2.73,2.58,0,.19.33,0,1-.57,3.06-2.2,7.41-3.39,13.06-3.59,6.41-.29,11.86,1.68,16.36,5.88l.86.86.86-.86c3.35-2.96,7.41-4.93,12.2-5.88,7.46-1.63,14.11,0,19.95,4.88,6.31,5.26,10.09,13.35,11.34,24.25.48,3.92.72,9.07.72,15.43s-.24,11.32-.72,14.85c-.38,2.78-1,5.07-1.87,6.89-1.72,3.44-4.69,5.88-8.9,7.32-6.6,2.2-11.91,1.29-15.93-2.73-2.49-2.49-4.02-6.12-4.59-10.91-.38-2.68-.38-6.94,0-12.77.48-9.38,0-15.31-1.44-17.8-.57-.95-1.2-1.55-1.87-1.79-.67-.24-1.15-.02-1.44.65-.19.29-.24.91-.14,1.87.29,3.16.43,8.18.43,15.07s-.19,12.06-.57,14.64c-1.15,7.56-4.59,12.25-10.33,14.07-2.39.76-4.59.95-6.6.57Z"/>
        <path class="cls-2" d="M236.16,105.82c-3.06-.48-5.6-1.53-7.61-3.16l-.72-.57-.86.29c-3.44,1.15-7.03,1.72-10.76,1.72-4.88.19-9.38-.62-13.49-2.44-11.67-5.07-18.32-14.93-19.95-29.56-.1-.86-.14-2.3-.14-4.31s.05-3.44.14-4.31c.67-4.88,2.01-9.38,4.02-13.49,2.3-4.5,5.31-8.27,9.04-11.34,4.31-3.73,9.38-6.22,15.21-7.46,2.96-.76,6.36-.96,10.19-.57,2.68.29,5.36,1.05,8.04,2.3.19.1.43.19.72.29.19.1.38.14.57.14l.14.14c.19-.19.43-.33.72-.43,2.3-1.82,5.36-2.63,9.19-2.44,4.88.29,8.51,2.3,10.91,6.03.86,1.05,1.53,2.49,2.01,4.31.38,1.05.86,3.73,1.44,8.04,1.44,10.91,1.39,22.77-.14,35.59-.77,5.45-1.68,9.57-2.73,12.34-.96,2.2-1.82,3.73-2.58,4.59-1.72,2.11-3.97,3.49-6.75,4.16-.57.09-1.63.17-3.16.22-1.53.05-2.68.02-3.44-.07ZM222.28,76.53c.75,0,1.13-.15,1.13-.45.45-.45.75-4.45.91-12.01.15-4.38.07-6.8-.23-7.25-.45-1.06-1.51-1.59-3.17-1.59-2.27,0-4.38.76-6.34,2.27-1.96,1.51-3.32,3.48-4.08,5.89-.91,2.72-.98,5.14-.23,7.25,1.21,3.48,3.25,5.44,6.12,5.89.45.15,1.43.23,2.95.23s2.49-.07,2.95-.23Z"/>
        <path class="cls-2" d="M298.8,139.26c-5.93-.48-11.15-2.11-15.64-4.88-4.5-2.78-7.56-6.22-9.19-10.33-1.05-2.49-1.48-4.79-1.29-6.89,0-1.34.38-2.87,1.15-4.59,1.15-3.06,3.39-5.36,6.75-6.89,2.3-1.05,4.69-1.44,7.18-1.15,2.68.38,5.31,1.44,7.89,3.16,2.39,1.53,4.26,2.25,5.6,2.15,2.68-.19,4.4-1.96,5.17-5.31l.14-1.58c-.77.38-2.63.81-5.6,1.29-4.02.48-7.18.48-9.47,0-6.51-.96-12.15-3.78-16.94-8.47-7.56-7.56-11.19-17.41-10.91-29.56.1-5.93,1.44-11.53,4.02-16.79,2.68-5.36,6.41-9.71,11.19-13.06,6.12-4.11,13.25-5.93,21.38-5.45,3.63.29,6.98,1.15,10.05,2.58l1.29.57,1-.72c2.77-1.91,6.07-2.92,9.9-3.01,3.83-.09,7.18.72,10.05,2.44,2.96,1.92,4.83,4.59,5.6,8.04l.43,2.15c.57,2.3.91,9.43,1,21.38.09,11.77,0,19.76-.29,23.97,0,.19-.02.55-.07,1.08-.05.53-.12,1.2-.21,2.01-.1.81-.14,1.56-.14,2.22-.48,7.56-1.34,13.68-2.58,18.37-1.24,4.69-3.21,9.04-5.88,13.06-1.91,2.96-3.83,5.21-5.74,6.75-4.5,3.92-10.48,6.36-17.94,7.32-3.64.19-6.27.24-7.89.14ZM304.77,79.92c1.55-.51,2.51-1.29,2.9-2.32.39-.77.39-4.19,0-10.25-.26-6.06-.58-9.54-.97-10.44-.9-2.19-2.48-3.32-4.74-3.38-2.26-.06-4.42.94-6.48,3-1.29,1.29-2.32,3.09-3.09,5.41-.26,1.55-.39,2.9-.39,4.06,0,1.55.19,3.09.58,4.64,1.67,6.32,4.9,9.47,9.67,9.47,1.16,0,2-.06,2.51-.19Z"/>
        <path class="cls-2" d="M378.93,107.26c-4.88-.38-8.9-1.34-12.06-2.87-4.11-1.91-7.73-4.97-10.84-9.19-3.11-4.21-5.33-9.14-6.67-14.78-.67-2.96-1.05-5.98-1.15-9.04-.29-7.46,1.34-14.64,4.88-21.53,4.69-9.19,11.53-14.69,20.52-16.51,5.07-1.05,10.81-1.1,17.22-.14,5.26.77,9.81,2.68,13.63,5.74,2.1,1.82,3.59,3.3,4.45,4.45,4.69,5.74,7.56,12.82,8.61,21.24.57,3.44.57,7.03,0,10.76-.38,3.54-1.34,7.23-2.87,11.05-4.02,10.33-10.57,16.84-19.66,19.52-2.68.86-6.41,1.29-11.2,1.29-2.87.19-4.5.19-4.88,0ZM385.01,82.62c3.32-1.43,5.58-4.47,6.75-9.11.78-2.38.78-4.58,0-6.61-1.17-5-3.42-8.16-6.75-9.47-1.57-.59-3.04-.59-4.4,0-3.13,1.43-5.48,4.77-7.04,10.01-.98,3.93.1,7.98,3.23,12.15,1.76,1.79,3.23,2.86,4.4,3.22,1.17.36,2.44.3,3.81-.18Z"/>
        <path class="cls-13" d="M440.9,108.26c-4.88-.86-8.52-3.73-10.91-8.61-2.3-4.5-3.4-13.59-3.3-27.27.19-12.44.57-23.82,1.15-34.16.57-8.51,1.58-14.83,3.01-18.94,1.43-4.11,3.68-7.03,6.75-8.75,2.1-1.24,4.59-2.06,7.46-2.44.29,0,.88-.09,1.79-.29.91-.19,1.51-.29,1.79-.29,3.06-.57,5.74-.91,8.04-1,5.17-.09,10.43.62,15.79,2.15.19.1.86.34,2.01.72,3.16.77,6.5,2.54,10.05,5.31,2.87,2.2,5.31,4.79,7.32,7.75,3.35,5.26,4.97,11.29,4.88,18.08-.29,8.32-2.54,15.36-6.75,21.1-.29.57-.67,1.1-1.15,1.58l-.57.43.86,1.15c3.16,4.98,5.26,11.2,6.31,18.66.76,5.93.09,11-2.01,15.21-1.63,3.35-4.11,5.88-7.46,7.61-3.92,1.91-7.99,2.44-12.2,1.58-4.4-1.05-7.32-3.92-8.75-8.61-.67-1.82-1.15-4.78-1.44-8.9-.19-3.44-.62-5.98-1.29-7.61-.29-.86-.86-1.82-1.72-2.87-.67-.67-1.1-.91-1.29-.72,0,.77-.05,1.58-.14,2.44-.29,7.66-1.2,13.4-2.73,17.22-2.78,6.6-7.18,9.81-13.2,9.62-1.24,0-2.01-.05-2.3-.14ZM462.35,55.28c6.3-2.54,9.73-6.94,10.28-13.21.27-2.35-.28-4.79-1.65-7.34-1.38-2.15-3.5-3.76-6.37-4.84-2.88-1.07-5.42-1.22-7.61-.44-1.92.98-3.29,2.05-4.11,3.23-.28.78-.28,2.64,0,5.58.27.98.47,2.64.62,4.99.13,2.35.21,4.01.21,4.99,0,3.33.27,5.43.82,6.31.55.88,1.78,1.32,3.7,1.32.55,0,1.91-.19,4.11-.59Z"/>
        <path class="cls-13" d="M539.91,106.54c-7.66-.77-14.45-3.06-20.38-6.89-5.84-3.83-10.24-9.23-13.2-16.22-3.73-8.61-4.11-17.8-1.15-27.56,3.25-10.81,9.71-18.32,19.38-22.53,2.87-1.15,6.36-1.96,10.48-2.44,5.26-.67,10.28-.24,15.07,1.29,5.74,1.92,10.19,5.26,13.35,10.05,3.83,5.74,4.93,11.63,3.3,17.65-2.11,8.32-8.56,13.44-19.38,15.36-3.25.57-7.23.77-11.91.57l-1.29-.14.14.29c.29.57,1.05,1.34,2.3,2.3.09,0,.26.05.5.14.24.1.45.19.65.29.19.1.38.14.57.14.57.19,1.44.24,2.58.14,1.15,0,3.4-.43,6.75-1.29,3.73-1.05,6.7-1.48,8.9-1.29,3.73.57,6.7,2.49,8.9,5.74.67,1.24,1.29,2.87,1.87,4.88.48,2.3.52,4.4.14,6.31-1.63,7.75-7.75,12.2-18.37,13.35-.86.09-2.35.12-4.45.07-2.11-.05-3.68-.12-4.74-.22ZM543.82,58.13c3.4-4,4.4-6.52,3.4-8-2.91-4.33-7.48-7.31-12.22-5.59-2.87,1.04-6.58,4.86-7.64,8.18-2.89,8.99,13.04,9.43,16.46,5.41Z"/>
        <path class="cls-13" d="M599.8,105.68c-3.25-.38-6.03-1.82-8.32-4.31-3.44-3.63-5.55-9.76-6.31-18.37l-.14-1.72-1.15-.43c-3.92-1.34-6.84-3.68-8.75-7.03-1.15-2.3-1.72-4.69-1.72-7.18,0-1.53.24-3.01.72-4.45,1.44-4.02,4.69-6.6,9.76-7.75.67-.09,1-.29,1-.57v-.29c0-.19.02-.38.07-.57.05-.19.07-.43.07-.72v-.86c.19-5.17.57-10,1.15-14.5,1.24-8.9,3.4-15.69,6.46-20.38,2.87-4.31,6.94-7.37,12.2-9.19,3.44-1.05,6.98-1.58,10.62-1.58,3.83,0,6.89.57,9.19,1.72,2.2,1.05,4.11,2.68,5.74,4.88,1.63,2.2,2.68,4.55,3.16,7.03.19,2.01.05,3.83-.43,5.45-.57,1.92-1.58,3.54-3.01,4.88-1.24,1.24-3.3,2.58-6.17,4.02l-2.15,1.08c-.86.43-1.34.7-1.44.79-1.91,1.44-3.21,4.02-3.87,7.75-.19.96-.29,2.92-.29,5.88s.05,4.45.14,4.45c3.73,1.15,6.65,2.63,8.75,4.45,2.49,2.01,3.92,4.43,4.31,7.25.38,2.82-.34,5.62-2.15,8.4-1.72,2.49-4.45,4.55-8.18,6.17l-1.29.57-.14,3.16c0,6.51-1.05,11.43-3.16,14.78-2.01,3.64-4.98,5.98-8.9,7.03-2.01.48-3.92.52-5.74.14Z"/>
      </g>
      <g>
        <path d="M25.53,103.92c-5.74-.19-9.71-.48-11.91-.86-6.6-.86-10.91-3.92-12.92-9.19-.67-2.01-.86-4.07-.57-6.17,1.05-5.55,4.54-9.14,10.48-10.76,1.24-.48,3.06-.81,5.45-1l.72-.14v-.72c0-2.3-.05-4.54-.14-6.75-.1-5.45-.14-12.68-.14-21.67s.09-14.11.29-15.36l.14-.43h-1.72c-3.35-.29-5.74-.76-7.18-1.44-3.16-1.44-5.26-4.11-6.31-8.04-.57-2.01-.67-3.92-.29-5.74.76-4.78,3.44-8.23,8.04-10.33,4.21-2.01,10.52-3.06,18.94-3.16,9.19-.19,16.36.62,21.53,2.44,4.4,1.53,7.41,3.78,9.04,6.75,1.34,2.3,1.87,4.74,1.58,7.32-.77,6.79-5.6,10.86-14.5,12.2l-1.58.14v3.44c0,1.82-.1,5.98-.29,12.49,0,5.55-.1,11.1-.29,16.65,0,1.72-.02,3.76-.07,6.1-.05,2.35-.07,3.57-.07,3.66v2.01l.43.14c4.31.96,7.56,2.25,9.76,3.88,4.4,3.06,6.36,7.13,5.88,12.2-.77,5.55-3.92,9.19-9.47,10.91-3.92,1.24-12.2,1.72-24.83,1.44Z"/>
        <path d="M115.5,103.34c-3.16-.57-5.74-1.96-7.75-4.16-2.68-2.58-4.45-6.55-5.31-11.91-.38-2.96-.38-7.56,0-13.78.09-1.72.17-3.8.22-6.24.05-2.44.02-3.99-.07-4.66-.48-3.06-1.24-5.02-2.3-5.88-.29-.29-.62-.43-1-.43-1.05,0-1.58.86-1.58,2.58.38,4.69.09,11.53-.86,20.52-.1.29-.24,1.68-.43,4.16-.67,6.03-1.82,10.33-3.44,12.92-2.3,3.35-5.31,5.45-9.04,6.32-1.82.48-3.73.52-5.74.14-2.01-.57-3.92-1.67-5.74-3.3-3.25-2.96-5.26-8.61-6.03-16.94-.19-1.63-.29-4.93-.29-9.9s.05-8.71.14-11.2c.29-8.42.91-14.88,1.87-19.38.96-4.21,2.49-7.46,4.59-9.76,1.91-1.91,4.16-3.16,6.75-3.73.86-.09,2.1-.14,3.73-.14,3.06.1,5.45.72,7.18,1.87,1.82,1.24,2.73,2.11,2.73,2.58,0,.19.33,0,1-.57,3.06-2.2,7.41-3.39,13.06-3.59,6.41-.29,11.86,1.68,16.36,5.88l.86.86.86-.86c3.35-2.96,7.41-4.93,12.2-5.88,7.46-1.63,14.11,0,19.95,4.88,6.31,5.26,10.09,13.35,11.34,24.25.48,3.92.72,9.07.72,15.43s-.24,11.32-.72,14.85c-.38,2.78-1,5.07-1.87,6.89-1.72,3.44-4.69,5.88-8.9,7.32-6.6,2.2-11.91,1.29-15.93-2.73-2.49-2.49-4.02-6.12-4.59-10.91-.38-2.68-.38-6.94,0-12.77.48-9.38,0-15.31-1.44-17.8-.57-.95-1.2-1.55-1.87-1.79-.67-.24-1.15-.02-1.44.65-.19.29-.24.91-.14,1.87.29,3.16.43,8.18.43,15.07s-.19,12.06-.57,14.64c-1.15,7.56-4.59,12.25-10.33,14.07-2.39.76-4.59.95-6.6.57Z"/>
        <path d="M230.56,102.63c-3.06-.48-5.6-1.53-7.61-3.16l-.72-.57-.86.29c-3.44,1.15-7.03,1.72-10.76,1.72-4.88.19-9.38-.62-13.49-2.44-11.67-5.07-18.32-14.93-19.95-29.56-.1-.86-.14-2.3-.14-4.31s.05-3.44.14-4.31c.67-4.88,2.01-9.38,4.02-13.49,2.3-4.5,5.31-8.27,9.04-11.34,4.31-3.73,9.38-6.22,15.21-7.46,2.96-.76,6.36-.96,10.19-.57,2.68.29,5.36,1.05,8.04,2.3.19.1.43.19.72.29.19.1.38.14.57.14l.14.14c.19-.19.43-.33.72-.43,2.3-1.82,5.36-2.63,9.19-2.44,4.88.29,8.51,2.3,10.91,6.03.86,1.05,1.53,2.49,2.01,4.31.38,1.05.86,3.73,1.44,8.04,1.44,10.91,1.39,22.77-.14,35.59-.77,5.45-1.68,9.57-2.73,12.34-.96,2.2-1.82,3.73-2.58,4.59-1.72,2.11-3.97,3.49-6.75,4.16-.57.09-1.63.17-3.16.22-1.53.05-2.68.02-3.44-.07ZM216.68,73.34c.75,0,1.13-.15,1.13-.45.45-.45.75-4.45.91-12.01.15-4.38.07-6.8-.23-7.25-.45-1.06-1.51-1.59-3.17-1.59-2.27,0-4.38.76-6.34,2.27-1.96,1.51-3.32,3.48-4.08,5.89-.91,2.72-.98,5.14-.23,7.25,1.21,3.48,3.25,5.44,6.12,5.89.45.15,1.43.23,2.95.23s2.49-.07,2.95-.23Z"/>
        <path d="M293.21,136.07c-5.93-.48-11.15-2.11-15.64-4.88-4.5-2.78-7.56-6.22-9.19-10.33-1.05-2.49-1.48-4.79-1.29-6.89,0-1.34.38-2.87,1.15-4.59,1.15-3.06,3.39-5.36,6.75-6.89,2.3-1.05,4.69-1.44,7.18-1.15,2.68.38,5.31,1.44,7.89,3.16,2.39,1.53,4.26,2.25,5.6,2.15,2.68-.19,4.4-1.96,5.17-5.31l.14-1.58c-.77.38-2.63.81-5.6,1.29-4.02.48-7.18.48-9.47,0-6.51-.96-12.15-3.78-16.94-8.47-7.56-7.56-11.19-17.41-10.91-29.56.1-5.93,1.44-11.53,4.02-16.79,2.68-5.36,6.41-9.71,11.19-13.06,6.12-4.11,13.25-5.93,21.38-5.45,3.63.29,6.98,1.15,10.05,2.58l1.29.57,1-.72c2.77-1.91,6.07-2.92,9.9-3.01,3.83-.09,7.18.72,10.05,2.44,2.96,1.92,4.83,4.59,5.6,8.04l.43,2.15c.57,2.3.91,9.43,1,21.38.09,11.77,0,19.76-.29,23.97,0,.19-.02.55-.07,1.08-.05.53-.12,1.2-.21,2.01-.1.81-.14,1.56-.14,2.22-.48,7.56-1.34,13.68-2.58,18.37-1.24,4.69-3.21,9.04-5.88,13.06-1.91,2.96-3.83,5.21-5.74,6.75-4.5,3.92-10.48,6.36-17.94,7.32-3.64.19-6.27.24-7.89.14ZM299.18,76.72c1.55-.51,2.51-1.29,2.9-2.32.39-.77.39-4.19,0-10.25-.26-6.06-.58-9.54-.97-10.44-.9-2.19-2.48-3.32-4.74-3.38-2.26-.06-4.42.94-6.48,3-1.29,1.29-2.32,3.09-3.09,5.41-.26,1.55-.39,2.9-.39,4.06,0,1.55.19,3.09.58,4.64,1.67,6.32,4.9,9.47,9.67,9.47,1.16,0,2-.06,2.51-.19Z"/>
        <path d="M373.33,104.06c-4.88-.38-8.9-1.34-12.06-2.87-4.11-1.91-7.73-4.97-10.84-9.19-3.11-4.21-5.33-9.14-6.67-14.78-.67-2.96-1.05-5.98-1.15-9.04-.29-7.46,1.34-14.64,4.88-21.53,4.69-9.19,11.53-14.69,20.52-16.51,5.07-1.05,10.81-1.1,17.22-.14,5.26.77,9.81,2.68,13.63,5.74,2.1,1.82,3.59,3.3,4.45,4.45,4.69,5.74,7.56,12.82,8.61,21.24.57,3.44.57,7.03,0,10.76-.38,3.54-1.34,7.23-2.87,11.05-4.02,10.33-10.57,16.84-19.66,19.52-2.68.86-6.41,1.29-11.2,1.29-2.87.19-4.5.19-4.88,0ZM379.41,79.42c3.32-1.43,5.58-4.47,6.75-9.11.78-2.38.78-4.58,0-6.61-1.17-5-3.42-8.16-6.75-9.47-1.57-.59-3.04-.59-4.4,0-3.13,1.43-5.48,4.77-7.04,10.01-.98,3.93.1,7.98,3.23,12.15,1.76,1.79,3.23,2.86,4.4,3.22,1.17.36,2.44.3,3.81-.18Z"/>
        <path d="M435.3,105.07c-4.88-.86-8.52-3.73-10.91-8.61-2.3-4.5-3.4-13.59-3.3-27.27.19-12.44.57-23.82,1.15-34.16.57-8.51,1.58-14.83,3.01-18.94,1.43-4.11,3.68-7.03,6.75-8.75,2.1-1.24,4.59-2.06,7.46-2.44.29,0,.88-.09,1.79-.29.91-.19,1.51-.29,1.79-.29,3.06-.57,5.74-.91,8.04-1,5.17-.09,10.43.62,15.79,2.15.19.1.86.34,2.01.72,3.16.77,6.5,2.54,10.05,5.31,2.87,2.2,5.31,4.79,7.32,7.75,3.35,5.26,4.97,11.29,4.88,18.08-.29,8.32-2.54,15.36-6.75,21.1-.29.57-.67,1.1-1.15,1.58l-.57.43.86,1.15c3.16,4.98,5.26,11.2,6.31,18.66.76,5.93.09,11-2.01,15.21-1.63,3.35-4.11,5.88-7.46,7.61-3.92,1.91-7.99,2.44-12.2,1.58-4.4-1.05-7.32-3.92-8.75-8.61-.67-1.82-1.15-4.78-1.44-8.9-.19-3.44-.62-5.98-1.29-7.61-.29-.86-.86-1.82-1.72-2.87-.67-.67-1.1-.91-1.29-.72,0,.77-.05,1.58-.14,2.44-.29,7.66-1.2,13.4-2.73,17.22-2.78,6.6-7.18,9.81-13.2,9.62-1.24,0-2.01-.05-2.3-.14ZM456.75,52.08c6.3-2.54,9.73-6.94,10.28-13.21.27-2.35-.28-4.79-1.65-7.34-1.38-2.15-3.5-3.76-6.37-4.84-2.88-1.07-5.42-1.22-7.61-.44-1.92.98-3.29,2.05-4.11,3.23-.28.78-.28,2.64,0,5.58.27.98.47,2.64.62,4.99.13,2.35.21,4.01.21,4.99,0,3.33.27,5.43.82,6.31.55.88,1.78,1.32,3.7,1.32.55,0,1.91-.19,4.11-.59Z"/>
        <path d="M534.32,103.34c-7.66-.77-14.45-3.06-20.38-6.89-5.84-3.83-10.24-9.23-13.2-16.22-3.73-8.61-4.11-17.8-1.15-27.56,3.25-10.81,9.71-18.32,19.38-22.53,2.87-1.15,6.36-1.96,10.48-2.44,5.26-.67,10.28-.24,15.07,1.29,5.74,1.92,10.19,5.26,13.35,10.05,3.83,5.74,4.93,11.63,3.3,17.65-2.11,8.32-8.56,13.44-19.38,15.36-3.25.57-7.23.77-11.91.57l-1.29-.14.14.29c.29.57,1.05,1.34,2.3,2.3.09,0,.26.05.5.14.24.1.45.19.65.29.19.1.38.14.57.14.57.19,1.44.24,2.58.14,1.15,0,3.4-.43,6.75-1.29,3.73-1.05,6.7-1.48,8.9-1.29,3.73.57,6.7,2.49,8.9,5.74.67,1.24,1.29,2.87,1.87,4.88.48,2.3.52,4.4.14,6.31-1.63,7.75-7.75,12.2-18.37,13.35-.86.09-2.35.12-4.45.07-2.11-.05-3.68-.12-4.74-.22ZM538.23,54.94c3.4-4,4.4-6.52,3.4-8-2.91-4.33-7.48-7.31-12.22-5.59-2.87,1.04-6.58,4.86-7.64,8.18-2.89,8.99,13.04,9.43,16.46,5.41Z"/>
        <path d="M594.21,102.48c-3.25-.38-6.03-1.82-8.32-4.31-3.44-3.63-5.55-9.76-6.31-18.37l-.14-1.72-1.15-.43c-3.92-1.34-6.84-3.68-8.75-7.03-1.15-2.3-1.72-4.69-1.72-7.18,0-1.53.24-3.01.72-4.45,1.44-4.02,4.69-6.6,9.76-7.75.67-.09,1-.29,1-.57v-.29c0-.19.02-.38.07-.57.05-.19.07-.43.07-.72v-.86c.19-5.17.57-10,1.15-14.5,1.24-8.9,3.4-15.69,6.46-20.38,2.87-4.31,6.94-7.37,12.2-9.19,3.44-1.05,6.98-1.58,10.62-1.58,3.83,0,6.89.57,9.19,1.72,2.2,1.05,4.11,2.68,5.74,4.88,1.63,2.2,2.68,4.55,3.16,7.03.19,2.01.05,3.83-.43,5.45-.57,1.92-1.58,3.54-3.01,4.88-1.24,1.24-3.3,2.58-6.17,4.02l-2.15,1.08c-.86.43-1.34.7-1.44.79-1.91,1.44-3.21,4.02-3.87,7.75-.19.96-.29,2.92-.29,5.88s.05,4.45.14,4.45c3.73,1.15,6.65,2.63,8.75,4.45,2.49,2.01,3.92,4.43,4.31,7.25.38,2.82-.34,5.62-2.15,8.4-1.72,2.49-4.45,4.55-8.18,6.17l-1.29.57-.14,3.16c0,6.51-1.05,11.43-3.16,14.78-2.01,3.64-4.98,5.98-8.9,7.03-2.01.48-3.92.52-5.74.14Z"/>
      </g>
      <path class="cls-17" d="M48.36,32.52c-.77,0-1.53-.29-2.12-.88l-5.08-5.08c-1.17-1.17-1.17-3.06,0-4.23s3.06-1.17,4.23,0l2.96,2.96,13.12-13.12c1.17-1.17,3.06-1.17,4.23,0s1.17,3.06,0,4.23l-15.24,15.24c-.58.58-1.35.88-2.12.88Z"/>
      <path class="cls-1" d="M600.31,65.93c-.13-.75.03-1.56.5-2.24l4.14-5.87c.95-1.35,2.82-1.68,4.17-.72s1.67,2.82.72,4.17l-2.41,3.43,15.17,10.69c1.35.95,1.68,2.82.72,4.17s-2.82,1.68-4.17.72l-17.62-12.41c-.68-.48-1.09-1.18-1.23-1.94Z"/>
      <path class="cls-16" d="M46.19,80.26l1.81,10.42c.45,2.62,3.55,3.79,5.62,2.13l7.96-6.38c2.07-1.66,1.61-4.94-.85-5.95l-9.77-4.04c-2.54-1.05-5.24,1.11-4.77,3.82Z"/>
      <path class="cls-17" d="M480.48,83.2l-9.92,8.97c-1.97,1.78-1.31,5.03,1.2,5.89l12.21,4.21c2.51.87,5.03-1.28,4.58-3.9l-2.29-13.18c-.47-2.71-3.74-3.84-5.78-1.99Z"/>
      <circle class="cls-14" cx="149.86" cy="42.41" r="4.79"/>
      <circle class="cls-14" cx="556.45" cy="94.16" r="6.9"/>
      <path class="cls-5" d="M267.84,75.41c-.52-1.95,2.96-4.67,2.65-6.44-.35-2-4.53-3.45-4.62-5.23-.1-2.04,3.95-3.79,4.17-5.55.25-2.01-3.14-4.83-2.48-6.51.71-1.84,5.09-1.52,6.25-2.99s-.16-5.65,1.43-6.77c1.5-1.06,5.09,1.53,6.93.78,1.68-.69,2.29-5.06,4.23-5.51,1.78-.42,4.35,3.2,6.32,2.96,1.82-.22,3.42-4.34,5.39-4.41,1.84-.07,3.77,3.93,5.73,3.98"/>
      <path class="cls-12" d="M290.08,127.88c1.87-2.18,10.15,3.73,11.77,2.66,2.38-1.58.8-11.28,2.81-11.68,2.42-.48,7.72,8.83,9.94,7.8,1.73-.8-2.7-9.62-.91-12.1,1.13-1.56,10.87,1.48,12.07-1.11"/>
      <circle class="cls-8" cx="235.13" cy="41.89" r="4.71"/>
      <circle class="cls-11" cx="612.07" cy="13.25" r="5.04"/>
      <path class="cls-12" d="M433.95,88.11l-6.07-8.85c-.25-.36-.23-.84.05-1.18l8.7-10.78c.27-.34.29-.82.05-1.18l-8.51-12.38c-.27-.4-.22-.93.13-1.27l8.17-7.83c.39-.37.41-.98.04-1.38l-5.5-5.97"/>
      <path class="cls-6" d="M547.6,37.69c4.38,6.29,15.9,13.16,2.74,22.06"/>
      <path class="cls-7" d="M71.73,91.9c6.58,3.69,19.08,2.7,17.1-9.47"/>
      <path class="cls-4" d="M588.8,79.53c-4.28-8.22-8.55-9.52-9.87-10.68s-4.28-8.71,4.93-12.17c9.21-3.46,10.22-10.13,7.89-15.09"/>
      <path class="cls-15" d="M16.22,12.68c.49-1.21,3.4-2.02,7.25-2.9.44-.1.72-.54.62-.99l-.13-.56c-.1-.44-.54-.72-.99-.63-4.17.92-7.2,1.45-8.33.54-1.06-.85-1.21-3.67-1.23-7.33,0-.46-.37-.82-.83-.82h-.57c-.46,0-.83.37-.83.82-.02,3.66-.17,6.48-1.23,7.33-1.13.91-4.16.38-8.33-.54-.45-.1-.89.18-.99.63l-.13.56c-.1.44.18.89.62.99,3.85.88,6.76,1.68,7.25,2.9.54,1.32-1.28,4.39-3.82,8.32-.25.38-.14.89.24,1.14l.24.16s0,0,0,0c0,0,0,0,0,0l.24.16c.38.25.89.14,1.14-.24,2.49-3.8,4.5-6.63,5.86-6.63s3.37,2.83,5.86,6.63c.25.38.76.49,1.14.24l.48-.31c.38-.25.49-.76.24-1.14-2.53-3.92-4.35-7-3.82-8.32Z"/>
      <path class="cls-16" d="M369.29,98.51c.49-1.21,3.4-2.02,7.25-2.9.44-.1.72-.54.62-.99l-.13-.56c-.1-.44-.54-.72-.99-.63-4.17.92-7.2,1.45-8.33.54-1.06-.85-1.21-3.67-1.23-7.33,0-.46-.37-.82-.83-.82h-.57c-.46,0-.83.37-.83.82-.02,3.66-.17,6.48-1.23,7.33-1.13.91-4.16.38-8.33-.54-.45-.1-.89.18-.99.63l-.13.56c-.1.44.18.89.62.99,3.85.88,6.76,1.68,7.25,2.9.54,1.32-1.28,4.39-3.82,8.32-.25.38-.14.89.24,1.14l.24.16s0,0,0,0c0,0,0,0,0,0l.24.16c.38.25.89.14,1.14-.24,2.49-3.8,4.5-6.63,5.86-6.63s3.37,2.83,5.86,6.63c.25.38.76.49,1.14.24l.48-.31c.38-.25.49-.76.24-1.14-2.53-3.92-4.35-7-3.82-8.32Z"/>
      <path class="cls-9" d="M482.34,27.03c-6.99-16.17-18.21-4.06-19.65-7.1-4.12-8.64-13.54-11.55-21.61-3.15"/>
      <path class="cls-17" d="M234.33,93.63c-1.7.47-4.27,1.34-5.7.12-1.29-1.22-1.81-3.32-2.32-5.29-.89-3.7.26-4.64,3.64-5.77,2-.57,3.99-1.24,5.56-.51,1.24.72,1.74,2.33,2.21,3.65.45,1.44.98,3.37.74,4.73-.36,1.82-2.19,2.37-4.09,3.04h-.04Z"/>
      <path class="cls-16" d="M85.25,49.21c-2.21.61-5.56,1.74-7.41.16-1.67-1.59-2.35-4.31-3.02-6.88-1.15-4.81.33-6.04,4.74-7.5,2.6-.74,5.18-1.62,7.23-.66,1.62.94,2.26,3.03,2.87,4.75.59,1.88,1.27,4.38.97,6.15-.47,2.37-2.85,3.09-5.32,3.96l-.05.02Z"/>
      <path class="cls-15" d="M195.53,57.62c-.94.72-1.55-.88-1.81-1.62-.82-2.93-3.17-5.19-6.09-5.99-.3-.1-.57-.22-.82-.35-.99-.52-1.13-1.21-.14-1.8.24-.14.51-.27.81-.38,3.19-.87,5.48-3.15,6.35-6.34.22-.59.62-1.45,1.22-1.51.58-.03,1.06.91,1.27,1.49.86,3.17,3.15,5.48,6.32,6.34.34.12.66.27.92.44,1.33.85.18,1.66-.84,2.03-2.81.76-5.2,2.76-6.12,5.57-.23.7-.51,1.65-1.05,2.1h-.01Z"/>
      <path class="cls-10" d="M8.7,90.35c-.22-9.91,14.71-4.06,16.1-9.6.64-2.56-.52-6.39-.7-9-.26-3.78-.44-7.56-.54-11.35-.19-7.57-.03-15.15.48-22.71"/>
      <path class="cls-3" d="M154.77,97.87c.67.61,1.72.24,2.2-.53s.56-1.8.57-2.76c.03-2.87-.32-5.83-1.54-8.38s-3.43-4.62-5.93-4.9c-.33-.04-.69-.03-.94.21-.27.26-.32.71-.32,1.12-.02,4.35,3.63,8.38,7.42,8.17.47-.03.97-.12,1.31-.48.37-.38.48-.99.58-1.55.62-3.84.91-7.83.22-11.69s-2.48-7.63-5.33-9.91c-.65-.52-1.42-.97-2.18-.79-.95.23-1.5,1.44-1.46,2.56s.53,2.17,1.04,3.14c1.46,2.81,3.17,5.46,5.08,7.9,1.34,1.7,2.85,3.36,4.74,4.06.59.22,1.34.29,1.72-.25.2-.28.24-.65.28-1.01.84-8.24-1.09-16.91-5.33-23.83-.6-.98-1.27-1.96-2.2-2.51s-2.16-.56-2.86.28c-.74.88-.63,2.39-.04,3.44s1.56,1.75,2.52,2.35c1.35.85,2.76,1.59,4.2,2.21.53.23,1.14.45,1.65.19.54-.26.8-.95.99-1.59.55-1.87.84-3.84.87-5.83"/>
      <path class="cls-15" d="M378.32,41.49c-1.07,2.72,1.71,5.37,4.37,4.17,6.02-2.69,14.74-4.97,20.62.55,9.77,9.18-4.02-17.47-13.71-16.88-5.47.33-9.13,6.69-11.28,12.16Z"/>
      <circle class="cls-17" cx="601.52" cy="18.29" r="6.9"/>
    </g>
  </g>
</svg>