<?xml version="1.0" encoding="UTF-8"?>
<svg id="Layer_2" data-name="Layer 2" xmlns="http://www.w3.org/2000/svg" viewBox="0 0 109.89 149">
  <defs>
    <style>
      .cls-1 {
        fill: #ff37ce;
        stroke: #000;
        stroke-miterlimit: 10;
      }
    </style>
  </defs>
  <g id="Design">
    <path class="cls-1" d="M3.01,48.31L.51,4.5C.4,2.61,1.84,1,3.73.89l6.67-.38c1.89-.11,3.51,1.34,3.62,3.23l1.88,32.91c.09,1.61,1.29,2.94,2.88,3.19l38.6,6.13c1.59.25,2.79,1.58,2.88,3.19l2.23,39.02c.09,1.61,1.29,2.94,2.88,3.19l38.6,6.13c1.59.25,2.79,1.58,2.88,3.19l2.5,43.8c.11,1.89-1.34,3.51-3.23,3.62l-6.67.38c-1.89.11-3.51-1.34-3.62-3.23l-1.88-32.92c-.09-1.61-1.29-2.94-2.88-3.19l-38.6-6.13c-1.59-.25-2.79-1.58-2.88-3.19l-2.23-39.02c-.09-1.61-1.29-2.94-2.88-3.19l-38.6-6.13c-1.59-.25-2.79-1.58-2.88-3.19Z"/>
  </g>
</svg>