<?xml version="1.0" encoding="UTF-8"?>
<svg id="Layer_2" data-name="Layer 2" xmlns="http://www.w3.org/2000/svg" viewBox="0 0 101.87 55.01">
  <defs>
    <style>
      .cls-1 {
        fill: #ffe100;
        stroke: #000;
        stroke-miterlimit: 10;
      }
    </style>
  </defs>
  <g id="Design">
    <path class="cls-1" d="M28.35,54.48l-26.14-4.56c-1.13-.2-1.88-1.27-1.69-2.4l.69-3.98c.2-1.13,1.27-1.88,2.4-1.69l19.64,3.43c.96.17,1.91-.36,2.28-1.26l8.93-21.89c.37-.9,1.32-1.43,2.28-1.26l23.29,4.06c.96.17,1.91-.36,2.28-1.26L71.24,1.79c.37-.9,1.32-1.43,2.28-1.26l26.14,4.56c1.13.2,1.88,1.27,1.69,2.4l-.69,3.98c-.2,1.13-1.27,1.88-2.4,1.69l-19.64-3.43c-.96-.17-1.91.36-2.28,1.26l-8.93,21.89c-.37.9-1.32,1.43-2.28,1.26l-23.29-4.06c-.96-.17-1.91.36-2.28,1.26l-8.93,21.89c-.37.9-1.32,1.43-2.28,1.26Z"/>
  </g>
</svg>