<?xml version="1.0" encoding="UTF-8"?>
<svg id="Layer_2" data-name="Layer 2" xmlns="http://www.w3.org/2000/svg" viewBox="0 0 54.84 47.95">
  <defs>
    <style>
      .cls-1 {
        fill: #ff37ce;
      }

      .cls-2 {
        fill: none;
        stroke: #000;
        stroke-miterlimit: 10;
      }

      .cls-3 {
        fill: #6c47dc;
      }
    </style>
  </defs>
  <g id="Design">
    <g>
      <g>
        <path class="cls-1" d="M53.43.54c.61-.21,1.14.46.8,1.01l-22.23,35.23c-.04.06-.09.12-.15.16-.56-1.42-8.49-24.79-8.88-25.92.06-.05.14-.09.21-.12L53.43.54Z"/>
        <path class="cls-3" d="M22.98,11.02c.38,1.13,8.31,24.51,8.88,25.92-.06.05-.13.09-.21.12L1.4,47.41c-.61.21-1.14-.46-.8-1.01L22.84,11.18c.04-.06.09-.11.14-.16Z"/>
      </g>
      <g>
        <path class="cls-2" d="M31.86,36.94c-.06.05-.13.09-.21.12L1.4,47.41c-.61.21-1.14-.46-.8-1.01L22.84,11.18c.04-.06.09-.11.14-.16.06-.05.14-.09.21-.12L53.43.54c.61-.21,1.14.46.8,1.01l-22.23,35.23c-.04.06-.09.12-.15.16Z"/>
        <path class="cls-2" d="M31.87,36.98s-.01-.02-.02-.04c-.56-1.42-8.49-24.79-8.88-25.92v-.04"/>
      </g>
    </g>
  </g>
</svg>